<svg xmlns="http://www.w3.org/2000/svg" width="512" height="300"><path fill="#FFF" d="M506.884 31.484L481.234 5.84C477.818 2.417 473.88.71 469.43.71c-4.439 0-8.374 1.708-11.794 5.132L256.001 207.458 54.38 5.841c-3.42-3.423-7.355-5.13-11.8-5.13-4.448 0-8.383 1.707-11.801 5.132L5.132 31.495C1.707 34.91 0 38.845 0 43.293c0 4.444 1.712 8.38 5.132 11.797l239.072 239.076c3.414 3.42 7.353 5.128 11.799 5.128 4.445 0 8.373-1.707 11.791-5.128L506.884 55.09c3.418-3.42 5.116-7.355 5.116-11.797 0-4.447-1.7-8.382-5.118-11.806l.002-.003z"/></svg>