<svg xmlns="http://www.w3.org/2000/svg" width="513" height="300"><path fill="#FFF" d="M5.243 268.624l.002-.003c-3.418-3.423-5.117-7.359-5.117-11.806 0-4.442 1.698-8.377 5.115-11.797L244.333 5.942c3.418-3.42 7.346-5.128 11.792-5.128s8.384 1.709 11.799 5.128l239.072 239.076c3.42 3.418 5.132 7.353 5.132 11.797 0 4.447-1.708 8.383-5.132 11.799l-25.648 25.65c-3.418 3.426-7.353 5.133-11.8 5.133-4.446 0-8.382-1.707-11.801-5.13L256.127 92.65 54.492 294.267c-3.42 3.425-7.355 5.132-11.793 5.132-4.451 0-8.388-1.707-11.806-5.132l-25.65-25.643z"/></svg>