<svg width="15" height="15" xmlns="http://www.w3.org/2000/svg"><path d="M9.199 9.199c.79-.79 1.186-1.74 1.186-2.853 0-1.111-.395-2.062-1.186-2.853-.79-.79-1.74-1.185-2.853-1.185-1.111 0-2.062.395-2.853 1.185-.79.79-1.185 1.742-1.185 2.853 0 1.112.395 2.063 1.185 2.853s1.742 1.186 2.853 1.186c1.112 0 2.063-.395 2.853-1.186zm5.467 3.836c.223.222.334.493.334.811 0 .313-.114.583-.343.811a1.107 1.107 0 01-.81.342c-.326 0-.595-.114-.812-.342l-3.092-3.083a6.172 6.172 0 01-3.597 1.118 6.23 6.23 0 01-2.465-.5 6.332 6.332 0 01-2.028-1.352A6.339 6.339 0 01.5 8.811 6.234 6.234 0 010 6.346c0-.859.167-1.68.5-2.465a6.334 6.334 0 011.353-2.028A6.319 6.319 0 013.88.5 6.225 6.225 0 016.346 0c.86 0 1.682.166 2.466.5a6.33 6.33 0 012.028 1.353 6.35 6.35 0 011.352 2.028c.334.785.5 1.606.5 2.465 0 1.322-.373 2.52-1.118 3.597l3.092 3.092z" fill="#005ea2" fill-rule="evenodd"/></svg>