<svg data-name="Layer 1" xmlns="http://www.w3.org/2000/svg" viewBox="0 0 628.17 152.05"><path d="M73 113.49q0-5.11 5.19-5.11h12.42q5.19 0 5.19 5.15v4.12q0 33-33.21 33h-28q-33.21 0-33.21-32.9V74.53q0-32.9 33.21-32.9h28q33.21 0 33.21 32.95v4.12q0 5.15-5.19 5.15H78.16q-5.16 0-5.16-5.11v-3.07q0-6.13-3.63-9.71t-9.86-3.58H37.68q-6.23 0-9.86 3.58t-3.63 9.71v40.88q0 6.13 3.63 9.71t9.86 3.58h21.8q6.23 0 9.86-3.58t3.66-9.7zm47.71-38.96q0-32.9 33.21-32.9H184q33.21 0 33.21 32.9v43.18q0 32.89-33.21 32.9h-30.1q-33.21 0-33.21-32.9zm22.83 42q0 6.13 3.63 9.71t9.86 3.58h23.87q6.23 0 9.86-3.58t3.63-9.71V75.68q0-6.13-3.63-9.71t-9.86-3.58H157q-6.23 0-9.86 3.58t-3.63 9.71zm172.27-73.86V9.33q0-5.05 5.19-5.05h12.45q5.19 0 5.19 5.19v134.91q0 5.19-5.19 5.19H321q-5.19 0-5.19-5.43v-5.44h-1a19.33 19.33 0 01-4.57 6 28.11 28.11 0 01-6.43 4.07 22.58 22.58 0 01-9.81 1.83h-16.59q-33.21 0-33.21-33.21V75.88q0-33.2 33.21-33.21zm0 20.76h-35.29q-6.23 0-9.86 3.63T267 76.92v39.44q0 6.23 3.63 9.86t9.86 3.63h17.64q7.88 0 12.77-4.88t4.88-12.77zm123.49 55q0-5.19 5.19-5.19h12.45q5.19 0 5.19 5.19 0 15.57-8.41 23.87t-24.8 8.3h-28q-33.21 0-33.21-32.9V74.53q0-32.9 33.21-32.9h28q33.21 0 33.21 32.66V98.8q0 5.11-5.19 5.11h-66.41v12.45q0 6.23 3.63 9.86t9.86 3.63h23.87q11.41 0 11.41-11.42zm-48.77-34.24h48.77v-8.92q0-5.95-3.63-9.41t-9.86-3.47H404q-6.23 0-9.86 3.47t-3.63 9.41z" fill="#485567"/><rect x="485.66" y="126.41" width="139.23" height="24.13" rx="3" ry="3" fill="#0ac0bb"/></svg>