<svg xmlns="http://www.w3.org/2000/svg" viewBox="-0.02 -0.02 1.04 1.04" width="600" height="600"><circle cx=".5" cy=".5" r=".5" fill="#FFF" stroke="#E9CC1B" stroke-width=".01"/><circle cx=".5" cy=".5" r=".432" fill="#FFF" stroke="#005696" stroke-width=".1"/><path fill="#E9CC1B" d="M.928.574L.903.58l.022.014zM.954.555L.95.577C.95.574.95.571.947.571H.941L.93.573.929.596l.01.006H.94C.944.605.945.6.945.599h.002L.944.615H.943C.943.613.943.612.94.61L.931.602.89.577V.575L.943.562C.95.56.951.559.953.555zM.902.617H.895v.001H.891L.89.62H.889L.887.622v.001H.885v.002H.883v.002H.882L.881.63v.002a.02.02 0 000 .014A.044.044 0 00.9.658C.918.664.93.657.932.646A.028.028 0 00.93.625L.932.624s.008.01.003.025C.93.663.918.675.897.668A.029.029 0 01.877.63C.88.623.886.618.886.617c0 0 .001-.003-.001-.005V.61l.02.005zM.908.71V.707L.91.706V.7H.907L.906.698H.904V.697L.868.682C.863.679.862.68.86.686H.856l.01-.024H.87C.867.67.866.672.873.675L.908.69c.006.003.008 0 .01-.005L.92.686.91.71zM.86.736L.862.734.863.733V.732h.001V.73L.865.729V.726h.001v-.01H.863V.714H.862V.713H.861V.712H.86V.711C.85.706.844.716.842.719.84.723.84.724.842.725zM.907.717L.9.73.866.734.863.738l.015.009C.883.749.885.75.89.744L.878.767.877.764C.88.758.878.757.873.754L.84.734C.835.731.833.732.83.737L.828.736l.013-.02C.844.707.854.696.865.703.875.71.871.72.87.725L.898.721A.01.01 0 00.905.716zM.87.777L.84.813C.842.807.843.805.838.8L.808.777C.801.773.8.774.795.778L.825.74l.01.008L.832.75C.826.746.823.747.817.755L.81.765c-.001 0-.002.001 0 .003L.825.78.834.77C.839.764.838.762.834.757V.756L.85.768V.77C.842.766.84.767.836.772l-.009.01.017.014C.848.798.848.798.856.788.863.78.864.775.86.766L.861.764zM.795.78L.793.783v.001H.792V.79h.003v.001h.001l.026.03c.005.004.007.004.011 0l.001.001L.815.84.814.837C.819.833.819.831.814.826L.788.796l.016.052V.85L.754.83l.023.025c.006.007.009.007.014.003l.001.001-.015.014V.871C.78.866.782.864.776.857L.752.83C.747.825.745.826.74.83V.828L.751.817l.045.02L.78.79.794.779zM.737.87L.716.856.72.882zm.031.007L.75.89C.75.887.754.885.752.883A.018.018 0 00.748.879L.74.874.72.886l.003.01V.9C.727.903.73.9.732.9L.718.91V.89L.71.845.712.844l.045.03C.763.88.764.88.767.878zm-.093.03V.905H.673V.903H.672V.902H.67V.901H.663L.65.909l.007.017c.003.006.005.007.01.005L.67.93.647.94V.938C.652.936.652.934.65.928L.636.892C.633.886.63.886.626.888V.886L.668.87l.004.012H.671C.667.876.665.876.656.879L.645.882C.642.883.642.884.643.886L.65.904.662.9C.669.897.669.895.668.888H.67l.007.018zM.62.917V.913L.616.91.615.907V.905L.613.904V.903L.612.902.61.9.609.899H.608V.897H.605V.896H.603V.895H.596C.585.898.578.907.582.926c.004.02.015.025.024.022C.617.946.624.937.62.918zm-.046.01V.913h.001V.908L.576.905h.001V.904L.58.902V.9h.001L.582.899.583.898.585.897.588.895H.59L.591.893h.002L.594.892C.608.89.624.896.63.916.634.934.624.948.61.952.592.955.577.947.572.929zM.535.922H.533C.531.914.526.906.516.906.512.906.507.91.508.915c0 .013.03.014.03.032C.538.954.533.963.52.963L.506.961C.505.96.504.962.504.964H.502L.499.945H.5C.502.95.507.96.519.96.526.96.53.955.53.95S.528.942.515.935C.506.931.5.927.5.918.5.908.508.903.516.903c.005 0 .01.003.012.002C.53.905.53.903.53.902h.002zm-.051.04L.437.958V.956c.005 0 .008 0 .008-.007L.45.911C.449.904.447.903.442.9l.046.004v.012H.484c0-.008-.002-.01-.012-.01L.46.904c-.002 0-.003 0-.003.003l-.002.02H.47C.477.93.479.929.48.922h.002L.48.941H.478C.478.935.476.934.47.933L.456.931.454.953c0 .003 0 .003.012.004.011.001.016 0 .02-.01L.49.949zM.415.954L.39.948V.946C.4.948.4.946.4.94L.41.897.407.896C.396.894.394.895.39.904H.388L.392.888l.048.01-.003.015H.435C.435.904.433.902.424.9L.419.899.41.942C.408.948.41.95.416.952zM.365.916L.364.89.346.91zm.013.03L.358.937V.936c.003.001.006.002.007 0V.92L.343.912.336.921.334.924C.333.927.337.928.338.929v.002L.322.925V.923h.005l.01-.01L.37.88h.002l.003.055c0 .007.001.008.005.01zm-.07-.03L.286.906V.904C.294.908.295.906.298.9l.02-.039L.314.86C.305.855.302.855.296.863L.294.862.302.849l.043.023L.34.885H.337C.34.874.34.871.33.867L.326.866l-.02.04C.301.91.302.911.308.915zM.284.858L.283.857C.286.85.285.84.278.835.274.833.269.832.266.837.258.847.282.866.27.88.267.887.257.89.247.883.242.879.24.874.237.873H.233L.241.855h.001c0 .005-.004.017.006.024C.254.884.26.882.262.878.265.874.266.87.26.858.255.847.253.841.258.834A.015.015 0 01.279.832c.005.003.007.008.009.01L.292.84h.002zM.176.81H.174v.005h.001c.004.005.02.02.038.003a.025.025 0 00.008-.02C.222.793.221.788.213.78.21.777.209.778.208.78zM.16.8l.001.001h.001v.001h.001v.001H.17V.802L.171.801.2.773C.204.77.204.77.2.764L.202.761.217.78C.232.794.235.811.22.825.212.833.195.84.176.82L.16.803zM.15.791L.124.753V.752C.128.756.13.758.135.754L.167.73C.173.727.172.725.169.721L.17.718l.027.038-.01.007C.191.757.19.755.185.747L.179.737C.178.736.177.735.175.737l-.016.01.008.012C.17.765.174.764.179.762L.18.763.164.775.163.773C.168.77.168.767.163.761L.157.75.14.762C.136.764.135.764.143.775c.007.009.011.011.02.009l.002.002zM.113.734L.1.711h.002c.004.006.006.006.012.003l.038-.02L.15.688C.146.681.143.68.134.682L.133.68.146.674.17.717.156.725V.723C.162.717.162.713.158.705L.156.701.117.722C.112.725.111.727.114.733zM.083.668h.001V.67l.001.001v.001h.001l.001.001h.006L.13.657C.136.656.136.654.134.647h.002l.01.024H.143C.14.665.14.664.134.666L.096.681C.091.683.091.685.093.69L.091.693.081.668zm.05-.023H.131V.642L.13.641V.64H.12L.074.652V.651L.11.6.078.61C.069.612.068.614.069.62L.067.622.062.601h.002c.002.006.004.008.013.005l.037-.01C.117.59.117.59.116.586h.002l.004.015L.09.644.118.636c.01-.002.01-.005.009-.01L.129.624l.005.02zM.115.585V.581L.114.58H.113V.578H.111V.577H.104L.08.581C.074.58.058.583.056.56.053.538.07.536.076.536L.103.534C.109.533.11.532.11.524L.114.55H.112C.112.544.11.543.104.543L.076.546C.07.546.058.547.06.562c0 .007.004.012.008.014H.08L.104.575c.01 0 .01-.003.01-.01h.002l.002.02zM.883.35L.862.31h.001c.003.004.005.006.01.003L.909.294C.914.291.914.289.912.284L.913.283l.022.041L.924.33.923.328C.929.323.929.321.925.312L.919.302C.92.3.918.299.915.3L.898.31l.006.01C.908.328.91.328.916.326v.002L.9.337.898.335C.904.331.904.33.9.323L.895.311l-.02.01C.873.322.873.322.879.334c.005.01.01.012.02.012v.002zM.854.298L.84.278.841.275c.005.007.007.006.012.002L.89.254.887.25C.882.242.879.24.87.244L.869.243.88.235l.028.04-.012.01V.282C.903.276.903.273.897.265L.895.26.858.286C.853.29.852.291.856.297zM.841.242L.852.218.827.226zM.838.273L.824.256h.001C.827.257.83.26.832.257L.835.253.839.245.824.228.814.23A.009.009 0 00.81.233C.808.235.81.238.811.24L.798.229.8.226C.801.228.802.23.805.23S.815.227.818.225L.863.211v.001L.84.262C.837.267.837.268.84.271zM.794.223L.774.207.777.205c.006.005.008.004.012 0l.03-.033L.814.169C.807.162.804.162.796.168L.795.166l.01-.01.037.033L.832.2H.83C.836.19.835.188.828.18L.824.178.794.21C.79.215.79.217.794.222zM.784.162L.781.159C.784.153.784.143.777.138a.008.008 0 00-.012.001C.758.15.78.17.77.183.765.189.756.193.745.185.74.181.738.176.736.175a.003.003 0 00-.004 0H.731L.739.157h.002C.74.164.737.176.747.183.752.186.758.184.76.18.764.176.764.173.758.16.755.15.752.143.758.136.762.13.771.13.777.134c.005.004.007.009.009.01h.006zM.71.137v-.01H.708L.707.126H.706V.125H.705L.694.12.686.137C.683.143.684.145.69.147L.689.15.667.14V.136C.675.14.676.139.679.132L.695.098C.698.092.697.091.692.088V.087l.042.02L.73.12.727.118C.73.11.728.108.72.103L.71.098C.707.097.706.098.705.1L.696.117l.011.006C.714.126.716.125.72.119L.722.12l-.01.018zM.665.107V.105L.667.103V.1h.001V.085L.665.084V.083H.664V.08H.662V.078H.66V.076H.658L.655.074C.648.072.636.075.63.095.624.113.63.123.639.126.648.13.659.125.665.106zM.62.09h.001V.088L.623.086V.085L.624.083.627.08.629.079V.078L.63.077.631.076.633.075.636.073h.001L.64.071.643.07h.012l.002.001c.014.006.024.02.017.039C.668.127.653.134.638.13.623.123.614.108.62.09zM.577.112L.552.108V.107C.56.107.56.105.562.099L.567.056H.563C.553.053.551.055.548.063H.546L.548.049l.05.007-.003.015H.593C.593.061.591.059.581.058H.576L.57.1c0 .006 0 .008.007.01zM.539.05H.534L.533.052H.532v.001L.531.054v.003H.53v.051H.528L.49.059v.034c0 .009 0 .01.007.011v.002h-.02V.103C.484.104.486.102.486.093V.054C.484.05.483.049.479.049V.048h.015L.526.09V.061C.527.051.526.051.52.05V.048h.02zM.473.106L.426.112V.11C.432.11.434.108.433.102L.428.063C.428.056.425.056.419.056V.055L.465.049l.002.012H.465C.463.054.46.053.451.054L.439.056c-.002 0-.003 0-.003.003l.003.02.013-.003C.46.076.461.073.461.067h.002l.002.02H.463C.461.08.46.08.453.08L.439.082l.003.021c0 .004 0 .004.013.002C.466.104.47.101.473.091h.002zM.41.057H.408v.001H.406V.06H.404v.001H.403v.006l.011.037C.417.111.42.111.425.11L.402.118V.116C.407.114.407.113.405.106L.396.068.388.122H.387L.353.082l.009.034c.002.009.005.01.01.008l.001.002-.02.006V.13C.36.128.361.126.358.117L.348.083C.348.076.346.076.339.078V.076L.355.071l.031.037L.393.06.409.056zM.342.138L.32.148C.325.142.324.141.321.135L.304.096.3.098C.29.102.29.104.292.114H.29L.284.102.329.08l.007.013H.334C.328.088.325.087.316.09L.312.092l.019.04C.333.139.335.14.34.137zm-.08.008h.001L.266.144V.143h.002V.142h.001V.141H.27V.14h.002V.139h.001V.137h.001L.275.134V.126L.272.124C.267.115.257.121.253.123.25.125.25.126.252.128zm.05.005L.3.16.268.147.264.149l.009.015c.003.005.004.006.01.003l.001.001-.02.013L.263.179C.269.175.268.173.265.168L.245.135C.242.13.24.13.235.133L.233.13.254.12c.007-.005.02-.011.027 0a.014.014 0 01-.006.02l.027.01c.003.001.006.002.009 0zm-.08.027L.207.166.216.19zm.03.002L.246.195.245.194C.247.192.249.19.247.187L.243.184.234.18.217.195l.003.01a.01.01 0 00.002.003c.002.003.005 0 .007-.001v.001L.217.22V.218a.005.005 0 000-.004A.07.07 0 00.214.2L.201.155h.002L.25.178c.006.003.008.003.011 0zM.18.216h.001V.214h.001V.213h.001V.212h.001C.186.21.194.201.185.192c-.01-.01-.018 0-.02.003C.161.197.161.198.163.2zM.148.208L.164.19C.173.182.184.178.191.186c.005.004.005.01.005.012 0 .005-.002.01-.009.016L.183.22l.011.01C.2.235.201.235.206.23L.19.248.188.247C.193.24.192.24.188.235L.16.21C.156.204.154.204.15.209zm.039.044l-.03.037V.288C.16.283.16.28.155.278L.124.253C.119.249.117.25.114.254H.111L.14.217l.01.007v.002C.142.222.139.223.133.231l-.007.01s-.002.002 0 .004l.016.011.009-.01C.155.24.154.237.15.233V.23l.016.013-.001.001C.16.242.158.242.153.248l-.008.01.017.014C.165.274.165.274.173.264.18.254.18.25.176.24h.001zM.13.324h.004V.322L.136.321C.138.315.15.296.127.284A.025.025 0 00.106.282C.1.284.096.287.09.297.088.3.09.3.091.302zM.126.34L.128.338V.332H.125V.331H.124L.123.33.088.31C.084.308.082.308.08.314L.077.313.09.293C.099.273.114.266.13.276c.01.005.022.02.009.043L.128.342z"/><path fill="#FFD400" d="M.926.418l.005.015h.016l-.01.009.005.017-.014-.01-.015.01L.92.443.906.433h.016zm-.853 0l.005.015h.016L.082.441l.006.017-.014-.01L.06.46.065.443.052.433h.016z"/><path fill="#069C42" stroke="#000" stroke-width=".004" fill-rule="even-odd" d="M.297.64A.03.03 0 01.29.655M.26.667a.054.054 0 00-.036.008L.23.673h0L.233.671h0L.235.67h.001v0h.003V.668H.24L.26.667C.256.664.241.66.237.657M.22.62h.003v.001h.001l.001.001h.001v.001h.001v.001h.001v.001H.23v.001h0v.003h0l.01.013C.236.64.224.627.215.625H.207M.216.623h.001V.621H.22V.62h0v0h0v0h0v0-.001 0h0V.617v0A.005.005 0 00.217.613.005.005 0 00.21.618c0 .002.002.005.005.005zM.29.656h0v.001h0L.288.659h0-.001V.66h0-.001 0L.285.662h0v.001H.284h0v.001H.283v.001C.28.67.284.674.287.673.289.673.288.671.289.668V.663L.291.658zM.297.638h0V.636h.001V.635H.3V.634h0V.633v0L.303.632V.631h.001V.63h0L.305.628h0L.306.627h0L.307.626h.001V.625L.321.62C.325.62.324.618.33.617l-.005.01L.32.64a.055.055 0 01-.018.017.019.019 0 00-.008.007c.005-.003.008 0 .008.004C.302.674.295.673.294.67S.29.674.291.676C.293.679.295.679.3.681L.292.688C.292.686.285.682.282.681L.279.683a.09.09 0 010 .028C.277.725.263.737.258.742A.01.01 0 00.257.735V.713a.059.059 0 01-.022.01L.238.705C.238.699.25.692.253.69L.248.689C.246.686.248.685.25.683s.007.001.006.005L.264.683C.26.68.261.676.266.675.27.675.27.678.27.681L.277.677C.276.675.274.676.272.674a.008.008 0 00-.01 0C.257.676.247.686.241.69a.04.04 0 01-.027 0S.219.688.221.682C.22.679.224.678.227.676H.224C.216.676.207.668.204.665c0 0 .006 0 .009-.004C.217.657.233.657.237.657L.232.655C.229.65.232.647.236.647S.241.65.241.653l.01.005C.25.654.244.64.231.645.22.648.206.642.203.641a.04.04 0 01-.01-.008C.188.632.181.634.187.63A.028.028 0 01.203.625L.198.622.192.62.18.607A.033.033 0 01.198.603c.006.001.005.002.008.003C.206.605.204.605.204.602S.21.597.212.598s0 .008 0 .009l.01-.001C.22.603.222.596.21.59.19.583.193.586.18.571A.06.06 0 01.176.55l.007.006c.003.005.01.006.017.01A.072.072 0 01.22.59.057.057 0 00.21.565.055.055 0 01.2.54.08.08 0 01.207.512c0 .002.002.001.012.019S.22.554.22.562V.57.559A.04.04 0 00.223.546C.225.536.237.525.243.52a.047.047 0 01-.01.042C.23.563.23.566.23.568v.005C.222.578.222.587.223.597l.003.009A.037.037 0 01.224.592l.004-.01a.03.03 0 00.006-.01S.23.572.23.568s0-.006.003-.005c.002 0 .005.002.005.006A.11.11 0 01.251.556.058.058 0 01.25.582a.17.17 0 01-.017.023C.23.607.23.613.23.617c.001.005.005.007.007.011L.24.626c0-.003 0-.004.003-.004s.004 0 .006.002a.011.011 0 01-.003.008c-.001.003 0 .004.002.01 0 .004.005.007.008.013L.254.647A.09.09 0 01.251.63.04.04 0 01.258.604L.27.59c0 .003.006.027.005.033C.272.629.269.64.266.643.263.646.262.647.26.652.262.649.264.647.268.647c0 0 .007 0 .002.009L.266.658c0 .006.01.009.01.009C.278.667.28.66.28.66.277.663.27.663.27.658S.274.653.28.654C.279.65.274.645.275.636c0-.008.008-.019.01-.022A.082.082 0 00.297.6l.001.008C.3.61.3.628.298.632zm.035.087c.01.014.011.03.01.045-.001.01.006.013.01.014.002 0 .008.004.01.006 0 .001.003.003.003-.002A.264.264 0 00.354.746a.078.078 0 00-.017-.03C.336.722.332.727.332.727zm-.09-.11h.002V.613h.001V.612h.001V.611h0v0h0V.61h.001v0A.005.005 0 00.242.604.005.005 0 00.236.61c0 .003.003.005.006.005zm-.03.043h.002V.656h.002V.655h0v0h.001V.654v0h0V.653v0h0v0-.001 0A.005.005 0 00.214.647a.005.005 0 00-.005.004c0 .003.002.006.005.006zm.065.025L.276.685h0-.001L.274.686h0L.272.687h0L.271.689h0L.27.69v0h0v.002h0L.268.694h0L.267.696v.002H.266V.7H.265v.002L.263.703a.026.026 0 01-.008.01"/><path fill="#BCBDBF" stroke="#000" stroke-width=".004" d="M.817.589L.734.681m.03-.088L.784.57.779.6.773.593zm.021-.01l.02-.016-.009.025L.792.585zM.728.617L.74.589l.003.03L.736.614zM.736.614L.724.675m.01.009L.78.655M.74.69L.796.637M.789.634L.814.619.8.645.796.637zM.782.617L.733.68M.761.574L.777.55.775.58.77.574zM.744.596L.759.571V.6L.751.595zm.05-.044L.814.53.807.56.802.553zm.014.01L.83.543l-.008.03-.006-.01zM.81.586L.834.568.822.596.818.587zm.003.017L.834.587.823.611.82.604zM.77.575L.73.677M.801.553L.73.68m0 0L.815.564m-.04.05l.02-.016-.009.025L.783.616zm.018.003l.02-.016-.01.024L.8.618zm-.02.034L.798.64.781.664.779.655zm-.098.09L.68.749.667.772.663.76.652.762l.015-.02zm.01 0L.69.748.68.772.676.762l-.01.002.013-.022zm.022.013L.712.76.707.785.7.776.69.781.7.757zm-.032.01L.67.773h.01L.69.755h.002L.688.749l-.01.023zM.698.752L.702.76.694.784.69.774.68.778.69.755zM.666.74l.001.01-.016.02L.65.758H.64L.656.74zm0-.011L.65.74m.006.008L.695.716M.666.728v.009L.664.74H.657L.645.75H.644L.645.747.635.745.657.727l.009.001.028-.02m.018.025L.705.766M.707.729L.692.77M.698.72l-.02.035M.674.741L.697.717"/><path fill="#F2C007" stroke="#000" stroke-width=".004" d="M.33.704v0H.328v0h0-.001 0-.001 0-.001 0-.001 0-.001 0v.001H.322h0L.321.707h0L.32.708h0v.001h0C.313.716.306.72.305.726a.01.01 0 00.013.01C.329.732.332.723.335.719A.033.033 0 00.337.707M.32.694h0-.001 0-.001 0-.001 0V.692h0-.001 0-.001 0-.001 0-.001 0a.066.066 0 00-.017.015c0 .002-.004.008 0 .011.002.003.008.004.01.003M.313.68h0-.001 0H.31V.677h0-.001 0-.001 0-.001 0-.001 0-.001 0L.304.68h0-.001 0-.002 0L.3.682h0L.285.697C.283.705.29.711.296.71M.311.678c0-.002.002-.004.004-.006A.02.02 0 01.324.668m.044.04a.376.376 0 01-.031 0M.317.693C.32.692.32.688.318.686m.396.005C.711.69.711.686.712.685.707.692.72.685.737.707A.008.008 0 00.745.696.092.092 0 00.731.68V.679H.73h0L.728.677h0-.001V.676h0-.001 0-.001V.675h0-.001 0-.001 0-.001 0-.001 0H.72h0-.001 0-.001v.001-.001h0V.674h0L.716.673h0V.672h0L.715.671h0V.67H.714v0H.713V.668H.712V.667H.711V.666H.71h0-.001V.665H.708h0-.001 0-.001 0-.001 0-.001 0-.001 0-.001 0H.7v.003h0-.001C.686.674.694.69.696.69H.67C.648.689.654.698.666.707A.524.524 0 00.695.706v.002h0v0h0V.71h0v0h0v0h0v.001h0v.001h0v.001h0v.001h0v0h0v.001h0v0h.001v.001C.699.72.703.73.713.733a.01.01 0 00.013-.01C.726.719.718.713.712.707.707.702.704.7.702.702.706.696.716.713.725.72c.002.001.008 0 .01-.003.003-.003 0-.009 0-.01A.063.063 0 00.719.691h0-.001 0-.001 0-.001 0-.001 0-.001 0-.001 0-.001 0H.71M.361.692L.334.689C.341.675.335.673.333.67.33.667.32.664.312.678.298.678.285.695.285.702.286.71.292.71.295.71c-.002.007 0 .014.01.013 0 .007.007.015.015.012A.042.042 0 00.335.719C.337.715.337.709.337.709V.708h.03c0-.002.007-.015.014-.015C.37.695.36.693.36.691z"/><path stroke="#000" stroke-width=".004" d="M.697.683h0v0h0v.001h0v0h.001v.001h0L.7.687h0v0h0v.001h.001v.001h0c0-.003 0-.004.002-.007L.705.677s0-.004-.003-.005C.698.67.697.673.696.677zm-.003.02v0-.001 0V.7h0v0h0v0L.696.698v0h0v0-.001h0v0h0V.696h0L.7.703l.004.002s.002.004 0 .006C.7.714.699.712.696.709zm0 0v0-.001 0V.7h0v0h0v0L.696.698v0h0v0-.001h0v0h0V.696h0L.7.703l.004.002s.002.004 0 .006C.7.714.699.712.696.709zM.7.693h0v0H.697v0h0v0-.001 0h0v0h0v0H.7V.69h.01l.001.001h.001v.001h0c.004.005 0 .01-.004.01C.706.702.706.7.704.698A.02.02 0 00.7.692zM.716.686h0v0h0v0h0v0h0v0h.001L.719.685h0L.72.684h0V.683h0v0-.001 0-.001h0v0h0v0V.68v0h0v0h0C.714.671.703.681.703.681s.006 0 .008.003zm0 0h0v0h0v0h0v0h0v0h.001L.719.685h0L.72.684h0V.683h0v0-.001 0-.001h0v0h0v0V.68v0h0v0h0C.714.671.703.681.703.681s.006 0 .008.003zM.322.69v0h0v0h0v0h0v0h.001v0h.002V.688h.001L.328.687h0L.329.686h0L.33.685h0V.684h0V.683h.001V.682h0v0-.001 0h.001v0V.68h0v0C.332.674.325.675.324.676v.005c0 .002 0 .007-.002.009zm.013.022h0v0h0v0h0v0H.333v0h0v0h0-.001 0-.001 0H.33h0v0C.326.713.325.71.328.708L.334.699a.012.012 0 01.002.01zM.333.694h0v0h.001v0h0v0h0v0h0-.001 0V.692h0-.001 0H.33h0-.002 0-.001 0-.002 0-.002 0-.001 0L.32.695h0v.001h0C.315.701.321.704.322.703.325.703.325.703.327.7A.02.02 0 01.333.694zM.316.687h0v0h0v.001h0-.001v0h0v0h0-.001v0h0v0h0v0H.312h0-.001 0H.31h0v0h0v0h0v0C.308.686.307.683.31.68.315.676.32.68.323.684c.003.004-.001 0-.006.001zm0 0h0v0h0v.001h0-.001v0h0v0h0-.001v0h0v0h0v0H.312h0-.001 0H.31h0v0h0v0h0v0C.308.686.307.683.31.68.315.676.32.68.323.684c.003.004-.001 0-.006.001z"/><path fill="#BCBDBF" d="M.478.704H.476L.475.706.474.707.471.709V.71H.47L.469.712H.468L.465.715H.463C.459.72.45.728.455.726h.014l.004.001-.006.01L.464.74.469.737l.01-.004L.486.73C.481.736.481.74.48.742L.476.75C.483.746.481.744.486.744L.493.74h.002L.491.756V.76L.498.751.506.748h.002L.506.76C.51.766.52.765.524.76V.75C.527.752.537.753.54.758A.48.48 0 00.535.742c.007.002.009.004.01.006C.549.75.554.75.554.75L.548.736.562.74c.003.003.006.001.006.001L.562.732C.557.724.558.727.558.727h.013L.578.73.576.726C.573.721.556.706.554.704L.544.703C.55.71.551.713.548.715.545.718.538.713.538.713.54.72.54.727.537.73.533.73.522.717.522.715c0 .008 0 .018-.006.02C.511.736.51.733.51.728L.508.72C.5.727.499.73.494.728.49.726.491.72.491.718L.496.71C.489.717.487.717.484.714a.005.005 0 010-.008L.486.7.478.704z"/><path fill="none" stroke="#000" stroke-width=".004" d="M.509.732h0v.002h0v.004L.507.74v.007L.506.749v.008L.505.762V.77L.504.773v.024c0 .01.004.036.01.037C.52.833.524.806.524.796A.42.42 0 00.522.73M.504.723L.502.727.5.73.498.735.497.739.495.743v.004L.492.75v.005L.49.759v.008L.488.77v.004L.487.778V.78L.486.785v.031h0v.001h0C.49.835.503.795.505.792M.49.722L.488.725.487.728.485.731.483.734.482.738.48.74v.005L.477.748V.75L.474.755v.004L.473.762v.004L.47.769v.007L.469.779v.003L.467.785v.003L.466.79v.003L.465.795V.8L.464.801v.003h0v0c0 .017.02-.024.023-.027M.483.716L.481.718.478.721.476.724.473.727.471.73.47.733.467.736.465.739.463.74.462.745.46.748V.75L.457.753.456.756.454.76v.003L.451.765v.002L.45.77v.002L.447.774V.78L.445.782v.005h0v.001H.443C.439.805.468.77.471.768M.477.704L.474.706.472.708.469.71.466.712.464.715.462.717.459.72.457.723.455.725.452.728.45.731.448.734.446.736.444.74H.443L.44.744v.003L.438.749.437.75.435.754.434.756.433.758.432.76H.43v.004L.428.765h0v.001H.427h0v.001h0v0h0v0C.42.783.454.753.458.75M.526.722l.002.004L.53.73l.002.004.002.004v.004l.002.004.001.004.001.004.001.004.001.004.001.004v.003l.001.004v.004L.544.78v.01l.001.003v.023C.541.834.527.794.525.79M.54.722l.002.002.001.003.002.003.002.003.002.004L.55.74l.001.004.002.003.001.003.001.004.001.004.001.003.001.004.001.003.001.003v.004l.002.003v.006l.001.003V.79l.001.002v.002l.001.002v.007h.001v0C.566.82.546.78.543.777M.55.717L.552.72l.003.003.002.003.002.002.002.004.002.003.002.002.002.003.002.004.001.003.002.002.001.003.002.003.001.003.001.003.001.003.001.002L.58.77h.001v.002l.002.003v.003L.584.78l.001.002v.002l.001.001h0v.001C.591.803.563.77.56.767M.554.704l.004.003.002.002.003.002.003.003.002.002.003.003.002.002.003.003.002.002L.58.73h.002l.002.003.002.002.001.003L.59.74l.002.003.001.002.001.002.002.002v.002l.002.002v.002L.6.758V.76h0v.001l.002.001v.002h0v.001h0C.61.78.578.753.573.75"/><path fill="#81572E" d="M.588.524h.003v.001h.003l.001.001h.013L.61.524.612.523h.001L.614.521h.001L.616.52h.001L.618.518A.062.062 0 00.635.48c0-.011 0-.013-.008-.021C.62.451.617.449.616.441.615.433.619.425.633.412.647.4.661.384.681.37A.244.244 0 01.728.337L.765.318A.097.097 0 01.8.31c.005 0 .008 0 .003.005a.227.227 0 01-.03.023L.76.345c.01 0 .014.001.016.005C.777.354.772.364.768.367L.744.379C.75.381.76.381.76.386c0 .006-.004.01-.009.012l-.02.01C.74.408.744.41.745.413c0 .004-.004.01-.01.013C.74.428.747.43.746.435.746.44.74.445.735.446c.006.003.012.008.01.013 0 .004-.003.005-.008.007.006.003.01.007.009.011C.745.482.737.484.733.485c.008.004.012.009.01.013 0 .005-.011.005-.016.005.005.006.01.014.009.016C.734.522.726.525.722.524.727.53.73.536.727.539.723.542.715.541.71.54H.708s.011.01.007.018C.713.56.705.559.7.557c.004.008.003.014.001.016S.69.573.688.57c.002.01.004.014 0 .016C.685.588.675.586.672.582c.002.009.003.013 0 .015C.67.599.66.6.654.596c.003.006.001.01-.002.012S.642.61.637.604c0 .01 0 .013-.004.015C.628.62.62.615.617.612.616.622.616.624.612.625.606.627.6.62.598.615.596.624.593.627.592.628L.589.624zm-.15.002H.437L.434.528H.433L.43.529H.418L.416.526.415.525H.414L.413.524H.41V.521H.409A.061.061 0 01.39.483C.39.472.39.47.397.462.404.453.408.452.41.444.411.434.4.422.391.412A.994.994 0 00.346.37.27.27 0 00.297.34L.261.321a.12.12 0 00-.037-.01c-.004 0-.003.004.002.01A.184.184 0 00.254.34l.018.011C.262.35.252.348.252.352.25.356.254.366.258.37A.299.299 0 00.28.384C.273.385.264.383.265.388c0 .006.004.01.008.013l.02.01C.284.411.28.414.278.417c0 .004.006.009.013.012C.284.43.277.434.278.439c0 .005.008.008.013.01C.285.45.277.455.278.46c.001.004.006.005.01.007C.284.47.278.476.279.48c.002.004.01.007.016.007C.286.491.282.496.283.5c.001.005.01.007.015.007C.294.512.289.519.29.52.292.523.3.526.303.525.3.532.297.538.3.54c.004.003.012.002.016 0L.313.545S.307.55.313.56c0 .003.01.002.013.001C.322.567.323.573.325.575s.012 0 .014-.002C.336.582.335.586.34.588c.002.003.01 0 .015-.004C.352.594.352.597.355.6.356.6.367.602.372.598.37.604.372.608.375.61.378.613.385.613.39.606c0 .01 0 .013.004.015C.4.623.406.617.41.614c.002.01.004.01.007.012S.428.621.43.617c0 .007.006.011.008.013V.626zm.024.16H.445L.443.684H.442V.683H.441L.44.682C.437.677.439.661.438.652v-.02c-.01 0-.02.004-.023.008L.414.643S.409.643.4.65L.39.662a.045.045 0 00-.015.013L.374.682a.033.033 0 00-.011.007c-.001.002 0 .005.004.005H.38C.374.698.37.7.368.704.367.706.365.708.371.71s.02.005.022.003L.398.709s0 .002.005.002.015 0 .019-.004A.037.037 0 00.442.7M.59.631h.008v.001h.005v.001h.002l.001.001h.002l.001.001H.61v.002h.001a.419.419 0 01.007.006S.621.64.628.648A.17.17 0 01.64.66a.036.036 0 01.017.02.04.04 0 01.014.01C.67.69.668.692.664.692H.65c.007.003.012.007.014.012C.665.71.662.708.656.71a.029.029 0 01-.014.002.025.025 0 01-.008-.003h-.01A.028.028 0 01.611.707C.602.706.595.703.589.701A.075.075 0 01.572.69L.566.686c.012 0 .017 0 .02-.004C.59.678.59.662.59.652v-.02zM.55.686v.001L.551.69h.001l.001.002h.001v.002h.001v.001l.001.001v.001h.001v.005c-.001.003-.01.003-.013 0 .004.007.007.011.004.015C.544.719.54.716.538.714.54.72.54.724.536.728.535.73.525.722.52.71.522.72.523.73.516.734.512.735.51.733.51.729A.054.054 0 01.506.72C.501.728.498.73.494.726s-.002-.01 0-.012A.036.036 0 00.498.707C.49.715.488.716.486.714.483.713.483.707.486.704A.042.042 0 01.488.697C.484.703.476.704.475.701.474.698.473.696.475.693L.483.685h.025s.006 0 .006.007C.517.688.516.686.521.686h.027zM.49.468L.488.47.486.472H.484v.001H.482v.001L.481.476H.48V.48H.478L.477.485.473.49a.04.04 0 00-.007.007L.465.5.46.505C.458.509.455.51.456.517h.122V.513a.139.139 0 00-.01-.025c-.002 0-.002 0-.004-.004A.022.022 0 01.56.476L.558.472C.557.48.553.48.55.48.548.48.543.47.542.468.54.475.539.482.536.483.533.484.53.483.527.478L.524.468C.522.474.521.48.519.482.516.484.513.48.512.477.51.474.51.47.51.47.504.474.497.48.494.478.491.476.491.474.491.473V.468z"/><path fill="none" stroke="#000" stroke-width=".004" d="M.494.696v0h0v0h0-.001v.001h0-.001 0v.001H.49V.7h0-.001L.488.703h0-.002 0L.484.706h0v.001H.483h0v.001h0V.71H.482h0v.002h0v.001h0v.001h0C.49.72.498.707.499.707c0 0-.013.018-.003.02C.501.728.507.72.508.718M.483.686h0-.001L.48.688h0V.69H.479h0-.002 0L.476.692h0L.475.694h0L.474.695h0v.002h0-.001 0V.7h0v.001h.001C.48.706.487.704.494.695M.497.687h0V.69h0L.495.692h0v.007h0v.003h0v.002h0v.001h0C.5.71.507.706.507.703M.51.707v0h0v.001h0V.71L.507.712v.014h0v.002h0V.73H.51v.001h0v.001h.001v.001h.004C.528.733.52.706.52.706m.03-.02v.001h0v.001h0v.001h0L.552.69h.001l.001.002h0l.001.001h0l.001.001h0v.001h.001v.002h0l.001.001h0V.7h0v0C.555.706.548.704.542.7M.547.685h0v.001h0v.001h0V.69h.001v0h0v.003h0v0h0v.001h0v.001h0-.001v.001C.545.698.532.69.537.693M.536.691h0v.001h.001v.001h.001v.002H.54v.001h.001v.002h.001L.543.7l.001.002.001.001h0l.001.002h0l.001.002h0l.001.001v.001L.55.71v0h0v.003h0v.002h0v.001h0C.547.72.54.716.537.714M.53.686h0v.001h.001v.001h.001V.69h.003l.001.001h0v.001h.001v.001h0l.001.001h0V.7h0v0h0v0h0v.001h0-.001C.533.705.53.701.53.701M.523.695h0v0h0v0h0v.001h0v.001h.001v.001h.001v.001h.001L.527.7h.001v.001L.53.703v.002l.002.001v.001L.535.71v0l.001.002.001.001v.001l.002.002h0v.001h0V.72H.54v.003h0v.001h0v.001h0L.537.727h0C.527.734.52.71.52.706M.49.511l.003.005M.468.507c0 .002-.002.007 0 .01M.487.51C.485.514.484.516.482.516m.01-.049h0L.49.469h0V.47H.489h0-.002 0L.486.472h0L.484.473h0v.001H.483h0L.482.476h0L.481.477H.48h0V.48h0-.002v.001h0v.001h0v.001l.001.01C.482.493.496.484.497.478c0 .005 0 .016.005.02S.515.49.515.485c.002.004.002.013.01.017.008.003.01-.011.01-.015.002.007.007.011.012.011C.552.5.554.488.554.485a.02.02 0 00.011.01C.57.499.57.492.57.489M.51.518v0h0v0h0v0h0v0h.002V.515h.002v0h0v0h0v0h0v0h.001v0-.001 0h0v0h0v0h0C.504.514.504.504.503.5c0 .002-.009.015-.015.012C.482.51.481.498.48.492.476.497.468.516.465.505.462.493.48.485.478.484m.036.03H.52V.512h0V.511h0L.522.51h0v0h.001V.508h0L.524.507h0V.506h0L.525.505h0V.504h0v0h.001c.003.005.007.011.012.012.004 0 .01-.012.01-.015.004.007.01.014.014.014.005 0 .005-.016.006-.019M.569.491h0v.001H.57v.002h.001v.001h.001v.002h.001V.5h.001v0l.002.003h0v.002h.001v.002l.001.001V.51L.58.511h0v.002h0v.001h0v.001h0v.001C.577.52.568.511.566.508M.464.5a.048.048 0 00-.008.014M.59.592h0v.001h0v.002h0l.001.001v.002h0L.593.6h0v.001l.001.001v.002l.001.002v.002L.597.61h0v.002h0l.001.001v.001h0l.001.002h0L.6.617c.01.015.016.01.019-.005m.04-.064h0L.66.55v0h.002l.001.003.003.001.002.002v.001L.67.558h0L.673.56h0l.002.001a.124.124 0 00.016.01c.005.003.011.003.013 0C.706.57.703.562.702.558M.678.51h.003v.001h.001l.001.001h.001v.001h.001v.001h.001v.001h0v.001h.001v.001h0v.001h0C.684.521.677.522.67.52A.058.058 0 01.654.516m.02.006h.001l.001.001h0l.001.001h0l.001.001h0L.68.527h0v.001h0v.001h.001V.53h.002v.001h0v.002C.68.537.673.538.665.534A.056.056 0 01.648.526m.02.01L.67.537h0l.001.001.001.001.001.001h.002l.002.002.002.002h0l.002.002h.001l.001.001h.001L.686.55a.099.099 0 00.016.008c.006.003.012.002.014 0C.718.554.714.543.711.539M.677.522h0L.68.524h.001l.002.001v.001h.002l.001.002.003.001h.002v.002h.002l.001.001h.002l.001.001A.132.132 0 00.714.54C.72.542.727.54.728.538.73.535.727.526.724.523M.682.509h.002V.51h.002v.001h.001L.69.512h0l.002.001.001.001h.002l.002.001.001.001H.7v.002h.001l.001.001h.002a.118.118 0 00.019.005C.73.523.736.521.737.519.74.515.731.505.727.503M.616.572h0v.002h0v.001l.001.001v.001h0V.58h0v0h0v.001h0-.001v0h0v.001h0v0h0-.001 0v0C.61.585.604.58.599.573a.053.053 0 01-.01-.016m.012.02s.005.02-.01.01M.588.523H.59v.001h.003l.001.001h.013L.608.524h.004L.614.522h.001L.616.52h.002L.619.518H.62L.622.517V.516L.625.514h0V.512h.001V.51C.637.494.64.473.634.465.627.457.607.444.62.427a.509.509 0 01.076-.07.294.294 0 01.088-.045C.793.31.808.307.805.312.796.327.76.343.74.36A.878.878 0 00.667.4C.668.407.66.41.65.416.657.414.663.421.644.431.653.429.656.437.647.444c.005 0 .01.005.005.012.003.001.008.006.003.011.003.002.007.007 0 .01.006.002.005.008 0 .01.009.001.005.01 0 .011.003.004.004.01-.002.012.002.004 0 .01-.005.009C.648.52.65.529.64.528c0 .003-.001.01-.008.01 0 .005-.006.007-.01.005C.618.55.615.551.608.547.607.55.599.557.594.55L.589.555M.703.379h.003V.377H.72V.38h0C.725.382.715.393.712.395L.655.422m.04-.018h0v0h.002L.699.402H.71v.001h0v0C.713.41.705.417.7.419L.653.435M.688.423h.015v.001h0v0h.001v0h0c.002.003-.001.01-.01.014A.349.349 0 01.65.446M.686.44h.007v.001h.003v.001h.002v0h0v.001h0v0h0v.001c0 .003-.005.01-.016.012a.175.175 0 01-.029 0M.686.455H.69l.001.001h.002v.001h.001l.001.001v0h0v0h0v0h0V.46h0v0h0v0C.694.465.688.469.68.469L.656.467m.03 0h0l.001.001h.004V.47h.002v0h.002v.001h0v0h0v0h0v.001h0v0C.694.478.688.482.68.482A.101.101 0 01.658.479M.683.48h.002l.001.001h.001l.001.001h.001v.001h.002v.001h.001v.001h0l.001.001h0v0h0v.001h0v0h0V.49C.691.493.685.495.677.494A.05.05 0 01.66.49m.02.003h.001l.001.001h.001l.001.001h.001v.001h.001l.001.001H.69V.5h0v0h.001v.001h0v0h0v.001h0v0h0v.001C.69.507.687.51.679.508.668.508.66.504.658.503m.01.033h0v0h0v.001h0L.67.539h0V.54h0v0h0v.001h.001v.001h0v.002h0v.001l.001.001v.001h0v.001h0v0h0v0h0C.667.552.66.55.652.546S.642.537.64.535m.018.013h0V.55H.66v0h0v.001h0v.001h0l.001.001h0v.001h0v.003h0v.001h0v0h0V.56h0v0C.658.562.65.56.644.555A.09.09 0 01.63.543m.014.012h0v.001h.001v.001h0v.001h.001V.56h0v0h0l.001.001v.001h0v.001h0v.004h0v0h0v.001h0v0h0C.643.572.636.57.629.564A.112.112 0 01.617.55m.012.015h0L.63.566h0v.001h0v.001h.001v.001h0V.57h0v.002h0v.003h0v.001h0v.001h0v0h0v0h0v.001h0A.02.02 0 01.613.571L.602.553m0 .027h0v.001l.001.001h0v.002h.001v.001l.001.001v.002L.607.59l.001.002.001.002.002.002v.002L.612.6v0l.001.001v.001l.001.001v.001l.001.001h0l.001.002h0l.001.001c.004.006.01.012.017.01C.64.619.638.606.637.605M.632.567h0l.001.001h0V.57h.003v.002h.002v.002h.001L.64.577v.001l.002.001.002.003.002.002v.001l.001.001.001.001.001.001.001.001V.59h.002v.001l.001.001h0l.001.001h.001v.001h0C.659.598.659.609.652.61.642.612.635.6.631.596L.618.574m.037.02v.001h.002v.001H.66v.001h.002l.001.001h.008C.677.596.674.586.673.583M.646.557l.001.001V.56H.65v.001l.002.002.002.002.002.002h.001V.57h.002v.002H.66v.002l.016.011C.68.587.687.588.69.586.692.584.69.575.689.571M.683.494h.001v.001h.002l.002.001H.69l.001.001h.004l.002.001h.002L.7.5h.004v0H.71a.191.191 0 00.021.003C.738.503.744.5.745.497c0-.003-.006-.01-.01-.012M.685.48H.69l.002.001h.006L.7.484h.003l.002.001h.008l.001.001h.003a.12.12 0 00.02 0C.742.482.747.478.747.475.75.473.744.467.739.466m-.05.001h.017L.71.469h.009A.125.125 0 00.738.466C.743.465.748.461.748.458.75.454.743.448.739.448m-.05.006h.01L.702.452h.004L.71.451h.004V.45H.72A.121.121 0 00.74.445.015.015 0 00.749.433C.749.429.739.427.735.426M.689.44h.002V.438h.004V.437h.003L.699.436h.004L.705.435h.002L.71.432h.005V.431h.002L.72.43h0v0A.05.05 0 00.739.423C.743.421.747.415.745.413.743.408.737.408.733.407M.69.423h.001L.693.421h.003V.42h.006L.704.418h.002L.709.416h.003L.715.415h.002L.718.413H.72L.722.412h.001L.724.411h.002L.727.41H.73L.731.408h.001l.019-.01C.756.398.762.389.76.386.762.38.75.38.746.38M.71.395h.003L.715.393h.001L.717.392H.72V.391L.722.39h.003L.726.389.729.388.732.386.735.385h.001L.737.382h.005V.38h.004V.378h.001L.748.377h0L.75.376h0A.075.075 0 00.77.365.025.025 0 00.777.35C.777.347.767.344.76.345M.598.616V.62h0v0h0v0h0v.001h0-.001v.001h0L.595.624h0v.001H.594h0C.593.627.59.625.59.625m-.236-.1h0-.001 0L.351.526h0v.001H.35h0v.001h0v.001H.348V.53h0-.001 0v.001h0L.346.533h0v.001h0v.001h0v.001h0v.001h0c.002.004.009.004.017 0a.053.053 0 00.016-.01M.36.537h0v.001h0L.358.54h0v0H.357v.001h0v.001H.356v.001h0v.001h0v.001H.355v.001h0V.55h0v0h0v0C.36.554.367.552.374.548.383.543.386.54.388.537M.37.55h0-.001 0v.001h0L.367.553h0v.001h0v.001H.366v.001h0V.56h0v0h0v0h0v.001h0c.003.003.01 0 .017-.004A.117.117 0 00.397.545M.384.557h0L.382.559h0V.56H.381v0h0v.001h0L.38.563h0v.001h0v.002h0v.003h0V.57h0v0h0v0h0v0h0v0h0C.385.572.392.571.4.565A.1.1 0 00.41.551M.4.565h0v.001h0-.001v.001h0v.001h0L.396.57v0h0v.006h0v.001h0v.001h0v0h0v0h0A.018.018 0 00.415.573.112.112 0 00.426.554m.012.04h0v.002h0L.436.598V.6H.435v.002h0L.434.604v.002L.433.607V.61L.431.612h0v.002H.43v.001h0v.003h0v.001L.428.62C.425.625.42.628.419.627.41.627.41.617.41.613M.427.58h0L.425.583h0v.001H.424v.001L.423.586V.59L.421.591v.002L.42.595.419.598h0L.417.6h0v.001L.415.603v.001L.414.605h0L.413.608h0v.001L.412.61h0v0C.408.615.401.622.394.62.39.62.391.607.391.606M.396.568h0V.57h0-.001v.002H.393h0v.001L.391.574.39.575v.001L.389.577V.58H.386v.002L.383.583v.002L.382.587H.38V.59h0L.377.592h0v.002h0-.002 0v.001h0L.373.597h0C.37.599.37.61.376.613c.01.002.016-.01.02-.014L.41.576m-.037.02v.001H.37v.001H.368V.6H.367h0-.001 0-.001 0-.001 0-.001 0-.001 0H.36h0-.001 0-.001 0-.001C.352.598.354.588.355.585M.382.559L.38.56v.001h0L.377.564h0L.375.566v.001L.373.569h0L.37.572h0v.002H.367v.001a.132.132 0 01-.016.012C.347.59.341.59.34.588.336.586.337.577.339.573m.1-.048h0-.001L.437.527H.436h0L.433.528h0-.002 0-.013V.525H.416L.415.524H.413L.41.521h0L.408.52V.519H.405V.516H.404V.515H.402V.512H.401C.392.495.387.475.394.467.4.458.419.445.406.429a.36.36 0 00-.18-.117C.22.31.223.32.227.323L.289.36C.294.364.354.396.36.403c0 .006.008.01.018.015C.369.416.364.423.383.433.373.43.37.438.38.446.375.446.37.451.375.458.372.458.367.464.372.469.37.47.365.476.372.479.366.481.367.487.372.49.363.49.367.498.371.5.37.504.368.51.375.511c-.003.005 0 .011.005.01 0 .002-.002.01.006.008 0 .004.002.011.009.01 0 .006.005.008.01.006C.41.55.413.552.42.549.42.55.429.557.434.55a.034.034 0 00.004.005M.323.38H.32h0-.003 0-.002 0-.002 0-.001 0H.31h0-.001 0-.001 0-.001 0L.305.382h0C.302.39.312.396.316.399.317.4.37.422.37.424M.331.406h0v0h0H.33h0-.001 0L.327.404h0-.001 0-.002 0-.001 0H.32h0-.001 0-.001 0v.001H.316h0v0C.313.412.32.419.326.422l.047.016M.34.425h0-.001 0-.001 0-.001 0-.001 0-.002 0H.33h0-.002 0-.002 0-.001 0-.001 0v.001h0-.001 0v0h0v0h0C.32.43.323.437.332.44c.01.003.043.007.043.007M.341.442h0H.34h0-.001 0-.001 0-.001 0-.002 0-.001v.001H.332h0-.001 0H.33v.001h0L.328.446v0h0v0h0v0h0v.001c0 .003.005.01.016.012a.19.19 0 00.028 0M.341.457h0H.34h0-.001 0-.001 0-.001v.001H.335h0-.001 0-.001V.46h0-.001 0v0H.331v0h0v0h0v.002C.333.466.34.47.348.47L.37.469m-.03 0h0V.47h0-.001 0-.001 0-.001 0L.336.472h0-.001 0-.001v.001h0-.001 0v.001h0-.001v0h0v0h0v.001C.333.48.34.484.348.484L.37.48M.344.483h0-.001 0-.001 0v.001H.34h0L.338.486h0-.001 0v.001h0-.001v.001h0-.001v.001h0V.49H.333v0h0v.002h0C.334.496.342.498.35.497A.052.052 0 00.366.493m-.02.003h0-.001v.001H.343h0-.001 0L.341.499h0V.5H.34h0v0H.338h0L.337.502h0L.336.503h0v.001H.335v0h0v.001h0v.001h0v0C.338.51.342.511.35.51A.068.068 0 00.37.504M.348.51h0L.346.512h0-.001v.001h0-.001 0v.001H.343h0v.001H.342v.001h0-.001v.001h0v.001H.34h0V.52h0c.002.004.01.005.017.002A.057.057 0 00.373.517M.37.55v0H.367v.002H.365L.364.555.362.556.36.558v.001H.357v.002H.355v.001L.353.563a.113.113 0 01-.016.01C.333.576.327.576.325.574.322.572.324.564.326.56M.36.538h0L.356.54h0L.354.541.353.543.351.544.35.546H.348L.347.549H.345V.55H.342v.002A.116.116 0 01.325.56C.32.562.313.561.312.56.309.556.312.546.315.543M.35.524h0L.349.526H.346v.001L.343.528H.342V.53H.338L.337.532H.336L.334.534v.001H.331L.33.537a.135.135 0 01-.018.007C.308.544.301.543.3.54.296.535.305.526.306.525m.04-.014H.344h0-.002v.001h0-.001L.34.514h0-.003L.336.516H.332L.331.519H.328L.326.52h0-.001 0-.002 0v.001C.314.523.31.525.305.525.3.526.292.524.29.521.29.518.296.51.3.506m.044-.01h0L.342.498h0L.34.499h0-.002V.5H.335h0H.33v.001H.325L.323.503H.32h0-.002 0-.001v.001h0a.16.16 0 01-.022.003C.29.506.284.503.283.5.28.497.289.49.293.487m.05-.004H.34h0-.002 0-.002L.335.485h0H.33L.328.486H.323L.321.487H.318h0L.315.488H.312h0H.31h0-.02C.284.486.28.483.28.479c0-.004.006-.01.01-.01m.05 0h0-.002 0-.002 0-.002 0H.33h0-.004L.324.47H.317h0-.002 0-.002 0H.31h0-.002 0-.02C.285.467.28.463.28.46.277.457.286.45.29.45m.048.006h0-.004 0-.002 0-.005L.325.454H.321L.318.453H.313L.312.452H.309h0-.002 0L.287.447C.28.445.277.44.28.437.28.433.289.429.292.428m.046.014h0-.003L.334.44H.333h0H.33h0-.002L.327.438H.322L.319.436H.315L.313.434h0H.31V.433H.308h0L.306.432h0-.002L.289.425C.283.424.278.419.279.416.281.414.29.412.294.412m.042.014h0-.002V.423H.33V.422H.327L.326.421H.324L.323.42H.32L.318.418H.315L.31.416h0-.003L.305.415H.304L.302.414H.301L.299.413h0-.002V.411H.294h0V.41L.276.402C.269.4.264.395.265.388c0-.004.01-.006.017-.006m.035.016h0-.002V.396H.312h0L.31.395h0L.308.394v0H.305L.304.392H.3V.39L.296.389.293.388.29.386H.287L.285.383h0H.28V.381H.278V.38H.277L.26.37A.034.034 0 01.25.353C.252.348.267.35.271.35M.43.576v0h0v.001h0v.001H.427V.58h0v0h0v.001h0L.426.583v.002h0v.002h0v.001h0v.001h0v0h0V.59h0v0h.001c.005.003.004.005.01-.004M.414.572h0v0h0v.001h0-.001v.001h0v.001h0v.001H.411v.001h0v.001h0V.58h0v.005h0v0h0v.001h0v0h0v0h0C.417.588.425.584.43.577.435.568.436.558.44.555m-.01.06a.02.02 0 00.007.013m.17.02H.61V.65h.004l.002.001.001.001h.002v.001H.62v.001h.002v.001h.001l.001.001h0l.001.001h0a.039.039 0 01.007.01v.005H.627L.62.669M.59.632h.013l.002.001h.002v.001H.61v.001h.002v.001h.001v.001h.001l.001.001h.001V.64h.001v0h.001v.001h0C.62.645.62.647.618.647A.169.169 0 00.603.646c-.002 0 0 0 .002.002s.007.004.009.008C.615.659.616.658.612.659.608.661.603.66.6.66.596.658.599.659.6.66c.004.002.01.007.01.01s.003.004.002.006c0 .002-.004.002-.007.001L.596.676a.022.022 0 01.01.01c.002.004 0 .005 0 .007s-.005 0-.008 0C.592.69.585.688.583.685M.618.641h.001L.62.643h.001l.001.001h.002v.001h.001l.001.001v.001h.002v.001H.63V.65h.001A.027.027 0 01.64.661C.642.666.64.663.637.663A.028.028 0 01.631.662M.609.66H.61l.001.001h0l.001.001h0l.001.001h.001l.001.002h0l.002.001v.001l.001.001H.62V.67h0v0h.001v.001h0c.004.003.004.007.006.01v.006H.622A.017.017 0 01.616.686M.608.678h.001V.68H.61v0h.001l.002.002h.001v.002h.001v.001h.001v.001h0l.001.001h0L.62.696C.62.699.617.7.615.7.61.7.605.696.605.696L.61.703C.612.706.61.707.606.706.593.703.594.702.587.699A.082.082 0 01.568.687m.06-.026h.003v.001h.001v.001h.002v.001h.001l.002.002h0L.64.669h0V.67h.001v.002h.001l.001.001h0l.001.002h0l.001.001v.001c.002.005 0 .003 0 .005s-.004 0-.007 0C.638.68.62.673.625.676M.64.661h.002v.001h.001l.001.001h.001v.001h.001l.002.001v.001H.65v.001h0v.001h.001V.67h.001v0h.001v.001h.001v.002h.001L.657.68C.657.682.654.68.65.678L.646.676M.644.682h0l.001.002h.001v.001l.001.001h0v.001l.001.001h0V.69H.65v0h0v.001h0C.651.696.648.695.645.695L.637.693.627.687C.629.69.64.697.642.701.644.704.644.705.64.705A.042.042 0 01.626.701C.624.7.622.697.62.697M.626.7h.001l.001.001H.63v.001h0l.001.001h0l.001.001h.001v.001C.635.708.636.71.631.71S.614.71.61.705M.656.68h.005l.001.001h0l.001.001h.001v.001l.002.001h0v.001h.002v.001C.671.69.672.69.668.691a.051.051 0 01-.013.001H.65m0 0h.003v.001h.001l.001.001h.001v.001h.001l.001.001.001.001H.66v.001h0L.662.7h.002v.001h0l.001.001C.667.707.664.707.66.707L.642.701m.022.006h0-.001v.001H.661h0L.66.71h0-.002 0-.002 0-.001 0L.652.712H.65h0-.001 0-.001 0-.001 0-.002A.02.02 0 01.635.71M.546.686h0v.001h0v.001h0V.69h.001v0h0v.003h0v0h0v.001h0v.001h0-.001v.001C.545.698.532.69.537.693M.548.686H.55v.001h0v.001h0L.552.69h.001l.001.002h0l.001.001h0l.001.001h0v.001h.001v.002h0l.001.001h0V.7h0v0C.555.706.548.704.542.7M.508.686V.69h0v.002h0V.7h0v.002h0v.001h0v0h0v.001H.51v.001h0l.001.001h.003C.523.707.523.698.522.688m.002.007h0v0h0v0h0v.001h0v.001h.001v.001h.001v.001h.001V.7h.001v.001L.53.703v.002l.002.001v.001L.535.71v0l.001.002.001.001v.001l.002.002h0v.001h0V.72H.54v.003h0v.001h0v.001h0L.537.727h0C.527.734.52.71.52.706m.01-.02h.001v.001h.001v.001h.001V.69h.002l.001.001h0v.001h.001v.001h0l.001.001h0V.7h0v0h0v0h0v.001h0-.001C.533.705.53.701.53.701m.007-.01h0v.001h.001v.001h.001v.002H.54v.001h.001v.002h.001L.543.7l.001.002.001.001h0l.001.002h0l.001.002h0l.001.001v.001L.55.71v0h0v.003h0v.002h0v.001h0C.547.72.54.716.537.714M.509.707v0h0v.001h0V.71L.507.712v.014h0v.002h0V.73H.51v.001h0v.001h.001v.001h.004C.528.733.52.706.52.706M.497.687h0V.69h0L.495.692h0v.007h0v.003h0v.002h0v.001h0C.5.71.507.706.507.703M.484.686h0-.001L.48.688h0V.69H.479h0-.002 0L.476.692h0L.475.694h0L.474.695h0v.002h0-.001 0V.7h0v.001h.001C.48.706.487.704.494.695m0 .002v0h0v0h0-.001v.001h0-.001 0v.001H.49V.7h0-.001L.488.703h0-.002 0L.484.706h0v.001H.483h0v.001h0V.71H.482h0v.002h0v.001h0v.001h0C.49.72.498.707.499.707c0 0-.013.018-.003.02C.501.728.507.72.508.718M.398.71c.001 0-.005.004-.01.004m.002 0h0-.001 0-.002V.712h0-.002 0-.006L.377.711h0-.002 0L.372.71h0H.37v0h0L.368.708h0M.421.661h0H.42v.001h0L.418.665h0L.417.666h0v.002H.414v.001h0V.67H.412h0L.411.672h0L.41.673h0C.406.677.406.68.405.683c-.002.004 0 .005 0 .006L.41.69C.413.69.414.688.417.686M.438.634h0-.002 0-.002 0-.002 0-.006L.425.636H.423L.422.637h0L.42.638h0L.417.639h0V.64H.416h0v0H.415v.001h0-.001v.001h0C.41.647.41.649.414.649L.429.647c.002 0 0 .001-.002.003C.425.65.42.653.418.657.417.66.416.659.42.66h.012c.004 0 .001 0 0 .001-.003.002-.009.007-.01.01L.42.677C.42.679.422.68.425.68L.431.679a.032.032 0 00-.006.008c-.002.004 0 .006.001.007h.01C.438.694.44.691.446.687M.415.643h0-.001 0-.001 0H.41h0v.002h0-.002v.002H.405v.001H.404V.65H.4a.027.027 0 00-.009.012C.39.667.392.665.395.665L.4.663m.02-.01h0-.002 0-.002L.414.655h0-.002v.001h0H.41h0v.001h0-.001 0v.001H.407h0v.001H.406h0A.03.03 0 00.4.669v.005h.006L.412.67m.01.008h0V.68h0L.42.682h0v.001h0L.418.684h0L.417.685h0v.001H.415h0v.001h0-.001v.001h0l-.002.01c0 .004.004.003.006.002C.421.7.434.691.428.696L.422.704c-.001.003 0 .003.004.003C.44.705.437.704.444.7L.463.686M.403.662h0-.001v.001H.4h0v.002H.399h0L.397.666h0L.396.667H.395v.001L.392.669h0L.391.67h0L.39.672h0v.002h0-.001v.001H.387h0v.001H.386v.002c-.002.004 0 .002 0 .004s.004.001.007 0C.4.681.404.678.406.68M.392.662h0H.39v.001h0-.001v.001H.387h0L.386.666h0-.002v.001h0L.383.668h0L.382.669h0V.67H.38v0h0v.001H.379v.001h0L.377.674v.001h0L.376.676C.374.682.374.68.375.681c0 .002.002.002.007 0C.384.679.385.678.387.678m.001.006h0L.386.686h0L.385.687h0L.384.688v.001h0L.383.69h0v.002H.382h0v.001h0L.381.694c0 .002.002.003.006.002A.077.077 0 01.395.694c.003 0 .013-.007.01-.006A.06.06 0 00.39.702c0 .004-.002.005.002.005A.046.046 0 00.406.702C.408.7.41.698.413.699M.406.702h0-.001v.001h0-.001 0v.001H.403h0L.401.706h0H.4v.001h0v.001h0-.001C.397.71.396.71.401.711s.017 0 .021-.004M.375.68H.374h0L.372.683h0L.37.684h0L.368.685h0v.001H.365v.001h0L.364.688h0C.36.69.36.693.364.694h.015M.372.7h0V.698h.001L.375.697h.001L.377.696h.001V.695h.001L.38.694h0V.693h.001v0h0v0h0v0h0v0h.001v0a.033.033 0 00-.014.01c-.003.004 0 .004.004.004A.034.034 0 00.39.702"/><path fill="#FD0" d="M.465.432v.016C.463.452.456.456.454.458c-.002 0-.005 0-.008.002a.017.017 0 01-.01 0C.435.46.431.455.431.451S.43.44.426.438a.038.038 0 01-.011-.01C.413.424.41.418.417.417.423.415.426.413.427.411L.431.408C.421.39.404.382.387.37A.205.205 0 00.324.349C.318.348.317.345.315.34V.325A.056.056 0 01.295.31C.29.305.293.298.295.296L.302.285l.005-.02C.309.258.309.258.313.257c.005-.002.014.001.014.01 0 .005-.007.016-.01.021l.007.005c.003 0 .01.003.022.008a.014.014 0 01.008.016L.35.33a.186.186 0 01.072.034c.015.013.023.018.032.031C.46.404.458.41.454.41a.017.017 0 00-.01.005C.442.416.44.42.44.422c0 .003 0 .003-.004.004l.008.007C.446.437.445.44.445.445.446.45.448.45.451.449V.434c0-.007.006-.01.01-.012 0 0 0 .008.004.01zm.093.014v.002H.556v.005c.002.004 0 .01 0 .011v.008S.56.472.56.474l.004.01s0 .005.008.006C.578.49.586.488.588.486A.035.035 0 00.591.472C.59.469.596.462.599.46.601.458.609.452.609.45.61.45.61.447.608.445.606.442.604.437.608.43.61.422.608.417.606.415.605.412.6.414.598.415.596.417.592.414.591.412S.588.407.593.402A.7.7 0 01.625.377.156.156 0 01.667.355l.034-.01C.705.345.706.343.707.343S.71.342.707.338V.324L.714.319A.052.052 0 00.727.307C.73.303.732.299.727.293.723.286.722.286.722.279a.037.037 0 00-.008-.02C.71.256.7.259.7.262.698.265.695.268.699.272S.706.286.705.29L.703.291.69.297C.687.298.674.3.671.307.668.315.669.314.67.317a.058.058 0 01.002.01v.001L.663.33a.251.251 0 00-.027.011L.607.36a.264.264 0 00-.026.022C.575.387.574.389.57.394.565.398.56.403.563.404l.01.007.006.01c.002.002.006.007.01.004C.592.422.59.423.59.423l.005.001L.6.428A.004.004 0 01.6.43L.59.44a.053.053 0 00-.01.02C.579.465.576.47.576.474v.008L.573.47A.444.444 0 00.56.451L.558.446zM.493.426H.487L.486.424H.48a.049.049 0 010 .02C.479.446.472.457.472.463c0 .005.001.014.005.018L.482.475.486.471C.486.463.487.458.49.452.491.447.495.44.495.436L.493.426z"/><path fill="none" stroke="#000" stroke-width=".004" d="M.354.308v.006h0v.003h0v.001h0V.32h0v0h0A.022.022 0 00.35.33M.305.27h0v.002h0L.303.275h0v.002h0v.002H.302v.004L.294.296C.292.3.294.306.295.31.3.314.302.321.316.325m.01-.057a.07.07 0 01-.009.02m.144.134h0H.46h0-.001 0v.001H.457h0-.001v.001h0-.001v.001h0-.001v.001h0L.453.428h0v.001L.452.43h0v.003h0v.002c0 .009 0 .022-.006.024C.437.462.431.455.431.448.431.437.423.437.419.433.417.431.406.419.42.417c.004 0 .009.004.01.006 0 .002.009.006.01 0C.443.414.449.41.454.41c.004 0 .009-.006 0-.017A.196.196 0 00.39.343a.328.328 0 00-.07-.02c-.007 0 0-.008.003-.008.005 0 .02.003.024.002C.349.317.36.31.35.304.34.298.32.292.317.289.313.285.3.279.307.264.313.25.327.26.327.265S.321.278.315.271L.31.282m.007.04h0-.001v.001h0v.002h0v.006h0v.005h0v.001c0 .005.002.011.01.012a.21.21 0 01.058.018c.012.007.03.02.037.028.006.007.016.017.016.022.001.005 0 .008-.003.009m.002 0h.001v.001h.001v.001H.44V.43h.002v.001h0v.001h.001v.001h.001v.001h0v.001h.001v.011C.447.448.45.45.453.449m-.02-.04H.43h0V.41h0-.001 0v.001h0-.001v.001h0-.001v.001h0-.001 0v.001h0-.001 0L.416.419m.05.01v.005h0v.01H.464v.003h0v.001h0L.463.45h0v0h0c0 .002-.004.007-.016.01M.713.28v0h0v0h0V.278H.711V.275H.71v0-.001h0V.272h0V.271h0v0V.27v0h0v0h0v0C.708.274.693.274.698.264c.004-.009.016-.01.02 0C.72.273.707.287.7.292.69.298.676.3.672.305c-.003.003-.01.013.01.01C.701.312.706.308.706.316S.691.322.68.326a.192.192 0 00-.05.019.276.276 0 00-.054.042C.57.395.556.402.566.407c.012.006.011.016.018.018m.133-.16h0l.001.001h0v.001h0v.001H.72V.27h0v.003h0v.002h.001v.004h0V.28c0 .006.004.01.007.014C.732.299.73.304.726.31a.088.088 0 01-.019.014m0-.008h0v.001h0v.001h0V.32h0v.005h0v.004c0 .005-.002.008.001.012S.697.346.691.348a.197.197 0 00-.051.02.332.332 0 00-.054.041C.584.412.579.42.584.425.588.43.594.415.6.414.608.412.612.42.606.426.599.432.58.445.578.462.575.48.575.474.577.482c.002.009-.012.01-.015 0C.56.473.558.473.558.473M.67.315c.002.006.005.009.003.013M.699.272c.003.004.007.015.006.017M.59.423C.596.423.601.43.601.43M.591.405c-.002.002 0 .011.007.01M.61.42v0h0v.003h0v.002h0v.001h0L.607.429V.43H.606v.002h0L.605.435v.002h0V.44h0v.002h0l.001.001h0v.001c.006.008 0 .007-.004.012S.589.466.59.478C.59.49.58.489.572.49M.577.483a.215.215 0 00-.02-.037m-.08.036h0V.48H.475h0L.474.477v0L.473.476V.474H.472V.465h0V.457L.475.456h0V.453h.001V.451L.477.45h0V.448h.001V.446h.001A.057.057 0 00.48.423m.015.012v.002h0V.44h0v.002h0L.492.445v.001L.491.447v.001L.49.45h0v.002h0v.001h0L.488.455h0v.001A.027.027 0 00.486.47"/><path d="M.65.356h.001V.353L.647.345H.645L.65.341.657.35V.34L.662.337.661.339V.34l.004.008V.35h.002L.661.353h.001V.35L.658.34v.014L.648.345l.004.009h.003v.001L.65.357zM.632.351v.003L.635.36l.002.002H.64C.64.36.642.36.64.359V.356L.636.351V.35H.634L.637.347V.35L.64.356.642.36.64.363H.634L.632.362.63.355H.626zM.615.377h.001V.374L.61.367H.609L.611.363l.01.003L.62.362H.616L.62.358v.003l.006.01L.612.368l.004.006.001.001H.62L.616.378zM.597.376v.003L.6.384l.002.002h.003L.607.381.606.38.602.375H.599L.602.37v.003L.606.38a.006.006 0 01.002.004c0 .001 0 .003-.002.004S.602.389.6.388L.598.386.594.381H.591zm-.161.02a.006.006 0 00-.002.003L.435.4l.002.001h.002V.392L.443.39l.004.001v.002l.001.001h.001L.446.4V.393L.444.392H.442v.011H.435L.434.4V.398H.431zM.434.38H.43L.427.386.425.388l.001.003C.427.392.428.393.43.392L.432.39.436.386V.383L.44.386H.437L.432.391A.006.006 0 01.43.393c-.001 0-.003 0-.004-.002C.423.39.422.388.423.387L.424.384.43.38V.376zM.421.376h.001L.425.372H.42v.004zM.415.381l.002.001L.42.381V.378S.42.376.418.376L.415.38zM.41.378h.003L.419.37V.368L.422.37l.003.002v.004L.424.378H.42L.422.38v.003L.419.384c-.001 0-.003 0-.004-.002L.41.378zM.402.372h.002L.41.364V.362l.006.004H.414L.406.374v.002L.402.374zM.398.362H.4V.36L.401.358.4.356H.399L.395.36l.002.001zm-.01.001H.39L.395.355V.353L.4.354l.003.002V.36c0 .001 0 .002-.002.002H.4v.009L.396.369V.361L.392.364v.003L.389.364zM.362.353h.002l.004-.01V.342L.365.34l.007.002H.371v.001l-.004.01.002.001h.003s.002 0 .003-.002L.373.357.362.353zM.385.348H.383v.001L.38.355V.36h.004L.386.357.388.352V.35h.004H.39v.002L.386.358.384.36H.38L.376.357.377.354.38.348V.346H.379V.344zM.36.344V.339H.357L.356.344H.36zM.349.35h.002V.347L.355.34V.336L.36.338c.002 0 .003.001.003.002v.005H.356L.355.349l.001.002L.349.35zM.326.344h.002V.341L.33.332.328.33l.011.001v.004L.336.333H.334L.333.331.331.338h.002L.336.335.335.342.333.339.332.338.33.343l.001.001h.003L.338.342v.004z"/><path fill="#F2C007" d="M.462.43V.42c0-.003 0-.006.005-.01A.044.044 0 01.485.405C.486.402.491.402.494.402c.001 0 .003 0 .004.002 0 .002 0 .01.005.016l.004.01c0 .002-.001.01-.003.011A.066.066 0 00.48.43C.474.427.467.43.467.43S.464.427.462.43z"/><path fill="none" stroke="#000" stroke-width=".004" d="M.48.43C.479.43.472.428.468.429M.504.414h.001L.507.412h.021C.531.415.532.418.532.42m-.04 0L.487.414m.005.011v0h0v.001h0v.001h0V.43h.001v.005l.01.007C.504.444.502.452.5.452a.06.06 0 01-.008.016C.491.47.491.475.494.477.497.48.51.47.512.467.51.473.512.482.515.483c.004.001.009-.018.01-.02-.001.003.005.023.01.02C.541.48.541.465.541.463c0 .002.009.021.014.016C.56.474.557.467.556.465.558.463.558.455.558.455c0-.002-.002-.005 0-.01C.56.443.56.43.56.427L.558.42S.565.417.561.414A.12.12 0 00.523.401C.509.398.499.401.497.404.49.404.487.403.485.406.481.406.452.41.465.432c0-.005.003-.01.017-.008.013.002.02.007.022.008C.502.429.504.425.495.422"/><path d="M.508.414H.52c.001.001.004.003 0 .004C.516.421.507.414.508.414z"/><path fill="#FFF" stroke="#000" stroke-width=".004" d="M.421.215h0V.212H.42V.21h0v0h0V.202h0V.198h.001V.196h.002V.194L.426.193h0L.428.19H.43L.432.188h.003L.436.187h.01A.019.019 0 01.477.173C.48.157.5.148.512.165.52.151.546.152.548.172.554.162.583.163.58.189.588.182.615.19.605.215.623.213.633.235.62.248a.02.02 0 01.003.036C.64.3.628.318.614.32.624.339.61.352.594.35.595.368.58.38.563.372.562.39.544.396.53.384.521.4.501.399.494.382A.02.02 0 01.46.371C.446.378.428.369.432.348.415.35.403.334.412.318.398.316.388.298.404.284.391.277.388.256.406.248.396.234.403.216.421.215z"/><path fill="none" stroke="#D1D3D4" stroke-width=".004" d="M.424.217h0V.216H.422V.213h0V.21H.421V.203h.001V.2h.003V.198L.428.197V.196h.001L.43.193h.002v0h.002V.191h.004V.19h.008l.002.001a.018.018 0 01.03-.017C.48.161.5.153.512.17.519.155.544.156.546.176.552.167.58.167.576.192c.01-.006.036.002.026.025C.618.215.628.236.615.25a.019.019 0 01.003.035C.635.299.623.317.61.318.62.336.606.35.59.348.592.364.578.376.562.367.56.386.542.391.529.38.52.396.501.394.494.379A.019.019 0 01.461.367C.448.374.431.365.434.345.418.348.407.332.415.317.402.314.392.297.408.283.395.277.392.257.41.25.399.236.406.218.424.217z"/><path fill="#4DA7D3" stroke="#000" stroke-width=".004" d="M.437.225v.002l.001.001v.003h0L.44.234h0V.24L.437.241v.001L.436.243h0v.003h0L.434.247v.001H.432V.25H.43v0h0v.001H.427v.001H.425a.02.02 0 01-.003.03C.434.289.437.3.43.31a.02.02 0 01.016.025C.456.333.47.342.47.355a.02.02 0 01.028.01c.009-.01.021-.01.03 0C.532.352.547.348.555.354.555.343.57.333.58.338.575.323.587.313.596.312a.02.02 0 01.009-.03C.594.278.593.262.602.253A.019.019 0 01.59.225C.581.227.566.217.569.202A.02.02 0 01.542.188C.533.197.517.193.512.184.51.192.497.199.484.189a.02.02 0 01-.026.015c.001.014-.01.022-.02.021z"/><path stroke="#FFF" stroke-width=".002" d="M.56.272L.595.27M.499.219L.493.2m0 .037L.476.208M.472.232L.458.218M.46.242L.442.231M.46.258L.439.252m.03.02H.437m.035.01L.438.288M.46.3L.442.31m.024.006L.454.328M.487.31L.469.336m.027-.02l-.01.03M.53.317l.012.03m0-.033L.56.336M.563.314l.014.012M.57.3l.02.01M.56.283l.03.005M.57.26L.59.25M.568.242L.584.23M.549.238l.018-.02m-.032.02L.55.207M.533.2L.528.217M.513.193V.21m-.01.129L.5.357M.52.339l.005.017"/><path fill="#FFF" d="M.513.262L.516.27h.008L.518.275l.003.01L.514.278.506.284.509.276.502.27H.51zm0-.049l.003.008h.009L.518.226l.003.01L.514.23.506.235.51.227.503.22H.51zm-.04.024l.002.008h.008L.477.25.48.26.473.253.465.26.468.251.46.245h.01zm.028 0l.002.008h.009L.506.25l.002.01L.501.253.493.26.496.251.49.245h.008zm.028 0l.003.008H.54L.534.25l.003.01L.529.253.522.26.525.251.518.245h.008zm.028 0L.56.245h.008L.562.25l.003.01L.558.253.55.26.553.251.546.245h.008zM.515.312L.517.32h.009L.52.325l.003.01L.515.328.507.334.51.325.504.32h.008zM.472.288l.002.008h.009L.477.301l.002.01L.472.304.464.31.467.3.461.296h.008zm.028 0l.003.008H.51L.505.301l.003.01L.5.304.493.31.496.3.489.296h.008zm.03 0l.002.008h.009L.535.301l.003.01L.53.304.523.31.526.3.519.296h.008zm.029 0L.56.296h.01L.564.301l.003.01L.559.304.551.31.554.3.548.296h.008zM.543.263L.546.27h.008L.548.276l.003.009L.543.28.536.285.539.276.532.271H.54zm-.058 0L.487.27h.01L.49.276l.003.009L.485.28.478.285.48.276.474.271h.008z"/><path fill="#FFF" stroke="#E8CC0C" stroke-width=".004" d="M.588.517v.158c0 .007-.002.011-.01.011H.522C.515.686.517.689.514.692.513.69.514.686.507.686H.451C.443.686.44.683.438.676V.518h.15z"/><path fill="#CE171E" d="M.45.684h.012v-.11H.45zm.024 0h.012v-.11H.474zm.023 0h.011v-.11H.497zm.024 0h.011v-.11H.521zm.022 0h.012v-.11H.543zm.023 0h.012v-.11H.566z"/><path fill="#005696" d="M.44.519h.147v.056H.44z"/></svg>