<svg xmlns="http://www.w3.org/2000/svg" width="719" height="720" viewBox="0 0 129.996 130.238"><path fill="#00538E" d="M0 0h129.996v130.238H0z"/><path fill="#FFF" d="M78.611 96.076c0 9.138-7.175 12.953-15.451 12.688-2.938-.095-5.799-.838-8.916-1.855l.707-6.578c2.638 1.086 6.057 2.263 8.92 2.219 3.74-.058 7.477-1.794 7.477-6.124 0-3.335-2.67-4.976-5.252-6.283-5.709-2.896-12.275-4.907-12.275-12.998 0-7.65 6.084-11.64 13.625-11.64 2.741 0 6.014.477 9.299 1.641l-.985 6.478c-3.577-1.403-5.14-1.901-8.078-1.901-3.253 0-6.597 1.143-6.597 4.896 0 2.933 3.01 4.456 5.248 5.573 6.065 3.026 12.278 5.511 12.278 13.884M44.561 106.8c-2.632.901-6.662 1.964-13.092 1.964-13.195 0-22.027-8.529-22.027-21.805 0-12.882 9.375-21.455 22.086-21.455 6.036 0 8.727.896 12.541 2.212l-.574 7.216c-3.51-2.294-6.498-3.211-11.674-3.211-9.09 0-15.158 6.578-15.115 15.412.043 9.506 6.648 15.416 14.822 15.416 2.437 0 4.508-.178 5.996-.569V91.15h-7.861v-6.103h14.898V106.8m57.48-42.213l10.022 22.331h-6.983l-3.039-7.421-3.045 7.421h-6.982l10.027-22.331m10.137 22.592l9.329 20.85h-7.331l-6.973-16.19 4.975-4.66m-20.278.004l4.973 4.658-3.674 8.399 8.828-4.629 5.082 3.914-17.382 8.506H82.57l9.33-20.848"/></svg>