<svg xmlns="http://www.w3.org/2000/svg" version="1.0" width="718.078" height="718.078" viewBox="0 0 249.999 249.999" overflow="visible"><path d="M125.001 249.999c69.031 0 124.998-55.963 124.998-125.001C249.999 55.968 194.032 0 125 0 55.965-.001 0 55.967 0 124.998c0 69.038 55.965 125.001 125.001 125.001z" fill="#e0af35"/><path d="M125.001 246.247c67 0 121.32-54.313 121.32-121.321 0-67.006-54.32-121.326-121.32-121.326C57.997 3.6 3.68 57.92 3.68 124.926c0 67.009 54.317 121.321 121.321 121.321z" fill="#fff"/><path d="M125.001 220.994c53.052 0 96.068-43.012 96.068-96.068 0-53.059-43.017-96.066-96.068-96.066-53.058 0-96.067 43.007-96.067 96.066 0 53.056 43.01 96.068 96.067 96.068z" fill="#e0af35"/><path d="M125.001 218.624c51.746 0 93.699-41.95 93.699-93.698 0-51.749-41.953-93.7-93.699-93.7-51.743 0-93.7 41.951-93.7 93.7 0 51.748 41.957 93.698 93.7 93.698z" fill="#124471"/><path fill="#fff" stroke="#000" stroke-width=".074" stroke-linejoin="round" d="M131.647 138.149l-8.955-.081 8.955-.862"/><path d="M118.644 188.047l4.048 2.169 4.189-2.169-4.189-45.21-4.048 45.21zm4.048-46.222l14.392 43.927 3.196 1.268 1.838-2.507-19.426-42.688zm14.441 44.127l-2.091 2.69-3.071-1.294-9.279-45.232 14.441 43.836zm-5.167 1.505l-2.213 1.742-2.904-1.119-4.157-45.389 9.274 44.766zm-9.274-45.632l-14.395 43.927-3.196 1.268-1.836-2.507 19.427-42.688zm-14.448 44.127l2.094 2.69 3.077-1.294 9.277-45.232-14.448 43.836zm5.173 1.505l2.206 1.742 2.908-1.119 4.162-45.389-9.276 44.766z" fill="#fff" stroke="#fff" stroke-width=".223" stroke-linejoin="round"/><path fill="#fff" stroke="#000" stroke-width=".074" stroke-linejoin="round" d="M126.881 188.047l-4.189-45.21-4.048 45.21h0l4.048 2.169z"/><path d="M122.692 188.335v-45.389m8.813-5.269l-8.813.392" fill="none" stroke="#000" stroke-width=".074" stroke-linejoin="round"/><path fill="#fff" stroke="#000" stroke-width=".074" stroke-linejoin="round" d="M131.432 139.077l-8.74-.789 8.595-.136"/><path fill="none" stroke="#000" stroke-width=".074" stroke-linejoin="round" d="M131.213 138.592l-8.521-.304"/><path fill="#fff" stroke="#000" stroke-width=".074" stroke-linejoin="round" d="M131.442 140.029l-8.75-1.493 8.74.541"/><path fill="none" stroke="#000" stroke-width=".074" stroke-linejoin="round" d="M131.422 139.542l-8.73-1.006"/><path fill="#fff" stroke="#000" stroke-width=".074" stroke-linejoin="round" d="M131.276 140.972l-8.584-2.18 8.74 1.215"/><path fill="none" stroke="#000" stroke-width=".074" stroke-linejoin="round" d="M131.541 140.561l-8.849-1.769"/><path fill="#fff" stroke="#000" stroke-width=".074" stroke-linejoin="round" d="M131.261 142.021l-8.569-2.972 8.72 1.953"/><path fill="none" stroke="#000" stroke-width=".074" stroke-linejoin="round" d="M131.715 141.688l-9.023-2.639"/><path fill="#fff" stroke="#000" stroke-width=".074" stroke-linejoin="round" d="M131.573 143.342l-8.881-4.004 8.93 2.899"/><path fill="none" stroke="#000" stroke-width=".074" stroke-linejoin="round" d="M131.632 142.717l-8.94-3.379"/><path fill="#fff" stroke="#000" stroke-width=".074" stroke-linejoin="round" d="M132.021 145.053l-9.329-5.468 8.876 3.764"/><path fill="none" stroke="#000" stroke-width=".074" stroke-linejoin="round" d="M132.076 144.355l-9.384-4.77"/><path fill="#fff" stroke="#000" stroke-width=".074" stroke-linejoin="round" d="M132.409 147.12l-9.717-7.28 9.246 5.155"/><path fill="none" stroke="#000" stroke-width=".074" stroke-linejoin="round" d="M132.441 146.228l-9.749-6.388"/><path fill="#fff" stroke="#000" stroke-width=".074" stroke-linejoin="round" d="M132.636 149.49l-9.944-9.326 9.835 6.988"/><path fill="none" stroke="#000" stroke-width=".074" stroke-linejoin="round" d="M132.379 148.104l-9.687-7.94"/><path fill="#fff" stroke="#000" stroke-width=".074" stroke-linejoin="round" d="M132.917 152.679l-10.225-12.15 9.922 8.856"/><path fill="none" stroke="#000" stroke-width=".074" stroke-linejoin="round" d="M132.786 151.012l-10.094-10.483"/><path fill="#fff" stroke="#000" stroke-width=".074" stroke-linejoin="round" d="M133.209 157.147l-10.517-16.259 10.296 11.795"/><path fill="none" stroke="#000" stroke-width=".074" stroke-linejoin="round" d="M132.509 153.769l-9.817-12.881"/><path fill="#fff" stroke="#000" stroke-width=".074" stroke-linejoin="round" d="M134.721 168.313l-12.029-26.887 10.572 15.732"/><path fill="none" stroke="#000" stroke-width=".074" stroke-linejoin="round" d="M133.623 161.166l-10.931-19.74"/><path fill="#fff" stroke="#000" stroke-width=".074" stroke-linejoin="round" d="M140.28 187.019l1.838-2.506-19.426-42.688h0l14.391 43.927z"/><path fill="none" stroke="#000" stroke-width=".074" stroke-linejoin="round" d="M122.692 141.825l17.134 43.833"/><path fill="#fff" stroke="#000" stroke-width=".074" stroke-linejoin="round" d="M131.971 187.349l-9.279-45.233 14.441 43.836h0l-2.091 2.691z"/><path fill="none" stroke="#000" stroke-width=".074" stroke-linejoin="round" d="M134.628 187.366l-11.936-45.25"/><path fill="#fff" stroke="#000" stroke-width=".074" stroke-linejoin="round" d="M126.849 188.08l-4.157-45.389 9.274 44.766h0l-2.213 1.742z"/><path fill="none" stroke="#000" stroke-width=".074" stroke-linejoin="round" d="M129.477 188.269l-6.785-45.578"/><path fill="#fff" stroke="#000" stroke-width=".074" stroke-linejoin="round" d="M113.737 138.149l8.955-.081-8.955-.862"/><path fill="none" stroke="#000" stroke-width=".074" stroke-linejoin="round" d="M113.878 137.677l8.814.391"/><path fill="#fff" stroke="#000" stroke-width=".074" stroke-linejoin="round" d="M113.95 139.077l8.742-.789-8.596-.136"/><path fill="none" stroke="#000" stroke-width=".074" stroke-linejoin="round" d="M114.169 138.592l8.523-.304"/><path fill="#fff" stroke="#000" stroke-width=".074" stroke-linejoin="round" d="M113.938 140.029l8.754-1.493-8.742.541"/><path fill="none" stroke="#000" stroke-width=".074" stroke-linejoin="round" d="M113.954 139.542l8.738-1.006"/><path fill="#fff" stroke="#000" stroke-width=".074" stroke-linejoin="round" d="M114.1 140.972l8.592-2.18-8.742 1.215"/><path fill="none" stroke="#000" stroke-width=".074" stroke-linejoin="round" d="M113.837 140.561l8.855-1.769"/><path fill="#fff" stroke="#000" stroke-width=".074" stroke-linejoin="round" d="M114.12 142.021l8.572-2.972-8.728 1.953"/><path fill="none" stroke="#000" stroke-width=".074" stroke-linejoin="round" d="M113.666 141.688l9.026-2.639"/><path fill="#fff" stroke="#000" stroke-width=".074" stroke-linejoin="round" d="M113.804 143.342l8.888-4.004-8.934 2.899"/><path fill="none" stroke="#000" stroke-width=".074" stroke-linejoin="round" d="M113.747 142.717l8.945-3.379"/><path fill="#fff" stroke="#000" stroke-width=".074" stroke-linejoin="round" d="M113.357 145.053l9.335-5.468-8.88 3.764"/><path fill="none" stroke="#000" stroke-width=".074" stroke-linejoin="round" d="M113.305 144.355l9.387-4.77"/><path fill="#fff" stroke="#000" stroke-width=".074" stroke-linejoin="round" d="M112.969 147.12l9.723-7.28-9.251 5.155"/><path fill="none" stroke="#000" stroke-width=".074" stroke-linejoin="round" d="M112.938 146.228l9.754-6.388"/><path fill="#fff" stroke="#000" stroke-width=".074" stroke-linejoin="round" d="M112.736 149.49l9.956-9.326-9.839 6.988"/><path fill="none" stroke="#000" stroke-width=".074" stroke-linejoin="round" d="M113.002 148.104l9.69-7.94"/><path fill="#fff" stroke="#000" stroke-width=".074" stroke-linejoin="round" d="M112.461 152.679l10.231-12.15-9.925 8.856"/><path fill="none" stroke="#000" stroke-width=".074" stroke-linejoin="round" d="M112.593 151.012l10.099-10.483"/><path fill="#fff" stroke="#000" stroke-width=".074" stroke-linejoin="round" d="M112.166 157.147l10.526-16.259-10.297 11.795"/><path fill="none" stroke="#000" stroke-width=".074" stroke-linejoin="round" d="M112.868 153.769l9.824-12.881"/><path fill="#fff" stroke="#000" stroke-width=".074" stroke-linejoin="round" d="M110.658 168.313l12.034-26.887-10.578 15.732"/><path fill="none" stroke="#000" stroke-width=".074" stroke-linejoin="round" d="M111.755 161.166l10.937-19.74"/><path fill="#fff" stroke="#000" stroke-width=".074" stroke-linejoin="round" d="M105.101 187.019l-1.836-2.506 19.427-42.688h0l-14.395 43.927z"/><path fill="none" stroke="#000" stroke-width=".074" stroke-linejoin="round" d="M122.692 141.825l-17.136 43.833"/><path fill="#fff" stroke="#000" stroke-width=".074" stroke-linejoin="round" d="M113.415 187.349l9.277-45.233-14.448 43.836h0l2.094 2.691z"/><path fill="none" stroke="#000" stroke-width=".074" stroke-linejoin="round" d="M110.75 187.366l11.942-45.25"/><path fill="#fff" stroke="#000" stroke-width=".074" stroke-linejoin="round" d="M118.53 188.08l4.162-45.389-9.275 44.766h0l2.206 1.742z"/><path fill="none" stroke="#000" stroke-width=".074" stroke-linejoin="round" d="M115.902 188.269l6.79-45.578"/><path d="M193.395 179.815s-2.167-.289-3.431-1.592c-.91-.937-2.316-4.189-2.316-4.189-1.943-4.363-4.663-8.476-9.348-8.476-4.679 0-10.037 5.407-11.979 9.779 0 0-.335.648-.73.937-.396.289-1.156.22-1.156.22H68.162a3.539 3.539 0 00-3.533 3.321v-.005a3.543 3.543 0 003.533 3.328h96.273s.76-.075 1.156.212c.396.289.73.938.73.938 1.941 4.372 7.3 9.783 11.979 9.783 4.685 0 7.404-4.108 9.348-8.479 0 0 1.406-3.254 2.316-4.191 1.264-1.297 3.431-1.586 3.431-1.586z" fill="#b2b2b2" stroke="#000" stroke-width=".074"/><path d="M66.466 177.397c.612-.582 1.477-.545 1.877-.545h96.741s.902-.105 1.12-.289c.414-.349.541-.65.541-.65 1.694-3.862 7.269-9.641 11.555-9.641 4.285 0 6.936 3.898 8.633 7.762 0 0 .521 1.327 1.152 2.621m-21.815 5.468l.908 1.264c1.7 3.867 6.836 9.963 11.122 9.963 4.285 0 6.936-3.894 8.633-7.757 0 0 1.083-2.746 2.02-4.191.883-1.354 2.096-1.586 2.096-1.586h.76c-1.228.433-2.169 1.013-2.169 1.013" fill="none" stroke="#000" stroke-width=".074" stroke-linecap="round"/><path d="M190 179.815s-.939.354-1.298 1.229c-1.16 2.74-3.106 3.243-4.192 4.548-1.084 1.299-1.73 2.594-2.815 3.61-1.184 1.101-3.396.866-3.396.866s2.026-.939 2.677-1.299c.645-.362 1.655-1.59 1.73-2.389.072-.789 0-2.159 0-2.159s3.535-.294 4.19-1.159c.645-.866 1.298-3.248 1.298-3.248H190m-21.738.001h-1.375s1.81-2.819 2.743-3.902c.944-1.083 2.17-2.819 2.677-3.537.502-.724 1.227-2.169 1.227-2.169l1.01 1.156-1.085 4.116-3.464 1.084-1.733 3.252"/><path d="M173.136 175.121c-.06-.259-.022-.093-.037-.359a4.765 4.765 0 014.51-5.001 4.761 4.761 0 014.984 4.51c.015.274.029.542 0 .801.241-.055.518-.086.774-.098a4.754 4.754 0 01.483 9.494 6.338 6.338 0 01-.93-.035c.037.249.134.608.134.871a4.757 4.757 0 11-9.449-.776c-.264.038-.523.038-.797.038a4.752 4.752 0 01-4.754-4.75 4.759 4.759 0 014.754-4.759c.275 0 .066.018.328.064z" fill="#b2b2b2" stroke="#000" stroke-width=".074"/><path d="M181.673 183.193c.631.353 1.36.542 2.133.498a3.974 3.974 0 003.772-4.171 3.972 3.972 0 00-6.249-3.061 3.897 3.897 0 00.491-2.145 3.974 3.974 0 00-4.173-3.771 3.979 3.979 0 00-3.774 4.173c.028.483.14.944.313 1.363a3.978 3.978 0 10-1.377 7.712c.787 0 1.507-.203 2.116-.603a4.068 4.068 0 00-.606 2.114 3.98 3.98 0 107.354-2.109z" fill="#124471" stroke="#000" stroke-width=".074"/><path d="M66.466 182.231c.612.58 1.477.546 1.877.546h96.741s.902.105 1.12.286c.414.349.541.649.541.649" fill="none" stroke="#000" stroke-width=".074" stroke-linecap="round"/><path d="M167.574 184.223s-.79-1.697-1.588-2.025c-.792-.327-2.383-.218-2.383-.218H67.37c-.614 0-1.952-.794-1.952-1.842 0 0 .794 1.194 1.952 1.264h96.233s1.987-.146 2.564.289c.578.432 1.407 2.532 1.407 2.532"/><path d="M161.619 185.234a1.3 1.3 0 001.298-1.306V174a1.298 1.298 0 10-2.595 0v9.928a1.3 1.3 0 001.297 1.306z" fill="#b2b2b2" stroke="#000" stroke-width=".074"/><path d="M160.322 183.533c0 .714.577 1.303 1.297 1.303.721 0 1.298-.589 1.298-1.303m-2.595-8.915a1.298 1.298 0 112.595 0" fill="none" stroke="#000" stroke-width=".074"/><path d="M162.916 182.561c0 .718-.577 1.299-1.298 1.299-.72 0-1.297-.581-1.297-1.299v.251a1.298 1.298 0 102.595 0v-.251z" stroke="#000" stroke-width=".074"/><path d="M78.026 176.228c.115-.238.22-.479.327-.728" fill="#94693c"/><path d="M65.028 172.191c2.197.686 4.51-.869 6.355-2.199l.29.402c-.808 3.177-.579 6.82-1.792 9.822l1.501.176.173-.577c1.084-.63 2.376-1.452 3.475-2.451 0 0 3.535-1.499 3.288-1.536l1.27-2.774c3.292-2.429 5.025-5.893 6.76-9.185 3.409-8.608 5.37-18.029 5.832-27.739 0 0 .927-.398 1.1-.11.234.089 2.49-.215 2.93-1.009l1.808.43 2.371-.118c1.634-.416 2.312-1.466 2.625-2.75l1.388-.137 3.093-2.688c-.801-.994-1.27-1.643-2.123-2.886 0 0-4.78-6.126-6.196-17.825-.781-6.464.816-17.769.816-17.769h2.074c-2.485-1.154-5.433-2.571-7.108-5.058-1.214-6.412 4.044-12.072 1.388-18.313-4.684-7.625-14.966-8.146-22.473-5.375-12.657 7.455-13.237 22.361-15.489 35.361l-2.076 29.529c-.522 7.223.401 14.501-.292 21.605 1.732-.573 3.465-1.617 4.679-3.178 1.042 4.855.463 10.346 0 15.251 2.427-.052 4.451-1.849 5.72-3.75l.288.286c-.173 4.854-.805 9.476-1.963 13.868l.288.697zm127.286-28.255c-5.319-16.582-2.776-35.36-6.126-52.696l.289-1.266c-1.041-6.418-4.159-12.02-6.241-18.028-2.426-5.027-4.792-10.865-10.4-13.869-3.698-3.175-9.42-1.62-13.691-.805-4.22 1.79-10.287 4.909-10.167 10.513-.175 4.566 2.309 8.032 2.771 12.365-.115 5.255-6.384 9.041-9.969 11.121h6.558s1.343 5.617 1.102 12.868c-.222 6.854-1.299 14.55-6.047 22.134-.152.242-2.175 3.275-5.543 6.981l6.851 2.392.574-1.844c.163.293.402.288.685.436.665.354 1.658.164 2.425.238l1.458-.133c.868-.286 1.675-.982 1.907-1.962l.869.286.4.29c.811.117 2.14.464 2.66-.29l1.097 1.792.695 3.062c3.694 9.594 4.042 21.208 13.574 27.732l.811.403 1.673.697 4.455 6.524c1.266 1.623 2.886 2.488 4.444 3.467.65.096 1.594 1.997 2.072 1.451l.704-1.853-1.274-6.646c.972.424 2.094.355 2.999.641l1.453-1.214c-1.273-4.044-1.967-8.437-2.661-12.772v-.895c3.454 2.227 4.852.493 4.852.493-1.094-4.336-1.789-9.709-2.077-14.851l.617-.183c.413.974.937 1.887 1.639 2.725.75.75 1.733 1.329 2.772 1.099l1.79-.403z" fill="#94693c" stroke="#000" stroke-width=".074"/><path stroke-miterlimit="2" d="M134.504 91.269c-.172-1.201-.836-3.264-1.243-4.651.469-2.024-1.444-3.928-.692-5.775-1.271-3.472-1.557-6.935-1.674-10.69-.526-2.313-.635-4.797-1.562-6.935-1.096-2.48-4.368-3.33-6.354-3.756-1.984-.426-5.142-.576-5.142-.576-.922-.082-2.5.497-2.372 1.192 1.126 1.726.977 3.421.689 4.823l-2.751.703c2.297.582 4.591 2.329 4.361 3.528-.345 1.048-2.076 1.228-2.298 1.02 0 0-3.177-2.823-3.589-2.944-.415-.114-1.572-.966-1.392-.739.092.107 1.157 1.472 1.949 2.258.753.746 1.136 1.857 1.136 1.857.717.742 1.065 1.364.972 2.862l-.979 2.77-.695 2.661c0 1.388-1.561 2.654-1.386 4.157-.521 1.097-1.271 2.369-.982 3.47l-1.964 4.765h25.968z" fill="#fff" stroke="#000" stroke-width=".074" stroke-linecap="square"/><path stroke-miterlimit="2" d="M115.466 60.078c1.083 1.726 1.017 3.388.689 4.823l-2.751.703c2.297.582 4.591 2.329 4.361 3.528-.345 1.048-2.076 1.228-2.298 1.02 0 0-3.177-2.823-3.589-2.944-.415-.114-1.572-.966-1.392-.739.092.107 1.157 1.472 1.949 2.258.753.746 1.136 1.857 1.136 1.857-4.748-2.609-6.519-2.943-6.519-2.943l-.67.795c-.264-2.77-.989-5.372.579-7.66 1.574-1.68 5.669-1.098 8.505-.698z" fill="#e0af35" stroke="#e0af35" stroke-width=".074" stroke-linecap="square"/><path stroke-miterlimit="2" d="M113.57 70.585c-4.782-2.354-6.519-2.943-6.519-2.943l-.67.795c-.264-2.77-.989-5.372.579-7.66 1.576-1.681 5.671-1.1 8.507-.699" fill="none" stroke="#000" stroke-width=".074" stroke-linecap="square"/><path d="M113.675 76.39c.982-1.267 1.757-2.489 2.256-4.445-.232-.178-.232-.408-.466-.578-.43.185-.46 1.615-.63 2.368l-1.16 2.655m-2.113-9.189s2.667 1.946 3.93 3.146c1.066.267 2.234-.227 2.544-1.35-.02-.589-.852-1.653-1.964-2.398-.439-.192-.977-.559-1.477-.754.948.824 2.97 1.811 2.53 3.576-.886.843-1.359.522-1.863.075l-3.7-2.295m1.385-.213l3.25 1.488c.017-.007.678.007 0-.217-2.598-1.154-4.797-4.161-7.856-2.889-1.042.582-1.496 2.144-1.96 3.067l.644-.774s.777-1.32 1.274-1.483c2.116-.692 3.378.141 3.378.141l1.27.667m2.298-2.221c-.117.184.241.604.068.684-.508.246-1.91.16-2.583 0 .392-.111 1.762-1.208 2.515-.684m-6.2-4.071c-1.632 1.145-1.777 2.408-2.417 4.198-.174-2.137.497-4.46 2.417-4.198m3.667 9.218c-2.375-1.825-2.697-1.864-5.31-2.862l.294-.422c2.717 1.062 3.78 2.077 3.78 2.077l1.236 1.207m3.442-6.132l.19.537c1.191-1.301.605-2.771-.879-4.241l.53 1.442c.49 1.63.063 1.839.16 2.262"/><path stroke-miterlimit="2" d="M116.442 64.976c1.215-.175 1.278 1.942 2.781 1.824 1.214.061 2.312-.737 2.912-1.97.979.113 1.817.228 2.664-.221l.148-.177c-.859.318-1.808.142-2.759-.16-1.193-.381-2.391-1.243-3.398-1.247-1.014-.07-1.439.622-1.907 1.651l-.441.3z" stroke="#000" stroke-width=".074" stroke-linecap="square"/><path d="M118.487 63.953c-.056.636-.24 1.281.593 1.609 1.048.212 1.19-.434 1.424-1.162.131-.075.87.194.877.295-.104.465-.46 1.263-1.174 1.555-.51.138-.896.164-1.356-.018-.704-.267-1.303-1.214-1.303-1.771-.116-.349.59-.618.94-.508" fill="#fff"/><path d="M109.542 91.269c.685-.134 1.251-.838 1.938-1.009.29.344-1.157.661-.87 1.009h-1.068m5.593 0c.688-.232 1.604-1.417 2.412-1.417.464.352-.725.898-.552 1.417h-1.86m8.436 0c.58-.292 1.314-1.47 2.064-1.295.691.23.018.748-.273 1.295h-1.79m8.087 0l-.52-.795c-.059-.289-.652-.731-.42-.91.636.409.636.91 1.784 1.705h-.844m-13.13-10.603c-.576.639-1.388.922-2.194.982-.522.117-.87-.169-1.27-.403v-.289c.98.231 1.731.522 2.654 0 .292-.113.463-.403.81-.29m5.433-.461c-1.27 2.183-2.066 1.825-3.54.578-.288-.117 1.516.508 1.948.33l1.592-.908m3.173 7.8c-.865.174-1.559 1.445-2.48.579-.579-.461-.984-1.04-.867-1.79.867.575 1.737.75 2.657.288.863-1.332 2.37-1.792 2.37-3.465.4 1.555-.756 3.177-1.68 4.388m-7.336.693c-.634-.17-1.5.404-2.253 0-.75-.519-.632-1.442-.924-2.194.924.98 1.677 1.271 2.774 1.098.923-1.042 2.425-2.139 3.005-3.47-.524 1.676-1.5 3.177-2.602 4.566m-6.642 0c-.52-.462-1.04.347-1.559-.114-.292-.922-.579-2.023-.292-3.06.406.687.115 1.785 1.154 2.078 1.563.173 1.677-1.738 2.891-2.199-.172 1.336-1.615 2.141-2.194 3.295m-52.575 5.028c2.943-5.951 4.908-12.363 6.238-19.01-1.505 6.589-2.541 13.346-6.238 19.01"/><path d="M98.426 104.13c-.522-.523-.234-1.562.288-2.088l-.288 2.088" fill="#94693c"/><path d="M59.75 124.856c-.528 6.326-.968 12.671-1.136 19.08 1.494-6.038 1.91-12.574 2.258-19.08H59.75m6.413 0c-.017.748-.028 1.506-.04 2.267-.46 1.788-1.902 3.178-2.655 4.85-2.424 5.2-1.384 11.963-6.76 15.83.522.754.984-.171 1.5-.284 3.929-2.199 3.297-7.055 5.26-10.4.232 5.196.057 10.803.694 15.654 1.618-5.777.52-12.477.463-18.543.576-2.085 1.734-3.929 3-5.725.047-1.222.086-2.435.126-3.649h-1.588m6.83 0c-.232 4.194-.533 8.352-1.032 12.378-2.137 2.424-2.716 5.541-3.178 8.605-2.082 4.855-1.62 11.15-7.223 14.153l-.173.406c2.429-.113 4.448-2.948 5.549-4.851 1.097-3.004 2.134-6.007 3.233-9.015.29 5.951-.462 12.193-.982 17.91 2.43-6.583 2.369-14.56 2.082-21.896.287-1.676.867-3.296 2.368-4.334l.554-13.359h-1.197m7.082.003c-.234 7.375-.768 14.789-1.471 21.964-3.696 5.725-5.26 12.307-6.643 19.015-.578 2.653-3.235 4.56-5.547 5.66H64.74l.289.696c2.659.224 4.679-1.216 6.646-2.777-.347-2.197 1.672-3.468 2.08-5.372.926-2.662 1.212-5.607 2.654-8.092-.58 5.376-1.038 10.918-1.846 15.95 1.559-2.717 1.559-6.182 2.254-9.245.52-4.162 1.21-8.147 1.503-12.365l1.964-1.963s.53-13.001.965-23.471h-1.173m5.595 0c-.372 10.244-1.02 20.885-1.633 31.094-4.74 4.914-3.238 12.363-6.702 17.798-.265 1.375-1.18 2.59-2.305 3.616l3.322-1.864c2.137-4.912 3.679-10.57 5.224-15.909l2.364-2.775c.458-11.11.916-21.534 1.059-31.959h-1.33m6.627-.001c-.242 3.824-.693 7.694-.117 11.274l.55-.054c.548-3.344.633-7.374.757-11.22h-1.19m2.819 0c-.201 2.841-.58 5.699-.852 8.503 0 0 .406.214.456.021.746-2.633.884-5.687.969-8.524h-.573m2.81 0c-.101 3.645-.591 8.107-1.716 10.155l1.808.43c.606-3.439.799-6.921.91-10.584h-1.002m3.12-.001c-.182 2.738-.583 5.482-.658 8.1.902-2.149 1.19-5.197 1.36-8.1h-.702m2.986 0c.033.059.047.1.047.1-.425 1.577-.654 5.908-1.065 7.617l2.258 2.028c0-1.382 5.915-.734 5.915-.734-3.024-3.049-5.301-6.067-7.012-9.01h-.143m.142-.001c-3.977-6.829-4.914-13.205-5.184-18.446-.106-4.21.156-7.556.156-7.556l-1.243 3.31c-1.501.923-2.774.169-4.161-.405-.75-1.04-1.964-2.138-1.271-3.584.46-.752 1.04-1.153 1.5-1.675-1.331.461-3.06 2.308-4.68.806-.687-1.673-2.194-3.174-1.383-5.255.46-.631.634-1.446 1.384-1.967-.75-.17-1.673.461-2.364-.23-1.041-1.617-.867-3.348-.696-5.313.637-.692.983-1.387 1.79-1.793-.924-.404-2.2-1.267-2.082-2.598.174-2.888.988-5.547 3.064-7.627l-.113-.171c-2.43 2.195-5.493 3.927-8.786 2.773-1.1-.464-1.211-1.676-1.502-2.602-1.555 2.602-4.675 3.239-7.627 3.465-1.615-.113-2.541-1.968-4.041-2.364.689 1.149 1.905 2.655 3.233 3.466-.576 6.178-2.888 11.61-5.545 16.93-1.33 1.614-3.638 1.385-5.55 1.789.695.984 2.313.752 3.009 1.79-.614 9.124-1.57 18.172-2.333 27.259h1.122c.242-4.578.454-9.141.977-13.507l.695-13.752 2.77-1.502 2.489 2.603c-.905 8.738-1.47 17.188-1.64 26.159h1.587c.264-8.33.409-16.553.859-25.18.693-.518 1.968-.176 2.66-.286.692 1.728 1.446 3.466 2.887 4.74-.576 6.643-.771 13.727-1.162 20.726h1.197l.832-20.037c.173-.349.52-.288.805-.288.869 2.308 1.275 5.774 4.278 6.238.135 4.634.11 9.354-.031 14.087h1.172c.29-7.07.535-12.986.535-12.986.81 1.324 1.85 3.462 3.758 3.353h.4c-.053 3.15-.15 6.374-.27 9.634h1.329c.035-2.746.057-5.49.042-8.249 1.563.81 2.83 2.772 5.028 2.19l.288.409c.132 1.847.068 3.743-.06 5.649h1.19c.056-1.861.123-3.682.255-5.363.404.174 1.214.637 1.502 1.271a50.599 50.599 0 01-.13 4.091h.573c.039-1.292.067-2.546.136-3.682l2.08.401c.046.919.057 2.055.022 3.281h1.003c.027-.891.046-1.789.073-2.706l2.08-1.56c.1 1.406.062 2.837-.035 4.265h.703c.088-1.549.149-3.058.24-4.375 0 0 1.738 3.72 2.042 4.375h.144"/><path d="M98.018 173.054c-.806-.177-1.559-.29-2.368-.465 3.177-12.077 3.699-25.42 7.107-37.267 1.212-1.038.867-3.317 5.892-3.925.321.747-3.149.607-3.81 2.371 3.406-2.199 5.311-1.389 7.335.171 6.182 4.678 2.195 13.633 2.368 20.107l-.46.977-.405 13.582c-.749 1.387-.287 3.295-.404 4.966-1.502-.461-3.292-2.249-5.142-.982h-.521l-9.592.465zm6.653-47.406l-1.047 7.15s2.312-1.375 2.962-1.591c.649-.212 1.984-.176 1.984-.176s-1.516-1.845-2.055-2.564c-.543-.723-1.844-2.819-1.844-2.819z" fill="#94693c" stroke="#000" stroke-width=".074"/><path d="M83.868 167.329c-.931 1.104-1.506 2.432-2.778 3.178.693-2.479 3.005-4.91 4.044-7.621 3.697-8.323 5.315-17.566 6.069-27.154.458 11.381-2.198 22.181-7.335 31.597m10.105-84.987c-.401 2.197 0 4.396 1.272 6.125-3.584-3.063-1.965-7.624-1.386-11.558.693-2.77 2.599-5.774 1.27-8.724 3.005 4.566-1.095 9.306-1.156 14.157"/><path d="M80.107 77.201c-1.211 7.049-4.738 13.117-9.013 18.894-.808.749-2.136.806-3.177.405-.753-.351-1.443-1.153-1.906-1.793 2.08-5.486 4.222-10.979 5.083-16.922 2.719.284 4.852-1.506 6.932-2.952.409.927 1.39 1.614 2.08 2.368m6.009 6.125c-1.036 1.964-2.02 4.219-1.385 6.527-2.774 4.047-4.854 8.784-9.012 11.906-1.45.688-2.6-.754-3.061-1.794-1.853-3.87 3-6.299 3.867-9.705 2.02-4.104 3.758-8.265 4.742-12.769 1.906.171 3.464-.638 4.849-1.796-.636 2.259-2.538 5.723 0 7.631" fill="#94693c"/><path d="M74.56 85.118c-.577-.468 0-1.332.175-1.965.809-1.621 1.272-3.411 1.672-5.259l.117.407-1.963 6.817m2.543 12.365c-1.04.751-1.675 2.364-3.232 1.789-.291-1.157 1.269-.925 1.847-1.559 3.177-4.797 5.66-9.938 7.859-15.253-1.74 5.202-4.107 10.112-6.474 15.023m10.805-10.284l2.195-1.391c-.232 1.04-1.33 1.213-2.195 1.391M72.367 91.24c-1.041 1.215-1.215 3.466-3.064 4.163 2.023-2.661 3.237-6.183 4.452-9.477.4 2.079-1.215 3.177-1.388 5.314"/><path d="M87.216 97.305c.46.869 2.194.869 1.677 2.085-2.316 3.291-3.988 7.217-7.397 9.705-1.737.694-3.008-1.273-3.987-2.367-.521-.929-.75-1.909-.867-3.009 4.1-3.524 5.894-8.26 8.61-12.479 2.539 1.04.289 4.275 1.964 6.065" fill="#94693c"/><path d="M90.685 95.225l2.19-2.884c-.518 1.15-1.04 2.138-2.19 2.884m5.66 4.565l.867-1.907-.177 1.214-.69.693"/><path d="M93.572 103.142h.4v.696l-6.238 9.705c-.58.574-1.56.695-2.31.404-1.212-.863-2.778-2.02-2.778-3.582 3.702-2.713 4.917-6.989 7.169-10.575.692 1.389 1.733 3.526 3.757 3.352" fill="#94693c"/><path d="M80.107 107.014h-1.211c-.291-.867 1.098-.52 1.504-1.097 1.614-1.737 2.829-3.64 4.04-5.543-1.041 2.365-2.54 5.08-4.333 6.64"/><path d="M97.035 104.414c-.345 1.963 2.487 2.777 1.562 4.854-2.082 2.481-2.833 5.777-5.142 8.318-1.62 1.273-3.005-.578-4.335-1.27a3.935 3.935 0 01-.69-1.497c3.06-3.125 4.563-6.821 6.41-10.405.635.579 1.447 0 2.195 0" fill="#94693c"/><path d="M86.52 112.041c-.518.349-.98.752-1.673.692 2.134-1.677 3.696-4.449 5.142-6.817l-3.47 6.125"/><path d="M100.264 114.946c-.184.947-1.132 2.062-2.13 2.64-.461-.117-.865.058-1.21.407-.117.23.11.404.288.518.923 0 1.733-.401 2.486-.925.23-.403.674-.898.909-1.297.087.719.454 1.487.688 2.318-.127.191-.986.646-1.311.773-1.675 1.328-3.581 0-5.027-.869l-.405-.401 4.702-8.661c.079 1.697.613 3.778 1.01 5.497" fill="#94693c"/><path d="M90.104 115.911c2.485-.979 3.408-3.757 4.736-5.838-1.268 2.081-1.445 5.955-4.736 5.838m-6.762-43.39c.526-.984.636-2.137 1.62-2.947.229 1.157-.75 2.08-1.62 2.947m4.68 5.546c-.057-1.037 1.097-1.327 1.675-2.372-.057.695-1.21 1.619-1.675 2.372m58.415 26.112c-.147 2.959.443 16.778-11.61 29.029l6.871 2.437.574-1.844c.163.293.402.288.685.436.665.354.501.238 1.271.307l2.612-.201c.868-.286 1.675-.982 1.907-1.962l.87.286.4.29c.81.117 2.14.464 2.66-.29l1.096 1.792.695 3.062c3.694 9.594 4.042 21.208 13.574 27.732l.811.403 1.673.697 4.455 6.524c1.266 1.623 2.886 2.488 4.444 3.467.65.096 1.594 1.997 2.072 1.451l.704-1.853-1.274-6.646c.972.424 2.094.355 3 .641l1.452-1.214-.695.175c-1.444-.7-3.293-.929-4.563-2.256-5.666-6.13-4.625-15.021-10.399-21.088-2.197-11.907-2.947-24.444-4.742-36.575 1.85-1.731 1.218-5.141 4.162-5.837 1.908 10.462 1.908 21.724 3.176 32.471 1.156.463 2.313 1.211 3.062 2.313.636 8.726 1.68 17.272 5.03 24.843-.405-2.947-1.445-5.953-1.852-9.013l-1.098-10.691c1.444 4.454 2.207 9.962 5.258 11.991 3.307 2.198 4.852.493 4.852.493-.517-.696-.979-.234-1.614-.525-9.478-3.519-4.685-15.712-11.963-21.377l-2.599-28.022-.578-3.983c1.041-1.907 1.385-4.102 1.791-6.239l2.947-.868.234 1.79 1.554 30.099 1.391.988c.867 6.988.867 14.501 3.584 20.681-1.732-5.833-1.79-12.884-2.082-19.298 3.99 2.95 3.005 8.15 5.258 11.903l.617-.183c-2.166-5.161-1.087-11.715-6.97-15.069-.696-10.806-1.392-21.608-2.082-32.416.345-.633.464-1.385.981-1.963.748 1.792 3.006 2.138 4.68 2.081 1.791 14.561 1.848 29.814 5.318 43.677-1.906-14.439-3.007-29.576-4.452-44.37.865-.348 1.794-.926 2.37-1.79-.229-.522.402-.813 0-1.272-1.445 1.272-3.292 2.367-5.142 1.674l-1.559-1.674c-3.063-5.489-5.549-11.269-8.034-17.042.75.284 2.195.171 3.063-.405 1.041-.93 1.963-2.085 2.486-3.352-1.562 1.267-4.102 2.421-6.244 1.559l-.287-.292c-2.657 2.028-6.293 3.875-9.824 2.49-.633 1.668-1.156 3.867-3.174 4.446l-1.559.113c.402.984 1.442 2.024 1.968 3.064.344 1.675.63 4.044-.296 5.551-.574 1.614-3.698.687-2.482 3.06.175 1.676.346 3.636-.69 4.972-1.505 1.612-3.414 3.003-5.26 2.769-.29 1.559-2.473 4.45-2.473 4.45s.076 1.83-.01 3.403m3-21.837c1.966-6.235-5.023-11.498-1.385-17.733-2.022 6.295 5.086 11.498 1.385 17.733m14.445-13.983l-.117.117c-.46-.291-.922-1.042-.693-1.506.292.296.81.757.81 1.389"/><path d="M169.723 71.654c2.596 5.606 4.733 11.44 7.62 16.93.118 1.329-.63 2.366-1.382 3.353-.925.635-2.081 1.038-3.177.688-4.563-5.485-7.859-11.378-10.862-17.501 3.059.34 5.604-1.389 7.801-3.47z" fill="#94693c" stroke="#000" stroke-width=".074"/><path d="M157.76 74.716c-.98 0-2.253-.867-3.292-1.503l.281-.578c1.335-.175 2.32 1.273 3.01 2.081m24.734 11.788c-1.908-4.453-3.876-9.073-5.15-13.58 2.026 4.39 3.353 9.071 5.15 13.58m-7.803 4.161c-1.622-.461-2.257-2.603-3.179-4.047-1.852-3.583-4.164-6.99-4.968-11.093 1.79 5.432 5.775 9.938 8.147 15.14"/><path d="M171.222 93.726c.464 2.081-.116 4.048-1.101 5.665-.866 1.094-2.018 1.906-3.346 1.559-3.236-3.989-6.36-8.032-8.438-12.482-.29-1.098.691-2.02.81-3.063.345-2.195-.404-3.985-.925-5.834 1.1-1.041 1.904-2.425 2.313-3.874 3.637 5.835 5.835 12.539 10.687 18.029z" fill="#94693c" stroke="#000" stroke-width=".074"/><path d="M155.853 82.747c.345.462.581.98.695 1.563-1.214-.867-2.66-1.677-3.47-2.948 1.16-.174 1.911.75 2.775 1.385m13.174 15.95c-.52.803-1.33-.351-1.68-.814-2.884-5.024-6.063-9.878-7.735-15.423 3.174 5.428 5.718 11.096 9.415 16.237m-17.334-6.242c-1.677-1.157-2.772-2.833-3.468-4.566 2.023.517 3.065 2.776 3.468 4.566"/><path d="M157.07 88.989c2.363 4.85 5.2 9.475 8.894 13.75.468 1.852-.693 3.061-1.675 4.275-.983.808-2.199 1.157-3.583.984-2.892-3.122-4.68-6.701-6.818-10.114 2.138-2.424 2.197-5.776 2.661-8.894h.52" fill="#94693c"/><path d="M162.09 103.838c.581.692 2.142.17 1.907 1.499-.808.462-1.497-.175-2.192-.405-1.908-3.001-3.929-6.004-5.257-9.3 1.674 2.832 3.578 5.372 5.541 8.206"/><path d="M152.385 98c1.736 3.984 4.105 7.745 7.048 11.268.18 1.672-1.153 3.003-2.486 3.874-1.323.462-2.825-.349-3.174-1.676-1.213-4.396-7.106-7.979-3.874-13.06a41.064 41.064 0 002.486-.406" fill="#94693c"/><path d="M155.453 109.672c.461.923 2.361.806 1.616 2.197-1.155.171-2.14-.696-2.6-1.675l-3.47-8.843 4.454 8.321"/><path d="M153.196 113.656c-.81 1.968-2.948 2.546-4.853 2.773-1.127-.078-3.008-.507-3.272-1.136.367-1.637.944-4.38 1.146-6.604 1.502 1.907 1.431 5.952 4.491 6.13.464-.179.233-.641.291-.988-2.485-1.097-3.364-4.509-4.696-6.704.181-1.115.146-2.209.226-3.356.241-.244.75-.516 1.296-.629l5.371 10.514" fill="#94693c"/><path d="M152.211 117.586c1.216-.921 1.391-4.103 3.472-2.079l1.672-.285.577 1.5c1.041 12.189 3.354 24.035 5.374 35.649 3.642 3.233 4.332 7.857 6.242 11.897-5.315-3.404-8.263-9.358-10.226-14.957-1.852-4.455-2.888-9.188-4.572-13.698 0 0-2.132-12.248-2.539-18.027z" fill="#94693c" stroke="#000" stroke-width=".074"/><path d="M148.053 118.284c.406 3.984 1.328 7.742 2.37 11.494.403-1.733-.636-3.235-.697-5.029-.229-2.021-.463-4.101-.979-6.064.463-.348.98-.461 1.56-.4.755 4.851 1.738 9.644 2.89 14.382-.46-1.038-1.735-.23-2.487-.693-5.196-2.66-2.54-9.301-4.446-13.689l.172-.698 1.617.697" fill="#94693c"/><path d="M180.899 175.192l-1.066-6.587c-3.296-3.638-4.796-8.094-6.24-12.478-.461 3.865.752 7.565 1.272 11.089h-.174c-2.192-4.911-2.489-10.57-3.063-16.121-.927-1.554-1.851-3.577-3.701-4.39-1.151-12.364-3.352-24.265-4.446-36.633h-2.945l-1.213 3.874c1.443 12.539 2.947 25.016 5.658 37.034 5.491 6.932 4.51 16.816 12.48 22.477l3.438 1.735z" fill="#94693c" stroke="#000" stroke-width=".074"/><path d="M142.707 132.139c.164.294.4.499.68.653.668.354 1.585.383 2.354.451.925-.17 1.733-1.213 1.906-1.962-2.195-3.757-1.66-9.647-2.409-14.039-.195.062-.477-.418-.67-.195-.322.946-.894 2.195-.938 2.782.521 3.061 1.532 6.482.954 9.774-.925-2.831-.132-6.281-1.285-8.941a49.632 49.632 0 01-1.966 4.027l1.174 6.881c.038.22.108.407.2.569m-2.28-5.934l.984 4.819s-.67-1.115-1.75-1.257c-1.084-.147-1.77-.111-1.77-.111l2.536-3.451" fill="#94693c"/><path d="M139.617 172.362c-1.672.748-3.463 1.209-5.26 1.784l-.397-8.028-.466-.463-.925-10.384v-.419l-.461-.518c1.153-7.105-3.583-14.502.867-20.688 1.616-1.093 3.522-1.964 5.66-1.38 1.213.399 2.197 1.38 3.182 2.191-.06-.577-.578-1.331-1.103-1.904-1.098-1.449-2.946-1.502-4.443-1.792 1.153-.461 2.308-.461 3.462 0 1.617.694 2.833 2.312 3.758 3.696 1.266 4.218 1.445 8.782 2.486 13.061 1.499 8.378 3.694 16.465 5.313 24.844-1.391-.171-2.543.287-3.929.112l-7.744-.112z" fill="#94693c" stroke="#000" stroke-width=".074"/><path d="M147.362 172.475c-8.029-5.372-6.413-15.023-9.128-22.763-.405-2.08-.81-4.219-1.387-6.237.346 6.641 2.425 12.884 3.581 19.294 1.039 1.616.868 3.812 1.271 5.665-.521 1.387-.926 2.77-2.082 3.929l7.745.112zm-39.753.114l-2.366-5.947c.401-2.658.864-5.435.693-8.148-1.062 4.982-2.756 11.045-7.918 14.561l9.591-.466z" stroke="#000" stroke-width=".074"/><path d="M113.561 138.792v.118c-1.389-.41-3.238-.695-4.453-1.91-1.671.926-3.866 1.039-5.832.926v-.23c2.02-.75 4.044-1.331 5.832-2.545 1.275 1.448 3.297 2.599 4.453 3.641m-5.14 5.547l.805.114c1.507 3.003 3.41 5.837 4.45 9.016-3.234-1.964-3.465-6.068-5.253-8.843l-2.372 13.578c.578-7.048 2.137-13.635 2.945-20.509.23 2.366-.403 4.389-.574 6.644"/><path stroke-miterlimit="2" d="M139.504 138.617c2.714 6.239 4.507 13.113 7.163 19.01-3.122-6.068-5.605-12.595-7.452-19.01h.289z" stroke="#000" stroke-width=".074" stroke-linecap="square"/><path d="M107.726 141.162c-2.483 6.587-2.945 14.036-8.204 19.528l-.234-.291 5.55-11.612 2.889-9.189v1.564m.577 14.673c1.384 4.045 3.06 7.918 4.562 11.899-2.83-3.29-4.736-7.506-4.851-11.899h.289m28.944 3.468c-.635 1.618-1.096 3.29-2.486 4.566l2.772-7.453c.525.574.233 2.077-.286 2.887"/><path d="M146.437 104.179s.54 14.367-8.119 24.984c-9.496 11.643-15.627 13.792-15.627 13.792s-6.132-2.149-15.63-13.792c-8.64-10.593-8.124-24.984-8.124-24.984h47.5z" fill="#fff"/><path d="M120.847 142.032v-37.895h-4.04v35.032s1.812 1.445 4.04 2.863zm-15.475-15.17v-22.725h-3.735v15.218c-.001 0 1.784 4.9 3.735 7.507zm7.472 8.734v-31.458h-3.742v27.448c0-.001 1.6 1.83 3.742 4.01zm11.687 6.436v-37.895h4.042v35.032s-1.813 1.445-4.042 2.863zm15.472-15.17v-22.725h3.738v15.218c.001 0-1.784 4.9-3.738 7.507zm-7.47 8.734v-31.458h3.74v27.448c0-.001-1.595 1.83-3.74 4.01z" fill="#b11e39"/><path d="M145.363 91.269s1.447 6.504 1.106 12.868c.005-.036-47.561-.036-47.561 0 .029-6.455 1.1-12.868 1.1-12.868h45.355z" fill="#7bafd4"/><path stroke="#000" stroke-width=".074" stroke-linejoin="round" d="M20.223 151.582h0l3.427 4.855-1.005 2.954z"/><path fill="#fff" stroke="#000" stroke-width=".074" stroke-linejoin="round" d="M20.22 151.582h0l-.072 5.942 2.497 1.867z"/><path stroke="#000" stroke-width=".074" stroke-linejoin="round" d="M14.472 159.28h0l5.676-1.756 2.497 1.867z"/><path fill="#fff" stroke="#000" stroke-width=".074" stroke-linejoin="round" d="M14.472 159.282h0l5.627 1.911 2.546-1.802z"/><path stroke="#000" stroke-width=".074" stroke-linejoin="round" d="M20.018 167.133h0l.081-5.94 2.546-1.802z"/><path fill="#fff" stroke="#000" stroke-width=".074" stroke-linejoin="round" d="M20.018 167.133h0l3.557-4.756-.93-2.986z"/><path stroke="#000" stroke-width=".074" stroke-linejoin="round" d="M29.195 164.283h0l-5.62-1.906-.93-2.986z"/><path fill="#fff" stroke="#000" stroke-width=".074" stroke-linejoin="round" d="M29.195 164.283h0l-3.425-4.849-3.125-.043z"/><path stroke="#000" stroke-width=".074" stroke-linejoin="round" d="M29.327 154.676h0l-3.557 4.758-3.125-.043z"/><path fill="#fff" stroke="#000" stroke-width=".074" stroke-linejoin="round" d="M29.327 154.676h0l-5.677 1.761-1.005 2.954z"/><path stroke="#000" stroke-width=".074" stroke-linejoin="round" d="M230.807 148.631h0l.295 5.931-2.436 1.956z"/><path fill="#fff" stroke="#000" stroke-width=".074" stroke-linejoin="round" d="M230.807 148.631h0l-3.25 4.969 1.109 2.918z"/><path stroke="#000" stroke-width=".074" stroke-linejoin="round" d="M221.831 152.039h0l5.731 1.561 1.104 2.918z"/><path fill="#fff" stroke="#000" stroke-width=".074" stroke-linejoin="round" d="M221.831 152.039h0l3.717 4.634 3.118-.155z"/><path stroke="#000" stroke-width=".074" stroke-linejoin="round" d="M222.29 161.639h0l3.258-4.966 3.118-.155z"/><path fill="#fff" stroke="#000" stroke-width=".074" stroke-linejoin="round" d="M222.29 161.639h0l5.555-2.107.821-3.014z"/><path stroke="#000" stroke-width=".074" stroke-linejoin="round" d="M231.562 164.162h0l-3.717-4.63.821-3.014z"/><path fill="#fff" stroke="#000" stroke-width=".074" stroke-linejoin="round" d="M231.562 164.162h0l-.285-5.932-2.611-1.712z"/><path stroke="#000" stroke-width=".074" stroke-linejoin="round" d="M236.83 156.128h0l-5.553 2.102-2.611-1.712z"/><path fill="#fff" stroke="#000" stroke-width=".074" stroke-linejoin="round" d="M236.83 156.128h0l-5.728-1.566-2.436 1.956z"/><path d="M132.569 155.271v-.011c2.372-2.198 3.871-5.028 3.988-8.031l-.117-.116c-.867 2.771-2.771 5.082-3.871 7.739v.419z" stroke="#000" stroke-width=".074"/><path d="M136.556 142.26h-.117l-.169-2.198.17-.059.116 1.851v.406m4.332-5.26c-1.617.349-3.235-.055-4.618-.693-1.33.866-2.777 1.619-4.393 1.792.922-1.215 2.885-2.022 4.158-3.464 1.332 1.384 3.004 2.077 4.853 2.365"/><path d="M104.707 176.853s1.193-4.696 4.659-4.696c3.464 0 3.156.772 3.906 1.415.677.585 1.37 1.496 1.111 2.02-.024.051-.245.281-.287.322-.125.116-1.595.939-1.922 1.029-.927.27-2.736.334-3.784.414-1.407.106-2.529-.609-2.891-.609-.359-.001-.792.105-.792.105z" fill="#e0af35" stroke="#000" stroke-width=".074"/><path d="M106.047 176.674s-.615-.688.14-1.553c.116-.128.58-.182.818-.671.433-.889 1.998-1.248 2.792-1.171 1.194.105 3.793 2.2 3.793 2.2s.547.945-.039.544c-.47-.322-.792-.791-1.517-.652-.72.144-1.984 1.085-2.852.834-.865-.253-1.66-1.013-2.023-.907-.356.109-1.112 1.376-1.112 1.376"/><path d="M114.383 175.479c.724.396 1.338.977 1.917 1.841.575.868.504 2.752-.041 4.012-.407.956-2.925 2.166-2.925 2.166s1.285-2.64 1.158-3.683c-.11-.906-.689-1.409-1.188-1.914-.427-.431-1.269-.905-1.269-.905s1.013-.938 1.591-1.083c.577-.146.757-.434.757-.434z" fill="#e0af35" stroke="#000" stroke-width=".074"/><path d="M113.414 176.059l.43-.146s1.376 1.064 1.768 2.245c.167.5.434 1.331-.146 2.704-.344.82-.973 1.479-.973 1.479s.543-1.046.905-2.417c.165-.636-.039-1.596-.869-2.568-.42-.497-1.115-1.297-1.115-1.297"/><path d="M100.193 176.674s-.354 1.816-.25 3.318c.106 1.588 1.298 3.257 2.453 3.472 1.42.265 2.275.144 2.275.144-.468-.434-1.877-1.484-1.985-2.563-.11-1.088.359-1.486.469-2.206.11-.72.394-1.083.394-1.083s-.973-.541-1.55-.76c-.58-.213-1.806-.322-1.806-.322z" fill="#e0af35" stroke="#000" stroke-width=".074"/><path d="M101.674 176.929s-.542 1.114-.542 2.02c0 1.587.109 2.129.433 2.779.276.561 1.7 1.336 1.7 1.336s-1.086-.832-1.267-2.134c-.181-1.295.074-2.887.397-3.646l-.721-.355"/><path d="M101.565 172.809s-3.793.145-4.588-.037c-.792-.183-.902-.326-1.548-.29-.65.038-3.613.688-4.265 1.913-.649 1.229-1.083 1.949-1.043 2.169.032.22 1.228.365 1.623.507.397.145 1.885.359 2.201.433 1.879.43 4.176-.15 3.359-.04 1.048-.143 2.276-.61 2.529-.862.251-.257.65-.614.794-1.01.143-.4.938-2.783.938-2.783zm5.489.177s-1.587-3.536-2.749-4.87c0 0-1.729 2.274-2.233 3.247-.508.977-2.023 3.502-1.989 3.869.039.358-.288 1.082-.179 1.224.107.145.288.182 1.155.327.867.146 1.299.398 1.661.68.359.293 1.154.366 1.407.332.255-.039.579-.942.579-.942s.58-1.66.979-2.234c.393-.585 1.369-1.633 1.369-1.633z" fill="#e0af35" stroke="#000" stroke-width=".074"/><path d="M105.432 175.047s-.613-.722-1.126-.941c-.504-.214-1.407-.252-1.407-.252s-.72.291-.755.577c-.035.29-.035.616.112.721.14.114.466.328 1.188.51.724.181 1.517.464 1.517.464l.47-1.079"/><path d="M90.409 176.747s-.389 1.82.181 3.86c.358 1.299 1.245 2.456 2.202 2.856.951.396 3.611.069 3.611.069s-1.77-.284-2.746-2.059c-.48-.877-.396-2.169-.323-2.782.071-.614.323-1.189.323-1.189s-1.484-.305-1.771-.36c-.36-.072-1.477-.395-1.477-.395z" fill="#e0af35" stroke="#000" stroke-width=".074"/><path d="M91.562 177.104s-.106 1.486-.036 2.312c.075.832.757 1.661.757 1.661s-.288-1.12-.288-1.734c0-.61.11-2.161.11-2.161l-.543-.078m8.74-2.526s-2.097-.106-3.145-.04c-1.048.08-1.587.327-1.802.473-.218.141-1.663.396-1.663.396l-1.807 1.735 1.192.214c1.303-.214.468-.977 2.784-1.121 1.232-.069 3.718-.828 4.33-1.225l.11-.432"/><path d="M141.679 172.156s-.73.045-2.063.206c-1.328.157-3.819.05-4.469.699-.65.654-2.564 1.517-3.215 2.852-.646 1.338-.757 2.098-.508 2.311.256.216.329.146 1.055.253.72.114 1.562.419 2.525.581 1.736.285 2.556-.725 3.211-1.047.867-.438 2.673-.94 3.289-1.052.612-.106.36-1.767.36-1.767l-.185-3.036zm-6.93 6.902s-.104 1.693.469 2.777c.58 1.084 1.054 1.121 1.733 1.304.686.18 1.569.143 1.569.143s-1.096 1.231-2.289 1.007c-1.188-.212-2.972-1.689-3.468-2.453-.792-1.228-.757-3.396-.757-3.396s1.317.176 1.701.293c.469.145 1.042.325 1.042.325z" fill="#e0af35" stroke="#000" stroke-width=".074"/><path d="M140.817 173.782c0 .144-.72.796-.72.796l-2.277.688-1.699.758-1.587 1.081s-.866.906-.938 1.054c-.07.139-.146.534-.146.534l1.193.327s-.017-.342.338-.638c.29-.238.604-.501.814-.662.474-.363 1.301-.791 1.736-.904.431-.11 1.587-.757 1.767-.902.18-.146.61.039 1.086-.289.47-.327.433-1.843.433-1.843m-7.366 4.91s-.108 1.663.108 2.276c.217.611.868 1.229.868 1.229s-.439-1.268-.469-1.878c-.025-.398.14-1.441.14-1.441l-.647-.186"/><path d="M146.154 172.315c.622-.082 1.165-.013 2.643-.265 1.483-.253 2.452.022 3.471.289 1.515.395 3.192 1.549 3.5 1.949.367.473.827 2.274 0 2.67-.829.397-1.844.974-2.525.726-.688-.255-2.891-.364-3.899-.542-1.014-.184-1.738-.107-1.738-.107l-1.452-4.72zm9.83 4.538s.328.942.36 2.129c.039 1.192-.288 2.096-.614 2.854-.395.925-2.346 1.698-2.346 1.698s.797-1.229 1.085-2.132c.281-.904-.037-2.13-.147-2.6-.106-.473-.54-1.082-.54-1.082s.434-.069.797-.217c.359-.147 1.405-.65 1.405-.65z" fill="#e0af35" stroke="#000" stroke-width=".074"/><path d="M154.937 177.397s.29.217.508 1.226c.18.829.104 2.019.104 2.019s.397-1.299.286-2.051c-.106-.762-.5-1.376-.5-1.376l-.398.182"/><path d="M142.985 169.992c-.939.018-1.985.647-2.599 1.371-.612.725-.508 2.021-.257 2.856.257.827.977 2.236 1.702 3.031.72.792 1.985 1.34 3.176 1.266 1.188-.077 2.96-.188 2.994-1.119.037-.941-.323-2.132-.575-3.036-.254-.903-.66-1.88-1.263-2.64-.973-1.225-1.446-1.763-3.178-1.729z" fill="#e0af35" stroke="#000" stroke-width=".074"/><path d="M147.318 174.073s.183.505.183.647c0 .145.03.617.03.617s-1.116.831-1.656.756c-.544-.07-1.556-.142-2.206-.796-.649-.646-1.083-1.55-1.083-1.55s2.204.903 3.216.87c.393-.021 1.516-.544 1.516-.544"/><path d="M143.777 178.224s.795.941.829 1.701c.04.757-.069 1.587-.393 2.133-.327.533-1.083 1.838-1.083 1.838s.756.107 1.587-.397 1.842-1.339 2.174-2.453c.294-1.055.134-2.887.134-2.887s-1.26.388-2.308.388c-.397-.001-.94-.323-.94-.323z" fill="#e0af35" stroke="#000" stroke-width=".074"/><path d="M145.403 179.271s-.04 1.37-.107 1.806c-.072.435-.434 1.265-.434 1.265s.76-1.087.865-1.734c.106-.65 0-1.479 0-1.479l-.324.142m9.47-5.293c.635.693 1.325 1.558.81 2.542-.059.171-.229.117-.406.117-.636-.755-.287-2.256-1.675-2.372-1.733-.98-4.338.462-5.953-.808 1.79-.404 4.157-.404 6.24 0l.983.521"/><path fill="#b2b2b2" stroke="#000" stroke-width=".074" d="M71.124 186.749h-2.312v-3.036h21.597v3.036h-2.311v3.247h2.311v4.551h-9.822v-4.551h1.732v-3.247h-5.414 0v3.247h1.729v4.551h-9.822v-4.551h2.312z"/><path d="M89.613 183.713v2.528H87.3v3.755m2.313 0v4.048h-9.026m1.732-7.295v-.508h-6.213v3.755m1.736 0v4.048h-9.03m2.312-7.295v-.508h-2.238" fill="none" stroke="#000" stroke-width=".074"/><path d="M134.028 91.269l-1.879-4.765.581-.071-1.444-4.624.646.07-1.803-3.897.722.142-.794-3.828h.43l-.716-2.884.716-.075-1.154-3.682.725 3.392-.867-.143.94 2.958-.724-.142 1.08 3.973-.936-.074 1.734 3.828s-1.156-.507-.868-.074c.286.436 1.805 4.768 1.805 4.768l-.867.07 2.022 5.058h.651M35.43 176.725c.21.397.414.808.652 1.181.245.376.532.726.805 1.078l-4.275 2.759c-.828.534-2.076 1.3-2.777 1.942-.65.61-1.036 1.034-1.213 1.916-.143.769.032 1.472.462 2.133.9 1.4 1.899 1.82 3.547 1.502.838-.154 2.553-1.261 3.29-1.74l4.56-2.944a4.731 4.731 0 00.779 1.204l-5.354 3.463c-1.748 1.06-3.303 2.088-5.397 1.221-1.111-.437-1.992-1.337-2.632-2.33-1.177-1.816-1.877-4.161-.283-5.981a8.346 8.346 0 011.697-1.435l6.14-3.969m7.197 10.894l1.147 1.354c-.486 3.733-.852 7.529-1.423 11.318l6.408-5.399a4.766 4.766 0 00.923 1.098l-9.398 7.918-.973-1.18c.433-3.077.869-5.977 1.196-8.898l.305-2.806-6.628 5.583c-.14-.192-.271-.4-.422-.582-.15-.178-.338-.344-.501-.515l9.366-7.891m8.817 10.013c.292.346.568.696.888 1.015.317.31.675.591 1.016.882l-8.66 8.71c-.291-.336-.571-.688-.891-1.004-.316-.315-.671-.595-1.015-.884l8.662-8.719m-.638 16.147c-.315-.321-.618-.654-.96-.945-.336-.294-.71-.547-1.071-.814l7.193-8.337c-.961-.831-1.9-1.474-2.684-1.987.188-.165.394-.32.568-.522.159-.188.287-.416.422-.629l6.983 6.022c-.191.171-.394.326-.558.516-.177.202-.298.425-.437.641-.717-.785-1.438-1.572-2.261-2.286l-7.195 8.341m16.876-2.583c-.175.182-.38.367-.528.57-.147.205-.257.456-.376.677-.803-.756-1.701-1.583-3.204-2.632l-2.262 3.119 1.51 1.094c.65.472 1.285.848 1.875 1.159-.174.186-.373.369-.521.573-.146.206-.263.45-.38.677a16.485 16.485 0 00-1.688-1.423l-1.512-1.094-2.67 3.682c1.487 1.06 2.528 1.704 3.498 2.229-.177.18-.376.367-.526.571-.145.202-.262.453-.38.673l-5.524-4.002 7.162-9.877 5.526 4.004m6.56 3.991c3.244 2.042 3.275 5.138 1.809 7.68-2.024 3.506-5.693 4.161-8.874 2.326l-4.338-2.51 6.1-10.562 5.304 3.066zm-8.556 7.944l1.313.76c2.14 1.235 4.39 1.105 6.488-2.52 1.679-2.916.963-4.861-1.222-6.122l-1.518-.881-5.061 8.763m35.452 11.475c-.72 1.247-1.372 2.248-1.938 3.399-.278-.075-.538-.155-.821-.214-.28-.057-.564-.073-.852-.109l7.385-11.213c.227.073.434.134.66.176.229.047.445.072.678.079l2.543 13.17c-.5-.129-.982-.278-1.496-.376-.508-.1-1.01-.145-1.53-.206-.152-1.382-.291-2.65-.535-3.916l-4.094-.79zm3.895-.366l-.77-4.399-2.446 3.782 3.216.617m10.815 6.315c-.44-.082-.88-.173-1.328-.218-.443-.042-.899-.028-1.346-.031l1.02-10.974a23.97 23.97 0 00-3.342-.054c.058-.246.14-.495.16-.765.025-.244-.007-.501-.019-.753l9.184.852c-.058.248-.136.489-.156.742-.026.271.003.523.017.779-1.045-.227-2.082-.448-3.17-.552l-1.02 10.974m57.45-14.122c.2 1.424.3 2.618.558 3.874-.266.114-.522.199-.776.332-.259.13-.498.285-.74.435l-1.038-13.389a4.48 4.48 0 001.213-.616l10.084 8.848c-.479.204-.95.384-1.415.614-.46.239-.89.516-1.332.778-.97-.997-1.854-1.913-2.83-2.765l-3.724 1.889zm2.864-2.677l-3.309-3.003.384 4.487 2.925-1.484m10.61-15.265c.226-.106.463-.202.673-.345.21-.143.397-.333.587-.504 3.164 3.676 5.695 6.675 8.197 9.286-.433.251-.868.479-1.28.763-.412.276-.757.575-1.15.888-1.715-2.28-3.55-4.352-5.32-6.48.413 3.033.834 6.054 1.343 9.068-.209.097-.406.208-.563.375-2.336-1.4-5.067-2.902-7.77-4.465 1.427 2.841 2.588 5.059 3.948 7.164-.258.137-.512.238-.75.403-.236.159-.412.344-.633.531-1.484-3.34-3.339-7.101-5.379-11.195.23-.11.454-.197.658-.338.203-.141.383-.324.57-.493 2.651 1.603 5.386 3.121 8.136 4.655-.358-2.828-.675-6.01-1.268-9.313m8.6-7.133c.14.213.27.45.434.641.167.193.38.362.57.531-.92.599-1.943 1.281-3.307 2.5l2.505 2.925 1.418-1.214a15.867 15.867 0 001.564-1.557c.134.217.271.451.433.647.17.187.382.359.573.522-.568.366-1.168.786-1.779 1.313l-1.415 1.215 2.96 3.455c1.375-1.204 2.238-2.064 2.98-2.889.134.217.27.455.43.646.165.188.382.354.571.527l-5.182 4.44-7.938-9.268 5.183-4.434m1.054-.96l2.662-2.732c.591-.601 1.48-1.563 2.282-1.825 1.1-.354 2.053-.18 2.921.673 1.26 1.226 1.267 2.808.36 4.249 1.913.497 3.873.856 5.814 1.247l1.286.279c-.404.361-.818.705-1.204 1.106-.379.382-.714.802-1.062 1.214l-4.185-1.103c-.53-.151-1.47-.363-2.236-.556l-.086.091 4.114 4.015c-.34.295-.687.578-1.003.901-.313.316-.585.676-.869 1.02l-8.794-8.579zm6.006 2.105c1.44-1.221 1.452-2.512.132-3.802a4.64 4.64 0 00-.709-.561c-1.259-.834-2.097.227-2.86 1.007l3.437 3.356m1.237-9.803c.32-.316.646-.625.938-.967.286-.347.53-.724.788-1.089l9.413 7.897c-.315.323-.641.629-.934.973-.287.341-.533.722-.791 1.087l-9.414-7.901m17.25-5.875l1.031 1.214c-.178 1.2-.735 2.359-1.431 3.336-2.224 3.127-5.834 4.115-8.821 1.985-3.811-2.709-3.679-6.571-1.414-9.749.689-.963 1.767-1.953 2.835-2.469.401.483.836.927 1.263 1.404l-.144.202c-1.172-.023-2.393.521-3.07 1.47-1.721 2.42-.099 5.049 2.046 6.574 2.496 1.777 5.12 1.797 6.721-.448.644-.907.925-2.292.765-3.389l.219-.13m.783-4.582c.962 1.068 1.711 2.004 2.626 2.903-.155.238-.318.456-.456.708-.146.249-.249.515-.374.777l-8.33-10.532c.142-.184.261-.364.376-.567.11-.206.204-.402.284-.622l13.306 1.719c-.282.438-.576.849-.83 1.302-.254.451-.452.915-.677 1.392-1.352-.293-2.602-.558-3.888-.722l-2.037 3.642zm.889-3.817l-4.427-.646 2.819 3.509 1.608-2.863M9.241 142.088l-.192-2.509c3.65-3.902 7.208-7.979 11.01-11.868l-11.858.919a7.099 7.099 0 00-.003-1.021 6.393 6.393 0 00-.156-1.009l17.387-1.347.143 2.155c-3.04 3.192-5.944 6.173-8.741 9.271l-2.674 2.986 12.268-.95c0 .333-.025.688 0 1.017.028.333.106.684.157 1.013L9.24 142.088m11.287-23.119c1.86.844 3.367 1.629 5.067 2.275-.068.404-.153.777-.192 1.182-.04.409-.028.813-.042 1.222l-16.835-8.926c.083-.327.136-.628.167-.952.036-.33.039-.635.018-.969l18.265-5.365c-.12.731-.261 1.43-.333 2.163-.07.735-.063 1.452-.083 2.19-1.93.402-3.702.769-5.462 1.289l-.57 5.891zm-1.03-5.462l-6.113 1.684 5.666 2.946.447-4.63m9.684-14.444c-.207.607-.433 1.203-.586 1.817-.156.619-.238 1.251-.341 1.882L13.089 98.97c-.44 1.753-.653 3.349-.802 4.673-.331-.136-.658-.295-1.03-.389-.345-.083-.707-.098-1.065-.134l3.174-12.697c.333.136.66.295 1.005.383.37.09.735.104 1.09.14-.537 1.409-1.068 2.822-1.45 4.327l15.17 3.79M14.84 86.493c.27-.583.562-1.147.78-1.744.22-.597.37-1.222.54-1.836l16.362 6.041c-.27.582-.561 1.15-.783 1.747-.217.597-.366 1.215-.537 1.833L14.84 86.493m22.998-8.206c-2.676 4.943-7.386 6.697-12.462 3.952-4.45-2.411-6.293-7.602-3.277-13.169 3.452-6.371 8.958-5.817 12.439-3.963 4.369 2.335 6.266 7.698 3.3 13.18zm-9.802.59c2.904 1.572 6.704 1.923 8.52-1.433 1.867-3.44-.744-6.846-4.451-8.858-2.888-1.562-6.925-2.009-8.74 1.341-1.682 3.108-.337 6.236 4.67 8.95m2.15-22.257l1.606-1.938c5.337-.271 10.73-.72 16.17-.875l-9.168-7.587a6.666 6.666 0 001.3-1.566l13.434 11.125-1.4 1.647c-4.406.177-8.567.302-12.727.586l-4.001.284 9.478 7.847c-.23.238-.498.475-.703.739-.217.247-.4.552-.593.826L30.186 56.62m24.17-8.748c.75 1.896 1.282 3.508 2.054 5.158-.328.246-.648.456-.957.714-.311.271-.59.569-.883.852l-5.88-18.129c.283-.171.532-.348.784-.564.253-.217.469-.432.686-.686l16.853 8.859c-.593.437-1.187.842-1.744 1.318-.565.475-1.054.998-1.583 1.512-1.665-1.05-3.191-2.023-4.815-2.875l-4.515 3.841zm3.06-4.645l-5.563-3.043 2.02 6.058 3.544-3.015M70.68 39.62c1.87-1.18 3.367-2.337 4.733-3.41.146.326.284.689.477.994.188.298.456.583.688.852l-8.141 5.149-9.251-14.628c.56-.298 1.14-.572 1.68-.916.537-.333 1.032-.739 1.545-1.126L70.68 39.62M87 18.045c-.963-1.069-2.181-1.52-3.528-.988-1.87.732-2.224 1.989-1.692 3.338 1.257 3.196 8.216-.225 10.349 5.198 1.19 3.028-.56 6.228-4.227 7.669-1.3.512-2.816.753-4.208.476-.106-1.101-.238-2.199-.497-3.274l.45-.174c.997 1.495 2.657 1.96 4.29 1.318 1.463-.576 2.442-1.915 1.797-3.547-1.484-3.789-8 .359-10.237-5.345-1.07-2.719-.085-5.706 3.512-7.119 1.704-.671 3.469-.625 4.182-.336.017.873.085 1.747.168 2.642l-.36.142m14.179-7.457c.04.354.06.745.149 1.087.089.348.257.695.394 1.029-1.55.188-3.273.426-5.777 1.118l1.368 5.292 2.556-.658a23.387 23.387 0 002.972-1c.039.355.06.745.15 1.094.087.34.255.692.397 1.022-.944.113-1.978.273-3.084.561l-2.561.657 1.61 6.254c2.504-.672 4.146-1.222 5.597-1.812.039.359.06.746.149 1.094.09.345.255.695.395 1.023l-9.378 2.421-4.313-16.766 9.376-2.416m20.04 11.938l-.318 2.236c-1.426.945-3.188 1.449-4.883 1.634-5.407.596-9.865-2.287-10.437-7.464-.73-6.596 3.49-10.105 8.998-10.713 1.667-.181 3.737.025 5.29.671-.132.887-.188 1.757-.295 2.664l-.35.042c-1.088-1.265-2.809-2.046-4.45-1.864-4.197.462-5.446 4.669-5.039 8.382.476 4.318 2.937 7.116 6.825 6.69 1.57-.177 3.295-1.181 4.315-2.393l.343.115m4.023-14.559c.632.092 1.262.209 1.896.248.637.043 1.274.004 1.913-.006l-.46 7.208c-.094 1.396-.272 3.472-.13 4.808.146 1.257.3 2.056 1.16 3.003.76.81 1.704 1.204 2.82 1.271 2.361.156 3.682-.625 4.711-2.776.527-1.09.715-3.981.794-5.224l.491-7.688a7.046 7.046 0 002.03.128l-.577 9.033c-.259 2.891-.406 5.529-3.159 7.187-1.433.903-3.208 1.144-4.88 1.042-3.072-.195-6.333-1.375-7.063-4.734a12.058 12.058 0 01-.204-3.146l.658-10.354m21.394 2.042l5.271 1.246c1.163.277 2.977.654 3.886 1.449 1.233 1.073 1.717 2.364 1.32 4.047-.577 2.422-2.496 3.587-4.918 3.537.801 2.698 1.8 5.333 2.74 7.982l.597 1.765c-.73-.224-1.453-.473-2.22-.653-.742-.182-1.505-.281-2.255-.406l-1.714-5.89c-.217-.753-.638-2.057-.96-3.124l-.174-.043-1.88 7.942c-.605-.202-1.207-.418-1.824-.564-.623-.149-1.25-.22-1.886-.316l4.017-16.972zm1.827 8.845c2.536.864 4.116-.067 4.72-2.617.083-.345.146-.721.168-1.264.09-2.149-1.81-2.391-3.319-2.746l-1.569 6.627m14.915-4.31c.58.262 1.146.554 1.744.766.6.221 1.223.363 1.836.534l-5.94 16.391c-.584-.261-1.156-.55-1.753-.769-.597-.216-1.223-.361-1.835-.529l5.948-16.393m7.52 22.128c-.546-.327-1.08-.675-1.655-.958-.567-.278-1.17-.49-1.769-.721l6.894-14.037c-1.619-.795-3.137-1.342-4.399-1.762.202-.297.426-.582.6-.93.153-.312.243-.67.352-1.009l11.751 5.771c-.204.295-.429.582-.585.902-.17.34-.258.692-.368 1.033-1.267-.817-2.536-1.637-3.922-2.322l-6.9 14.033m13.024-.888c.271-3.781.817-7.563 1.168-11.415.602.471 1.191.962 1.82 1.396.632.429 1.302.791 1.963 1.181-.22 1.542-.509 3.313-.764 4.954-.233 1.566-.428 2.941-.396 3.423 1.47-.443 5.406-2.868 7.42-4.107a9.827 9.827 0 002.037 1.384c-3.346 1.659-6.652 3.128-9.812 4.917l-4.428 6.491c-.493-.401-.977-.824-1.498-1.179-.526-.361-1.094-.652-1.647-.973l4.137-6.072m15.365 15.01c-1.86.837-3.446 1.449-5.058 2.29-.263-.317-.483-.628-.763-.927-.275-.297-.59-.557-.886-.841l17.839-6.696a6.359 6.359 0 001.317 1.408l-8.075 17.239c-.47-.575-.896-1.147-1.4-1.683-.506-.543-1.044-1.009-1.582-1.513.975-1.714 1.874-3.282 2.65-4.945l-4.042-4.332zm4.775 2.848l2.787-5.692-5.96 2.287 3.173 3.405m9.888 23.782c-1.776-1.573-3.437-3.191-4.655-5.067-2.923-4.498-3.265-9.977 1.745-13.229 5.312-3.445 10.538-1.32 13.734 3.603 1.191 1.833 1.91 3.786 2.032 5.984a9.068 9.068 0 00-2.538.798l-.193-.297c.794-1.911.542-3.927-.551-5.61-2.313-3.563-6.665-3.221-10.249-.896-3.713 2.411-4.708 5.721-2.599 8.963.69 1.067 1.481 1.643 2.12 1.958l4.979-3.241c.306.56.585 1.135.936 1.668.345.533.756 1.029 1.143 1.534l-5.904 3.832m20.36 4.904c-.348.097-.727.185-1.052.328-.331.148-.644.373-.948.567-.443-1.505-.97-3.16-2.073-5.507l-4.989 2.226 1.081 2.416a23.067 23.067 0 001.486 2.761c-.343.101-.725.186-1.052.335-.322.142-.642.369-.94.561a23.249 23.249 0 00-1.076-2.951l-1.079-2.412-5.892 2.634c1.083 2.359 1.904 3.886 2.726 5.217-.344.104-.728.189-1.054.331-.321.149-.636.372-.942.563l-3.957-8.844 15.802-7.066 3.959 8.841m1.91 4.79l.653 2.43c-2.86 4.512-5.606 9.177-8.614 13.708l11.48-3.107a6.999 6.999 0 00.533 1.965l-16.834 4.551-.54-2.09c2.396-3.705 4.698-7.17 6.865-10.736l2.079-3.429-11.882 3.209c-.06-.324-.102-.683-.191-1.001-.089-.319-.228-.651-.338-.963l16.79-4.537m-8.177 36.228l-2.231-.361c-.912-1.452-1.38-3.217-1.529-4.917-.483-5.416 2.498-9.819 7.689-10.28 6.609-.582 10.024 3.707 10.518 9.225.149 1.669-.107 3.735-.784 5.276-.882-.152-1.757-.228-2.661-.352l-.032-.351c1.283-1.059 2.1-2.771 1.956-4.415-.37-4.201-4.551-5.54-8.271-5.208-4.33.382-7.179 2.777-6.833 6.674.14 1.573 1.114 3.324 2.303 4.369l-.125.34m4.047 7.06c3.397-1.689 6.93-3.145 10.429-4.805-.101.761-.23 1.518-.273 2.275-.054.763-.027 1.527-.027 2.291-1.44.598-3.111 1.248-4.653 1.862-1.467.596-2.748 1.123-3.148 1.404 1.127 1.044 5.22 3.192 7.313 4.297a9.574 9.574 0 00-.155 1.239c-.03.407-.03.813-.01 1.222-3.125-2.036-6.07-4.139-9.216-5.952l-7.84-.504c.092-.631.211-1.264.257-1.9.033-.632.002-1.271-.008-1.906l7.33.477M127.88 228.809c-.034.249-.092.521-.092.771.002.252.06.521.093.769-1.094-.14-2.306-.28-4.139-.246l.004 3.853 1.863-.003c.804 0 1.538-.067 2.197-.163-.03.253-.083.518-.083.771.003.252.051.519.09.771-.662-.09-1.398-.16-2.202-.159l-1.867.004.005 4.547c1.825-.016 3.046-.106 4.138-.252-.037.248-.089.519-.089.771.001.248.053.521.088.767l-6.82.01-.013-12.2 6.827-.011m-34.626 7.626c-.417-.168-.83-.343-1.258-.476-.426-.13-.875-.207-1.313-.3l3.182-10.552a24.214 24.214 0 00-3.264-.717c.105-.229.234-.456.31-.717.073-.234.092-.493.13-.741l8.832 2.661c-.105.23-.231.452-.301.695-.08.263-.101.514-.138.769-.98-.431-1.951-.854-3-1.173l-3.18 10.551m57.212 2.341c-3.91.848-7.046-.878-7.92-4.896-.762-3.522 1.186-6.929 5.593-7.885 5.043-1.094 7.301 2.137 7.916 4.877.768 3.447-1.25 6.963-5.589 7.904zm-4.866-5.02c.498 2.3 2.073 4.512 4.727 3.937 2.727-.59 3.353-3.581 2.721-6.518-.499-2.283-2.133-4.673-4.784-4.097-2.458.534-3.525 2.714-2.664 6.678m-10.33-2.754c-.403-.949-1.123-1.541-2.16-1.497-1.442.059-1.979.829-1.933 1.871.102 2.461 5.63 1.771 5.805 5.954.1 2.333-1.838 4.096-4.665 4.213-1 .044-2.088-.147-2.969-.661.186-.772.354-1.55.431-2.34l.346-.012c.326 1.247 1.343 1.952 2.603 1.9 1.128-.05 2.107-.729 2.052-1.989-.119-2.919-5.514-1.631-5.696-6.026-.088-2.098 1.28-3.895 4.053-4.009 1.313-.058 2.501.389 2.916.75-.192.597-.35 1.209-.503 1.834l-.28.012m-46.681-6.518c.034-1.031-.37-1.871-1.328-2.271-1.331-.555-2.143-.083-2.541.88-.947 2.275 4.355 3.983 2.748 7.849-.896 2.157-3.395 2.938-6.007 1.851-.926-.384-1.831-1.016-2.413-1.854.495-.622.976-1.255 1.379-1.938l.318.136c-.231 1.269.393 2.337 1.557 2.821 1.043.431 2.217.229 2.699-.937 1.125-2.697-4.31-3.806-2.618-7.868.806-1.938 2.803-2.99 5.366-1.923 1.215.502 2.103 1.408 2.326 1.911-.425.459-.827.948-1.23 1.45l-.256-.107m71.3 3.837l4.2-1.496.56 1.229-4.309 1.534 1.99 5.588-2.262.806-4.124-11.58 6.57-2.34.558 1.229-4.416 1.573 1.233 3.457z"/></svg>