<svg xmlns="http://www.w3.org/2000/svg" width="8in" height="8in" viewBox="0 0 1 1" preserveAspectRatio="none"><g font-weight="400"><path d="M.5.999L.526.998.55.996.576.993.6.989.625.983.648.976.671.968.694.96.716.95.738.94l.02-.013.02-.013L.799.9l.02-.015.017-.016.017-.016L.87.835.885.817.899.798l.014-.02.013-.02.012-.02L.95.716.96.694.97.671.975.648.983.625.988.6.993.576.996.551.998.526V.5A.499.499 0 10.5 1z" fill="#fff"/><path d="M.576.313L.53.209s.013.019.037.025L.554.238S.572.274.61.275c0 0 .043.003.05.021 0 0-.02-.005-.028-.004l.004.012-.02-.01c-.008 0-.02.001-.04.019z" fill="#1b2840"/><path fill="#fff" d="M.655.287L.66.288l.007.006L.66.3.638.296H.634L.655.287z"/><path d="M.25.454V.452h.001L.252.45h.003V.449L.257.448V.447L.259.445V.444L.26.442V.441L.263.439V.437L.265.435V.433L.267.431V.428L.268.426V.42L.27.417V.384L.268.382V.376h.003a.086.086 0 00.035-.01S.268.43.267.434l.001.004-.001.008c0 .002-.018.008-.018.008z" fill="#1b2840"/><path fill="#fff" d="M.3.379L.31.362.297.367.3.38z"/><path d="M.34.294h.001V.291h.001V.29h.003V.288h.002V.286h.001L.349.285.35.284V.283h.001L.379.275s.014 0 .024-.002A.074.074 0 00.445.237L.43.235S.457.225.468.208l-.04.096-.005.003S.396.292.389.295L.36.307S.367.297.368.292c0 0-.022.002-.028.004-.002 0 0-.002 0-.002z" fill="#1b2840"/><path fill="#fff" d="M.36.306l.004-.01.01.004-.013.006zM.342.287l.02.008-.024.004.004-.012z"/><path fill="#6a809e" d="M.505.269L.5.134.495.268h.01zm-.01.438h.01L.5.861.495.707zM.14.5L.266.494v.01L.142.5zM.739.496L.86.5.74.505v-.01z"/><path fill="#1b2840" d="M.748.452L.736.437l.001.011.01.004zM.5.864l.029-.07S.546.79.559.79c.024 0 .03.012.045.01 0 0 .017.002.054-.022L.644.773S.66.773.67.767C.679.761.682.757.686.756L.7.749S.682.74.662.735L.666.732h.02l.068.03L.733.704S.73.703.745.691L.718.69S.74.678.759.662L.781.625S.76.631.743.638C.743.638.76.623.779.6l.01-.05L.77.561S.776.552.776.541L.864.499S.863.527.861.54a.336.336 0 01-.014.07S.824.672.81.69L.782.73.76.753S.718.796.68.817C.64.837.642.835.633.839a.317.317 0 01-.049.015S.552.862.53.863H.5zm0 0L.47.794S.454.79.441.79C.423.79.409.8.397.8c0 0-.022.003-.054-.022 0 0 .01-.002.013-.004 0 0-.016 0-.025-.006C.32.761.318.757.314.756L.3.749S.32.736.338.735L.334.732.316.731H.314L.247.76l.02-.055S.267.7.255.69c0 0 .01-.005.027-.002C.282.69.255.68.24.662A.114.114 0 01.218.625s.029.007.037.013c0 0-.04-.025-.043-.071 0 0 0-.014-.003-.019l.018.013S.221.55.224.54L.136.498S.137.528.14.54a.344.344 0 00.079.19L.24.753s.042.042.08.063C.36.838.358.835.367.84l.049.015A.311.311 0 00.5.864z"/><path d="M.388.7L.425.686l.037.088-.004.003-.01-.001C.445.774.444.774.442.769A.155.155 0 00.4.732l.002-.01c0-.002 0-.005-.003-.005A.025.025 0 00.394.715L.396.71C.396.706.394.705.393.705H.389L.387.7h.001zm.148.074l.039-.09.037.014-.001.006H.605L.602.708l.002.006-.003.002-.004.005v.005l.002.006S.583.735.555.772c0 0-.002.004-.008.005-.004 0-.01-.003-.01-.003zM.698.37H.7l.002.001h.001l.002.002H.71v.001h.003l.001.001h.003l.002.001h.004l.002.001h.003L.73.379h.002S.727.41.733.428L.698.368z" fill="#1b2840"/><path d="M.5.136L.523.19s.04 0 .063.021c0 0-.003-.013 0-.02 0 0 .037.018.053.032.011.021.022.052.022.052S.66.251.662.243c0 0 .014.013.025.028L.751.246l-.023.06s.007.015.01.036l.007-.01.017.028C.764.364.77.38.765.392L.759.407s.007.011.004.027L.78.404S.795.43.786.467L.864.5s0-.053-.012-.09c0 0-.02-.077-.057-.123 0 0-.032-.043-.065-.069 0 0-.053-.04-.088-.053 0 0-.059-.025-.117-.027L.5.136zm0 0L.475.19S.433.196.413.21c0 0 .004-.011 0-.018 0 0-.036.018-.053.032a.323.323 0 00-.021.052S.34.251.338.243c0 0-.016.014-.028.028L.25.246l.023.06S.264.325.26.343L.255.332.238.36C.235.364.234.374.235.392l.006.015S.233.418.237.434L.22.404S.206.426.214.467L.136.501s0-.054.012-.092c0 0 .02-.077.057-.123 0 0 .032-.043.065-.069 0 0 .053-.04.088-.053 0 0 .059-.025.117-.027L.5.136z" fill="#1b2840"/><path d="M.494.598V.6H.491v.001H.49v.001L.488.604H.487v.001H.486v.001H.482v.001H.476S.475.616.473.618C.472.62.465.62.463.622.458.624.46.625.457.628A.012.012 0 01.446.63s.001.015-.02.024c0 0 0 .012-.007.017A.067.067 0 01.404.68H.398a.084.084 0 010-.024S.39.659.383.657.375.655.375.653C.375.652.382.638.39.631.39.631.388.63.388.628s0-.014.024-.025c0 0-.002-.01 0-.014 0 0-.004 0-.006-.002 0 0 0 .016-.007.022C.39.615.39.626.38.616c0 0 0 .006-.003.012C.375.634.37.641.365.643S.355.645.35.64c0 0-.006.017-.025.018 0 0-.007-.002-.009-.005 0 0-.002.003-.006.002A.024.024 0 01.3.652S.299.634.296.626.286.598.276.591L.274.6S.257.474.268.44V.438c0-.003.06-.105.06-.105L.326.328.324.323.388.295S.4.29.422.307c0 0-.016.018.003.031 0 0 .007-.01.01-.01h.002v.01C.435.34.43.347.43.35v.012c.002 0-.003.02-.003.022 0 .004-.002.013.011.021l.003.002S.44.392.445.39V.386S.469.38.478.364c0 0 0 .015.007.024 0 0 .014-.001.012-.024 0 0 .003.016.014.021 0 0 .007-.005.008-.018 0 0 .003.012.01.018 0 0 .009-.004.005-.019 0 0 0 .015.031.025 0 0 .005.008.005.012 0 0 .01-.006.008-.018L.574.367V.354C.574.35.568.34.567.334c0-.004.001-.014.01-.02 0 0 .016-.016.036-.019l.067.03S.68.33.676.333l.06.104V.44s.01.028-.002.124l-.006.05L.723.593H.72S.7.616.698.65v.001s-.003.005-.01 0c0 0 .001.002-.003.005C.68.658.679.66.669.656c0 0-.014-.007-.015-.014 0 0-.022.012-.03-.026 0 0-.002.004-.007.003C.613.62.61.616.607.612.607.608.598.595.6.588c0 0-.007.004-.01.001L.589.587S.59.6.589.604c0 0 .02.005.023.023 0 0 .002.002 0 .004 0 0 .015.02.012.022 0 0-.005.008-.021.002 0 0 .002.02 0 .024 0 0 .001.003-.004.002A.037.037 0 01.577.669S.574.66.574.655c0 0-.02-.008-.02-.024 0 0-.006.002-.01-.003C.537.624.541.625.538.625L.526.618.523.607S.51.607.508.602C.504.597.504.594.504.594s0 .01-.004.01C.497.603.494.597.494.597z" fill="#88531e"/><path fill="#b8c3d5" d="M.698.298L.702.294.704.33.698.298z"/><path fill="#a5b2c9" d="M.727.308L.725.306.723.303.722.302.72.301V.299H.717V.296H.716L.714.294H.713L.71.291.707.29.706.288.75.246.727.308z"/><path d="M.536.774h.001l.001.001H.54l.001.001h.012V.774C.557.77.572.743.598.733l.005.001L.604.73.611.72l.004.002S.619.72.62.717c0 0 .006 0 .005-.004-.002-.004 0-.002 0-.002s.01 0 .015.004c0 0 0-.007-.002-.01L.635.696S.64.701.645.694c.005-.008 0-.001 0-.001S.655.689.662.69c0 0-.003-.007-.006-.01 0 0 .005-.005.012 0h.001S.676.666.679.666h.004L.685.67s0-.006-.002-.007c0 0 .013-.01.015-.01 0 0 0-.035.024-.06L.727.61v.002S.735.569.735.559L.774.54s0 .014-.002.02L.789.548S.785.58.78.594C.774.611.765.62.748.635c0 0 .028-.01.034-.01 0 0-.01.024-.018.032C.755.665.742.68.727.684.712.69.71.691.695.69c0 0 0 .006-.007.012 0 0 .025-.02.055-.012l.001.001-.011.011A.071.071 0 01.709.72C.7.724.695.728.686.73.68.732.67.73.666.732L.66.735s.019 0 .038.014L.683.756C.677.761.668.773.645.772c0 0 .007.001.013.004C.662.78.653.781.648.784a.142.142 0 01-.034.014S.611.804.59.798A.118.118 0 00.562.79S.549.787.529.795L.536.774zm-.074 0H.46v.001H.457v.002H.446L.445.774C.442.77.426.743.4.733L.396.734.394.73.387.72.384.722S.379.72.378.717c0 0-.005 0-.004-.004V.711s-.01 0-.016.004c0 0 0-.007.003-.01C.363.702.363.696.363.696S.355.7.353.694C.354.69.352.69.352.69L.337.691s0-.008.005-.01c0 0-.004-.006-.01 0H.328S.322.667.32.667L.316.67H.314L.315.662S.302.652.3.652c0 0 0-.035-.024-.06v.003L.273.598.269.561.224.541s0 .014.003.02L.209.548a.3.3 0 00.01.045C.225.611.234.62.25.635c0 0-.028-.01-.033-.01 0 0 .009.024.017.032C.242.665.256.68.27.684.286.69.29.691.303.69c0 0 0 .006.008.012 0 0-.026-.02-.055-.012L.254.691l.012.011c0 .002.01.011.024.018.008.004.013.008.022.01.008.002.017 0 .02.002a.442.442 0 00.006.003S.32.735.3.749l.015.007c.007.004.018.017.04.017L.343.777l.009.007a.124.124 0 00.033.014s.015.003.024 0A.072.072 0 01.436.79S.45.787.47.795L.462.774zM.215.468L.25.453S.278.43.269.381V.377a.107.107 0 00.038-.01L.329.333.325.328V.322L.364.306.368.293s-.02 0-.03.004c0 0 .006-.01.01-.012a.09.09 0 01.034-.01c.01 0 .02.003.04-.01C.441.251.443.24.445.238c0 0-.01-.004-.014-.004-.003 0 0 0 0 0S.454.225.465.211c.01-.014.01-.02.01-.02C.473.192.463.188.452.19a.12.12 0 00-.039.02S.417.2.413.191c0 0-.031.01-.051.029 0 0-.015.02-.022.051H.338s.003-.018 0-.028H.337S.302.26.297.323L.296.322V.286L.279.3.265.32.261.337V.34L.258.339.256.333H.254S.238.359.234.372C.228.384.24.404.24.406c0 0-.004.006-.004.009V.43H.235L.22.404S.198.434.215.467zm.57.002L.748.452S.722.43.731.381V.378A.08.08 0 01.696.37L.677.333.68.33V.324L.673.32.636.304S.633.3.632.293c0 0 .02 0 .029.004 0 0-.006-.009-.01-.011a.166.166 0 00-.033-.01C.608.272.6.278.578.264.564.256.555.239.554.238L.567.235c.003 0 0-.002 0-.002S.545.227.535.213A.057.057 0 01.524.192l.023.001a.083.083 0 01.04.02S.583.2.586.192c0 0 .032.01.052.028 0 0 .014.02.021.053L.661.272S.66.256.661.246L.662.244s.035.017.04.079L.704.322.703.287.72.3l.014.02.006.017v.01L.742.34.744.335.745.333S.76.357.765.37a.073.073 0 01-.007.038l.004.007V.43l.001.004.015-.03H.78S.8.435.785.468z" fill="#1e6e55"/><path d="M.57.403V.4H.568V.397H.567V.396H.566V.394L.565.393V.39H.563V.386H.562L.561.383.56.381V.378H.558V.377C.557.375.552.368.55.362l.008.001S.545.338.539.331l.016.003C.559.334.559.332.559.332S.55.314.54.307h.015L.532.285C.522.273.514.27.505.27L.5.138l.076.175S.57.318.569.323.566.335.573.348c0 0 .002.001.001.013 0 .01.003.016.003.021 0 .008 0 .013-.007.02z" fill="#94a3bc"/><path d="M.86.501L.735.559.74.504.86.501zM.265.505L.138.5.27.56.265.505zM.388.7V.698H.386V.697H.384V.696L.379.686S.38.685.38.687V.682h.003L.386.68H.39L.392.675V.671L.397.664V.68h.009L.41.678.413.675.417.674.42.672l.006.013L.389.7H.388z" fill="#a5b2c9"/><path d="M.342.666L.39.619.388.624c0 .001-.002.005 0 .006l.001.001s-.01.01-.013.02v.003l.008.004S.375.67.366.675c0 0 0-.004-.002-.004H.357L.35.673A.006.006 0 01.345.67.018.018 0 01.342.666z" fill="#b8c3d5"/><path d="M.247.76l.04-.041.01.005a.061.061 0 00.018.007h.001L.247.759z" fill="#a5b2c9"/><path d="M.602.655h.002l.001.001h.003v.001h.007s.014.016.018.018L.636.67H.64l.005.001.004.001c.002 0 .003 0 .004-.002L.656.667A.04.04 0 01.658.662L.66.66h.002l.001.002h.001S.671.658.675.66C.68.659.683.66.684.664L.685.67.68.667H.677L.675.672.67.675v.007L.664.678.656.681l.006.01S.649.689.645.693L.642.697C.638.699.636.696.636.696H.635l.001.007c0 .002 0 0 0 0s.006.008.005.012c0 0-.01-.004-.015-.003L.623.716H.621L.618.72H.612S.604.724.603.733c0 0-.006.001-.006-.009V.72S.6.715.604.715L.603.71.604.705h.007V.7L.612.699.614.698h.002V.696S.621.689.621.686L.618.683H.617L.614.682C.612.682.612.679.612.679L.607.675.603.674v-.02zM.339.684v.001H.337V.69H.336v.001S.349.688.353.693l.004.004C.36.699.363.696.363.696l.001.002S.362.7.362.703c0 .002 0 0 0 0S.357.712.358.717c0 0 .01-.005.015-.004.001 0 .001.004.003.004h.003S.38.72.382.72h.004s.009.004.01.014c0 0 .006 0 .006-.01V.72S.398.715.395.715L.396.71.395.706A.01.01 0 00.39.705H.388V.699L.386.698H.384V.696L.378.687.38.686V.684L.383.683h.002L.387.678C.39.679.392.677.392.676L.393.67A.026.026 0 01.396.664l.001-.01S.392.659.384.659c0 0-.014.015-.019.017 0 0 0-.003-.002-.004H.354L.35.673A.006.006 0 01.346.672.01.01 0 01.343.667.071.071 0 00.341.662L.338.66H.335v.002H.333S.327.658.323.66C.318.659.316.66.315.663L.314.67S.317.667.319.667H.32l.003.005.004.003v.004L.33.682.335.678l.007.003L.34.684z" fill="#efc71f"/><path d="M.499.86l.08-.189L.577.669.572.677H.563s0 .015-.019.008c0 0-.003.02-.02.01 0 0-.005.015-.018.014L.5.861z" fill="#a5b2c9"/><path d="M.45.3V.297L.452.296V.295h.001V.294S.457.29.46.29c0 0 .01.003.011.014l.008.007.005.008c0 .002 0 .004-.002.006C.48.328.477.329.473.33h-.02A.115.115 0 00.44.327c-.003 0-.004 0-.007.002a.02.02 0 00-.004.005L.426.338C.418.336.412.318.42.31A.059.059 0 01.444.3H.45" fill="#efc71f"/><path d="M.5.992h.025L.55.988.575.986.599.982.623.976.646.97.67.962.691.953l.022-.01.021-.01L.755.92l.02-.013.02-.014L.812.88.83.864.848.848.864.83.879.813.894.794.908.775.92.755l.012-.02.011-.022.01-.022L.962.67.97.646.976.623.982.599.986.575.989.55.991.525V.5A.492.492 0 10.5.992z" fill="none" stroke="#ec8516" stroke-width=".013" stroke-linecap="square" stroke-miterlimit="10.433"/><path d="M.5.87h.019L.538.868.556.866.574.863.592.858.61.853.627.848.644.84.66.834.676.825.692.817l.015-.01.014-.01.014-.011L.75.774.762.762.774.749.786.735l.01-.014.01-.014.01-.015.01-.016L.832.66.841.644.848.627.853.61.858.593.862.575.866.556.868.538.87.519V.5A.37.37 0 10.5.87z" fill="none" stroke="#ec8516" stroke-width=".012" stroke-linecap="square" stroke-miterlimit="10.433"/><path d="M.5.999L.526.998.55.996.576.993.6.989.625.983.648.976.671.968.694.96.716.95.738.94l.02-.013.02-.013L.799.9l.02-.015.017-.016.017-.016L.87.835.885.817.899.798l.014-.02.013-.02.012-.02L.95.716.96.694.97.671.975.648.983.625.988.6.993.576.996.551.998.526V.5A.499.499 0 10.5 1z" fill="none" stroke="#1b2840" stroke-width=".003" stroke-linecap="square" stroke-miterlimit="10.433"/><path d="M.5.985h.025L.55.983.574.98.598.976.62.97.644.964.667.956.689.947.71.937l.021-.01.02-.012.02-.013.02-.013.018-.015L.826.86.843.843.86.826.874.81.89.79.902.771l.013-.02.012-.02.01-.02.01-.022.009-.022.007-.023L.97.621.975.598.98.574.983.55.985.525V.5A.485.485 0 10.5.985z" fill="none" stroke="#1b2840" stroke-width=".003" stroke-linecap="square" stroke-miterlimit="10.433"/><path d="M.5.876h.02L.537.874l.02-.002.018-.004.018-.004L.612.86.629.853.646.846.663.84.679.831.695.82.71.812l.015-.01.014-.01.014-.013.013-.012.012-.013L.79.739.801.725.811.71l.01-.015.01-.016.008-.016.007-.017L.853.63.86.612.864.594.868.576.872.557.874.54.875.52.876.5A.376.376 0 10.5.876z" fill="none" stroke="#1b2840" stroke-width=".003" stroke-linecap="square" stroke-miterlimit="10.433"/><path d="M.5.864h.019L.537.861.555.86.573.856.591.852.608.847.625.842.642.835.658.828.673.82.69.81.704.8.719.79.732.78.745.768.758.756.77.745.781.73.79.718.8.703.81.689.82.673.828.658.835.642.842.625.847.608.852.591.856.573.86.555.862.537.863.52V.5A.364.364 0 10.5.864zm.075-.18L.5.862" fill="none" stroke="#1b2840" stroke-width=".003" stroke-linecap="square" stroke-miterlimit="10.433"/><path d="M.538.775h.001v.001h.004c.005 0 .009 0 .01-.002C.556.771.568.748.592.736L.599.732M.605.73h.002V.728h.006L.614.727h.001C.626.728.642.725.646.72M.393.73h0-.001 0H.39h0V.728h0-.001 0-.001 0-.002 0-.001L.384.727h0-.001C.372.728.356.725.352.72m.202.06h.022L.578.778h.004L.584.777h.002L.588.776h.006L.596.774h.003L.601.772h.002L.604.77h.001L.607.769C.619.757.624.745.635.74.645.736.665.73.7.75L.68.758C.678.76.666.772.65.772.633.772.609.767.609.767" fill="none" stroke="#1b2840" stroke-width=".004" stroke-linecap="square" stroke-miterlimit="10.433"/><path fill="none" stroke="#1b2840" stroke-width=".003" stroke-linecap="square" stroke-miterlimit="10.433" d="M.576.313L.5.137M.738.45L.861.5.736.558M.268.561l-.13-.06.129-.054"/><path fill="none" stroke="#1b2840" stroke-width=".002" stroke-linecap="square" stroke-miterlimit="10.433" d="M.858.501L.739.504"/><path d="M.637.738h0V.737h.001V.734H.64v0V.73h.001L.642.728v0L.645.726V.723L.646.722.648.719.649.715.651.712.653.71.654.706.655.705.656.703V.702L.659.7v0L.66.698C.666.685.671.68.671.68L.675.672.678.668" fill="none" stroke="#1b2840" stroke-width=".004" stroke-linecap="square" stroke-miterlimit="10.433"/><path d="M.683.662h.001V.66h.003L.689.658v0H.69V.656h.001V.655h.001L.694.654h.001V.653h0A.058.058 0 01.699.652" fill="none" stroke="#1b2840" stroke-width=".003" stroke-linecap="square" stroke-miterlimit="10.433"/><path d="M.67.715h0V.712h.002v0L.676.71h.001V.708H.68V.706h.001L.683.704h.001L.686.702h.002L.689.7h.004L.696.697.7.696.702.695.704.694h.002L.708.691H.71L.713.69H.72c.01-.004.026 0 .024 0C.743.693.737.696.733.702.729.708.727.71.718.715a.128.128 0 01-.034.016C.676.732.67.73.664.733L.66.735" fill="none" stroke="#1b2840" stroke-width=".004" stroke-linecap="square" stroke-miterlimit="10.433"/><path fill="none" stroke="#1b2840" stroke-width=".002" stroke-linecap="square" stroke-miterlimit="10.433" d="M.683.731l.072.03L.732.705"/><path d="M.75.598V.596L.752.594V.592L.754.591V.587L.756.586V.58h.003V.578L.76.577V.576L.761.574h0L.764.571v0-.002h.002V.566h.003V.564H.77V.562h0A.25.25 0 00.787.55L.79.547v.001C.787.551.785.568.784.574A.088.088 0 01.77.612L.746.636M.743.556a.091.091 0 01.01.034M.774.542c0 .006 0 .012-.002.018" fill="none" stroke="#1b2840" stroke-width=".004" stroke-linecap="square" stroke-miterlimit="10.433"/><path fill="none" stroke="#1b2840" stroke-width=".003" stroke-linecap="square" stroke-miterlimit="10.433" d="M.425.686l.074.176M.462.774h0H.46h0v.001h0v.001H.458h0-.001 0-.001 0-.001 0-.001 0c-.004 0-.008 0-.01-.002C.442.771.43.748.407.736L.4.732"/><path d="M.445.78h0-.001 0-.002 0-.02L.42.778H.417L.415.777H.413L.41.776H.405L.403.774H.399L.398.772H.396L.395.77H.393V.769C.38.757.374.745.363.74.354.736.333.73.299.75c0 0 .014.005.018.008C.321.76.333.772.35.772A.23.23 0 00.39.767" fill="none" stroke="#1b2840" stroke-width=".004" stroke-linecap="square" stroke-miterlimit="10.433"/><path d="M.36.772h0-.001 0-.001L.357.774H.355h0L.351.775h0H.35v.001h0-.002 0-.002 0-.001 0-.001 0-.001v.001h0-.001 0v.001c.013.01.045.03.07.019A.08.08 0 01.468.795M.64.772h.007l.001.001h.003l.001.001h.002l.001.001h.003v.001H.66v.001C.646.787.615.808.59.797L.587.796A.078.078 0 00.53.794" fill="none" stroke="#1b2840" stroke-width=".004" stroke-linecap="square" stroke-miterlimit="10.433"/><path fill="none" stroke="#1b2840" stroke-width=".003" stroke-linecap="square" stroke-miterlimit="10.433" d="M.426.305L.499.137"/><path fill="none" stroke="#1b2840" stroke-width=".002" stroke-linecap="square" stroke-miterlimit="10.433" d="M.138.501l.127.004"/><path d="M.362.738h0L.36.737h0V.734h0-.001V.733L.357.73h0L.355.728v0-.003L.352.723V.722L.35.719.349.715.347.712.346.71.344.706V.705L.342.703V.7H.34V.698A.084.084 0 00.328.68L.323.672.321.668M.33.715H.327h0V.712H.325L.324.71H.322V.708H.32L.319.706H.317L.316.704H.314L.313.702H.31L.309.7H.306L.302.697.3.696.297.695.295.694H.293L.291.691H.287L.285.69H.28C.27.686.252.69.254.69c.002.002.008.005.012.011C.269.708.272.71.28.715a.127.127 0 00.034.016c.008.001.015 0 .02.002a.033.033 0 00.005.002" fill="none" stroke="#1b2840" stroke-width=".004" stroke-linecap="square" stroke-miterlimit="10.433"/><path fill="none" stroke="#1b2840" stroke-width=".003" stroke-linecap="square" stroke-miterlimit="10.433" d="M.316.731l-.07.03.02-.057"/><path d="M.248.598V.594L.246.592V.591L.244.589V.586L.242.584V.58H.24V.577L.238.576V.574H.237L.236.571v0L.233.57V.569h0L.231.566h0H.23h0V.564v0H.229V.562h0A.25.25 0 01.212.55L.209.547v.001c.002.003.003.02.004.026a.127.127 0 00.015.038c.01.011.023.022.025.024M.255.557C.254.56.245.579.246.589M.224.542c0 .007 0 .012.003.018" fill="none" stroke="#1b2840" stroke-width=".004" stroke-linecap="square" stroke-miterlimit="10.433"/><path fill="none" stroke="#1b2840" stroke-width=".002" stroke-linecap="square" stroke-miterlimit="10.433" d="M.14.5L.264.495"/><path fill="none" stroke="#1b2840" stroke-width=".003" stroke-linecap="square" stroke-miterlimit="10.433" d="M.272.307L.248.246l.063.026M.27.377L.265.372M.413.24C.42.236.426.231.445.237"/><path d="M.237.436h0V.434h0V.433H.235v0L.234.432V.43H.233V.427H.231V.426L.23.424V.42L.228.418.227.416V.414L.224.413V.41H.223V.406H.221V.404h0V.403H.22h0V.402h0-.002a.068.068 0 00-.004.065" fill="none" stroke="#1b2840" stroke-width=".004" stroke-linecap="square" stroke-miterlimit="10.433"/><path d="M.253.452L.255.449.257.447.259.444V.443L.262.44v0L.264.438V.435L.265.433V.431L.268.43V.425L.269.423.27.421V.38a.167.167 0 00-.03.03C.231.42.241.443.237.457" fill="none" stroke="#1b2840" stroke-width=".004" stroke-linecap="square" stroke-miterlimit="10.433"/><path d="M.264.384h0V.382h0V.381h0V.38h0v0h0V.378h.001V.377h0V.376h0V.375h0V.373h0V.371h0V.368a.12.12 0 00-.01-.037C.254.33.244.351.236.365.23.379.236.398.241.407M.293.34h0V.337h0V.335h0V.333h.002V.322L.296.32V.306L.297.304V.292h0V.29h0V.288h0V.287h0V.286h0C.262.307.262.336.26.342M.268.38C.27.373.275.34.325.328M.308.367a.142.142 0 01-.037.01" fill="none" stroke="#1b2840" stroke-width=".004" stroke-linecap="square" stroke-miterlimit="10.433"/><path d="M.325.302h0L.327.3h0V.299L.329.298V.297L.33.296V.294L.331.293V.29h.002V.286L.335.284V.282L.337.28V.276L.338.274V.272L.339.27V.263L.34.261V.246L.337.242C.324.254.305.268.299.308c-.005.04-.005.03-.005.03" fill="none" stroke="#1b2840" stroke-width=".004" stroke-linecap="square" stroke-miterlimit="10.433"/><path d="M.389.236h0L.39.234h.001L.392.232h.002L.395.23h.002V.228H.4V.226h.002V.225L.405.224V.222L.406.221.407.22.408.218.41.217V.215L.411.213V.212L.414.21V.206L.415.205v-.01h0V.192h0A.122.122 0 00.362.22C.348.235.337.286.336.287L.332.29" fill="none" stroke="#1b2840" stroke-width=".004" stroke-linecap="square" stroke-miterlimit="10.433"/><path d="M.378.275h.003L.383.273h.001L.385.272h.001L.387.271h0L.39.27h.001V.268h.001L.393.267v0h.002V.265h.001L.398.262h.001v0L.4.26v0h0L.403.257C.409.248.409.244.412.241.415.238.417.238.417.23h0C.412.235.392.235.383.238.375.241.357.264.351.268" fill="none" stroke="#1b2840" stroke-width=".004" stroke-linecap="square" stroke-miterlimit="10.433"/><path d="M.34.296h0V.294h0V.293h0L.342.292h0V.291h.002L.345.29h0V.288h.001L.347.287h0V.286h.001V.285h.001V.284H.35S.363.278.376.275h.02a.07.07 0 00.05-.036M.425.235h.003L.43.233h.003L.434.231h.003L.44.23h.002L.443.229.445.227h.002L.449.224H.45L.453.223.455.22h.001L.458.218.46.216.462.215.464.213.465.21.467.209.468.207.47.204V.202L.472.2.473.197.474.195.475.192C.475.189.43.189.411.214" fill="none" stroke="#1b2840" stroke-width=".004" stroke-linecap="square" stroke-miterlimit="10.433"/><path d="M.363.305h0V.303h0V.302h.001V.3h.002V.298h.001V.297h0V.295h0v0h.001V.293h0V.292h0V.291h0c-.009.002-.04 0-.056.026m.451.119h0V.434h0V.433h.001V.432L.767.43h0V.427h.001V.424L.77.423V.42L.772.418.773.416V.414L.776.413V.41h.001V.407h.001V.406h.001V.404h0V.403H.78V.402h0a.068.068 0 01.005.065" fill="none" stroke="#1b2840" stroke-width=".004" stroke-linecap="square" stroke-miterlimit="10.433"/><path d="M.761.457h0V.438L.762.436V.429L.764.427V.415h0V.412H.761V.41H.76A.197.197 0 00.73.38C.725.423.737.44.748.453" fill="none" stroke="#1b2840" stroke-width=".004" stroke-linecap="square" stroke-miterlimit="10.433"/><path d="M.735.384h0V.382h0V.381h0V.38h0v0h0V.378h0V.377h0V.376h0V.375h0V.373h0V.371h0L.733.37V.369c0-.009.008-.032.01-.037.002-.002.012.019.02.033.007.014 0 .033-.005.042" fill="none" stroke="#1b2840" stroke-width=".004" stroke-linecap="square" stroke-miterlimit="10.433"/><path fill="none" stroke="#1b2840" stroke-width=".003" stroke-linecap="square" stroke-miterlimit="10.433" d="M.727.307L.751.246.688.272"/><path d="M.706.34h0V.337h0V.335h0V.333H.704V.325L.703.322V.306L.702.304V.292h0V.29h0V.288h0V.287h0V.286h0c.035.021.036.049.036.06M.731.38C.73.373.73.342.68.33m.018.039a.097.097 0 00.03.009" fill="none" stroke="#1b2840" stroke-width=".004" stroke-linecap="square" stroke-miterlimit="10.433"/><path d="M.674.303h0L.673.301V.3H.671L.67.299V.296L.669.295V.293L.667.292V.288L.665.287V.283L.663.28V.279L.661.277V.27L.66.268V.246L.662.242C.675.254.695.268.7.308c.005.04.005.03.005.03" fill="none" stroke="#1b2840" stroke-width=".004" stroke-linecap="square" stroke-miterlimit="10.433"/><path d="M.61.236h0L.609.234H.608L.607.233H.606L.605.232H.603L.602.23H.6V.229L.597.228V.227L.595.226V.225L.594.224.593.222H.592L.59.22V.217L.587.215V.21L.585.207V.204L.584.202h0V.191A.13.13 0 01.637.22C.65.235.662.286.663.287L.666.29" fill="none" stroke="#1b2840" stroke-width=".004" stroke-linecap="square" stroke-miterlimit="10.433"/><path d="M.62.275h0-.002L.616.273H.615L.614.272h0-.002V.271H.61V.27H.608v0h0L.606.268h0V.267v0H.603V.265h0L.6.262h0V.26H.598h0V.257C.59.248.59.244.587.241.583.238.581.238.581.23h0c.005.004.025.004.034.007.008.003.026.026.032.03" fill="none" stroke="#1b2840" stroke-width=".004" stroke-linecap="square" stroke-miterlimit="10.433"/><path d="M.66.296h0V.294h0V.293h0L.658.292h0L.657.291h0-.001V.29h0L.654.288h0-.001V.287H.652V.286h0-.001 0V.285H.65h0V.284h0S.636.278.622.275h-.02A.07.07 0 01.554.239M.586.24C.579.236.573.231.554.237" fill="none" stroke="#1b2840" stroke-width=".004" stroke-linecap="square" stroke-miterlimit="10.433"/><path d="M.574.235H.569L.568.233H.563L.561.231.56.23H.558L.556.228H.554L.552.226H.55L.548.225.547.223H.545L.543.22.54.219.539.217.537.216.536.214.534.212.533.21.53.208V.206L.528.203V.201L.525.199V.196L.523.193C.524.19.57.19.588.213m.047.09h0V.301h0L.633.3h0v0h0V.298H.632V.297h0V.296h0V.295h0-.001 0V.293h0V.292h0V.291h0c.009.002.04 0 .056.026" fill="none" stroke="#1b2840" stroke-width=".004" stroke-linecap="square" stroke-miterlimit="10.433"/><path fill="none" stroke="#1b2840" stroke-width=".003" stroke-linecap="square" stroke-miterlimit="10.433" d="M.702.294L.699.298"/><path fill="none" stroke="#1b2840" stroke-width=".002" stroke-linecap="square" stroke-miterlimit="10.433" d="M.739.496L.858.5"/><path d="M.196.148l.003.004C.196.155.197.159.2.162l.021.022c.006.006.015.018 0 .032C.21.226.199.227.19.217L.162.19.158.192.155.188.173.171l.003.003-.004.004.029.03c.007.007.013.007.02.001C.227.201.223.193.217.187l-.02-.02C.192.16.189.161.186.164L.182.16.196.148zM.267.15L.25.125C.246.12.244.12.238.123L.235.119.251.108l.002.004C.25.114.25.119.253.122l.03.042L.276.17.222.146l.021.031c.004.004.008.004.012.002l.002.004-.015.01L.24.19C.243.187.242.183.24.18L.216.145C.213.142.21.144.207.145L.204.14.22.131l.047.02zM.261.102L.285.09l.003.004-.006.003.027.048L.315.14l.002.004L.293.16.29.155.296.15.269.104.263.106.261.102zM.33.069L.332.067h.002V.066h.002V.065h.001L.339.064H.34V.063h.002l.01.017L.35.083C.344.077.337.071.33.074l.02.05h.005l.002.004-.023.01L.332.132.336.131.315.08C.306.084.306.093.307.101L.303.102.298.082A.103.103 0 00.31.076L.33.069zm.06.042h.006C.408.106.412.1.415.087H.42V.11C.417.11.413.11.407.112l-.034.01L.37.116.376.115.362.062H.358L.356.059.391.05A.048.048 0 00.403.045l.009.019-.004.002C.401.058.394.054.383.056a.065.065 0 00-.006.002l.005.023L.388.08C.394.078.393.072.393.068L.397.067.403.09.399.092C.397.088.395.082.39.084L.384.085.39.111zM.429.047H.424V.042L.45.039c.02-.002.032.01.034.03C.487.086.477.101.458.103L.43.106V.102L.435.1.429.047zM.449.1h.004C.471.098.471.083.47.07.468.056.465.042.448.044H.444L.449.1zM.525.081v.002l.001.002.001.001v.001l.001.001V.09L.53.092v.002h.002v.001l.001.001.002.001v.001h.001v.001h.002L.54.1h.006C.552.102.557.099.558.093.56.075.524.079.526.056.528.044.536.036.548.038c.003 0 .006 0 .007.002L.56.042.567.04l.001.02H.564C.56.051.558.043.547.042c-.005 0-.01.003-.01.008C.534.065.57.061.568.086.567.1.557.106.543.106.536.103.534.1.53.1L.523.102.52.082h.004zM.62.052h.005v.001h.006v.001h.001L.631.075H.627C.627.067.624.058.615.055L.603.11l.004.002v.004L.581.11.583.105h.005L.601.053C.591.051.586.058.581.064L.579.063l.009-.02A.15.15 0 00.6.047l.02.005zm0 .066V.114C.627.115.63.11.633.107L.662.072V.065l.015.006-.004.062.004.003L.675.14.652.13.654.127l.005.002L.66.113.64.105.637.112.635.114C.633.117.637.12.64.12L.638.125.62.118zM.644.101L.66.107.663.078l-.02.023zM.733.098L.735.1h.004L.74.102v.001h.002l.001.001h.001l-.007.02H.734C.736.114.736.106.728.1L.702.149l.004.003-.003.004L.682.144.684.14l.005.002.026-.048C.706.09.699.095.693.1L.69.098.703.081a.097.097 0 00.011.007l.019.01zm.005.074v.001H.74v.003h.002v.001c.01.007.019.006.03 0L.773.18.757.194a.043.043 0 00-.01-.008L.72.165.722.16l.004.002L.758.12.755.116.757.113l.029.02A.04.04 0 00.797.14L.788.16.784.157C.786.146.784.138.776.132L.77.128l-.014.02.005.002C.766.154.77.15.773.147l.003.002-.015.02L.758.168C.76.163.763.157.758.154L.754.15.738.17zm.045.017V.19L.781.192v.004H.78v.013h.001V.21l.001.001v.001h.001v.002h.001v.001h.001c.006.006.012.007.016.002C.814.205.784.186.8.17.809.161.82.16.829.17l.004.006.002.005.006.003L.831.2.827.196C.83.187.833.18.825.172.821.168.815.167.811.172c-.01.01.02.03.003.047-.01.01-.022.009-.031 0C.778.214.778.209.774.206L.768.203.78.187l.003.002zM.11.314h.003l.001.002h.002l.001.001.002.001L.12.32h.002v.002l.002.001.001.001.001.001.001.002.001.001V.33L.13.331v.002l.001.002v.001l.001.002v.015L.13.354C.126.368.108.378.088.37.068.362.063.343.068.33.073.315.091.305.111.313zM.095.355h.002l.001.001H.1v.002h.001l.002.001h.002L.107.36H.12L.121.358h.001V.357h.002V.356L.126.354h.001V.353C.132.343.12.335.106.329.089.323.077.32.073.33.068.341.079.35.094.355zM.054.372L.06.373v.005l.05.013.003-.005.004.001L.11.42a.046.046 0 00-.002.013L.086.432V.427C.097.426.104.422.106.411L.109.405.084.399v.004C.082.409.086.412.09.414v.004L.066.413V.409c.007 0 .011 0 .013-.007V.398L.056.393.053.397H.05L.054.371zM.041.434h.005v.005L.1.444.101.44h.005L.103.474v.013L.08.488V.484C.09.481.096.476.097.464V.46L.075.456V.46C.072.467.076.468.082.47v.004L.058.472V.468C.065.468.07.466.07.46V.456L.045.454.043.459H.04V.433zm.061.059v.028H.097V.515H.042v.007H.037V.494H.04l.001.007L.096.5.097.493h.005zM.06.583V.582H.057L.056.58H.052L.05.578V.577H.049V.575H.046V.574H.044V.571L.042.57.041.568V.566H.04V.562C.037.546.048.533.065.532c.027-.005.04.008.041.02v.014L.11.572.088.578.086.574C.093.57.103.562.102.554.1.543.086.543.08.544.067.547.046.551.048.565c0 .008.008.011.014.014L.061.583zM.057.615v.006C.062.633.07.637.08.64v.004H.058A.04.04 0 00.056.633L.046.598.051.596l.002.005.052-.014V.582L.108.58l.01.034c0 .004.002.01.004.012l-.019.01L.102.632C.11.625.114.618.112.607A.094.094 0 00.108.601L.087.607l.001.005C.09.618.096.618.1.617v.004L.077.628V.624C.08.622.085.619.083.614L.082.607.057.615zm.048.06L.106.674.108.673H.11L.112.671h.001L.115.67h.018l.001.002h.003l.001.002H.14v.002h.002v.002h.002V.68h.002v.002l.001.001.001.001v.001C.156.698.153.718.134.728.113.738.096.73.089.717.082.704.086.684.105.675zm.02.039L.127.713h.001L.129.711.131.71h.002L.134.708h.002L.137.705H.14V.704h.001V.701h.001L.143.7.145.699.146.696V.695L.147.694V.69L.144.688C.139.678.127.68.112.688.097.697.088.706.092.716c.006.01.019.007.033-.001zM.112.755L.116.753.12.756.163.724.161.72.165.717l.02.027a.044.044 0 00.008.01L.178.77.175.767C.18.757.182.75.175.74A.047.047 0 00.172.736L.152.75l.003.003c.003.005.008.004.013.002L.17.758.15.773.148.77C.152.765.155.76.151.756L.149.753l-.02.015.002.004-.004.003-.015-.02zm.101.03L.21.781.213.778.23.794c.011.01.02.02.008.031C.228.836.218.83.208.822L.203.817.187.835.19.839.187.842.17.826.172.822l.004.003.037-.04zM.207.814h.001v.001L.21.817v.001C.217.823.223.82.227.815.232.81.235.805.227.798A.017.017 0 00.225.795L.207.814zm.028.06l.001.001.001.001.001.001H.24v.001c.01.007.018.005.029 0L.272.88.255.896a.04.04 0 00-.01-.008L.216.868.22.864l.004.002.03-.045L.25.818.253.814l.029.02A.046.046 0 00.293.84L.285.86.281.858C.283.848.281.84.271.833A.092.092 0 00.267.83L.253.849l.004.003c.006.003.01 0 .013-.004L.273.85.258.871.255.869C.257.865.26.859.255.856L.25.853.235.874zm.069-.02L.3.851.302.847.328.86C.34.866.345.874.34.886.336.893.33.896.323.895L.322.923l.003.003L.323.93.307.922.309.89A.055.055 0 01.304.888l-.01.021.003.003-.002.004-.022-.01L.275.9.28.903.304.854zm.002.03h.002L.31.886C.318.89.323.885.326.88.329.873.33.866.32.862A.023.023 0 00.317.86L.306.883zm.039.032v.006h.001v.003h.001v.002l.001.001V.93H.35v.003h.001v.002h.001l.001.001h.001v.001h.002v.001h.001l.001.001H.36C.368.942.373.94.375.934.38.917.344.913.35.892.355.88.365.874.377.878l.006.004c.002 0 .003.002.005.003h.006L.392.904H.388C.386.893.385.885.375.881.369.881.364.882.362.888.357.902.394.906.386.93.382.943.371.947.358.943.35.941.349.937.345.936H.338l.003-.02h.004zM.4.92L.402.917V.915L.403.914V.912L.405.91V.907L.406.906.407.905.408.903.409.902.41.901.411.9.413.899V.898h.002L.416.895H.42L.422.893.425.892h.01C.45.894.463.91.46.93a.035.035 0 01-.036.029C.41.957.397.942.4.921zm.044.008V.92L.446.918V.906L.443.905V.902H.442V.901L.441.9H.44V.898H.437V.897H.435V.896C.423.895.419.907.415.923c-.001.017 0 .03.011.032.01.001.015-.01.018-.027zm.069.016V.912c0-.005 0-.008-.007-.008V.899h.019v.005C.52.904.518.908.518.913v.051H.509l-.03-.05V.95c0 .005.002.007.007.008v.005h-.02L.468.959C.472.959.474.955.474.95V.908C.474.905.47.904.468.903V.9h.018l.027.045zM.578.937L.574.907C.574.9.572.897.565.897V.894L.583.89v.005C.58.896.579.901.58.906l.007.05-.009.002L.54.912.544.95c0 .005.004.007.008.007l.001.005-.019.002V.96C.539.958.54.954.54.949L.534.909C.534.904.53.904.527.904V.899L.545.897l.033.04zm.044.005h.006V.94C.64.938.644.93.646.918h.005V.94L.64.943l-.034.01L.604.948.608.946.593.894H.588L.587.892.62.88A.044.044 0 00.633.876l.01.018-.004.002C.63.888.624.884.613.888A.054.054 0 00.607.89l.006.022.005-.001C.625.909.624.903.623.899L.627.898l.007.024-.003.001C.629.92.626.913.62.915L.615.917l.007.025zM.709.916H.705L.704.918H.702v.001H.7L.699.92H.696L.669.933.667.928.671.926.65.876.645.878.642.873l.023-.01.002.005L.663.87l.022.05.004-.002C.7.913.7.903.7.895h.005L.71.916zm.035-.02L.742.892C.747.888.745.884.742.881L.718.842.713.844.71.841.727.828l.027.02-.01-.032L.76.803l.003.004L.76.811l.032.043.005-.002L.8.855.78.87.777.866.781.863.75.823l.014.045L.762.87.723.843.74.867l.007.01C.75.883.753.885.758.88L.76.884.744.896zM.806.85L.802.847C.806.842.803.837.801.833L.78.793.773.79.785.779l.056.028.004-.003.003.004L.83.825.827.822.83.818.817.81.802.825l.004.007.002.002C.81.837.814.834.817.832L.82.836.806.85zM.8.82L.812.809.786.794.8.821zM.864.753L.84.733C.835.732.832.73.828.736L.824.732.836.717.839.72C.836.724.84.728.842.73l.041.031-.005.007L.82.763l.03.022c.004.003.007.002.01 0l.004.002-.011.015L.849.799C.851.795.85.791.847.789L.813.764C.81.76.807.764.805.766L.8.763.812.748l.052.005zM.891.75L.887.749C.889.743.885.74.882.736L.85.702H.844L.852.688l.061.011.003-.003.004.002L.908.72.904.718.906.713.89.71.88.728l.006.005.002.002C.892.737.895.734.897.731L.9.733.89.751zM.877.725L.886.709.857.703l.02.021zM.938.64v.013L.936.654V.66H.935v.003H.934v.002C.927.682.91.685.894.68.879.674.865.657.87.641A.019.019 0 01.875.635.017.017 0 00.878.63V.622L.9.626.899.63C.89.631.879.633.876.642.872.652.884.66.897.664.913.67.927.669.931.659V.654L.918.648.915.652.91.651.92.628.923.63.922.635.938.64zM.946.605V.602L.948.601V.598a.024.024 0 00-.01-.025L.937.568l.02.01A.04.04 0 00.954.59L.947.625H.942V.618L.89.608.888.612H.884L.89.576A.041.041 0 00.892.564h.022v.004C.903.571.896.576.894.587L.893.593l.023.005V.593C.919.587.913.585.909.583L.91.58l.025.006v.003c-.006 0-.011 0-.013.006L.92.6l.026.006zM.96.561H.956C.956.554.952.553.948.553L.902.548.9.553H.896L.897.532.93.524.898.51.9.491h.005v.004L.96.497V.492h.005L.963.518H.958V.512L.908.51l.044.018v.004L.906.544l.03.003.012.001C.953.548.957.547.957.541h.005L.96.561zM.956.46V.453C.955.44.948.435.936.431L.939.427.96.43v.013l.003.035H.96L.958.475.903.48v.005H.9L.895.45A.044.044 0 00.892.437l.02-.006.002.004C.904.44.899.448.9.459v.006L.926.463V.457C.923.451.917.451.913.45V.446L.938.444v.004C.935.449.929.45.93.457v.005L.957.46zM.924.373L.894.38C.888.382.886.384.887.39H.883L.878.373.883.372c.001.004.005.005.01.004l.05-.013.002.008-.041.043.036-.01C.945.404.947.4.946.394h.005l.004.018-.004.001C.949.41.945.408.94.41L.9.42C.896.42.896.425.896.427L.893.428.888.41.924.373zM.863.337V.335H.861V.332L.86.331V.328H.858V.326H.857V.325l.019-.01.002.003C.871.323.866.33.868.338L.92.319.918.312.923.31l.009.022-.004.002L.925.331l-.05.021c.004.009.013.009.02.008l.002.004L.876.37A.095.095 0 00.872.357L.863.337z" fill="#1b2840"/><path d="M.688.65a.01.01 0 00.007.003" fill="none" stroke="#1b2840" stroke-width=".004" stroke-linecap="square" stroke-miterlimit="10.433"/><path fill="none" stroke="#1b2840" stroke-width=".003" stroke-linecap="square" stroke-miterlimit="10.433" d="M.611.699L.576.685M.39.7L.424.686"/><path d="M.504.584v.009h0v.002h0l.001.002h0v.001L.507.6h0l.001.002h0l.001.001h0L.51.604h0l.001.001h.001v.001h.003v.001H.52l.001.001C.523.607.524.605.524.603S.514.587.514.587m.009.02V.61l.002.004.001.004.001.004.001.004.001.004.001.004.001.003.001.004v.003l.002.003V.65l.002.003v.003l.001.002v.003l.001.002.001.003v.002L.54.67v.002l.001.001v.002l.001.001V.68h0l.001.002h0v.001h0v.001h0c.001.001.004.003.012.003C.562.685.564.678.563.676A.48.48 0 01.537.623C.535.622.527.62.526.617" fill="none" stroke="#502e11" stroke-width=".004" stroke-linecap="square" stroke-miterlimit="10.433"/><path d="M.506.6h0v.001h0v.002h.001v.002h0v.002h0L.509.61v.004L.51.617V.62l.002.003v.008l.002.004V.64l.002.009.001.008.001.004v.004l.001.004L.52.67v.011l.001.002v.003l.001.002h0v.003h0v.001h.001v.001c0 .002.004.004.009.004C.536.697.539.695.54.693.543.69.544.683.544.683M.435.328h.017L.454.33H.47C.476.33.48.328.481.326.483.323.483.32.482.318.481.317.478.308.47.306M.45.299h0V.297h.001V.296h0V.295h.001V.294h.001V.293h.001V.292h.002V.291H.46s.01.004.01.013" fill="none" stroke="#502e11" stroke-width=".004" stroke-linecap="square" stroke-miterlimit="10.433"/><path d="M.46.29h0V.288h0V.287h.001V.286h.002V.285h.001V.282h0L.467.281V.28h0L.468.279.47.278V.277h.002V.274h.002L.475.273h.002L.48.271h.002V.27H.49c.021 0 .022 0 .026.002.003.001.013.01.017.014a.133.133 0 00.022.02L.554.307C.541.31.534.306.534.306.546.308.56.333.56.333H.556A.275.275 0 01.538.33a.15.15 0 01.02.034C.557.362.55.362.55.362v.001l.008.015.007.013C.538.384.533.365.533.365V.38L.528.385C.522.381.518.365.518.365.516.384.51.385.51.385.5.382.496.362.496.362c.001.008 0 .016-.003.02C.49.384.489.387.485.388H.483C.478.381.478.362.478.362.458.387.442.386.442.386H.44A.144.144 0 01.456.363a.122.122 0 00.01-.017A.04.04 0 00.47.33" fill="none" stroke="#502e11" stroke-width=".004" stroke-linecap="square" stroke-miterlimit="10.433"/><path d="M.477.296h.002v.001h.009V.295H.49C.495.292.498.295.5.296s.004.002.008 0M.485.298L.486.3" fill="none" stroke="#502e11" stroke-width=".004" stroke-linecap="square" stroke-miterlimit="10.433"/><path d="M.488.296h0v.001h0v.001h0V.3H.49v0h0L.487.304s.002.005.006.004C.498.307.5.301.5.298m.01.087h0v.001h0l.001.001h0V.39h0l.001.002h0l.001.002h0v.001h0v.001h.001v.001h0v.001h.001v.001h0V.4c.003.002.007.006.01 0A.036.036 0 00.526.385m.002.004h0V.39H.53v.001h0v.001h.002v.001h.003C.538.393.541.386.54.378M.48.38h0L.478.382h0L.477.383h0-.001v.001h0-.001 0L.474.385h0-.001 0-.001 0C.47.384.466.382.467.374M.604.321h0l.002.002h0l.002.001.001.001.002.001.001.001.001.001.002.001.001.001.003.002.003.002.003.003h.002V.34H.63l.002.002h.001l.001.001.002.001v.001h.002v.001H.64v.002h.002a.02.02 0 00.015 0A.014.014 0 00.667.34c0-.002.002-.006 0-.007" fill="none" stroke="#502e11" stroke-width=".004" stroke-linecap="square" stroke-miterlimit="10.433"/><path d="M.602.355h.001l.001.001h.001v.002h.002L.61.36h0l.001.001h.001l.003.003.002.001.003.002h0l.001.001.001.001h.002V.37l.002.001h0L.63.372h0v.001h.001l.001.001h.012A.018.018 0 00.65.363V.355A.034.034 0 00.639.347M.633.374h.001v.001h0l.001.001h0v.001h0l.001.001h0V.38h0v0h.001v.001h0v.001h0v.001h0v.001h0v.001h0c0 .005-.001.008-.004.01C.631.399.625.4.622.4a.021.021 0 01-.01-.003L.598.386" fill="none" stroke="#502e11" stroke-width=".004" stroke-linecap="square" stroke-miterlimit="10.433"/><path d="M.615.398h.001V.4h.002l.001.001h0L.62.403h0v.001h0v.001h0v.001h.001v.001h0v.008L.613.42a.014.014 0 01-.01.002C.602.422.6.422.596.419" fill="none" stroke="#502e11" stroke-width=".004" stroke-linecap="square" stroke-miterlimit="10.433"/><path d="M.589.41h0v.001H.59v.001h.001l.001.001h0l.001.001v.001h.001l.001.001v.001L.598.42H.6v.002h0l.001.001h0v.001h.001v.001h.001v.001h0c0 .003 0 .008-.003.01C.598.44.594.442.592.442L.584.439.58.434A.034.034 0 01.578.427" fill="none" stroke="#502e11" stroke-width=".004" stroke-linecap="square" stroke-miterlimit="10.433"/><path d="M.596.474h.001l.001.001h.001L.6.477h.002v.001h.004l.001.001h.005C.616.476.619.474.619.472.62.472.622.467.621.465A7.148 7.148 0 01.6.435m.021.029h0l.001.001h.001v.001h.003v.001h.007c.004.001.008 0 .01-.002C.645.464.647.457.646.455A.696.696 0 00.62.415m.026.04h.001v.001H.65v.001h.003v.001h.004V.46h.005L.67.454C.672.452.673.448.672.446L.637.39m.036.056h0l.001.001h.001l.001.001V.45h.002v0H.68v.001h.003v.001h.003C.69.452.697.452.7.45L.703.444V.438L.652.36" fill="none" stroke="#502e11" stroke-width=".004" stroke-linecap="square" stroke-miterlimit="10.433"/><path d="M.702.448h0V.45h0v.006L.7.458V.48L.699.49v.008L.697.505v.009L.696.523v.009L.695.551.693.569v.018L.691.596.69.604v.028L.688.635v.011L.687.647V.65h0v.002h0C.688.654.684.657.68.658L.672.657C.662.654.655.646.654.64L.67.455M.654.64h0L.652.642h0-.001v.001h0H.65h0v.001h0-.001 0-.001 0-.001v.001H.645h0-.002 0-.001 0H.64h0V.642h0-.002A.034.034 0 01.625.62L.64.467M.625.615h0-.001v.001h0L.622.618h0-.001v.001h0H.62h0V.62h0-.001 0-.001 0-.001 0-.001 0-.001 0-.001 0V.617H.612h0A.05.05 0 01.599.585L.613.478m-.014.11h0-.001 0-.001V.59h0-.001 0-.001 0-.001 0-.001 0-.001 0H.59h0-.001 0L.587.587a.073.073 0 00-.01-.014L.573.561.586.489m.016.227H.61v.001h.001v.001h0L.613.72h0S.604.726.603.736c0 0-.007-.002-.006-.013 0-.005.005-.006.005-.006zM.61.667h0L.608.669h0V.67h0-.001 0v0h0v.001H.606h0v.001h0v.001h0c0 .004.002.005.003.006M.615.671h0-.001 0v.001h0-.001 0v.001h0v.001h0-.001 0v.001h0v.001h0c0 .003 0 .006.004.007M.622.681h0v.001h0H.62h0v.001h0v.001h0v.001h0-.003S.616.681.617.68c0-.003 0-.002.002-.004m.007.037h0v.001H.624h0v.001h0-.001 0v.001h0-.001 0C.62.716.616.714.615.712s-.002-.006 0-.01C.617.696.622.693.625.693H.63l.005.004.002.006" fill="none" stroke="#502e11" stroke-width=".004" stroke-linecap="square" stroke-miterlimit="10.433"/><path d="M.623.712h.012v.001h.003v.001H.64v.002h0c.001 0 0-.006-.002-.01C.634.702.63.702.628.702S.624.704.624.705v.007zm.033-.03h0V.68h0-.001 0v0h0-.001 0V.678H.652h0V.677H.651h0H.65h0V.676h0L.64.678a.015.015 0 00-.006.013c0 .004 0 .003.002.005s.004.002.006 0c.002.001.003 0 .003-.002v-.01L.648.682h.008z" fill="none" stroke="#502e11" stroke-width=".004" stroke-linecap="square" stroke-miterlimit="10.433"/><path d="M.656.682h.001v.001h0l.001.001h0v.001H.66v.002h0v.001h0L.662.69h0v0h0v.001H.65a.014.014 0 00-.006.002M.614.658h.001V.66h.003v.002H.62v.002h.001v.001l.002.001.001.001.002.002h0L.627.67h0L.63.672h0v.002h.001l.001.001h.001L.636.672h.008c.001.002.002.002.004.002L.652.672.656.666.658.662.66.66h.003l.001.002M.67.675h.001v.001h0V.68H.666L.664.678.66.68H.658L.656.681" fill="none" stroke="#502e11" stroke-width=".004" stroke-linecap="square" stroke-miterlimit="10.433"/><path d="M.685.67h0V.668h0V.667h0V.666h0V.665h0L.683.664h0V.663h0V.662H.682h0V.661h0-.001 0V.66h0H.68h0v0h0C.674.658.666.66.665.663.663.666.66.672.664.674S.668.676.67.675C.672.675.673.673.674.671.676.67.676.668.678.668H.68L.685.67zM.494.586V.59h0v.002h0v.002h0v.003h0V.6H.492v0H.491v.001L.49.602h0v.002H.489v.001H.487h0-.001v.001H.485h0-.001 0L.483.607h0-.002 0H.48h0-.002v.001C.475.607.474.605.474.603S.486.585.486.585" fill="none" stroke="#502e11" stroke-width=".004" stroke-linecap="square" stroke-miterlimit="10.433"/><path d="M.477.607L.476.61.474.615v.004L.471.623v.004L.47.631v.004L.467.638v.004L.465.645v.006L.464.654.463.657v.002L.461.662.46.664V.67L.458.673v.001L.457.676v.001L.456.68h0v.002H.455v.001h0v.001h0C.454.684.451.686.443.686.437.685.435.678.436.676A.431.431 0 00.458.628S.46.623.462.623C.464.622.472.62.474.617M.493.6h0v.001h0v.002h0v.002H.491v.002h0v.004L.49.612V.62L.488.623v.004L.486.631V.64L.484.648.483.656V.66L.481.664.48.668v.007L.479.678v.005L.477.684v.004h0L.476.69v.002h0v.001h0v.001C.474.695.471.697.466.697.464.697.46.695.46.693.456.69.456.683.456.683M.437.329h0v.002h0v.002h0v.001h0v.002h0v.001h0v.001h0L.435.34h0v0h0-.001 0v.001h0L.433.343h0L.432.348S.429.35.429.356c0 .008.002.006.001.012S.426.383.427.39C.428.4.433.403.435.404c0 0 .005.003.005.005C.441.41.44.424.438.426.436.428.435.43.433.43.43.43.418.425.415.406c0 0-.004 0-.007-.003C.406.399.404.39.406.388V.386S.396.373.403.354c0 0-.008-.007-.006-.015M.401.322h0L.398.323v.001H.397L.395.327h0L.392.329H.39V.33H.389L.385.334.382.335.38.337H.378L.376.34H.375L.374.342H.372L.371.343H.37L.369.344H.367v.001L.364.346h0L.363.348h0-.001a.02.02 0 01-.015 0C.342.347.34.343.337.34c0-.002-.002-.006 0-.007" fill="none" stroke="#502e11" stroke-width=".004" stroke-linecap="square" stroke-miterlimit="10.433"/><path d="M.403.355h0H.4v.002h0L.397.359h0-.002V.36H.393v.001H.392L.389.365H.387L.384.367h0L.381.368V.37H.378v.001H.375v.001H.373h0v.002h0-.001 0v.001H.36a.018.018 0 01-.007-.01v-.01A.037.037 0 01.366.346M.37.375h0v.001h0-.001v.001h0v.001H.367h0V.38h0v0h0L.366.382h0v.001h0v.001h0v.001h0v.001h0c0 .005.002.008.004.01C.373.399.379.4.383.4a.02.02 0 00.01-.003.542.542 0 00.013-.01" fill="none" stroke="#502e11" stroke-width=".004" stroke-linecap="square" stroke-miterlimit="10.433"/><path d="M.39.398h0-.001 0L.388.4h0v0H.386v.002H.385h0L.384.404v.001h0-.001v.001h0v.001h0v.008A.023.023 0 00.39.42.014.014 0 00.4.422c.002 0 .003 0 .007-.003" fill="none" stroke="#502e11" stroke-width=".004" stroke-linecap="square" stroke-miterlimit="10.433"/><path d="M.415.41h0v.001h0-.001 0v.001H.412v.001H.411L.41.415v.001h0v.001H.407V.42H.405v0h0L.404.422h0v.001H.402v.001h0-.001 0v.001h0L.4.427h0C.4.43.4.435.403.437.406.44.41.442.412.442L.42.439.423.435" fill="none" stroke="#502e11" stroke-width=".004" stroke-linecap="square" stroke-miterlimit="10.433"/><path d="M.403.476h0L.401.478h0H.4h0v.001h0-.001 0-.001 0-.001 0-.001 0-.001 0-.001 0-.001 0C.388.476.384.474.384.472c0 0-.003-.005-.001-.007 0-.002.019-.03.019-.03" fill="none" stroke="#502e11" stroke-width=".004" stroke-linecap="square" stroke-miterlimit="10.433"/><path d="M.383.464h0L.381.466h0H.38v.001h0-.001 0-.001v.001h0-.001 0-.001 0-.001 0-.001 0-.001 0-.001 0H.37C.367.469.363.468.36.466.359.464.357.457.358.455l.026-.04m-.026.04h0-.001 0v.001H.355h0-.001v.001H.353h0-.001 0L.351.459h0H.35h0-.002 0-.001V.46H.346h0-.001 0-.001 0-.001 0L.333.454C.333.452.331.448.332.446L.367.39M.332.446H.33v.002H.329v.001L.326.45h0-.001 0L.323.452h0-.001 0-.001 0H.32v.001h0-.001 0-.001C.314.452.307.452.304.45L.301.444.302.438.352.36M.269.44a.54.54 0 00.005.158" fill="none" stroke="#502e11" stroke-width=".004" stroke-linecap="square" stroke-miterlimit="10.433"/><path d="M.302.446h0v.002h0v.008l.001.002V.47l.001.003V.48l.001.007v.008l.001.009v.008l.001.01.001.009L.31.55l.002.018v.019l.001.008.001.009V.61l.001.01v.01l.001.003v.012l.001.002V.65h0v.002h0c0 .002.003.005.006.006L.332.657C.342.654.349.646.35.64L.335.455M.35.64h0v.001h.001l.001.001h.001l.001.001h.003L.36.645h.003L.365.642h.001A.034.034 0 00.38.62L.365.468" fill="none" stroke="#502e11" stroke-width=".004" stroke-linecap="square" stroke-miterlimit="10.433"/><path d="M.379.615H.38v.001h0l.001.001h.001v.001h.001L.385.62H.39V.617h.001C.395.615.406.598.405.585A26.224 26.224 0 00.392.478m.014.109h0v.001H.41V.59h.005L.416.587h.001a.056.056 0 01.01-.014C.43.567.432.564.43.561L.418.488M.396.716h0-.001 0-.001 0-.001 0-.001 0H.39h0-.001 0v.001H.387h0v.001h0-.001 0V.72h0s.008.006.008.016c0 0 .008-.002.007-.013C.402.717.396.716.396.716zM.388.667H.39v.001h0V.67h.001v0h0v.001h.001v.001h0v.001h0C.392.678.39.68.387.68M.384.671h0l.001.001h0v.001h.001v.001h0v.001h0l.001.001h0c0 .003 0 .006-.005.007M.377.681h0v.001h0v.001h.001v.001h0v.001h.003V.68c0-.003 0-.002-.002-.004M.373.713h0v.001h.001v.001h.001v.001h.001C.378.716.382.714.383.712c0-.002.003-.006 0-.01a.013.013 0 00-.01-.008L.369.695s-.003 0-.004.003C.36.702.362.704.362.704" fill="none" stroke="#502e11" stroke-width=".004" stroke-linecap="square" stroke-miterlimit="10.433"/><path d="M.375.712h0-.001 0-.001 0-.001 0H.37h0-.002 0-.001 0-.002 0-.001 0L.363.714h0-.001 0H.36v.001H.358v.001h0C.357.715.357.71.36.705A.01.01 0 01.37.702c.004 0 .005.002.006.003v.007zM.342.682h.001V.68h.003V.678h.001V.677h.001L.349.676H.35a.016.016 0 01.01.001.015.015 0 01.005.013c0 .004 0 .003-.002.005 0 .002-.004.002-.005 0C.355.697.354.696.354.694v-.01c-.001 0-.002 0-.003-.002H.343h0zM.384.658h0V.66H.382v0H.381h0L.38.663h0L.379.664v.001H.377v.002H.374L.373.67h0H.37h0v.002h0L.368.674h0-.001v.001H.365h0L.362.672H.355L.35.674.346.672.342.666V.662L.338.66H.336L.334.662M.328.675h0v.001h0V.68h.004L.335.678.339.68H.34l.001.001" fill="none" stroke="#502e11" stroke-width=".004" stroke-linecap="square" stroke-miterlimit="10.433"/><path d="M.344.68h0-.001 0v.001h0-.001 0H.34h0v.001h0v.001h0L.338.685h0v.001h0L.337.687h0v.001h0v.001h0-.001v.003h.01C.35.69.353.69.355.692M.506.428h0L.508.43h.001v0H.51v.001h0v.001h.001v.001h.001c.002 0 .006-.007.006-.01A.063.063 0 00.515.407L.514.405M.525.398V.4l.001.002v.001l.001.002v.001l.001.002v.004L.53.413h0v.002h0v.002h0V.42h0v0h0v.002h0v.001L.524.425C.522.425.52.424.52.421" fill="none" stroke="#502e11" stroke-width=".004" stroke-linecap="square" stroke-miterlimit="10.433"/><path d="M.527.402h0v.001h0v.001h.001v.001h0v.001H.53v.001h0v.002h0V.41h.001v0h.001v.001h0l.004.003h.002s.002 0 .004.003a.02.02 0 01.001.007L.542.437C.54.44.538.44.538.44L.536.438A.02.02 0 01.53.433L.528.423M.541.397c0 .005 0 .015-.002.016" fill="none" stroke="#502e11" stroke-width=".004" stroke-linecap="square" stroke-miterlimit="10.433"/><path d="M.538.39h0v.001h0L.54.393h0v.001h0v.001h0v.002h.001l.001.002V.4h.001v.002h.001v.001h0l.001.001h0v.001h.001v.001h.001L.55.404A.03.03 0 00.553.388M.515.432h0v.002h0v.004h.001V.44h0v.001h0l.001.001h0v.002h.001v.001h0v.001H.52v.001h0v.001h.002C.527.448.53.444.53.433m.024-.04h0v.001h0v.001h0l.001.001h0v.001h.001v.001h.001V.4h.001v0h.003A.01.01 0 00.566.395m.005.06h.007L.58.453h0L.582.452h0L.583.451h0V.45h.001v0h0V.448h0V.447h0V.446h0V.445h0V.444h0V.443h0V.442h0V.441h0V.44h0L.577.425M.436.454h0-.002 0-.002 0H.43h0-.001 0-.002 0-.001V.452H.423V.451H.422h0V.45h0-.001v0h0V.448H.42h0V.447h0V.446h0V.445h0V.444h0V.443h0V.442h0V.441h0V.44h0A.299.299 0 00.428.425M.565.391l.004.012m-.018 0h0v.001h0l.001.001h0v.001h0v.001h0v.001h.001V.41h0v0h.001v.001h0a.032.032 0 00.009.007h.001" fill="none" stroke="#502e11" stroke-width=".004" stroke-linecap="square" stroke-miterlimit="10.433"/><path d="M.555.412v.002h0v.002h0v.002h0V.42h0L.553.423h0v.014l.004.008.004.002C.564.446.565.443.566.444a.09.09 0 000-.018M.539.44h0v.001h0L.54.443h0v.001h.001v.001h0v.002h.001v.002h.001v.003h0v.002h0v.002h0V.46h0v0H.541v.002h0L.54.464v.001h0v.002H.538v.001H.537S.534.47.532.463M.527.447h0v.001h.001V.45H.53v.002h0v.001l.001.001h0v.002h0V.46h0v.002h0v.001h0v.001h0v.002H.53h0v.002H.528h0V.47H.527v.001H.526v.002H.525v.001L.524.475.519.471A.023.023 0 01.515.459l.003-.01L.52.448M.544.425h0v.001h0v.001h0v.001h.001V.43h.001v0h.005L.553.429M.544.453c.002.003.006.01.01-.001" fill="none" stroke="#502e11" stroke-width=".004" stroke-linecap="square" stroke-miterlimit="10.433"/><path d="M.555.44h0v.001h0v.001h0v.006h0v.011L.557.46v.002l.001.002h0v.002h.001v.002H.56V.47h0v0h.001l.001.001h.001C.566.471.57.473.57.46V.457s.006.01 0 .024c0 0 .004.007.017.007.008 0 .01-.009.01-.013L.581.45" fill="none" stroke="#502e11" stroke-width=".004" stroke-linecap="square" stroke-miterlimit="10.433"/><path d="M.566.442h0v.001h0l.001.001h0v.002h.001v.002h0L.57.45h0v.002h0v.002h0v.003M.503.436v.006h0v.002h0v.002h.001v.002h0v.003h.001v.002h0v.001h.001v.002h.001v.001h0l.001.001h0L.51.46h0v0h.005m.027.001v.004l.001.001v.002h.001V.47h0l.001.001v.001h0l.001.001v.001h0v.001l.001.001h0v.001h.001v.001H.55V.48h0C.554.482.555.48.557.479.56.475.56.47.56.47" fill="none" stroke="#502e11" stroke-width=".004" stroke-linecap="square" stroke-miterlimit="10.433"/><path d="M.559.475h0v.001h0v.001h0v.001h0V.48H.56v.001h0v.001h0l.001.001h0v.001h0v.001h.001v.001h.005L.57.481M.547.476h0v.001h0v.001h0V.48h0v.002h0v.002H.545v.002h0v.001h0v.001L.544.49h0v0h0v.001h0-.001 0v.001h0-.001 0C.537.492.534.49.533.487M.503.478h0V.48h.001v.002h0l.001.001h0v.001h.001v.001h0l.001.001h0l.001.001c.001.001.003.002.006 0A.025.025 0 00.519.47" fill="none" stroke="#502e11" stroke-width=".004" stroke-linecap="square" stroke-miterlimit="10.433"/><path d="M.528.47h0L.53.472h0v.001h0v.001h.001v.002h.001v.002h0l.001.001v.003l.001.001v.003h0v.003h0V.49h0v.001L.532.492h0v.001L.531.494h0v.002H.53v.001h0V.5h0-.003L.522.497M.503.482h0v.002h0v.001h0v.002h0l.001.001h0V.49h0v.002l.001.002h0v.001l.001.001h0v.002h.001V.5h0l.001.001h0v.001H.51v.001c.003.003.002.003.005.004.003 0 .005 0 .006-.002C.52.504.524.487.519.478" fill="none" stroke="#502e11" stroke-width=".004" stroke-linecap="square" stroke-miterlimit="10.433"/><path d="M.531.497h0V.5h.001v.002h0l.001.001.001.002v.001l.001.002h0l.001.001V.51h.001v.002h.001v.001h0L.54.514h0v.001h0v.001h0a.005.005 0 00.007 0c.001-.003.007-.02 0-.028M.563.487h0v.001h0V.49h0v.002h0v.002L.561.495h0v.003H.56V.5h0v.001h0v.002h0L.558.505h0v.001h0-.001 0C.556.507.555.507.553.505L.551.498M.507.517h0V.52h.001v.002h0L.51.523h0v.001h0v.001h0l.001.001h0l.001.001h0v.001h.001V.53h.001v0h.001l.001.001h0L.522.53c0-.001.002-.018 0-.02A.025.025 0 00.52.504m.004.015h0V.52h.001v.001h0l.001.001h0l.001.001h.001v.001L.532.523" fill="none" stroke="#502e11" stroke-width=".004" stroke-linecap="square" stroke-miterlimit="10.433"/><path d="M.536.508h0V.51H.534v0h0v.001h0L.533.513v.001h0v.002h0v.008h0v.005L.534.53v.002l.001.001.001.002h0v.001l.001.001h0C.54.542.542.54.544.542L.549.538C.549.535.552.522.547.512" fill="none" stroke="#502e11" stroke-width=".004" stroke-linecap="square" stroke-miterlimit="10.433"/><path d="M.539.538h0V.54h0v.004h0v.001H.537v.001h0v.001h0v.001h0v.001H.536h0V.55h0-.001 0C.531.55.528.55.527.548L.525.543M.522.529h0V.53h0v.002h.001v.002h0v.002h0l.001.002h0v.008l.001.001v.005h0v.002h0v.001h0-.001 0C.52.56.52.56.518.559c-.001 0-.002 0-.004-.004a.06.06 0 01-.007-.02L.51.525" fill="none" stroke="#502e11" stroke-width=".004" stroke-linecap="square" stroke-miterlimit="10.433"/><path d="M.51.544h0v.003h0v.001h0V.55h0v.001h0v.001h0-.001v.001h0v.001h0v.001h0v.001h0v.001h0-.001C.507.56.503.566.5.565L.496.562C.493.56.492.55.492.546V.54M.563.488h.001V.49h.002v.002h.001v.001l.001.001v.002l.001.001V.5h0L.57.502h0v.004h0v.008H.568v.002h0L.567.518A.012.012 0 01.564.52" fill="none" stroke="#502e11" stroke-width=".004" stroke-linecap="square" stroke-miterlimit="10.433"/><path d="M.56.503h0l.001.001h0v.001l.001.001v.002h.001V.51h0l.001.002h0v.002h0v.001h0v.001a.022.022 0 010 .014H.557A.03.03 0 01.553.524.07.07 0 01.549.516M.563.53h0v.001h.001v.001h0v.001h0v.001h.001v.001h0v.002h0v.001h0V.54h0v.002h0v.002h0v.002h0v.001h0C.563.556.562.557.56.557S.557.557.555.554L.549.54M.514.555h0v.002h0v.005l.001.002v.008h0v.002h0v.003h0V.58h0v0h0v.001A.013.013 0 01.511.59C.509.59.508.59.506.588A.507.507 0 01.5.577m.016.001h.001V.58h.001v0h0l.004.002c.002 0 .003 0 .004-.002A.035.035 0 00.525.556" fill="none" stroke="#502e11" stroke-width=".004" stroke-linecap="square" stroke-miterlimit="10.433"/><path d="M.528.57h0v.001h0L.53.573v.001h0v.001h.001l.001.001h0l.001.001h.003C.54.576.543.57.542.564A.044.044 0 00.538.547m.005.016h0v.001h0l.001.001h0v.001h.002c.004.002.002.002.004 0C.554.566.555.558.556.555" fill="none" stroke="#502e11" stroke-width=".004" stroke-linecap="square" stroke-miterlimit="10.433"/><path d="M.527.578V.58h0v.002h.001v.003L.53.586v.002h0L.532.59h0l.001.002h0l.001.001h0l.001.001h0v.001h.001v.001h.001v.001h.001C.54.6.54.6.541.597.543.598.545.593.546.589A.033.033 0 00.54.572m.014-.01h0l.001.001v.001h.001v.002h0l.001.001V.57h.002v.002H.56v.009h0v.002h0v.002L.558.586v.001H.557v.001h0L.556.59v0h0L.555.592h0L.554.593h0-.003S.547.591.546.585" fill="none" stroke="#502e11" stroke-width=".004" stroke-linecap="square" stroke-miterlimit="10.433"/><path d="M.524.601h.002v.001H.53a.01.01 0 00.003-.01M.564.553h0l.001.001h.001v.001h.001v.001h0l.001.001h0v.001h0C.57.562.572.571.57.574L.568.58H.564L.56.578M.571.574h.005M.505.562h0L.503.564h0L.502.565h0v.001h0-.001v.001h0v.001h0L.5.569h0V.58m.037.018h0L.539.6v0h0L.54.602v.001h0v.002h0v.001h.001v.001h0v.001h0v.008L.54.621.538.622m.015-.03h0v.001h0l.001.001h0l.001.002h.001v.001l.001.001h0V.6h.001v0h0v.001H.56v.001h0l.003.01a.005.005 0 01-.005.003.02.02 0 01-.017-.007" fill="none" stroke="#502e11" stroke-width=".004" stroke-linecap="square" stroke-miterlimit="10.433"/><path d="M.56.58h.002v.001l.002.001v.001l.002.001v.001l.001.002h.001L.57.59h0l.001.001.001.002h0v.001h.001v.002h.001v.002h0c.003.005.004.008.003.01L.572.61C.57.61.562.608.56.605M.542.628h.002V.63H.55v.002h.002c.003 0 .004 0 .005-.003A.017.017 0 00.558.615M.587.587h0V.59h.001v.002h0v.002h0L.59.595v.001h0v.001h0v.001h0v.001h0V.6h0v0h0v.004" fill="none" stroke="#502e11" stroke-width=".004" stroke-linecap="square" stroke-miterlimit="10.433"/><path d="M.577.601h.005v.001h.002l.001.001h.001v.001h.001l.001.001h0v.001H.59v.001h0v.001h0V.61h.002v.001h0v.002h.001v.001h0v.002h0v.002h0V.62h.001v.002h0v.002S.58.624.577.62A.036.036 0 01.571.61" fill="none" stroke="#502e11" stroke-width=".004" stroke-linecap="square" stroke-miterlimit="10.433"/><path d="M.589.603h0L.59.605h.002v.001h.001l.002.001h0l.002.001h0l.001.001H.6V.61h.002l.001.002h0l.002.001v.001l.002.001v.001l.001.001v.001L.61.62h0v.002l.001.001v.002l.001.001v.002C.615.633.6.634.593.624m.018.008h.001v.001h.001v.001l.001.001h0v.001l.001.001h.001V.64l.002.002v.001H.62v.003h.001v.002h.001V.65h.001v0h0v.001h0c.001.001.002.003 0 .003-.001.002 0 .002-.005.003A.027.027 0 01.603.655M.553.631v.001h0v.001h0l.001.001h0v.001h0v.001h0v.001h.001v.001h0V.64h.002v.001h.001v.001h0l.001.001h0a.043.043 0 00.012.01l.006.003C.58.656.58.656.58.653S.58.638.578.636" fill="none" stroke="#502e11" stroke-width=".004" stroke-linecap="square" stroke-miterlimit="10.433"/><path d="M.559.624v.001h0L.56.627h.001l.001.002h.001L.564.63h.001l.001.001h0l.001.001h.001v.001H.57v.001h0l.001.001h.001v.001h.002c.002 0 .003.002.004 0V.62m.018.009V.63l.001.001h0v.001h0l.001.001v.001h0v.001h0v.001h0v.001h0v.007a.005.005 0 01-.004.002.02.02 0 01-.007-.003L.583.641A.044.044 0 01.58.637m0 .017h0l.001.001h0l.001.001h0l.001.001h0l.001.001h0L.586.66h.001v0h.001l.001.001h0c.003.001.005.002.007 0A.02.02 0 00.595.65V.646m.001 0c.002.002.009.004.011.01" fill="none" stroke="#502e11" stroke-width=".004" stroke-linecap="square" stroke-miterlimit="10.433"/><path d="M.602.655h0v.001h0v.002h0v.003l.001.002v.006h0V.67h0v.001h0v.002h0v.001h0C.603.68.601.683.597.682L.59.678C.585.674.575.673.574.656M.492.384h0v.001h0l.001.001h0v.001h.001v.001h.001V.39h.002v0H.5C.504.39.506.389.508.385M.49.386H.488v.001h0v.001H.487V.39h0v0h0L.486.392h0v.001h0v.001h0v.001h0-.001v.001h0v.001h0v.001H.484h0v.001h0L.483.4C.482.401.478.405.476.4A.036.036 0 01.472.385m0 .004h0L.47.39h0v.002h0-.001v.001h0-.001 0v.001h0-.001 0-.001 0-.001 0C.461.393.46.388.46.38M.484.4h0v.001h0l.001.001h0v.002l.001.001v.001h.001v.001h.001v.001h0V.41h.003v.001h.001L.497.41A.035.035 0 00.5.404h0L.504.41c.002.002.001.002.003.002C.511.411.514.404.516.4" fill="none" stroke="#502e11" stroke-width=".004" stroke-linecap="square" stroke-miterlimit="10.433"/><path d="M.494.428h0-.001V.43h0-.001 0v0h0H.49h0v.001h0v.001h0-.001 0L.487.434h0-.001 0L.48.423.485.407.486.405M.475.398V.4L.473.402v.001L.472.405v.001L.471.408V.41H.47v.002h0v.002h0v.002h0V.42h0v0h0v.002h0v.001c.001.002.004.002.004.002C.478.425.48.424.48.421" fill="none" stroke="#502e11" stroke-width=".004" stroke-linecap="square" stroke-miterlimit="10.433"/><path d="M.473.402h0v.001h0L.471.405h0v.001h0v.001H.47h0v.001h0v.001h0V.41h0-.001 0v0h0-.001 0v.001h0L.462.414.461.413.458.417a.022.022 0 00-.002.007c0 .004 0 .01.002.013A.004.004 0 00.462.44L.464.438A.02.02 0 00.469.433l.003-.01" fill="none" stroke="#502e11" stroke-width=".004" stroke-linecap="square" stroke-miterlimit="10.433"/><path d="M.459.398v.007h0v.001h0v.001h0v.001h0V.41h0v0H.46v.001h0l.002.002" fill="none" stroke="#502e11" stroke-width=".004" stroke-linecap="square" stroke-miterlimit="10.433"/><path d="M.461.39h0v.001h0v.001h0v.002H.46v.001h0L.458.398h0v.001L.457.4v.002h0v.001h0L.455.406h0L.454.408h0L.453.409h0V.41h0-.001 0-.004A.06.06 0 01.446.385m.039.047h0v.002h0v.002L.483.437v.001h0V.44h0L.482.441h0v.001h0v.002H.481h0v.001h0L.48.447h0v.001h0L.478.449h0-.001 0C.473.448.47.444.469.433M.433.43h0v.001h0v.001h0v.001h0v.001h0v.003h0V.44h0v0h0v.001h0v.001h0v.001h.001c0 .001.002.004.004.003L.442.444A.016.016 0 00.446.436V.43C.446.424.441.415.441.409c0-.007 0-.018.004-.019M.46.44h0v.001h0v.001h0L.458.444h0v.001h0L.457.447h0L.456.449h0v.003h0v.002h0v.002h0V.46h0v0h0l.001.001v.001h0L.46.464v.001h0v.002h0l.001.001v.001S.466.47.469.463" fill="none" stroke="#502e11" stroke-width=".004" stroke-linecap="square" stroke-miterlimit="10.433"/><path d="M.473.447h0L.471.449h0V.45H.47v0h0v.003h0L.468.454v.001h0v.002h0L.467.458V.46h0v.002h0v.001h0L.47.465h0v.002h0v.002h.001V.47h0l.001.001h0l.001.002h0l.001.001.001.001L.48.471A.024.024 0 00.484.459L.482.449.48.448M.456.426h0v.001h0-.001v.001h0L.453.43h0-.001 0-.004L.446.429m.01.024C.454.456.45.463.446.452M.445.44h0v.001h0v.001h0v.006h0v.01H.443v.004L.442.464h0L.441.467h0v.002H.44h0V.47h0v0H.438h0L.437.472h0-.001 0C.434.471.43.473.43.46V.455S.423.467.429.48c0 0-.004.007-.016.007-.008 0-.01-.009-.01-.013A.5.5 0 01.42.448M.497.436v.007h0L.495.446h0v.002h0V.45h0v0L.494.451v.001h0v.002H.493v.001h0L.492.457h0v.001H.491v.001h0L.49.46h0-.001 0-.004" fill="none" stroke="#502e11" stroke-width=".004" stroke-linecap="square" stroke-miterlimit="10.433"/><path d="M.458.46v.003L.456.464v.002L.455.468h0V.47H.454v.001h0L.453.474h0v.001h0L.452.476h0v.002H.451h0v.001h0H.45V.48h0v0h0-.001C.446.482.446.48.443.479L.44.47m.001.005h0v.001h0v.001h0v.001h0L.44.48v.002h0L.438.483h0v.001h0v.001h0L.437.486h0v.001h0-.001 0-.004A.029.029 0 01.43.481M.453.476h0v.001h0v.001h0V.48h0v.002h0v.002h0v.002h.001v.001h0V.49h.002v.001h.001v.001h.001A.008.008 0 00.465.487M.506.428h0V.43H.504v.002h0v.001H.503h0v.001h0-.001v.001h0L.501.437h0H.5v.001h0C.496.436.495.432.494.427A.07.07 0 01.493.413m.002.04h0v.001h0v.001h0v.001h.001v.001h0v.001h.001V.46h.005L.505.453" fill="none" stroke="#502e11" stroke-width=".004" stroke-linecap="square" stroke-miterlimit="10.433"/><path d="M.497.459h0V.46h0v.001L.495.462h0v.001h0v.002h0L.494.467v.002h0V.47h0v.005h.001v.002h.001v.001h0V.48h.001v0H.5v.001h0C.51.471.503.461.503.46" fill="none" stroke="#502e11" stroke-width=".004" stroke-linecap="square" stroke-miterlimit="10.433"/><path d="M.497.478h0V.48H.495h0v.002H.494v.001h0L.493.485h0v.001H.492v.001H.491v.001C.49.488.487.49.485.487A.025.025 0 01.481.471M.472.47h0H.47v.001h0v.002h0v.001H.468v.001H.467h0v.002H.466V.48H.465v.005h0v.003h0V.49h0v.002h.001v.002h.001v.002h0L.47.497h0V.5h.002L.478.497" fill="none" stroke="#502e11" stroke-width=".004" stroke-linecap="square" stroke-miterlimit="10.433"/><path d="M.496.482h0v.002h0v.001h0v.002h0v.001h0V.49h0L.494.493v.002h0-.001v.001h0v.001L.492.498h0V.5H.491v.001h0v.001H.49h0v.001L.485.507C.483.507.48.507.48.505.48.504.476.487.48.478M.468.497h0V.5h0v.002H.466v.001L.465.504v.003H.463V.51H.462v.002H.461v.001h0L.46.514h0v.001h0v.001h0-.001 0C.457.518.455.518.453.516.452.511.445.494.453.486" fill="none" stroke="#502e11" stroke-width=".004" stroke-linecap="square" stroke-miterlimit="10.433"/><path d="M.436.487h0v.001h0V.49h0v.001l.001.001h0v.003h.001v.003h0L.44.5h0v.001h0v.003h0v.001h.001v.001h.001C.444.507.444.507.446.505A.016.016 0 00.45.498m.042.019h0V.52h0v0L.49.522h0v.003h0L.488.526h0v.001H.487v.001h0L.486.529h0L.485.53h0-.001 0-.001v.001h0L.477.53V.509A.025.025 0 01.48.504M.476.519h0V.52h0-.001v.001h0-.001v.001h0-.001v.001h0-.001 0v.001L.467.523M.464.508h0V.51h.002v.001h0v.002h.001v.002h0v.008h0v.003L.464.528v.001L.463.531v.003h0v.001L.461.536h0C.458.542.456.54.455.542.454.54.45.54.45.538S.448.522.452.512m.009.026h0V.54h0v.004h0v.001h0v.001h0l.001.001h0v.001h0v.001h.001V.55h.001C.468.55.471.55.472.548L.475.543" fill="none" stroke="#502e11" stroke-width=".004" stroke-linecap="square" stroke-miterlimit="10.433"/><path d="M.478.529h0V.53h0v.001L.476.532h0v.002h0v.002H.475v.002h0v.004L.474.544v.008h0v.002h0v.001h0C.48.56.48.56.483.559c.001 0 .002 0 .004-.004a.06.06 0 00.006-.02L.49.524M.436.488h0V.49H.434v.002h0L.432.495h0v.002H.431v.002h0L.43.5h0v.014h0l.001.002h0v.001a.014.014 0 00.004.002" fill="none" stroke="#502e11" stroke-width=".004" stroke-linecap="square" stroke-miterlimit="10.433"/><path d="M.44.503h0-.001v.001h0v.001h0L.437.506v.001L.436.508h0V.51H.435v.002h0v.001h0v.001H.434h0v.001h0v.001c0 .004 0 .012.002.013.001.002.004.002.006 0A.025.025 0 00.447.524L.451.516M.436.53h0v.001h0v.001h0-.001v.001h0v.001h0v.001h0v.002h0L.433.538h0V.54h0v.002h0v.002h0v.002h0v.001h0c.003.009.003.01.005.01.001 0 .003 0 .005-.003A.083.083 0 00.45.54M.5.578h0-.001V.58h0v0H.497h0v.001h0L.496.583v.001H.495h0v.001h0L.494.586h0v.001H.493h0v.001L.489.589C.487.589.485.585.484.58c0-.003 0-.017.002-.026M.483.578h0V.58h0-.001 0v0h0L.476.582.473.58A.041.041 0 01.475.556" fill="none" stroke="#502e11" stroke-width=".004" stroke-linecap="square" stroke-miterlimit="10.433"/><path d="M.472.57h0v.001h0H.47v.002h0L.468.575h0-.001v.001h0-.001v.001h0-.001 0-.001 0-.001 0C.46.576.457.57.457.564A.053.053 0 01.462.547M.457.563h0v.001h0-.001 0v.001h0v.001H.454h0-.001 0C.45.569.45.569.448.567.446.566.444.558.444.555" fill="none" stroke="#502e11" stroke-width=".004" stroke-linecap="square" stroke-miterlimit="10.433"/><path d="M.473.578V.58h0L.471.582h0v.002H.47v.004H.468V.59h0-.001v.002h0-.001v.001h0L.465.595h0L.464.596h0v.001H.463h0v.001H.462C.46.6.46.6.458.597.457.598.454.593.454.589S.456.575.458.573M.446.561h0v.001H.444v.002H.443v.002H.442v.002H.441V.57h0L.44.573h0v.002h0v.002h0v.005h0v.003l.001.001v.001h0l.001.001h0V.59h.002v.001h.001v.001h.004S.453.591.454.585" fill="none" stroke="#502e11" stroke-width=".004" stroke-linecap="square" stroke-miterlimit="10.433"/><path d="M.467.592h0v.001h0v.001h0v.001h0v.001h0v.001h0v.001h0V.6h.001C.47.6.47.602.472.6L.477.598M.436.552h0v.001h0-.001 0v.001H.433h0v.001h0-.001 0v.001h0-.001 0v.001h0v.001h0H.43v.016c0 .003 0 .002.002.005L.436.58A.01.01 0 00.439.578m.06.001h0V.577h0V.576h0V.575h0V.574h0V.573h0V.572h0V.571h0V.57h0v0h0V.568h0A.027.027 0 00.496.562M.463.598h0L.461.6v0H.46v.002h0v.002h0L.458.606h0v.001h0v.001h0v.008L.46.621l.002.001M.447.592h0v.001h0L.445.595h0L.444.597h0-.001v.001H.442h0L.441.6h0v0h0L.44.602h0v.001h0l-.003.01c0 .002.001.003.004.003A.02.02 0 00.458.607M.439.58H.438v.001L.435.582v.001L.433.584v.001L.431.587h0L.43.59v0L.429.591.428.593h0L.426.594h0v.001L.425.596h0v.002H.424C.423.603.422.606.423.608L.428.61C.43.61.438.608.439.605" fill="none" stroke="#502e11" stroke-width=".004" stroke-linecap="square" stroke-miterlimit="10.433"/><path d="M.457.629h0-.001 0-.001 0-.001V.63h0-.001 0-.001 0H.45h0v.002h0-.001 0-.001 0c-.004 0-.005 0-.006-.003a.018.018 0 010-.013M.41.59h0v.001h0v.001h0v.001h0v.001h0v.001h0v.001h0v.002h0V.6h0l.001.004M.423.601h0-.001 0H.42h0-.002 0-.001v.002h0-.002v.001H.413v.001h0L.411.606h0L.41.607h0v.001h0v.001h0L.408.61v0h0v.001H.407v.002h0v.001h0v.002h0L.406.617v.001h0V.62h0v.002h0v.002S.42.624.423.62L.428.61" fill="none" stroke="#502e11" stroke-width=".004" stroke-linecap="square" stroke-miterlimit="10.433"/><path d="M.411.603h0L.41.605H.409h0L.406.606h0-.001v.001h0L.402.608h0L.4.609h0V.61H.398L.397.613H.396L.395.614v.001H.392v.001L.391.617.39.618V.62h0L.389.623v.001L.387.625v.003C.385.633.4.634.407.624M.389.632h0-.001v.001H.386v.001L.385.635h0L.384.637v.001H.383V.64L.382.641.38.642v.001h0v.002H.378h0v.002H.377h0v.001L.376.65h0v0h0-.001v.001h0v.003l.006.003C.385.658.39.657.396.655M.447.631v.001h0v.001H.445v.001h0v.001h0v.001H.444v.001h0v.001h0V.64H.443h0v0h0L.442.642h0v.001h0-.001v.001h0H.44a.043.043 0 01-.01.01L.422.656C.421.656.42.656.42.653s0-.015.002-.017" fill="none" stroke="#502e11" stroke-width=".004" stroke-linecap="square" stroke-miterlimit="10.433"/><path d="M.44.624v.001h0v.001H.438v.003H.437L.435.63h0L.433.632h0L.432.633h0-.001v.001H.43v.001h0L.428.636h0-.001 0L.426.637h0-.001 0c-.002 0-.004.002-.004 0a.028.028 0 010-.015" fill="none" stroke="#502e11" stroke-width=".004" stroke-linecap="square" stroke-miterlimit="10.433"/><path d="M.403.629V.63h0v.001h0L.401.633h0v.002h0v.001h0L.4.637h0v.001h0v.007l.005.002A.02.02 0 00.413.643L.416.641.421.637M.42.654h0L.418.656h0L.417.657h0L.416.658h0L.415.659h0V.66h0-.001 0v0h0-.001 0-.001v.001h0C.407.662.405.663.404.661V.65A.01.01 0 01.406.647M.404.646C.402.648.397.65.394.656" fill="none" stroke="#502e11" stroke-width=".004" stroke-linecap="square" stroke-miterlimit="10.433"/><path d="M.398.655h0v.001h0v.002h0V.66H.396v.009h0V.67h0v.001h0v.002h0v.001h0c0 .005.002.008.005.007L.41.678C.415.674.425.673.426.656m.177.019h.004M.438.446h0v.001h0v.001h0V.45h0v.007C.439.46.442.463.443.462M.392.671L.396.666M.397.338h0V.336h.001V.335h0V.334H.4V.333h0V.331h0V.33h.002V.328h0V.327C.404.324.406.322.4.32.393.317.392.318.39.316L.388.31m.219.028h0L.605.336h0V.335h0-.001V.334h0V.333H.603V.331H.602V.33h0v0H.601h0V.328h0V.327C.6.324.598.322.604.32L.613.316.616.31M.379.716c0 .004.003.006.006.004M.621.717C.618.72.618.72.613.72M.49.386h0l.001.002h0V.39h0v.002l.001.001v.001h0l.001.002h0v.002h.001V.4h.001v.001h0l.001.001h0v.001h.001v.001h.001L.5.406h0C.505.405.509.397.509.386M.493.497h0v.001h0V.5h0v0h0v.001h0v.001h0v.001h.001v.001h0v.001h0v.001h.001v.001h0v.001h.001V.51h.001v0H.5v.001h0C.502.511.505.51.506.497M.494.593h0v.002h0v.001h.001v.002h0V.6h.001v0h0v.001h.001v.001h0l.001.001h.001c.002 0 .004.001.005-.009M.492.533v.003h.001v.002h0V.54h0l.001.002h0v.001h0v.001h.001v.001h0v.001h.001v.001h.001v.001h.006A.052.052 0 00.508.53" fill="none" stroke="#502e11" stroke-width=".004" stroke-linecap="square" stroke-miterlimit="10.433"/><path d="M.492.501v.011h0v.002h0v.002h0l.001.001v.001h0V.52h0l.001.001h0v.001h0l.001.001v.001h0l.001.001h0l.001.001C.5.528.501.528.502.527A.033.033 0 00.507.501M.506.427V.412M.316.65c0 .002 0 .007-.006.007m.166.037C.48.704.482.708.5.708M.523.694C.519.704.517.708.5.708M.612.701h0H.61v.001h0v.001h0v.001h0v.001h0-.006C.602.709.603.71.603.71v.004M.62.685h0v.001h.001v.001h0v.001h0L.615.696V.7H.614C.61.698.612.7.612.7M.387.701h0v.001h.001v.001h0v.001h0v.001h.007C.397.709.396.71.396.71L.395.714M.38.685h0v.001h0-.001 0v.001h0v.001h0a.026.026 0 00.004.007l.001.002v.002h.002C.389.698.388.7.388.7M.436.676C.43.68.424.676.422.672m.14.001C.567.678.574.677.576.67M.387.31h0v.001H.385h0L.383.313h0-.001v.001h0H.38v.002H.375L.373.317.37.318.369.319.366.32.362.322.357.324H.355L.353.327H.35L.349.329H.347L.345.33H.343v0H.342h0L.34.332h0-.001v.001H.337h0-.001 0C.335.333.33.334.327.332S.324.324.325.323L.387.295c.006-.002.02.002.034.012M.616.31h.001l.001.001h.001L.62.313h.001l.001.001h.001l.002.001.002.001.002.001H.63l.002.002h.002L.637.32l.005.002.005.002h.002L.65.327h.002l.002.002h.002L.66.33h0v0h.002v.001h.002v.001h.002c.002 0 .007.001.01-.001S.68.324.679.323L.617.295C.61.292.59.3.575.315.56.328.57.34.57.341l.003.006S.575.35.575.356c0 .008-.002.006 0 .012 0 .006.003.015.002.021C.576.399.571.402.57.403.569.403.564.406.564.408.563.41.564.424.567.426A.019.019 0 00.57.43C.573.43.586.425.59.406c0 0 .005 0 .007-.003C.6.399.6.39.598.388V.386S.608.373.601.354c0 0 .008-.007.006-.015M.703.44h.002v.001h.001l.001.001H.71v.001h.002l.002.001h.002l.001.001h.011A.02.02 0 00.736.441V.434a11.97 11.97 0 00-.06-.102M.47.306h0-.001 0-.001 0-.001 0-.001 0-.001 0-.001 0-.001 0-.001 0H.46h0L.45.298C.441.296.421.307.42.31a.018.018 0 00-.004.014c0 .003.001.012.01.015 0 0 .003-.007.01-.01A.039.039 0 01.45.325h.03" fill="none" stroke="#502e11" stroke-width=".004" stroke-linecap="square" stroke-miterlimit="10.433"/><path d="M.301.44h0H.3h0L.298.442h0-.001 0L.296.443h0-.001v.001H.292v.001H.29h0-.001v.001H.287h0-.011L.268.441C.27.44.267.437.268.434l.06-.102M.735.44a.582.582 0 01-.007.173M.314.67h0V.668h0V.667h0V.666h0V.665h0V.664h0L.316.663h0V.662h.001V.661h0V.66h.002v0h0C.325.658.333.66.335.663s.004.009 0 .011C.332.676.332.676.33.675.326.675.326.673.324.671L.321.668H.318L.314.67z" fill="none" stroke="#502e11" stroke-width=".004" stroke-linecap="square" stroke-miterlimit="10.433"/><path d="M.686.702h.001L.689.7H.69V.698h0L.692.697h0V.696h.001V.695A.045.045 0 00.698.679c0-.003-.002 0 0-.032C.702.615.722.594.723.59c0 0 .01.034.006.047A.081.081 0 01.7.683L.696.691s.015 0 .03-.006a.124.124 0 00.039-.03A.238.238 0 00.78.626c.001 0 0 0 0 0S.751.628.726.65M.312.702h0H.31h0V.7h0v0h0-.001V.698h0L.307.697h0V.696H.306h0V.695A.043.043 0 01.3.679V.647C.298.615.278.594.276.59c0 0-.008.034-.006.047A.08.08 0 00.3.683l.003.008S.288.691.272.685a.124.124 0 01-.038-.03.257.257 0 01-.017-.029s0 0 0 0S.249.628.274.65" fill="none" stroke="#1b2840" stroke-width=".004" stroke-linecap="square" stroke-miterlimit="10.433"/><path d="M.313.66h0L.311.658h0L.31.657h0V.656H.307h0V.655H.306h0-.001V.654h0-.001 0L.303.653h0A.058.058 0 00.3.652" fill="none" stroke="#1b2840" stroke-width=".003" stroke-linecap="square" stroke-miterlimit="10.433"/><path fill="none" stroke="#1b2840" stroke-width=".002" stroke-miterlimit="10.433" d="M.5.859L.496.71M.5.859L.505.71"/><path fill="none" stroke="#1b2840" stroke-width=".002" stroke-linecap="square" stroke-miterlimit="10.433" d="M.505.267L.5.138M.496.267L.5.143"/><path fill="none" stroke="#1b2840" stroke-width=".003" stroke-linecap="square" stroke-miterlimit="10.433" d="M.699.296l.003.009"/></g></svg>