<svg xmlns="http://www.w3.org/2000/svg" width="8in" height="8in" viewBox="0 0 1 1" preserveAspectRatio="none"><path d="M.5.994h.025L.551.992.575.989.6.985.624.979.647.972.67.965l.022-.01.022-.01.022-.01.02-.012.02-.013.02-.014.019-.014.017-.016L.85.85.866.833.882.815l.014-.02L.91.778l.013-.02.012-.021.01-.022.01-.021.01-.023.007-.023L.98.624.984.6.99.575.992.551.994.525V.5A.494.494 0 10.5.994z" font-weight="400" fill="#fff" stroke="#000" stroke-width=".011" stroke-miterlimit="10.433"/><path d="M.305.915v.001H.303v.002H.302v.004l.001.001.002.002v.002A.352.352 0 00.284.916L.286.914h.002C.29.917.292.917.295.91L.302.897C.305.89.308.882.298.877c-.01-.005-.015 0-.02.008L.276.892A.037.037 0 00.27.903c0 .002.002.003.003.004l.002.001L.274.91a2.058 2.058 0 00-.01-.005L.258.901V.9h.001C.261.9.263.902.264.9A.04.04 0 00.271.89L.274.884C.277.878.28.873.286.872.29.87.296.872.302.875c.005.002.01.006.012.01.002.005.002.01-.002.016L.305.915zM.23.843L.232.841V.84h.001L.234.838.235.836h.001V.834h.006v.01L.247.87l.002.012L.251.88.258.87A.04.04 0 00.264.858L.262.855.26.853V.851l.01.006.007.005-.001.002H.274C.272.863.271.862.27.863a.043.043 0 00-.008.009l-.01.014L.25.89c0 .002 0 .003.003.005l.001.001-.001.002-.01-.006A.056.056 0 00.238.888L.236.868.234.86.232.85H.23L.225.858a.039.039 0 00-.006.01c0 .002 0 .004.002.005l.002.002-.001.002L.213.87A.233.233 0 00.206.865L.207.863.21.864h.004A.039.039 0 00.221.857l.01-.013zM.211.824L.213.822V.821h.001V.82h.001V.816H.212V.815L.21.814.213.813A.751.751 0 00.229.83L.227.829C.224.827.224.827.22.83L.204.85C.2.854.2.855.202.858l.001.001-.001.002A.536.536 0 00.193.853L.184.845.186.844h.001C.19.848.191.848.195.843L.211.824zm-.041 0v.001H.168v.002l.004.004C.177.835.18.834.185.833l.002.002-.01.006L.175.838.172.834.152.813.146.808H.145V.807A.038.038 0 00.154.8l.002.002c-.002.004-.004.007 0 .01L.16.817c.002.002.002.002.003 0l.021-.02C.188.792.188.792.185.79L.183.786.185.785a.356.356 0 00.018.018c0 .001 0 .002-.002.002L.2.803C.196.8.195.8.19.805l-.02.02zM.145.777h.001V.774L.141.77C.139.767.138.766.135.767L.134.768.132.766A.097.097 0 00.143.758s.002 0 .002.002H.144C.142.764.142.765.144.768l.004.004c.001.002.001.002.003 0L.157.769C.159.766.161.765.161.763c0-.001 0-.003-.003-.007C.153.75.152.748.143.749L.142.747a.033.033 0 01.01-.004l.01.015.007.008a.738.738 0 00.007.012L.173.775C.17.772.17.772.165.776l-.02.015C.142.794.142.795.143.798V.8s0 .002-.001 0A.34.34 0 00.135.792L.125.779A.247.247 0 00.118.77L.126.764s.002 0 .002.002A.015.015 0 00.125.77l.003.01.004.005c.002.002.002.002.004 0L.145.777zM.118.751H.116v.001H.114v.001H.113v.001H.112V.76h.001a.38.38 0 01-.02-.033C.091.716.094.706.101.703.11.698.118.699.125.705A.05.05 0 01.138.72l.005.01.006.01S.148.742.147.741L.146.74C.144.737.143.736.138.74l-.02.012zM.13.731h.001V.73h.001L.134.728h.001V.727h.001V.725C.137.724.136.722.135.719.127.708.116.71.108.713.098.72.096.73.103.741l.003.003.003-.001L.13.731zM.104.649V.65h.001v.004h.001v.008c0 .002-.004.005-.008.006L.096.666C.1.663.104.656.101.649.1.644.095.643.092.644.087.645.086.652.086.657.086.663.084.67.078.673.071.675.064.67.06.66A.036.036 0 01.058.65V.648A.027.027 0 01.066.644s.002.002.001.003C.064.649.061.654.063.659S.07.666.072.665C.074.664.076.66.076.655V.65c0-.006.002-.013.01-.015C.092.632.1.638.103.649zM.054.62H.052v.007c.002.006.005.007.01.008v.003H.053V.63L.043.601C.043.596.042.595.041.595V.592L.05.591l.002.003C.049.596.046.598.048.604v.004L.052.61.08.602C.085.601.085.6.085.597V.594h.002A.48.48 0 00.09.618V.615C.088.612.088.612.082.613L.054.62zM.067.569v.002h.001l.009.002h.002V.568h.003l.001.009.001.008H.082V.583C.082.582.08.58.078.58L.067.576.05.57C.046.57.043.568.041.569.041.565.037.563.037.563V.56a.153.153 0 00.01-.004L.07.542C.074.54.075.539.075.536V.533h.002A.285.285 0 00.08.555H.078V.554L.075.551.072.553.067.556.066.56l.001.01zM.063.56H.06L.054.562.05.566l.008.002.005.002V.56zM.039.518H.036v.007c0 .005.003.007.008.01v.002C.04.535.034.535.032.535V.532L.034.526v-.03C.033.492.033.49.031.49V.487C.034.488.04.49.043.488v.003C.04.493.036.494.036.5v.004c0 .002 0 .002.002.002h.03c.005 0 .006 0 .006-.004V.498h.003a.593.593 0 00-.002.026V.521C.075.517.074.517.068.517h-.03zM.052.466h.002V.457C.056.454.055.453.053.452H.05V.449h.007L.064.45v.003H.062C.06.453.06.455.058.46v.005c0 .002 0 .002.002.002l.007.001h.007c0-.001.002-.003.002-.009 0-.006 0-.01-.006-.014V.44c.004 0 .009.003.01.004a.953.953 0 000 .019l-.001.01a.809.809 0 00-.004.014V.483C.074.48.074.48.068.478L.043.476c-.005 0-.006 0-.007.004v.002H.033L.035.47.036.453v-.01h.011v.003a.015.015 0 00-.005.002C.04.45.039.452.039.456v.006c0 .003 0 .003.002.003h.011zM.085.427V.43H.083v.003H.082v.003H.081v.002H.08V.44H.069V.438C.074.437.081.432.082.425.082.42.08.416.077.415c-.005 0-.01.005-.012.01C.06.43.056.434.05.433.043.432.039.424.041.414a.04.04 0 01.003-.01V.403h.01v.004C.05.406.045.409.044.414.043.42.045.423.048.424a.03.03 0 00.01-.007L.06.413C.063.41.068.403.075.405c.008.001.012.01.01.022zM.086.36v.002l.006.006.002.001.002-.002.001-.002H.1C.1.37.097.372.096.376L.094.382H.09V.374L.081.366.07.354C.066.35.065.348.063.348L.062.34h.011L.101.337c.004 0 .006 0 .007-.003L.11.332h.003a.717.717 0 00-.01.021V.348H.09v.004L.086.36zm0-.01V.348H.07a.066.066 0 00.006.006L.08.358h.002L.085.35zM.127.286v.001h.005L.131.294c0 .003-.003.01-.005.013a.046.046 0 01-.01.013C.11.326.102.33.093.324.085.32.081.314.081.303.08.297.083.29.086.285L.094.272l.01.003v.003c-.007 0-.012.003-.016.01-.005.01 0 .02.009.024.008.004.015.004.02 0A.023.023 0 00.124.304C.126.3.126.299.122.297L.118.295C.115.293.114.293.112.297L.11.3.108.299a.47.47 0 00.013-.02V.28C.12.283.12.283.122.285l.004.001zM.124.256h.002V.254h.001L.13.25C.132.247.132.246.13.243V.24a.11.11 0 00.012.008L.141.25H.139C.136.247.135.248.133.251L.13.257V.26l.007.004C.139.266.14.267.143.266c.001 0 .003 0 .006-.006C.153.255.154.252.15.245L.152.242a.031.031 0 01.007.01C.156.253.152.26.149.265l-.006.01a.582.582 0 00-.01.01L.136.28C.137.278.137.277.132.274L.112.261C.107.257.106.257.104.26H.1L.107.25l.01-.014A.15.15 0 00.121.228L.13.233s0 .002-.002.002H.123L.117.24.114.246v.003l.01.007zm.06-.053l.001.001.001.001.001.001.001.001H.19V.21h.003s0 .003-.002.005H.18L.156.216a.1.1 0 00-.012.001c0 .001 0 .002.003.003l.01.009a.034.034 0 00.01.007L.17.234V.232c.001 0 .002 0 .002.002a.44.44 0 00-.014.013V.246L.161.24A.041.041 0 00.152.232L.14.222.135.217.13.22v.002L.127.22.134.212A.08.08 0 00.138.207h.02l.01-.001.01-.001L.176.203.169.197A.04.04 0 00.159.19C.158.19.156.19.155.192L.153.193.15.192A.308.308 0 00.164.177L.165.18C.164.183.163.184.164.186l.008.008.012.01zM.205.141v.001h.001v.001h.001v.001h.001v.001H.21v.001l.001.001h.001v.001S.212.15.21.15C.205.147.2.148.193.153.187.16.183.17.193.18.2.19.213.188.22.182A.017.017 0 00.225.164L.227.162a.026.026 0 01.005.01l-.01.012a.04.04 0 01-.02.01A.02.02 0 01.185.19.02.02 0 01.18.17.04.04 0 01.193.152C.198.145.202.143.205.14zm.047.006l.001.001V.15h.002v.001H.26L.263.149l.002.002-.01.007-.01.007L.241.164.244.162C.247.159.247.159.244.154L.24.15A.012.012 0 00.235.146L.218.138H.212L.209.139S.207.138.21.137L.216.131a.241.241 0 00.01-.007v.002l.001.002-.002.001.004.003.007.003A.511.511 0 00.243.14V.126L.24.118H.238L.237.12S.235.12.236.117A.13.13 0 00.243.113L.249.108.25.11H.249L.247.114v.021c0 .004 0 .006.003.008l.002.004zM.3.1v.002h.002L.307.098C.311.097.312.096.311.093V.09h.002A.1.1 0 00.32.102L.317.104.316.103C.314.1.313.1.309.102L.304.105c-.002 0-.002 0-.002.002l.004.008C.31.121.31.121.313.12L.316.119V.12a.534.534 0 00-.01.005L.295.132.294.13.296.128C.299.126.299.126.296.12L.286.098C.283.093.282.093.279.094H.277V.092a.265.265 0 00.01-.005L.3.08A.189.189 0 00.31.075l.004.01H.313A.015.015 0 00.308.083c-.001 0-.004 0-.007.002L.295.086C.293.088.293.088.294.09L.299.1zM.377.073v.003l.001.001v.011H.376V.09H.375v.002H.374v.003H.373v.002H.37v.002H.368V.1H.366L.365.102H.362L.361.104H.359L.358.106C.343.11.329.105.325.093.32.08.328.067.343.062.36.056.373.06.377.073zM.344.065H.34v.001L.338.068v.001H.337V.07H.336L.335.071v.002L.334.074v.013l.001.001c.003.008.01.019.022.014C.368.098.368.088.365.08.362.068.353.06.344.065zM.387.06V.056H.385V.053H.38V.05A.322.322 0 01.398.047.04.04 0 01.414.046c.005 0 .008.004.009.008C.424.059.42.063.417.065v.001A.054.054 0 00.432.08a.01.01 0 00.006 0v.002a.019.019 0 01-.006.002.017.017 0 01-.016-.003.082.082 0 01-.008-.009C.407.07.405.07.403.071.401.07.4.07.401.073L.402.08c.002.006.002.007.006.006H.41V.09a.488.488 0 00-.023 0H.39C.393.088.393.088.392.082L.387.06zm.012.006v.001H.4v.001h.004A.009.009 0 00.41.063C.411.063.412.061.411.057.41.05.405.048.4.05.396.05.396.05.397.053l.002.013zM.48.07v.003h.001v.002h.001v.001h.005V.08a.211.211 0 00-.023 0V.078h.002C.469.077.47.076.469.07L.468.046C.468.04.467.04.463.04H.461V.037A.222.222 0 00.485.035v.003H.483C.479.038.479.04.479.046L.481.07zM.54.069V.08L.534.081.529.073.51.053A.103.103 0 00.503.046V.05L.502.062v.012l.005.002H.51V.08H.49V.075h.001c.003 0 .004 0 .005-.002L.497.062.498.045V.04L.493.037H.491V.035a.231.231 0 00.018 0c0 .003.006.008.012.016l.007.007.007.007V.041L.531.039H.529V.035h.01l.009.001v.002H.546L.542.041A.04.04 0 00.54.053V.07zM.57.046V.043H.563C.56.042.557.044.554.049L.55.048.555.037h.002c0 .001 0 .002.007.003l.028.005h.01a.038.038 0 00-.003.01H.596C.596.052.595.049.589.048H.582l-.005.03C.576.081.577.082.58.083h.003v.003A.43.43 0 00.556.083V.08H.56C.564.08.565.08.566.075L.57.046zm.05.023H.618v.002H.62l.006.002C.63.073.631.073.632.07L.633.069.636.07a.074.074 0 00-.004.014L.63.083V.08C.63.078.629.077.625.076L.62.075H.617L.615.084V.09c0 .001.001.002.007.004.007.001.01.002.015-.004L.64.091a.034.034 0 01-.006.01.637.637 0 00-.017-.006L.607.092A1.1 1.1 0 00.594.087h.004c.004 0 .004 0 .006-.005L.61.058C.612.053.612.052.608.05H.607V.048L.618.05l.016.004.01.003-.001.01H.64C.64.065.64.063.638.062.638.06.635.059.631.058L.625.056c-.002 0-.002 0-.003.002L.62.068zm.036.005V.071h.001V.065H.655L.654.063.655.062a.265.265 0 01.018.007.037.037 0 01.014.008C.69.08.69.085.689.088.687.094.682.094.678.094v.002c0 .01.002.015.004.02a.01.01 0 00.004.003V.12L.68.119A.02.02 0 01.668.107.073.073 0 01.667.095C.667.093.665.092.664.091H.66L.657.1C.655.105.655.105.658.107L.66.108V.11L.648.106a.341.341 0 00-.01-.004V.1H.64C.645.1.645.1.647.095l.01-.021zm.007.011v.003h.002V.09h.009S.677.09.678.086C.68.079.678.074.672.072.67.07.67.07.668.073L.663.085z" font-weight="400" fill="#002a6c"/><path d="M.732.134v.002H.73V.14H.728v.001H.727v.002H.721L.72.132.714.108A.078.078 0 00.71.096L.708.1.702.111a.04.04 0 00-.005.011c0 .002.001.003.003.004l.002.001L.7.13.691.124.684.12V.118h.002C.688.12.689.12.69.118a.04.04 0 00.007-.01L.706.095.708.09c0-.001 0-.002-.003-.004L.703.084.705.082l.009.005A.077.077 0 00.72.09l.004.02.003.009c0 .004.002.007.003.01V.126L.736.118A.04.04 0 00.74.108L.738.102H.736L.737.1a.6.6 0 00.016.011H.747A.035.035 0 00.74.12L.732.134zm.021.011V.143H.75L.744.15H.742l.002.003.001.001-.001.002L.736.15.73.146V.144l.002.001c.001.001.003.002.006 0L.749.14.764.13C.768.129.77.128.77.126c.004.002.008 0 .008 0V.13a.143.143 0 00-.002.01L.771.164C.77.17.769.171.77.173l.003.002-.002.002L.762.17A.18.18 0 00.755.164V.162h.002L.76.164V.16L.763.153C.763.152.763.151.76.15L.753.145zm.01.002h.001L.767.14.768.134a.067.067 0 00-.007.003L.757.14C.755.141.755.142.757.143l.005.004zM.81.16V.157L.806.153C.802.15.8.15.794.153L.792.15l.01-.006.001.001c0 .001 0 .002.004.006L.83.17c.004.003.004.004.006.004l.001.001a.042.042 0 00-.008.008L.826.182C.827.178.829.175.824.17L.821.168C.82.166.819.166.818.168l-.02.02c-.003.006-.003.007 0 .01L.8.2.798.202A.494.494 0 00.78.18l.003.003C.785.186.786.186.79.18L.81.16zm.015.057H.823v.001H.822V.22H.821v.004l.002.002-.002.002a.276.276 0 00-.008-.01L.806.21.808.208.81.21C.813.212.813.212.818.208L.836.192C.84.188.84.187.838.184L.837.182.839.181A.262.262 0 00.847.19l.008.009L.853.2H.851C.848.196.848.196.843.2L.825.217zm.051.045L.875.263H.874L.872.265.87.266.867.267H.855V.264H.852L.851.262H.849L.848.26H.847L.846.257H.844V.255H.843L.842.253H.84C.83.24.83.226.843.218.853.21.868.213.878.227.888.24.887.254.876.262zM.875.228L.873.226H.872V.224L.87.223H.868V.222h-.01L.855.225H.854v.001H.853v.001H.85C.845.233.837.243.844.253c.006.009.015.007.024 0C.877.247.88.237.875.229zm.018.088H.89v.002H.888v.001H.886V.32H.883L.88.318l.003-.01.008-.024.003-.012-.003.002L.88.28a.038.038 0 00-.01.006v.009A.157.157 0 00.86.277h.003L.866.28A.04.04 0 00.877.276L.892.268.897.265V.26L.895.258c0-.001.001-.002.002-.001a.42.42 0 00.008.015L.899.291.896.299.894.31h.002L.904.303a.037.037 0 00.01-.007V.29h.001L.92.298l.004.007c0 .001 0 .002-.002.001L.918.303a.041.041 0 00-.011.004L.893.316zm.012.02V.333H.893V.34H.891L.888.332.885.324h.002v.001C.889.327.89.328.893.328L.904.33H.92c.005.001.008.002.01 0 .001.004.005.005.005.006v.002a.128.128 0 00-.007.006l-.02.02C.906.366.904.367.905.37v.003L.9.362a.333.333 0 00-.005-.01h.003v.001l.003.002.003-.003L.91.348V.344L.904.336zm.006.006v.001h.001v.001h.001L.919.338.923.334H.91c-.002 0-.002 0-.001.002l.002.006z" font-weight="400" fill="#002a6c"/><path d="M.918.386H.915v.001H.913v.001H.912v.01c.002.007.003.01.011.012v.003h-.01a.865.865 0 00-.004-.02L.906.384A.281.281 0 00.903.372C.903.37.904.37.905.37l.001.003c.001.003.002.003.008.002L.937.369C.943.368.944.367.943.364V.36h.002a.242.242 0 00.006.022L.95.384V.382C.946.38.945.38.94.38L.918.386zm.035.058H.96V.438h.002l.003.02-.001.019C.962.488.954.495.946.495a.022.022 0 01-.02-.012.05.05 0 01-.006-.02v-.01L.919.44h.003v.003C.923.446.923.447.93.446L.953.444zm-.02.013H.927v.001H.925V.46L.924.466c.001.014.012.017.02.017C.957.482.964.473.963.46A.007.007 0 00.96.456H.933zM.949.52H.946v.007c0 .004 0 .005.003.006h.002v.003a.07.07 0 00-.008 0H.938V.532h.001C.943.531.943.53.943.526V.52H.928C.926.52.926.523.925.529c0 .007 0 .01.007.014v.003A.032.032 0 01.922.54V.523l.001-.01V.499h.003v.004c0 .003 0 .004.007.004l.024.001c.006 0 .007 0 .007-.003V.503h.003v.011L.964.531v.01l-.01.001V.54A.015.015 0 00.96.536C.962.535.962.533.963.53V.523C.963.52.963.52.96.52H.95zM.932.58L.93.578V.577H.927V.575H.925L.924.574H.923V.573H.922L.921.572H.92V.571L.917.57V.565L.926.563.954.554C.961.552.961.552.962.55V.547h.003l-.002.01L.962.57H.959V.565L.95.567.935.57A.091.091 0 00.93.573l.004.003L.94.58a.328.328 0 00.015.01L.956.586V.585H.96l-.002.01v.008H.953V.596a.08.08 0 00-.01-.008L.933.58zm.002.037H.931v.001L.93.623c0 .004 0 .005.002.007h.002v.004A.14.14 0 00.92.63V.627h.002c.003 0 .004 0 .005-.004L.93.617C.93.615.93.615.928.615L.92.613C.917.612.915.61.913.613.912.612.911.613.91.62.908.626.907.629.913.635v.003a.035.035 0 01-.01-.006L.908.614.91.604.914.591l.002.001v.004C.915.599.916.6.92.6l.024.007C.95.609.95.609.952.606L.953.604h.002a.174.174 0 00-.003.012L.948.632l-.003.01L.935.64V.637L.943.636.946.629.947.623C.947.62.947.62.945.62L.935.617zM.906.656H.901V.654H.9C.897.655.896.657.894.662.892.67.892.671.897.678L.896.681a.035.035 0 01-.01-.007L.895.657l.003-.01A.316.316 0 00.902.635l.002.001V.64C.901.642.902.643.907.645l.023.01c.007 0 .007 0 .009-.003L.94.65h.002a.428.428 0 00-.004.012l-.004.01H.932V.67c0-.004 0-.004-.005-.006L.906.656zM.879.737L.878.736H.877L.876.734H.874L.873.731.87.73V.725H.868V.723L.867.721V.709L.87.708V.703L.872.702V.701C.88.687.892.68.905.687.916.694.919.71.912.723.904.737.89.743.879.737zM.909.72L.91.718.912.715V.709H.91V.707H.908L.907.705H.906V.703H.905V.701H.902V.7H.9C.892.694.88.691.873.703.87.713.874.72.884.725.894.731.904.73.91.721zM.88.753h.001v.001h.001v.001h.002v.001h.004V.754L.89.753l.002.001a.265.265 0 01-.02.026C.868.783.862.785.858.782.848.775.855.764.858.76V.759H.86C.858.766.86.77.865.772c.003.003.01.003.014-.003C.88.767.879.766.878.765L.855.749C.85.745.849.746.847.749L.845.75H.843A.454.454 0 00.851.74L.857.73.86.731v.001C.855.736.856.736.861.74L.88.753zM.862.794h.001v.002L.858.803.852.81C.849.806.844.806.837.804L.827.8H.819L.82.808l.003.008.006.016-.006.006-.006.007L.816.843.818.841C.82.84.82.837.818.835a.416.416 0 00-.022-.02C.794.815.793.814.79.816H.788S.786.816.787.815A.285.285 0 00.802.798S.804.798.804.8L.802.802C.8.805.801.805.804.808l.012.011.006.005L.81.79V.788L.813.787l.036.01A.926.926 0 00.83.779C.828.777.827.777.824.779L.822.78H.82L.827.772A.152.152 0 00.832.766h.002v.002C.83.771.83.772.834.775l.01.011a.279.279 0 00.01.01c.002.002.004.001.007 0L.862.793zM.787.847H.784L.78.851C.777.853.777.854.778.857V.86H.777a.083.083 0 00-.01-.01L.77.848c.003.003.004.003.007 0L.782.845C.784.843.784.843.782.842L.778.836C.776.833.774.832.773.832.77.832.77.832.765.836S.758.842.76.85L.757.852a.032.032 0 01-.004-.01A.423.423 0 00.767.83L.775.824l.01-.009.002.002-.003.002C.781.822.781.823.785.827l.016.02C.805.85.805.85.808.848H.81a.55.55 0 00-.008.009L.79.867a.155.155 0 00-.01.007L.774.867.776.865a.014.014 0 00.006.002c.002 0 .004 0 .007-.003L.794.86C.796.858.796.858.794.856L.787.847zM.715.88L.713.878.712.876H.711V.874L.71.873V.87L.711.867l.01.003.025.006.011.002V.875L.75.864a.038.038 0 00-.008-.01L.737.855.735.856V.854L.742.85A.158.158 0 00.75.844l.002.002H.75L.748.852c0 .002.003.006.006.01l.009.014C.764.88.765.88.766.88h.005L.773.877V.88A.32.32 0 00.76.89.068.068 0 00.74.884L.731.882.721.88l.001.003.005.008A.041.041 0 00.735.9H.74V.897L.743.9l-.01.006A.24.24 0 00.727.91V.908L.73.904A.037.037 0 00.723.893L.715.88zM.703.916v.001h.002L.71.915C.715.913.715.91.715.905c0-.001.002-.002.003-.001 0 .004.002.008.003.01L.72.917H.719C.718.915.717.915.712.917L.686.93C.68.932.68.933.68.934H.679L.678.936a.04.04 0 00-.004-.01L.676.922C.68.926.682.928.687.926L.691.924C.693.923.693.923.693.92L.68.895C.677.89.677.89.674.891H.67V.89L.68.884.693.878V.88L.692.882C.688.884.688.885.69.89l.012.026zM.594.944L.575.948.588.933.578.917l.017.008L.608.91.606.93l.017.007-.018.004L.603.96.593.944zm-.101.01H.474L.49.942.484.924l.015.011.015-.01-.006.017.015.012H.504L.5.97.493.954zM.393.94L.374.937.392.93.39.909l.012.015L.42.917.41.933l.013.014L.404.943.394.96.393.941zM.275.713h.457V.641H.275v.072zM.274.358h.458V.225H.274v.133z" font-weight="400" fill="#002a6c"/><path d="M.325.274V.265L.323.264H.322V.263H.32V.262H.314V.258a.605.605 0 00.038 0v.003H.35C.344.265.344.265.344.275v.024c0 .012.001.025.021.025.017 0 .022-.011.022-.025V.285c0-.008 0-.016-.002-.019C.384.264.38.263.377.263H.374V.258a.59.59 0 00.032 0v.003H.403L.396.267a.058.058 0 00-.002.02v.01c0 .01 0 .02-.008.026A.04.04 0 01.36.329.046.046 0 01.335.323C.328.32.325.311.325.3V.274zm.11.056H.43L.428.328H.421V.327H.419L.417.326H.414V.325H.412A.039.039 0 01.409.307h.004c.003.007.012.016.023.016C.446.324.45.32.45.314.45.306.44.301.432.298.422.294.412.288.412.278c0-.012.012-.02.03-.02l.015.001.005.001a.04.04 0 01.002.015H.46C.457.27.451.262.442.262S.429.267.429.272.434.281.44.284l.01.003c.007.004.017.01.017.021C.467.321.454.33.435.33zm.07-.031H.5c-.003 0-.004 0-.003-.003L.5.288A.121.121 0 01.506.276.03.03 0 00.51.287l.004.009c0 .002 0 .003-.003.003H.505v.005h.007c.004 0 .005 0 .006.002L.52.315a.034.034 0 01.003.007L.52.324H.516v.004h.018a.64.64 0 01.02 0V.324H.549C.544.323.543.32.54.314L.523.274A.178.178 0 01.517.26C.517.258.516.258.514.258c0 0-.005.005-.011.006C.503.267.5.27.498.277L.486.302.478.32A.01.01 0 01.47.324H.467v.004h.029V.324H.492C.488.324.487.323.487.322L.488.318.493.306c0-.002.001-.002.004-.002h.008V.3z" font-weight="400" fill="#fff"/><path d="M.582.312V.32h.002v.001l.001.001h.001v.001H.59l.004.001v.004h-.04V.324h.004C.563.323.564.322.564.312V.274c0-.01 0-.01-.007-.011H.554V.259a.7.7 0 00.039 0v.004H.589C.583.263.582.265.582.274v.038zm.047-.02V.31c0 .005 0 .01.003.011.002.002.006.003.01.003.023 0 .03-.016.03-.03C.672.275.66.263.637.263L.63.266.629.271v.021H.611V.276c0-.01 0-.012-.007-.012H.602V.26L.637.259c.01 0 .021 0 .03.003.017.005.026.017.026.03C.693.306.685.317.67.323a.087.087 0 01-.033.005H.6V.324h.004C.61.323.611.322.611.313v-.02h.018zM.32.67h.02L.324.68.33.697.315.687l-.014.01L.307.68.292.67H.31L.315.652l.006.016zm.064 0h.018L.387.68l.006.017-.015-.01-.014.01L.37.68.355.67h.018L.378.652l.006.016zm.063 0h.018L.45.68l.006.017-.014-.01-.015.01L.433.68.418.67h.018L.441.652l.006.016zm.063 0h.018L.513.68.52.697.505.687.49.697.496.68.481.67H.5L.505.652.51.669zm.063 0h.018L.577.68l.005.017-.014-.01-.015.01L.56.68.545.67h.017L.568.652l.005.016zm.063 0h.018L.64.68l.005.017-.014-.01-.014.01L.622.68.608.67h.017L.631.652l.005.016zM.7.67h.017L.703.68l.005.017-.014-.01-.014.01L.685.68.671.67h.017L.694.652l.005.016z" font-weight="400" fill="#fff"/><path font-weight="400" fill="#c2113a" d="M.274.722v.003h.001v.003L.277.73l.001.002v.001l.001.002.001.002V.74l.001.002.001.002.001.002.002.003.001.002.002.002.002.003.002.002.002.002.002.003.002.002.003.002.002.003.003.002.003.002.004.003V.722H.274zm.059 0h.052v.085S.352.799.333.788V.722zm.072 0V.81l.022.003c.003 0 .022.003.03.007v-.1H.406zm.327 0v.005L.73.728v.005L.729.734v.002L.726.738v.004L.724.744v.002L.721.75H.72v.003L.717.756.715.758.713.76.711.763.709.765.706.767.703.77.7.772.697.774.694.777V.722h.038zm-.058 0H.622v.085S.655.799.674.788V.722zm-.072 0V.81L.581.814A.135.135 0 00.55.821v-.1h.052zM.504.854L.503.853.502.85H.501V.849L.498.847V.846L.497.845.496.844.495.842H.494L.493.84H.492L.49.837H.489L.488.836H.487L.486.834H.484V.832H.481V.831H.48V.83H.478V.721h.05V.83S.513.838.504.854z"/><path d="M.731.414H.722a.472.472 0 01-.076.004H.644c-.01 0-.017 0-.024.002C.614.42.608.426.6.421.6.421.6.418.597.42.587.413.576.412.566.409.551.403.538.396.521.396.507.4.492.397.478.397.465.4.456.412.445.422a.451.451 0 00-.034.007H.377a.18.18 0 01-.068 0C.298.427.285.428.273.426V.54A.309.309 0 01.36.535c.01.002.022.006.036.006.002.001-.001.004 0 .006 0 .003 0 .007.004.009h.002c.006.004.012.01.02.005v.005c.001.007.01.012.015.014.01.002.017-.008.024-.012v.004A.016.016 0 00.466.59c.007 0 .015.004.021 0C.49.592.49.595.491.596c.01.006.02.008.03.012.003 0 .007 0 .01-.003C.537.602.54.609.546.61.554.613.562.61.568.606.576.603.57.59.58.59.59.585.594.578.594.568h.008A.034.034 0 00.615.556.027.027 0 00.62.547c0-.003-.002-.006 0-.01.006.002.01.006.015.003L.644.53A.017.017 0 01.648.527c.029-.001.056.003.084 0a.66.66 0 000-.023v-.09z" font-weight="400" fill="#fff"/><path d="M.49.53h.005H.49zM.35.504V.502h.003H.35zm.04 0V.5H.388V.498H.384C.383.496.389.494.39.49L.384.493C.383.49.387.487.386.483.384.487.382.492.378.494V.49C.376.49.374.495.372.492L.375.484.37.49.367.492c-.002 0 0-.003-.002-.003C.365.486.369.484.37.481.366.483.366.488.36.488L.362.483.358.485.361.479a.02.02 0 000-.009C.358.47.357.471.357.472.356.47.348.468.353.462V.46H.36v.002C.357.46.358.465.356.466c.002.002.004-.001.006 0C.368.463.372.468.377.47L.39.474C.397.478.396.485.399.49.4.495.4.5.402.504H.39zm-.092 0V.501H.3V.5h.01C.314.5.32.5.323.497.325.498.325.5.327.5.33.498.332.497.334.499c.002 0 0 .003.001.004.004 0 0-.008.004-.004a.01.01 0 010 .005H.298zm.317.053L.613.56H.611L.61.563v.001H.607v.001H.606v.001H.605L.604.567H.603L.602.568H.595C.595.578.589.585.58.59.571.59.576.603.568.606.562.61.554.613.547.61.54.61.537.602.53.605.528.608.524.607.52.608.51.604.5.602.49.596.49.595.49.592.487.59.481.594.473.591.467.59.46.585.459.578.46.572V.568C.454.572.447.582.437.58.431.578.423.573.422.566V.561C.413.565.407.56.401.557h.213zM.273.53V.521C.278.52.28.526.284.524L.281.521h.002c.003.001 0 .007.005.005L.291.522c.002 0 .001.003.003.004C.296.525.298.523.301.523.3.521.295.52.297.515.297.514.3.513.299.511S.296.507.297.504H.34c0 .002-.002.005 0 .007.002.001.004.003.006.002.002 0 0-.003.003-.002L.35.514c.005-.003 0-.007 0-.01h.003L.356.51C.357.518.347.518.344.523.347.524.35.522.354.52.355.52.36.518.361.515c.006 0 .011-.003.015.002.002 0 .007 0 .006-.004V.511l.004.002C.389.513.39.513.39.511V.506C.391.508.39.51.387.51L.39.504h.013a.01.01 0 00.004.003C.41.51.413.508.416.511.418.51.423.514.427.51c.005.001.01.002.016 0C.45.51.454.505.46.507c.01.001.012.01.02.013 0 .003.002.006 0 .008C.477.525.474.533.472.528.469.527.466.526.468.523.466.522.464.526.461.524.457.519.45.524.447.521.444.514.437.52.433.518.431.516.43.518.428.518A.025.025 0 00.416.516C.415.513.414.515.412.514.408.511.403.511.4.508.397.508.396.51.395.514.397.516.4.514.4.514.413.521.43.52.442.527.449.524.457.527.464.53h-.19zm.286 0H.56V.528h.002L.565.53H.56zm.016 0V.528L.577.527V.526h.001V.524H.58L.577.53H.575zm.005 0V.528h.001V.527h.001V.526h.001V.525c.002.002.001.003 0 .004H.58zm-.066 0C.516.525.522.524.525.52c0-.004.006-.004.006-.008L.533.51c.003 0 .001.004.003.006C.54.513.545.513.55.514l.003.002s0-.004.002-.003c0 .003.002.006.003.008 0 0 0 .003.002.002v.002H.557C.56.525.556.528.555.53h-.04zm.087 0V.529L.6.527.598.526.597.525H.596V.524H.595L.594.522H.591L.589.52H.586V.517H.584C.579.52.578.513.574.511.573.512.57.508.567.51L.565.504h.03v.003L.598.505V.51L.603.508C.604.51.596.518.605.517v.001c.002 0 .006 0 .004-.004C.609.51.605.516.605.512a.032.032 0 00.01-.008h.041v.002C.659.506.659.504.659.504h.004l.001.003.001-.003h.01c0 .002 0 .004.003.001V.504h.055v.023C.704.53.677.526.648.527A.016.016 0 00.644.53H.6zm.043 0L.642.532v.001H.64v.003H.638v.001H.637v.001H.636L.635.539H.634L.633.54C.629.542.625.539.62.538.618.54.62.544.62.548a.027.027 0 01-.005.009H.402L.4.556C.396.554.396.55.396.546c0-.001.002-.004 0-.005C.383.541.372.537.359.535A.308.308 0 00.274.54V.53h.19l.01.005C.48.535.484.53.49.53h.006C.502.531.51.53.513.537c0 .002.002.004 0 .006a.034.034 0 00.01.006L.52.545H.519V.54L.517.542C.515.54.516.536.517.532L.513.53h.041l.003.001h.006S.56.533.563.535C.566.535.57.533.57.537c0 .002-.002.004 0 .005C.575.54.578.538.577.536c.003-.001 0-.003 0-.004H.575V.53h.002v.001h.006C.582.53.58.53.58.532h.003C.585.535.578.538.582.542v.003A.068.068 0 00.59.53l.002.002c0 .004-.004.006-.005.01h.005C.594.54.594.537.596.536c.002.002 0 .004 0 .006 0 0 .003 0 .003.002-.002 0-.003 0-.004.002v.002C.6.55.601.541.605.545V.544h.001C.61.543.606.54.606.537H.602C.603.533.603.532.6.53h.043zM.564.504V.496L.56.494v.004A.005.005 0 01.557.495C.56.491.553.49.552.486V.482C.553.48.555.48.557.48.56.482.559.486.56.489c.003 0 .005-.01.007-.002C.567.488.566.49.568.49.57.491.57.488.572.49c0 .001.003.002.002.004v.001c.002-.003.004 0 .007.001L.582.5C.584.499.586.495.588.497L.585.503C.588.503.59.501.591.5c.002 0 0 .002.001.003.001 0 .003-.003.004 0H.565zM.482.45L.477.453.473.456.47.457.469.46H.467L.465.462.462.463H.46L.458.466H.456L.454.467H.452L.449.47H.446V.466a.025.025 0 01-.007.003C.438.465.443.462.442.457.438.46.438.463.434.464A.004.004 0 01.43.46c0-.004 0-.007.003-.01H.48zm-.048 0V.448h.001V.445h.001a.015.015 0 01-.002-.01C.435.436.437.433.436.43.435.43.431.432.43.43.427.43.426.433.423.433s-.007 0-.009.003C.418.438.426.434.427.44.426.442.424.44.423.44L.417.439C.414.439.41.438.407.44.405.44.404.44.403.438c-.004.003-.008 0-.013 0A.015.015 0 01.377.435C.375.436.372.438.37.437L.369.434c0 .003-.002 0-.003.002C.364.437.366.442.362.44.36.435.355.441.35.441A.023.023 0 00.33.44c.006.003.01.004.012.008C.34.45.337.447.334.447.33.447.326.44.321.442.317.441.315.435.31.438.307.438.303.437.3.44c0 .002.003.003.002.005C.3.442.296.445.295.44c0 0 .003.002.003 0C.296.437.294.435.292.435s-.003.002-.005 0C.284.434.281.436.277.434.275.432.271.43.273.427L.31.428a.18.18 0 00.069 0C.39.428.4.43.41.428A.454.454 0 01.445.423C.456.412.465.4.478.397c.014 0 .029.002.043 0 .017 0 .03.007.045.011.01.004.021.005.03.01C.6.419.6.422.602.422.608.426.614.42.62.421A.163.163 0 01.645.417h.002c.026.003.05 0 .076-.003H.73C.732.417.73.421.727.421L.725.422.724.424C.721.424.722.419.718.42.716.422.716.426.712.426a.037.037 0 01-.024 0C.685.431.68.422.676.427.674.428.674.425.672.424c-.004.004-.008 0-.012 0-.004.002-.01.004-.013 0-.002 0-.002.001-.003.002v.002C.642.43.64.428.64.426V.425S.634.43.633.424L.63.425c0 .002.002.004.001.006C.628.43.63.435.626.434c0 .003-.001.002-.003.002V.435a.003.003 0 01-.004.001c0-.003 0-.006-.002-.009C.615.428.61.427.61.432v.01l.003.001A.02.02 0 01.612.45h-.06a.304.304 0 01-.01-.006.088.088 0 00-.035-.006C.504.44.502.438.5.44a.085.085 0 00-.02.01H.434zm.18 0L.615.449V.446h.001V.438h.001C.62.438.62.442.62.444h.003V.45h-.01zm.01 0v.001L.621.452v.002L.62.456v.008H.618v.002l.01-.008c0 .002.002-.003.003 0L.63.461h.003a.016.016 0 01-.005.011C.626.472.628.467.624.47.621.475.616.479.611.483c0 .004.004.002.005.004l.01.007C.626.492.63.492.632.491L.63.498l.005.006h-.02L.617.5V.497C.6.473.575.463.552.45h.06L.609.457A.104.104 0 00.613.45h.01zM.64.504C.642.502.645.503.645.501c.002 0 .001 0 .002.002H.64zm.008 0V.502H.65L.652.5l.004.003H.648zm.01 0V.5L.66.503h.002-.004zm.006 0V.502L.666.501h.001V.497c.002 0 .003 0 .003.002v.002V.5C.674.5.674.502.675.504h-.01zm.014 0V.502H.68V.498c.003 0 .005.002.005 0C.688.497.687.502.69.504H.678zm.012 0h.001V.502C.691.5.688.498.69.495.693.5.693.492.695.491.699.492.694.498.699.499.701.5.702.496.7.495L.701.488h.002V.484c.005 0 .002.007.004.01C.71.488.707.481.712.478c.002.004-.003.01.003.008.001.002.004.004.004.002V.484c.005 0 .003.007.005.01.002-.004 0-.008.001-.01.003.002.002.007.003.01a.02.02 0 000-.009h.003l.001.002v.017H.69z" font-weight="400"/><path d="M.477.413v.001H.474C.473.414.472.411.474.41l.002.003z" font-weight="400"/><path d="M.473.415v.003H.47C.47.414.472.41.473.414z" font-weight="400"/><path d="M.47.421H.465V.418L.467.416C.47.416.471.419.471.42zm.197.026v.006H.66L.658.446c.001 0 .003 0 .004.002 0-.002 0-.005-.002-.006C.66.44.662.44.663.44c.003.002.004.004.004.006zM.428.445H.426c-.002 0-.002-.002 0-.003l.001.003zM.392.447v.001C.388.448.388.446.387.445.39.44.392.445.392.447z" font-weight="400"/><path d="M.603.444v.002H.6C.6.444.602.444.603.444z" font-weight="400" fill="#fff"/><path d="M.397.447h.001A.004.004 0 01.4.45L.397.453C.397.449.39.448.395.445l.002.002zm.243 0v.005H.638v.001H.637V.445C.64.444.641.445.641.447zm.035 0V.45H.673v.001H.671C.672.454.67.454.67.454c-.005 0 0-.003 0-.006.002.003.003-.004.005 0zM.649.448v.005H.646V.447l.002.001zM.645.447v.006H.642v.001C.64.453.642.45.642.45s0-.002.002-.002z" font-weight="400"/><path d="M.601.45v.001H.6C.597.452.598.45.6.45h.001z" font-weight="400" fill="#fff"/><path d="M.41.454v.001H.407V.453H.405c0-.002-.002-.004 0-.005C.407.451.41.451.41.454zM.652.45v.003C.65.453.65.451.65.45.649.448.652.45.652.45zM.305.456l.002.002c0 .002-.004 0-.002.004l.002.001C.305.465.306.468.306.47c.001.006.007 0 .01.005L.313.476C.315.478.317.48.315.482H.311A.005.005 0 01.308.479c0-.001.002-.002 0-.003-.001 0-.002.003-.004.001C.305.475.304.472.3.472c0 0-.003 0-.004-.002C.298.464.29.461.295.457.296.454.299.455.299.452c.003 0 .006 0 .006.004zM.322.46H.32C.318.46.317.458.314.456L.316.454c.001.002.007.002.006.005zM.495.458L.49.463c.002.001 0 .002 0 .004-.001 0-.003.002-.004.001 0-.002 0-.004.002-.005A.005.005 0 01.485.46V.458L.489.46C.491.458.489.454.493.455l.002.003z" font-weight="400"/><path d="M.316.463v.002C.31.465.311.46.307.46V.458l.008.005zm.008.002H.322v.001H.32v.002C.32.472.319.47.318.47c0 0-.003-.002-.002-.003S.317.463.32.464v.002C.32.464.318.462.32.46.323.458.326.463.324.465zm.017.001v.001h.001v.001h.001c.003 0 .003.003.005.005v.002C.344.475.344.47.342.47c0-.004-.006 0-.005-.006V.461c.003 0 .001.005.004.005zm.009 0v.002C.344.468.345.464.344.462.346.464.35.462.35.466zm.295.002V.47C.65.471.652.46.656.466h.002V.47c0 .001-.003.003-.004 0V.468C.651.47.65.473.647.473S.645.47.643.473C.642.47.641.474.64.473L.639.47C.638.47.637.473.636.472.634.47.636.468.636.466.638.466.638.463.64.463c.003 0 0 .006.005.005zM.412.47v.001h.001v.001h.001V.47h.002c0 .003.002.006.004.008l.002.005C.419.483.419.481.418.48L.41.472V.471A.016.016 0 01.407.465H.41c0 .002.001.004.003.004zm.021.001C.432.47.428.467.43.465c.003 0 .003.004.003.006zM.667.466V.47H.665v.001H.663c0-.002 0-.008.003-.005zm.01.002V.47H.671c0-.001 0-.003.003-.005l.002.003zM.515.47v.001H.512v.001S.51.472.51.47s.004-.002.005 0zm.203 0v.002H.714C.713.468.715.468.716.467.718.468.718.47.718.47z" font-weight="400"/><path d="M.351.474C.347.475.347.473.347.47.35.466.35.472.35.474zM.497.47v.001H.493V.47h.005zm.071 0v.005H.566L.567.47h.001zm.119.001v.001H.685v.001H.684v.001H.683v.001L.681.474V.47l.005.001zm-.283 0v.006h.001v.001L.407.48v.004l.003.01c0 .002-.002 0-.003.001C.403.492.406.488.403.486.402.482.4.478.401.474c0 0 .001-.003.003-.003zM.5.473v.002H.496L.498.472l.003.001zm.022.001v.002H.518L.52.472h.003zM.426.475v.001C.423.476.422.475.422.474c0-.003.003 0 .003.001zm.27 0V.48H.694A.008.008 0 01.69.478C.69.475.693.475.694.474h.002zM.433.477v.001C.43.478.43.478.43.476l.003.001zM.428.478V.48H.426c0-.002.003-.003.002 0zM.426.484H.424L.422.478c.003 0 .004.004.004.007zM.47.49v.002L.468.494A.036.036 0 01.48.484C.484.482.486.48.49.48.492.486.5.478.503.485c.003 0 .007 0 .008.003V.49C.505.49.501.49.496.487.494.49.49.485.488.487.483.486.481.495.478.495S.474.497.475.498c.005 0 .003.006.008.006C.486.507.482.51.48.514.475.513.475.503.468.505.465.503.471.5.468.496L.469.494C.467.493.465.494.463.492.468.488.46.485.463.481.471.47.468.486.47.49zM.574.483H.571V.48c.002 0 .003.002.002.003zm.024.001v.001H.596C.595.486.594.484.592.483V.48c.003 0 .005.002.006.003zM.447.483h.001v.004C.447.484.445.487.443.486.443.484.44.482.443.48c0 0 .002.004.004.002zm.007.005H.452V.486H.451V.483H.45V.481c.003.001.003.004.003.006zM.44.489v.002H.438v.001H.436V.486C.44.486.44.487.44.489zM.59.49H.587c0-.002-.002-.004 0-.004L.59.49zM.654.488V.49c.002.002.002-.003.005 0L.657.493c-.002 0-.002-.002-.004 0V.49C.651.49.651.487.652.486c0-.002.002 0 .002 0zM.602.49v.001A.007.007 0 01.594.488V.486C.599.486.6.491.603.49zm-.08 0v.002H.517C.515.492.514.492.514.49s.006 0 .008 0zM.454.492v.002H.452L.451.496.45.493C.449.49.453.49.454.493zM.365.493v.001H.363v.001L.36.494.362.492l.003.001zm.063 0c-.001 0-.002 0-.001-.001 0 0 .002 0 .001.001zm.005 0v.001H.43V.492h.002zM.6.495S.597.493.6.493v.002zM.664.494v.002H.66L.662.493l.002.001zM.357.495v.001H.355c0-.003.002-.002.002 0z" font-weight="400"/><path d="M.466.494v.004H.464V.5H.463L.462.502H.461v.001C.458.499.464.496.465.494z" font-weight="400"/><path d="M.39.496H.388.39z" font-weight="400" fill="#e6c3ac"/><path d="M.417.497v.001H.412V.5C.41.498.411.497.412.495l.004.002zM.409.499v.003C.406.502.406.5.405.5c0-.003.002 0 .003-.001zm.035 0h.01C.456.497.458.5.458.5c0 .004-.003.002-.004.003C.449.502.447.513.444.504.445.506.44.506.439.506S.433.508.43.506C.43.504.434.502.43.5h.004C.438.495.441.505.445.5zm.169.005H.61V.503H.608V.501c.001-.004.003 0 .005 0s0 .002 0 .003zM.366.507H.364c-.002 0 0-.003-.002-.004L.364.502c.002 0 .002.003.002.005zM.42.505v.001H.416L.415.504H.413V.501c.003 0 .004.002.006.003z" font-weight="400"/><path d="M.33.504v.001H.328v.002H.327v.001L.326.51H.321L.32.508c.001-.002.002 0 .003 0L.33.503v.001z" font-weight="400" fill="#fff"/><path d="M.43.505v.001H.428L.427.508H.423C.424.503.427.501.43.504zM.36.509H.358L.357.507V.506H.356L.358.503C.36.504.36.507.36.509zM.292.51v.001H.288c0 .002-.001.002-.002.002L.285.51C.288.512.29.505.292.51zM.28.511v.001H.278v.001H.276C.277.512.274.51.277.51L.28.511zm.214.001h.002v.003C.495.517.492.521.49.521.488.518.485.52.484.518.485.516.484.515.482.514.483.512.485.508.488.51.49.513.492.51.494.512z" font-weight="400"/><path d="M.626.514v.002H.623v.001C.621.517.618.517.62.515L.622.511c.002 0 .004 0 .004.003z" font-weight="400" fill="#fff"/><path d="M.276.518V.52C.273.52.274.518.273.517L.275.513c.002.001.001.004.001.005z" font-weight="400"/><path d="M.333.519h.001v.005C.328.524.32.525.319.518c.002 0 .005 0 .006-.003.002.002.004.006.008.005z" font-weight="400" fill="#fff"/><path d="M.285.518V.52L.282.519V.515c.003 0 .003.002.003.003zM.291.516h.001V.52L.29.517C.29.518.29.52.288.52c0 0-.002-.003 0-.004s0 .005.003.001zm.28.001V.52H.568V.516H.57zM.5.517H.498V.52H.497L.496.522.495.523v.002H.493v.001C.49.522.495.52.496.516h.002zM.564.52H.562v.001H.561L.562.517.564.52zm-.06 0H.502v.001H.501v.001H.5C.497.523.5.52.501.519L.504.52z" font-weight="400"/><path d="M.311.52v.003L.308.521s.003-.003.003 0z" font-weight="400" fill="#fff"/><path d="M.507.522H.504V.52c.002 0 .002 0 .002.002zM.57.521v.002H.568v.001L.567.526v.001H.566v.001H.565v.001H.564c0-.002 0-.004.002-.007H.57zM.512.525L.51.527C.508.526.507.525.508.524L.512.522v.003zM.445.524V.523v.001zm.129 0v.003H.572V.53H.57c0-.001 0-.005.003-.005z" font-weight="400"/><path d="M.419.528v.003H.417v.001H.416v.001H.415v.001C.41.539.403.533.398.535H.397L.41.532C.412.53.406.527.41.527l.009.001zm.124.008H.54L.538.538v.001H.537V.54H.536v.001H.535v.002H.534c.001.002.003-.002.004 0S.536.547.538.55C.54.55.541.545.542.55.545.544.545.538.55.536L.544.554l.003.001C.549.553.549.548.553.548c0 .002-.002.003 0 .005L.554.55a.057.057 0 01-.006.014C.546.564.545.56.543.562.543.56.543.559.54.558.537.556.537.562.534.56c0-.003.002-.005 0-.008C.531.553.534.558.531.56.531.55.521.546.523.537h.003C.526.536.523.538.525.54.529.539.529.534.533.532L.53.542C.535.538.536.534.54.532.541.533.542.528.545.527c0 .003 0 .006-.003.008zM.466.54v.007L.464.549V.55C.46.549.47.542.467.542L.453.547C.45.546.45.543.452.54.452.538.45.54.45.537.453.536.455.54.459.538.459.535.455.536.453.534.448.532.444.536.44.538.44.54.439.542.437.542c0-.004.004-.006.006-.009C.445.531.448.533.45.531c.004 0 .013.002.016.008zM.427.533v.003h.005L.43.542H.424C.424.54.43.54.429.538L.416.54A.01.01 0 01.42.533h.006zm.072.013V.55h.002a.043.043 0 01-.016.006V.555H.483c0-.003-.005 0-.005-.004L.482.546c.004 0 .007 0 .01.002.002 0 .001-.003.001-.004A.013.013 0 00.484.54C.486.537.49.54.493.54c.002.002.005.003.006.006z" font-weight="400" fill="#fff"/><path d="M.414.554L.412.556H.408C.406.554.406.552.406.55.397.56.437.534.406.546c.002.005.013 0 .008.008zM.46.55v.004H.458v.001L.457.557v.001c0-.002 0-.006.003-.007zM.437.553v.002H.434V.552l.002.001zm.119.015H.552V.566H.551V.565c.003-.003 0-.01.005-.012C.56.554.557.557.558.56.56.559.56.555.56.55c0 .008.001.016-.004.019zM.567.553v.003L.565.559V.56L.564.561v.001L.563.563v.002H.562v.002H.561V.57H.56L.563.56c0-.003 0-.007.003-.008l.001.001zM.52.556V.56h.001v.003h.001v.004C.517.574.515.587.505.584.506.58.503.58.504.578A.01.01 0 00.513.576.035.035 0 00.519.56C.514.56.514.566.51.568c0 0-.002 0-.003.002v.004H.505c0-.003.014-.006.01-.01C.518.562.503.559.508.556c.003 0 .006.006.008.001L.514.554c.003 0 .004 0 .007.002zM.447.56h.001-.01c.001-.004.004 0 .006 0h.003zm.04.008H.48V.57C.475.573.474.569.472.568.475.565.474.563.473.561V.559a.018.018 0 00.014.009zM.482.562h.003v.001H.49v.001C.502.561.49.568.478.561V.559l.004.003zm.086.006H.566V.57H.565v.002H.564v.001H.561C.565.568.566.563.568.56c.002.002 0 .005 0 .008zM.58.56v.002L.578.563v.001H.576v.003L.575.568V.57H.574v.002L.572.573v.002H.57v.002c-.002 0-.003 0-.003-.002C.57.572.567.566.572.563L.57.57C.575.568.575.564.578.56H.58zM.462.564H.458v.002H.45L.448.567H.447C.447.563.444.568.444.564c0-.002.004 0 .006 0h.012zm.122.005v.002H.582v.001L.581.574.58.576H.579L.578.579H.577V.58H.575v.001C.572.578.576.575.577.571.58.571.583.563.584.57zM.527.581v.002L.525.585v.001C.531.618.537.544.523.575h.003C.527.576.529.579.527.58z" font-weight="400" fill="#fff"/><path d="M.54.574v.004H.538v.003H.537v.002L.541.581C.54.591.54.581.536.591L.53.59V.588c.002 0 .004.002.006 0L.533.587.539.574zm.01.002V.58H.548v.001L.547.584v.001H.546v.001L.545.587v.001H.544L.543.59H.542v.002H.541v.001H.54v.001C.54.588.546.582.55.576z" font-weight="400" fill="#fff"/><path d="M.539.586h-.01c0-.003.003-.007.005-.01 0 .003.006.007.005.01zM.554.582v.003l.001.001v.001h.001V.59h.001v.003a.046.046 0 01-.014.003C.545.591.551.587.554.582zM.507.588v.004H.505v.001H.504v.001H.5L.503.587c0 .002.003-.001.004 0z" font-weight="400" fill="#fff"/><path d="M.558.595v.001H.555v.001H.553c-.002 0 0-.002-.001-.004L.554.59.557.589c0 .002.003.004 0 .006zM.506.406h.001V.404h.001V.403H.51l.002.003c.003 0 0-.007.005-.004C.523.4.527.405.534.404.535.407.537.411.541.41L.54.414C.543.414.543.411.545.413l.004.002C.55.413.551.412.553.412c.003 0 0 .007.005.004 0 0 0-.003.003-.003v.009C.564.422.564.418.565.416V.414h.003v.01C.571.421.57.418.571.415c.005.002.013 0 .018.006v.01C.593.432.59.422.595.426V.43C.598.428.599.429.6.43.599.43.598.432.599.433L.603.432C.603.436.6.441.596.444L.595.448.592.447C.595.444.591.444.592.44H.589L.585.445C.583.442.589.437.585.435.581.436.581.44.578.44c0 0 .006-.005.001-.005H.576C.573.433.574.437.571.437.571.436.573.433.57.432.567.432.566.438.563.436c0-.002.003-.002.003-.004-.001-.003-.003 0-.005 0s0 .006-.004.003c-.001 0-.004-.003-.005 0C.55.435.549.438.548.436.546.434.547.43.544.429.543.426.546.424.542.422.54.422.54.424.539.425L.538.423.536.424c0-.004.002-.01-.003-.01L.53.415c0 .002.002.004 0 .006A.022.022 0 00.525.418C.523.419.523.42.522.423L.521.42C.52.422.518.425.516.425V.423C.513.423.512.425.511.426.512.424.51.425.51.426.505.425.506.422.504.42a.006.006 0 00-.003.002c0-.002 0-.006-.003-.007-.002.002 0 .007-.002.009C.495.42.496.416.494.413c-.003 0 0 .004-.003.005v.008C.49.423.49.42.488.418c-.002 0 0 .004-.001.006C.479.43.472.437.462.436L.46.437.458.436H.456h.003C.46.43.467.429.467.425c0-.002 0-.003-.002-.004H.463C.466.426.461.428.46.43c0 0-.004 0-.003.003-.001.002-.003 0-.005.001a.039.039 0 01-.01.004c0-.001.004-.002.004-.004C.443.434.444.432.445.43c.001 0 .002-.002.004 0 0 0-.003.001-.002.003 0 .002.003 0 .004 0L.459.424.457.421H.45A.012.012 0 01.46.419L.463.42C.464.415.47.41.472.406c.003-.003.004.003.007 0C.479.404.48.401.484.402c.008 0 .015.002.022.004z" font-weight="400" fill="#fff"/><path d="M.501.897h.02l.02-.002.02-.002.02-.004.02-.004L.618.88l.02-.007.018-.007.017-.008L.69.85.707.84.723.83.738.819.753.807.768.794.782.781.795.767.807.753.82.738.83.723.84.707.85.69.859.673.867.655.874.637.88.62.885.6.89.58.893.562l.003-.02.001-.02v-.02a.396.396 0 10-.396.396z" font-weight="400" fill="none" stroke="#000" stroke-width=".011" stroke-miterlimit="10.433"/></svg>