<svg xmlns="http://www.w3.org/2000/svg" width="73.427" height="50.223"><path d="M16.655 2.043l-.09 12.662c0 5.263-3.13 7.306-7.335 7.306-3.625 0-8.238-1.609-8.238-7.09V2.043C.992 1.33.495.897 0 .649h5.944c-.493.248-.96.681-.96 1.394v12.971c0 2.168.745 5.233 4.766 5.233 3.686 0 5.02-2.415 5.02-5.481l-.061-12.723c0-.713-.371-1.146-.838-1.394h3.593c-.467.248-.808.681-.808 1.394m8.385 19.967c-2.812 0-4.857-.96-5.939-1.484l-.157-5.232c.59 2.196 2.444 5.108 5.666 5.108 3.066 0 3.995-2.198 3.995-3.716 0-2.973-2.698-3.376-5.51-4.892-2.85-1.58-4.088-3.25-4.088-5.603 0-4.21 3.931-5.882 6.75-5.882 1.052 0 3.093.215 4.673 1.145l.153 4.582c-.43-1.64-2.196-4.118-5.17-4.118-2.352 0-3.28 1.641-3.28 2.973 0 1.887 1.333 2.602 4.241 3.932 2.882 1.363 5.883 2.384 5.883 6.689 0 3.869-3.407 6.499-7.217 6.499M41.887 2.197c-.746 0-2.385 0-2.851.063v17.832h2.476c7 0 8.95-4.707 8.95-9.227 0-3.713-2.168-8.668-8.575-8.668zm.368 19.505h-7.954c.463-.28.807-.713.807-1.394V2.043c0-.713-.344-1.146-.807-1.394h8.237c10.183 0 12.225 7.215 12.225 10.216 0 5.388-4.147 10.837-12.508 10.837M61.909 6.688s-2.107 5.263-3.096 7.583h6.254c-1.454-3.437-3.158-7.584-3.158-7.584zm4.89 15.014c.803-.434.961-.867.745-1.516-.095-.31-.899-2.2-1.764-4.304h-7.586c-.93 2.104-1.672 3.931-1.736 4.272-.277.743-.123 1.176.714 1.548h-4.27c.866-.588 1.143-.929 1.45-1.516C54.942 19.009 63.086 0 63.086 0s8.237 19.009 8.793 20.186c.308.649.523.99 1.548 1.516h-6.628" fill="#006"/><g fill="#060"><path d="M72.497 24.675S27.443 23.557.76 37.776c0 0 28.28-11.184 71.738-10.065v-3.036m-71.738 0s15.178.16 24.603 3.675c0 0-19.331-1.598-24.604-.798v-2.877M.76 29.63s10.865-.48 17.413.16c0 0-15.814 1.915-17.414 2.712V29.63"/><path d="M65.03 30.118c-.072-.005-.17.004-.232.005-13.102.251-40.576 1.83-64.026 10.116v9.984h71.733V30.118s-2.784-.086-7.474 0"/></g></svg>