<svg xmlns="http://www.w3.org/2000/svg" version="1.0" width="720" height="627" viewBox="0 0 70.081 60.991"><path d="M5.366.731c21.128-.034 58.61 0 58.687.008 3.921.178 6.211 5.104 4.955 8.868-9.358 16.101-18.536 31.518-28.64 47.941-.955 1.553-2.584 2.345-4.361 2.614-2.542.378-5.24-.471-6.588-2.73C19.585 40.948 10.477 25.404 1.062 9.346-.069 5.939 1.826 1.757 5.366.731" fill="#90c1e9"/><path d="M60.429 22.587c-5.596-1.566-15.845-4.008-26.449 1.83-7.824-4.515-17.147-4.977-24.72-2.631l-1.794-2.66 27.279-5.258 27.747 5.324-2.063 3.395" fill="#5f8bbb"/><path d="M44.958 15.966c-.048.132-.205.173-.29.227-.531.317-1.146.384-1.77.284-.732-.125-1.44-.338-2.115-.071-.129.051-.334.133-.404.296-.203.489.123.929.153 1.396.004.059-.054.226-.167.249-1.263.262-2.252-.599-3.277-1.153-.411-.222-.929-.364-1.364-.133-1.13.593-1.179 1.926-1.823 2.955-.364.592-1.107.616-1.625.415-.511-.205-.599-.897-.458-1.46.108-.442.241-.921.071-1.329-.241-.571-.939-.475-1.43-.268-.765.33-2.119 1.381-2.511.354-.189-.492.58-.851.827-1.371.043-.089.029-.285.007-.287-.947-.176-2.065.47-2.853-.231-.008-.036-.149-.163-.158-.277l8.973-1.691 10.247 1.969-.033.126" fill="#fff"/><path d="M5.446 4.341v1.466c0 .336-.015.672-.273.921-.217.212-.561.29-.865.29-.305 0-.647-.078-.864-.29-.26-.249-.275-.585-.275-.921V4.341h.679v1.374c0 .34.025.707.459.707.437 0 .461-.367.461-.707V4.341h.678m1.206 2.272a.405.405 0 01-.809 0 .4.4 0 01.404-.404c.225 0 .405.177.405.404m1.84-1.602a.704.704 0 00-.449-.173c-.125 0-.291.074-.291.221 0 .149.183.209.301.248l.174.052c.362.106.642.287.642.711 0 .26-.061.524-.269.702-.205.175-.476.246-.74.246-.33 0-.651-.108-.917-.298l.291-.547c.17.152.369.273.604.273.157 0 .327-.084.327-.268 0-.187-.267-.255-.411-.296-.426-.12-.706-.23-.706-.735 0-.531.377-.877.899-.877.265 0 .584.085.817.218l-.272.523m1.477 1.602a.404.404 0 11-.808 0 .404.404 0 01.808 0m2.271-.235h.152c.406 0 .753-.226.753-.734 0-.464-.309-.729-.744-.729h-.161v1.463m-.676-2.037h.961a1.31 1.31 0 011.325 1.303c0 .734-.601 1.306-1.325 1.306h-.961V4.341zm3.279.573v.437h.764v.573h-.764v.454h.806v.571h-1.484V4.341h1.484v.573h-.806m1.902.623h.117c.244 0 .486 0 .486-.317 0-.328-.226-.334-.486-.334h-.117v.651m-.678-1.196h1.039c.561 0 .947.26.947.858 0 .615-.332.885-.923.885h-.385v.865h-.678V4.341zm3.426.806h-.007l-.281.828h.563l-.275-.828m-.475 1.352l-.182.45h-.719l1.003-2.608h.742l.984 2.608h-.726l-.169-.45h-.933zm2.715-.989h.067c.221 0 .469-.041.469-.324 0-.283-.248-.329-.469-.329h-.066v.653m1.49 1.439h-.844l-.639-1.006h-.008v1.006h-.677V4.341h1.013c.516 0 .907.245.907.803 0 .357-.2.671-.571.739l.819 1.066zm1.222 0h-.678V4.914h-.562v-.573h1.801v.573h-.561v2.035m1.093-2.608h.669l.529 1.393.559-1.393h.675l.395 2.608h-.68l-.19-1.5h-.006l-.625 1.5h-.272l-.599-1.5h-.007l-.215 1.5h-.677l.444-2.608m3.792.573v.437h.764v.573h-.764v.454h.805v.571h-1.484V4.341h1.484v.573h-.805m1.225-.573h.677l1.241 1.593h.007V4.341h.68v2.608h-.68L31.24 5.351h-.007v1.598h-.677V4.341m4.084 2.608h-.677V4.914h-.561v-.573h1.8v.573h-.562v2.035m2.568-1.347c0 .448.33.776.734.776.406 0 .738-.328.738-.776 0-.359-.332-.689-.738-.689-.404-.001-.734.329-.734.689m2.18-.006c0 .847-.607 1.439-1.446 1.439-.834 0-1.442-.593-1.442-1.439 0-.79.692-1.343 1.442-1.343.752 0 1.446.553 1.446 1.343zm.991-.682v.437h.746v.573h-.746v1.025h-.677V4.341H41.2v.573h-.821M43.8 6.949h-.676V4.914h-.563v-.573h1.802v.573H43.8v2.035m2.465-1.6V4.341h.677v2.608h-.677V5.883h-.979v1.066h-.678V4.341h.678v1.008h.979m1.797-.435v.437h.765v.573h-.765v.454h.807v.571h-1.486V4.341h1.486v.573h-.807m3.089 2.035h-.68V4.341h.68v2.608m.442-2.608h.68l1.241 1.593h.008V4.341h.678v2.608h-.678l-1.245-1.598h-.004v1.598h-.68V4.341m4.086 2.608h-.678V4.914h-.56v-.573h1.797v.573h-.559v2.035m1.484-2.035v.437h.766v.573h-.766v.454h.809v.571h-1.486V4.341h1.486v.573h-.809m1.902.596h.064c.221 0 .473-.041.473-.324 0-.283-.251-.328-.473-.328h-.064v.652m1.493 1.439h-.843l-.641-1.006h-.008v1.006h-.676V4.341h1.012c.517 0 .907.245.907.803 0 .357-.201.671-.571.739l.82 1.066zm.86 0h-.677V4.341h.677v2.608m1.018-1.347c0 .448.332.776.736.776.406 0 .738-.328.738-.776 0-.359-.332-.689-.738-.689-.404-.001-.736.329-.736.689m2.179-.006c0 .847-.605 1.439-1.444 1.439-.836 0-1.441-.593-1.441-1.439 0-.79.691-1.343 1.441-1.343.752 0 1.444.553 1.444 1.343zm.993-.086h.064c.221 0 .473-.041.473-.324 0-.283-.251-.328-.473-.328h-.064v.652m1.493 1.439h-.845l-.639-1.006h-.008v1.006h-.677V4.341h1.011c.519 0 .909.245.909.803 0 .357-.201.671-.571.739l.82 1.066zM9.221 9.273h.067c.16 0 .324-.028.324-.221 0-.214-.186-.226-.349-.226h-.042v.447m0 .942h.078c.177 0 .477.01.477-.246 0-.275-.296-.247-.493-.247h-.062v.493zm-.6.46V8.368h.858c.41 0 .684.161.684.6 0 .207-.067.378-.253.471v.004c.331.046.47.27.47.591 0 .483-.412.642-.834.642h-.925v-.001zm4.074-2.307v1.298c0 .295-.013.589-.242.813-.192.189-.497.258-.765.258-.27 0-.572-.068-.764-.258-.231-.225-.243-.519-.243-.813V8.368h.601v1.215c0 .302.022.628.406.628.386 0 .406-.326.406-.628V8.368h.601m.979 1.036h.058c.196 0 .415-.038.415-.292 0-.249-.219-.285-.415-.285h-.058v.577m1.318 1.271h-.747l-.566-.887h-.005v.887h-.601V8.368h.896c.458 0 .801.218.801.712 0 .318-.176.592-.502.647l.724.948zm.762-1.8v.387h.676v.507h-.676v.397h.713v.509h-1.312V8.368h1.312v.507h-.713m2.089.205h-.005l-.248.736h.5l-.247-.736m-.418 1.194l-.16.4h-.637l.889-2.307h.655l.868 2.307h-.639l-.15-.4h-.826zm3.804-1.906v1.298c0 .295-.014.589-.241.813-.192.189-.497.258-.765.258-.271 0-.572-.068-.767-.258-.228-.225-.24-.519-.24-.813V8.368h.6v1.215c0 .302.022.628.407.628.385 0 .407-.326.407-.628V8.368h.599m1.935 1.114c0 .398.294.688.652.688.359 0 .652-.289.652-.688 0-.317-.293-.609-.652-.609-.358 0-.652.292-.652.609m1.929-.005c0 .748-.535 1.279-1.277 1.279-.74 0-1.276-.531-1.276-1.279 0-.697.612-1.185 1.276-1.185.665 0 1.277.487 1.277 1.185zm.88-.602v.387h.655v.507h-.655v.906h-.601V8.368h1.325v.507h-.724m2.708 1.291h.718v.509h-1.318V8.368h.6v1.798" fill="#437657"/><path d="M30.601 9.08h-.006l-.246.736h.498l-.246-.736m-.419 1.194l-.158.4h-.638l.888-2.307h.654l.869 2.307h-.64l-.149-.4h-.826zm1.802-1.906h.599l1.1 1.414h.006V8.368h.6v2.307h-.6l-1.098-1.413h-.008v1.413h-.599V8.368m3.294 1.798h.137c.358 0 .664-.197.664-.646 0-.412-.273-.646-.657-.646h-.143v1.292m-.599-1.798h.852c.644 0 1.172.505 1.172 1.152a1.16 1.16 0 01-1.172 1.154h-.852V8.368zm3.606 0h.589l.469 1.232.494-1.232h.6l.348 2.307h-.602l-.167-1.329h-.006l-.554 1.329h-.238l-.531-1.329h-.006l-.191 1.329h-.597l.392-2.307m3.76.712h-.008l-.245.736h.499l-.246-.736m-.42 1.194l-.159.4h-.636l.887-2.307h.656l.869 2.307h-.642l-.149-.4h-.826zm1.804-1.906h.599l1.098 1.414h.008V8.368h.599v2.307h-.599l-1.102-1.413h-.004v1.413h-.599V8.368m3.701.712h-.006l-.245.736h.497l-.246-.736m-.418 1.194l-.159.4h-.635l.885-2.307h.656l.869 2.307h-.64l-.149-.4h-.827zm4.104-.888c-.006.338-.032.626-.237.911-.225.319-.565.459-.951.459-.726 0-1.23-.497-1.23-1.221 0-.752.509-1.243 1.252-1.243.475 0 .841.211 1.04.646l-.569.237c-.084-.217-.257-.366-.499-.366-.394 0-.599.376-.599.73 0 .357.213.72.609.72.259 0 .457-.135.483-.4h-.489v-.473h1.19m.873-.511v.387h.678v.507h-.678v.397h.716v.509h-1.315V8.368h1.315v.507h-.716m1.339-.507h.591l.467 1.232.495-1.232h.599l.349 2.307h-.603l-.167-1.329h-.006l-.554 1.329h-.238l-.529-1.329h-.006l-.193 1.329h-.597l.392-2.307m3.354.507v.387h.676v.507h-.676v.397h.712v.509h-1.311V8.368h1.311v.507h-.712m1.082-.507h.599l1.098 1.414h.008V8.368h.601v2.307h-.601l-1.098-1.413h-.008v1.413h-.599V8.368m3.615 2.307h-.599v-1.8h-.497v-.507h1.593v.507h-.497v1.8" fill="#437657"/><path d="M40.361 57.569c-.953 1.553-2.58 2.349-4.359 2.614-2.542.382-5.239-.467-6.587-2.73-5.759-9.652-13.621-22.827-19.086-32.128l49.501.135c-5.572 9.384-13.473 22.365-19.469 32.109" fill="#acce64"/><path d="M22.004 45.674c4.358-.133 6.086-.7 7.286-1.134 1.471-.531 2.062-.994-.732-2.124-2.322-.941-9.86-2.18-2.329-5.525 1.196-.531 1.675-.563 2.428-.865 0 0-.033-.43-1.164-1.029-1.131-.603-3.394-1.829-5.723-2.3 0 0-.666-.262-1.464-.463-.798-.201-.598-.201-1.73-.398-1.13-.2-1.53-1.131.6-1.931 2.128-.799 5.305-1.728 9.497-1.878l-.747.649s-.134-.101-1.298.062c-1.881.271-4.625 1.448-5.254 1.898-.235.169.064.334.464.398.398.068 6.968.946 11.377 3.396 2.397 1.331 3.354 1.641-.865 2.795-1.829.498-3.717 1.906-3.327 2.062.666.266 4.425 1.029 6.09 1.963 1.661.929 5.155 2.095-1.367 7.352 0 0-5.321 2.996-7.783 3.526l-3.959-6.454" fill="#5f8bbb"/><path d="M56.705 29.105H27.493c6.188-6.118 17.899-11.379 33.268-6.388l-4.056 6.388" fill="#70b466"/><path d="M56.705 29.105H27.493c6.188-6.118 17.899-11.379 33.268-6.388l-4.056 6.388z" fill="none" stroke="#437657" stroke-width=".532"/><path d="M33.282 23.984c-3.911-1.85-7.154-3.354-14.671-3.527-4.291-.101-7.659.825-9.351 1.329l3.264 5.522h16.947c1.068-.93 3.877-2.66 4.426-2.926l-.615-.398" fill="#70b466"/><path d="M33.282 23.984c-3.911-1.85-7.154-3.354-14.671-3.527-4.291-.101-7.659.825-9.351 1.329l3.264 5.522h16.947c1.068-.93 3.877-2.66 4.426-2.926l-.615-.398z" fill="none" stroke="#437657" stroke-width=".532"/><path d="M42.529 55.321l11.28-18.829s-2.696-.933-2.497-5.255c0 0 2.397 1.459 3.394-.734 0 0-2.26.268-3.193-2.062-.933-2.329-1.263-4.657-1.199-5.92 0 0 1.663 1.927 3.395.664 0 0-3.129-1.066-3.66-3.527-.533-2.461-.798-3.125-.798-3.923 0 0 .666.066.931.464 0 0 .675.189-.99-1.604 0 0-.257-.733-.209-1.697.036-.68-.165-.752-.223-.752l-.191.137c-.334.334-.133.964-.31 1.507 0 0-1.138.946-1.202 1.747 0 0 .33-.135.73-.467.398-.334.265-.137.265.332 0 .465-.4 2.129-.597 2.395-.201.266-1.466 1.661-2.131 1.862 0 0 1.098.898 2.296-.233 0 0-.833 3.959-2.827 5.092-1.995 1.134-2.596.798-2.596.798s.731.931 2.328.467c0 0 0 .464-.332.798 0 0 1.729-.266 2.463-.866 0 0 .071 3.492-3.46 5.59-3.362 1.997-4.06 1.664-4.06 1.664s2.894 2.694 6.951-.765c0 0-.231 4.025-4.021 5.888-3.792 1.862-5.125 1.263-5.458 1.13 0 0 .302 1.798 2.96 1.729l-.432.467s2.596.667 5.389-1.263c0 0-.73 6.188-4.124 8.852-3.392 2.658-5.523 2.854-5.855 2.854 0 0 2.099 2.542 5.723.732 1.13-.563 1.862-.86 1.862-.86s-1.297 4.757-3.125 6.816l3.523-3.228" fill="#437657"/><path d="M5.36.731C26.827.76 63.97.744 64.046.748c3.925.177 6.215 5.104 4.957 8.867-9.358 16.103-18.534 31.518-28.642 47.942-.953 1.552-2.58 2.349-4.359 2.613-2.542.383-5.239-.47-6.587-2.73C19.581 40.956 10.473 25.412 1.06 9.354c-1.134-3.407.763-7.597 4.3-8.623z" fill="none" stroke="#437657" stroke-width="1.464"/></svg>