<svg xmlns="http://www.w3.org/2000/svg" height="424" width="424" preserveAspectRatio="none" viewBox="0 0 0.589 0.589"><g transform="translate(.002 .002)"><circle opacity=".99" fill-rule="evenodd" cy=".292" cx=".292" r=".292" fill="#009"/><path d="M.392.1L.386.095.38.094.374.09H.368L.362.087.356.085.35.083.344.08H.338L.33.078H.325L.318.075H.305L.298.074H.292A.217.217 0 10.425.12" stroke="#fefc01" stroke-linecap="square" stroke-miterlimit="10.433" stroke-width=".001" fill="none"/><path d="M.298.011L.293.016h.01L.298.011zm-.018 0L.275.017l.01-.001L.28.011zm.035 0L.309.018h.01L.315.012zm-.05.001L.258.018.27.017.265.012zM.33.014L.325.018l.01.001L.331.014zm-.083 0L.244.02l.01-.002L.248.014zm.099.002L.34.021l.01.001L.347.016zM.232.017L.228.024.238.02.232.017zm.13.003L.357.024l.01.002L.363.02zM.217.021L.213.028l.01-.003L.216.02zm.162.004L.372.028l.01.003L.378.025zM.201.026L.197.033l.01-.004L.201.026zm.086 0L.283.035h.002C.287.031.29.028.295.028s.003.003.003.006v.02c0 .004-.001.005-.006.005v.002h.015V.06H.303V.058H.302V.033c0-.003 0-.006.003-.006.004 0 .008.004.01.009h.002L.314.027H.287zM.263.028L.25.031v.001c.004 0 .005 0 .005.006l.003.018C.26.06.258.062.255.063v.002L.28.06.281.05H.279C.277.057.275.06.27.061.265.06.264.06.263.056L.26.037C.259.032.26.03.263.03V.028zm.064 0V.03C.33.03.33.032.33.037L.326.055C.326.06.324.061.321.061v.001l.013.003V.063C.33.063.33.061.33.056L.333.048.347.05.345.06C.345.064.343.065.34.064v.002l.013.003V.067C.349.067.349.065.35.06L.353.042C.354.037.355.036.36.036V.035L.346.032v.002C.349.034.35.036.349.04L.347.048.333.046.334.038C.335.033.336.032.34.033V.03L.327.028zM.394.03L.387.033l.01.004L.394.03zM.185.032L.183.039l.01-.005L.184.032zm.042.003L.223.037.22.064c0 .004 0 .008-.004.009v.002L.23.07C.227.07.224.07.224.068V.06L.236.057l.003.005.001.002C.241.067.238.067.237.068v.001L.25.065V.064H.247L.242.056.227.035zm.182.002L.402.039l.01.004L.408.037zM.17.038L.168.045l.01-.004L.17.038zm.055.003l.01.013-.01.003V.041zm.198.003L.416.046l.01.005L.422.044zM.156.046L.154.053l.01-.005L.155.046zm.04 0l-.022.01c.004 0 .005 0 .007.005l.007.017C.19.083.19.084.186.086h.001L.21.078v-.01C.207.076.207.078.199.08.195.082.194.081.193.078L.19.068V.067C.194.065.198.064.2.07h.001L.196.056H.195C.196.062.194.064.19.065L.188.066.185.058C.183.054.183.053.187.051.194.05.196.05.202.053V.052L.198.046zM.4.05a.008.008 0 00-.01.006v.007H.387a.017.017 0 00-.01.007C.369.077.378.08.383.082a.018.018 0 00.01.002c0 .002.001.004.004.005a.013.013 0 00.01 0L.405.088H.4A.007.007 0 01.397.082.036.036 0 00.405.077C.408.074.41.074.412.075V.074L.403.069H.4c.002.002.004.003.003.005a.015.015 0 01-.007.007L.395.065c.004 0 .01 0 .012-.004C.409.058.407.054.403.052a.01.01 0 00-.004 0zm.038 0L.43.055.44.06.436.052zM.4.054h.002v.001h.001v.002h.001V.06C.401.063.397.064.393.063c0-.002 0-.005.002-.007A.005.005 0 01.4.053zm-.258 0L.14.061.15.056.141.054zM.45.061L.444.062l.008.006L.451.061zM.422.062v.002l.002.007A.027.027 0 01.42.08a.035.035 0 01-.006.01v.003a.07.07 0 01-.019.014.37.37 0 01-.054.037l-.033.02a4.737 4.737 0 00-.046.028.144.144 0 00-.02.016L.24.211a.068.068 0 00-.01.013.044.044 0 00-.005.016L.217.27v.004H.215v.003L.214.278V.28H.212v.002L.21.284v.001L.208.286v.001H.205v.001H.203v.001H.199V.29H.185A.262.262 0 00.143.288.046.046 0 00.135.29a.019.019 0 00-.006.005A.013.013 0 00.126.3v.006c0 .002 0 .005.002.008A.01.01 0 01.132.309L.134.308A.021.021 0 01.141.306h.005c.01 0 .02.002.031.004l.009.002L.21.311A.05.05 0 00.217.308.048.048 0 00.227.3.042.042 0 00.233.29.06.06 0 00.237.278l.002-.01L.24.263A.13.13 0 01.248.238a.067.067 0 01.017-.02.095.095 0 01.014-.01.663.663 0 01.065-.044L.395.13a1.149 1.149 0 00.03-.02.07.07 0 00.008-.014A.027.027 0 00.437.08.02.02 0 00.433.071.026.026 0 00.425.064L.424.063H.422zM.128.063V.07L.135.064.128.063zm.034 0L.15.07l.001.001C.154.07.156.071.158.075L.162.08.15.09.146.082C.143.078.143.076.146.074L.133.08v.001C.139.08.14.081.143.085L.152.1C.153.105.153.106.15.108V.11L.164.103V.1C.158.103.157.102.154.098L.151.091.163.083.168.09C.17.095.17.096.168.098V.1L.18.093.179.09C.176.093.174.093.172.088L.162.072C.16.068.16.066.162.065V.063zm.227.002H.39c0 .006 0 .012.002.017a.01.01 0 01-.006 0V.08H.383V.078H.382V.076H.381V.07A.007.007 0 01.39.064zM.464.07H.457l.008.007L.464.07zM.115.073V.08L.123.074.115.073zM.476.08H.47l.008.007V.081zM.103.084V.09L.11.084H.103zM.46.09v.001C.462.094.462.095.46.1L.447.113C.444.117.442.117.44.115L.439.116l.01.009V.124C.448.12.448.12.452.116L.456.11l.011.01-.005.006C.458.13.457.13.454.128l.01.01V.137C.461.134.462.133.465.129L.477.115C.481.111.482.111.485.113h.001l-.01-.01-.001.001C.478.107.477.108.474.112L.469.118.458.108.463.102C.466.098.468.098.47.1h.002L.462.09zm.027.002H.481L.488.1V.092zm-.39.002H.092v.008L.1.094zm.017.004L.097.115l.001.001C.101.114.102.114.106.118l.012.013C.122.135.122.136.12.14L.13.13H.127v.001H.123V.13L.122.128H.121L.116.12h.001C.12.117.123.114.127.118h.001l-.01-.01C.12.113.119.116.116.12H.115L.109.115C.106.11.105.11.108.107.113.102.116.102.123.103V.102L.115.098zm.377.006L.5.11V.104H.493zM.087.106H.08v.008L.088.106zm.416.01l.006.008L.51.116H.503zM.077.118L.07.12v.007L.077.118zm.419.005H.494C.496.128.496.129.491.132L.48.14C.473.143.473.15.477.155c.005.007.01.008.017.003L.506.15C.51.147.51.147.513.15h.002L.508.14v.006H.506v.001H.505v.001H.504l-.01.008C.488.16.483.163.478.156.475.15.479.146.484.142l.01-.007C.498.132.5.13.502.135L.503.133.496.123zm.017.005l.006.009V.129H.514zM.41.13v.012C.363.2.262.204.257.292l.002.003C.264.302.252.313.249.318.242.324.242.328.256.332A.02.02 0 01.255.34c0 .002.003.005.003.005C.26.347.257.349.258.35c0 .003.003.002.006.007-.008.034.041 0 .05.029C.311.41.282.407.27.427.26.45.275.456.275.457h.001L.278.46h.004l.001.001h.002l.002.001h.017L.306.46H.31V.458h.004L.315.455h.001L.318.454.32.452.323.45C.312.447.302.452.292.437.288.405.323.41.34.395.353.355.294.376.291.362.291.362.288.36.29.353.289.35.29.348.286.345.284.34.286.342.286.34.285.337.282.34.282.337V.328C.278.326.271.326.271.322c.006-.01.01-.019.01-.016V.3C.28.293.276.286.285.277.295.229.355.22.385.19.401.177.422.17.425.147.422.141.42.131.41.13zM.067.131L.06.132.062.14.067.13zM.09.133a.014.014 0 00-.011.005C.072.146.076.156.083.161l.002.001h.001v.001h.002v.001h.003l.001.001H.1L.102.163h.001V.162h.001V.161L.106.16h.001C.112.15.11.141.101.136A.02.02 0 00.09.133zM.086.136C.09.136.095.14.098.141.103.144.11.15.105.158V.16H.102L.101.162h-.01V.16H.09V.158H.088L.087.157.086.156C.08.153.074.146.078.139A.008.008 0 01.086.136zm.436.005l.005.01L.53.142.522.14zM.059.144L.05.146l.002.007L.06.144zm.47.011l.006.01.002-.008L.53.155zM.05.158L.043.16l.003.007.004-.01zM.522.16H.52C.522.165.521.166.516.168L.5.176C.495.178.494.178.492.174H.49l.004.01h.002C.495.181.496.18.5.178l.02-.01-.023.024v.001L.533.191l-.02.01C.505.203.504.203.502.199l.005.013h.001V.206H.51V.205h.002V.204h.001L.53.197C.535.195.536.195.538.198L.536.188l-.03.003.02-.021L.523.16zm.015.008l.005.01.003-.007L.537.169zM.043.172L.036.175.04.182l.004-.01zM.057.18l-.01.025.006.006h.001C.051.205.049.2.051.196c.001-.003.004-.002.006 0l.018.007C.08.206.08.207.079.21h.002L.086.199H.085L.083.2H.076L.059.192C.057.192.054.191.055.188A.013.013 0 01.066.18V.179h-.01zm.346.002zm0 0v.004a.035.035 0 01-.008.02.046.046 0 01-.01.009.062.062 0 01-.007.004.343.343 0 00-.015.009C.345.237.331.248.323.253a.05.05 0 01-.005.003.043.043 0 00-.009.01.041.041 0 00-.002.002.02.02 0 00-.003.007v.004A.222.222 0 00.3.297l.002.007A.007.007 0 01.3.308L.294.315.292.318l.002.004h.004l.003.001v.001L.303.33a.005.005 0 00.002.002v.006L.306.34l.003.003.002.002L.31.348V.35a.017.017 0 00-.001.003.008.008 0 000 .002.006.006 0 00.002.003.009.009 0 00.003.002.02.02 0 00.006.002.05.05 0 00.013 0A.106.106 0 00.344.36L.35.358a.195.195 0 01.021.004.03.03 0 01.006.004.02.02 0 01.003.002L.382.37a.033.033 0 00.011.007.057.057 0 00.018.003.036.036 0 00.012 0A.028.028 0 00.436.37.614.614 0 01.447.357H.443v.001H.44L.439.359H.433V.36H.422V.357H.42V.356A.312.312 0 00.393.345H.388A.033.033 0 01.384.342a.048.048 0 00-.019.002.096.096 0 00-.015.004.04.04 0 01-.007.001H.338A.006.006 0 01.337.348L.335.346V.338A.002.002 0 00.332.336a.01.01 0 01-.002 0V.33H.328V.326a.02.02 0 000-.002H.327V.323H.324V.321H.322L.32.32A.005.005 0 01.319.316L.32.312A.022.022 0 00.323.31V.307L.326.304A.01.01 0 00.324.299.022.022 0 01.326.284.031.031 0 01.331.277.078.078 0 01.35.261.227.227 0 01.367.25L.383.24A.297.297 0 00.406.224.048.048 0 00.413.216.028.028 0 00.416.208.022.022 0 00.415.197.027.027 0 00.41.189.039.039 0 00.404.182zm.141.003l.004.01.003-.008L.544.184zM.037.187L.03.19l.003.006.004-.01zM.55.199l.004.01.003-.007L.55.199zM.03.202L.025.205l.004.007.003-.01zm.525.012l.003.01L.56.217.555.214zM.51.217H.509L.512.23h.002C.514.225.513.223.515.222h.009l.003.012-.005.003L.519.24C.517.24.517.238.516.236H.515L.518.25H.52V.246L.526.241.55.226.546.222.52.221c-.003 0-.007 0-.008-.004zm-.485 0L.02.22l.004.006.002-.01zm.016 0L.04.227v.002C.042.225.043.224.05.225L.066.23.037.24.035.25h.002c0-.003.002-.003.007-.002L.062.25c.005.002.006.002.006.006h.001l.002-.01H.07C.069.248.068.248.063.247L.043.244.074.23V.228L.049.223C.044.223.043.221.043.218H.042zm.484.007h.017l-.014.01-.003-.01zM.56.229V.24L.565.233.56.23zM.022.232L.016.237l.005.006.001-.01zm.54.013l.002.01L.568.25.562.245zM.019.248L.014.253l.004.005.001-.01zm.533.003C.552.255.55.255.546.256L.527.258c-.005 0-.006 0-.006-.004H.519l.001.01h.002c0-.003 0-.004.006-.004l.02-.002L.522.28v.001L.548.28c.005 0 .007 0 .007.004h.001V.273H.553c0 .004-.001.004-.006.005L.53.279.554.26V.25H.551zm-.03.014zM.564.26l.001.01L.57.265.564.261zM.042.263L.034.266.033.29h.001c0-.003.002-.004.007-.004l.018.001c.006 0 .007.001.007.005h.001L.068.267.06.263.059.264C.065.269.066.27.066.278c0 .004-.001.005-.005.005L.051.282V.28c0-.004 0-.008.006-.007V.272L.043.27v.001C.048.272.05.276.05.28v.002H.04c-.004 0-.004 0-.004-.006C.035.27.037.268.043.264L.042.263zm-.025 0L.012.27l.005.005v-.01zm.549.014v.01L.571.28.566.277zM.016.28L.011.285.016.29V.28zm.55.013v.01L.571.298.566.293zm-.55.003L.011.3l.006.005v-.01zM.066.3v.003H.064v.001H.062L.061.306H.06L.04.307C.036.308.035.307.034.304H.033v.01l.03.007-.027.014.001.01H.04C.04.341.04.34.046.339L.063.337c.005 0 .006 0 .007.004V.33H.068c0 .004-.001.005-.006.005L.04.338.07.322V.32L.036.313.06.31c.005 0 .006 0 .007.004h.001L.067.3zM.53.307L.52.309c.001 0 .002.002.001.003L.52.319c0 .006.003.011.009.012C.535.33.538.326.54.32.541.316.544.312.548.313.55.314.554.317.553.32c0 .005-.005.008-.009.01v.001L.554.33V.327a.01.01 0 010-.002A.01.01 0 00.555.32C.555.315.552.311.546.31.534.308.536.328.526.327.522.327.52.323.521.319.52.314.526.311.53.31V.306zm.035.002v.01L.57.314.565.309zM.017.312L.012.318l.006.004-.001-.01zm.096.005A.04.04 0 00.102.32a.018.018 0 00-.009.006v.002C.09.332.09.337.09.337A.025.025 0 01.098.334a.035.035 0 01.005 0 .052.052 0 01.015.001.104.104 0 01.024.008.232.232 0 01.04.02l.02.011h.001l.001.001.003.002.007.004a.215.215 0 01.02.011.051.051 0 01.01.009.02.02 0 01.004.014.02.02 0 01-.002.008.056.056 0 01-.007.006L.226.438A.056.056 0 00.22.445a.029.029 0 00-.005.01.031.031 0 00-.001.013.02.02 0 00.004.01.069.069 0 00.01.009.036.036 0 00.017.002A.042.042 0 00.26.485.048.048 0 00.27.479H.265A.078.078 0 01.257.475H.256A.023.023 0 01.248.47.023.023 0 01.243.46L.241.445C.241.44.242.439.244.437A.034.034 0 01.251.43.03.03 0 01.254.427L.261.424A.07.07 0 00.27.416.032.032 0 00.277.408a.015.015 0 000-.006.021.021 0 00-.003-.005A.042.042 0 00.27.39.125.125 0 00.24.369L.232.364.225.362.218.358.212.355.205.352.198.349.185.342.172.336.166.333.159.33.152.328.145.325.138.322.13.319A.108.108 0 00.113.317zm.45.007v.01L.568.33.564.324zM.019.328L.014.334.02.338.018.328zm.5.008L.51.361l.008.005C.515.359.514.358.516.35.515.346.517.346.52.347L.53.35v.002C.53.355.529.359.523.357V.36l.012.003C.532.358.532.355.533.351V.35l.01.002C.545.354.545.354.544.36.543.365.54.366.535.369V.37h.009L.55.345C.548.349.546.349.54.348L.523.343C.52.34.517.34.52.337H.517zM.56.34v.01L.566.347.56.34zM.02.344L.017.35l.006.003-.002-.01zm.026.008L.04.358l.008.026h.01C.052.381.047.38.046.374.046.372.049.372.05.371L.07.365C.075.364.076.364.077.368H.08L.074.353H.073V.36H.068l-.02.007S.046.369.045.366C.042.36.044.356.048.353H.047zm.402.002L.447.356h.001L.45.354zm.11.002l-.003.01.006-.004L.558.356zM.024.359L.02.366l.007.003L.025.36zm.482.012L.502.383h.001C.505.38.506.38.511.384l.008.003L.517.39H.498L.495.398h.001C.498.396.5.396.503.396L.516.394c-.002.004 0 .01.004.011C.526.408.53.402.533.397L.54.384H.537C.535.388.533.387.53.385L.513.378C.508.376.507.375.508.37H.507zm.047 0L.55.381.557.378.554.37zM.029.374L.026.381l.006.003L.03.374zm.053.003L.081.378C.083.382.08.382.08.385L.073.396C.07.392.065.39.06.392.055.395.056.402.059.407L.065.42.067.419C.065.415.067.414.07.412L.087.404C.09.4.093.4.094.404h.002L.09.392H.088C.09.397.09.398.085.4L.077.404.075.4l.01-.017L.083.377zm.438.01L.53.39c.003.002.004.002.003.006C.53.4.526.402.522.4.517.398.517.393.519.388L.52.386zm.029 0l-.004.01.007-.004L.549.386zM.034.388L.031.396.038.4.034.389zm.033.007c.003 0 .006.003.007.006l.001.002L.067.41C.064.41.063.41.061.407S.059.4.063.397L.067.396zM.543.4L.539.41.546.407.543.401zM.04.404L.038.411l.007.003L.04.404zm.058.004H.097v.004L.093.42.078.44.08.444.107.435c.003 0 .007-.002.01.002V.436L.112.426H.11c0 .002.002.005 0 .006a.037.037 0 01-.006.002H.102L.095.425.098.42.1.418C.102.416.104.419.105.42L.099.407zm.387.004L.484.414l.015.02.004.008-.001.003.001.001.007-.01H.509C.507.435.506.438.505.436.503.437.5.434.5.433L.49.418l.02.006h.003c.002.002 0 .004 0 .005L.514.43.522.418H.521A.008.008 0 01.518.42H.513L.485.412zm.051.004L.531.425.538.423.536.416zM.047.419L.045.426l.008.002-.006-.01zm.046.008L.1.435.084.44l.01-.013zM.528.43L.523.439.53.437.528.43zm-.057 0L.463.44v.002h.001V.44H.47v.001l.001.001.015.012C.49.458.49.46.488.462v.001l.01-.01L.496.45C.494.455.493.454.49.451L.475.439C.47.435.47.434.472.43zM.055.433L.054.44H.06L.055.433zm.465.01L.514.452.521.45.52.443zM.064.446L.063.453.07.454.064.446zm.065.002v.007H.127v.001H.126v.001L.12.463.118.46C.113.455.108.45.102.456.097.461.099.466.102.47l.012.012.001-.001C.112.478.113.477.117.473L.13.461C.134.457.135.456.138.459L.13.448zm.327.005a.014.014 0 00-.01.004C.441.461.441.467.443.473h.001C.443.47.443.463.447.46.452.455.46.46.466.464.47.468.475.476.469.48.466.485.459.485.455.484v.001L.463.49c0-.001 0-.002.002-.003L.467.485A.008.008 0 00.471.483.013.013 0 00.474.47.023.023 0 00.468.458.017.017 0 00.456.453zM.51.456L.505.465.512.464.51.456zm-.4.002c.002 0 .005.002.007.005H.12L.113.47C.11.473.109.474.106.471.102.468.1.464.105.461.107.457.109.457.11.457zM.072.459v.007H.08L.073.46zm.074.006L.138.47H.14C.146.469.149.469.155.473c.003.003.003.004 0 .007L.15.489.147.487C.144.485.141.483.145.477H.144l-.008.01V.49C.14.486.143.487.146.49h.002L.142.498C.14.5.14.5.135.497.13.495.13.492.13.485H.128L.126.493l.02.015V.506C.143.504.144.503.146.5L.159.484C.161.48.163.48.166.482V.48L.147.465zM.5.469L.494.477H.5V.468zM.083.47v.01h.008L.083.47zm.348 0L.41.487l.002.01C.415.487.415.485.42.48.424.479.425.479.427.482l.006.009-.001.001c-.003.002-.006.005-.01 0H.421l.008.011C.428.498.43.496.434.493h.001L.44.498c.003.004.003.005 0 .008C.432.51.43.51.423.508V.51L.43.514.451.5.45.498C.447.501.446.5.443.496L.432.48C.429.477.429.475.432.473L.43.472zM.49.48L.483.488H.49V.48zM.094.483V.49h.008L.094.483zM.18.492A.019.019 0 00.165.5a.016.016 0 000 .015.021.021 0 00.008.009L.185.53C.182.528.182.526.185.522L.194.506C.196.5.198.5.2.502V.501L.192.495A.021.021 0 00.18.492zm.299 0L.47.499h.01V.492zm-.08.001a.004.004 0 01-.002.003c-.002 0-.005 0-.008.002C.384.5.382.506.385.512S.395.517.4.516C.404.515.41.514.41.518a.006.006 0 01-.002.009C.404.529.398.527.395.525H.394L.4.533.402.53h.003L.408.527C.413.525.415.52.413.515.407.504.393.518.387.508.385.505.387.501.39.5.395.497.4.5.405.501V.5L.399.493zm-.216 0l.006.003H.19v.001h.001v.005L.19.504.18.52C.179.524.178.525.175.523.165.518.166.51.17.503.173.499.178.494.183.494zM.106.495v.007h.008L.106.494zm.36.008L.46.51h.007V.503zM.119.505v.007L.127.511.118.505zm.336.007L.446.518.453.52.454.512zM.13.514l.002.008L.139.52.13.514zm.11.002v.001c.004 0 .004.002.003.007L.24.54C.238.547.242.552.249.553.257.555.262.552.264.543L.267.53c0-.005.001-.006.005-.005V.522L.262.52v.002h.002v.006L.262.542C.26.548.258.553.25.551.243.55.243.544.245.538L.248.525C.248.52.249.52.253.52V.518L.242.516zm.084.002L.32.519.315.546c0 .003-.002.007-.006.008v.001L.322.554V.552C.318.552.316.552.316.55V.543L.319.542.33.54l.003.006v.003C.334.55.332.55.33.55v.002L.344.55.34.549.336.542.324.518zM.216.519C.214.52.212.521.212.523s.002.004.004.004h.001L.219.525V.524H.22V.523A.004.004 0 00.216.518zm.146 0H.36a.004.004 0 00-.002.006.003.003 0 00.002.002.004.004 0 00.002 0h.002V.525h.001V.523A.004.004 0 00.363.52zM.289.521c-.006 0-.01.004-.01.01 0 .012.02.006.02.017C.298.552.294.555.29.555S.282.55.28.547H.278l.003.01.003-.002.008.001a.01.01 0 00.01-.01C.302.539.296.537.29.536.287.533.282.532.282.528S.285.523.288.523C.293.523.297.527.3.53L.297.52.295.522H.292L.29.52zm.152 0L.432.527.44.53V.52zM.322.523L.33.538.319.54.321.523zm-.178 0L.146.53h.007L.143.523zM.427.53L.418.535l.007.002L.427.53zm-.27 0L.16.54.167.536.157.531zm.256.006l-.01.005.008.002.002-.007zM.172.54l.002.007.007-.003L.171.54zm.227.005l-.01.004.007.003.003-.007zm-.213 0L.19.552.196.549.186.545zM.384.55l-.01.003.007.003L.384.55zM.2.55l.004.008L.21.554.201.551zm.17.006L.36.559l.006.003L.37.555zm-.153 0L.22.563.226.558.216.556zM.353.56h-.01L.35.565.353.559zm-.121 0l.004.007L.242.56h-.01zm.106.003l-.01.002.005.004.005-.006zm-.09 0l.004.006.006-.004-.01-.001zm.074.002l-.01.001.005.005.005-.006zm-.058 0L.268.57.274.565h-.01zm.042.001l-.01.001L.3.571.306.565zm-.027 0l.006.006L.29.566H.28z" fill="#fefc01"/></g></svg>