<svg xmlns="http://www.w3.org/2000/svg" height="365" width="365" preserveAspectRatio="none" viewBox="0 0 0.507 0.507"><g stroke-miterlimit="10.433"><circle opacity=".99" stroke-linejoin="round" stroke-width=".003" fill-rule="evenodd" stroke="#000" cy=".254" cx=".254" r=".249" fill="#fff"/><path d="M.282.23v.173h.016V.23H.282zm-.166 0L.111.246H.093l.015.011-.006.018.014-.011.015.01L.126.258.14.247H.122L.116.23zm.099.001v.173H.23V.23H.215zM.192.25v.153h.016V.25H.192zm.113 0v.153h.016V.25H.305zm.023.017v.128h.015V.267H.328zm-.158 0v.128h.015V.267H.17zm.068.007v.129h.015V.274H.238zm.022 0v.129h.015V.274H.26z" fill="#1ea271"/><path d="M.236.024l-.02.002.003.03L.24.053V.05L.223.052.222.042.237.04V.036L.22.04V.029L.236.027V.024zm.014 0v.03h.004V.03L.27.054h.004v-.03H.27v.024L.254.024H.25zm.032 0v.004l.01.001-.004.026.004.001L.296.03l.009.001V.028L.282.024zm-.08.004L.197.03.196.056.18.035.175.036l.009.029.004-.001L.18.04l.014.02H.2V.034l.008.023H.21L.202.028zm.126.008H.325L.323.037.32.04H.319L.318.043H.316v.003L.315.049v.01l.002.002v.001L.32.063v.001l.002.001h.003l.001.001h.008L.336.065.339.063.34.06.342.058V.055L.344.051V.044L.34.042V.04L.338.039.337.038.334.036H.328zM.166.038l-.02.01v.003l.01-.004.011.024.004-.002L.159.045.168.041.166.038zM.328.04h.007l.001.002.002.002.001.002v.008L.338.057.337.059.335.06.333.062H.331v.001H.324L.323.061.32.06.318.058V.045L.322.044V.042h.002V.04h.004zm.027.007L.341.073l.004.002L.35.063.364.07.365.067.353.06.357.05l.014.01.002-.004-.018-.01zm-.22.007L.132.055.119.063l.016.025L.14.087.13.076.14.07h.004l.002.002.004.005h.001v.001L.156.076.155.075H.153L.152.074.15.07V.068L.147.067H.145L.143.065.144.064V.06L.143.056H.142L.139.054H.136zm.001.004h.002V.06H.14v.007H.138l-.01.006L.125.064.132.06h.004zm.252.007L.37.089l.004.002.007-.01.013.008L.386.1l.003.002.017-.024L.403.076l-.007.01L.384.077.39.067.388.065zM.1.078L.096.081l.01.03L.11.108.107.1.116.093l.008.004.003-.003L.1.078zm.001.006L.113.09.106.096.1.084zm.13.008L.214.103v.12H.23V.092zm.051.001v.13h.016V.106L.282.093zm.135.001H.415L.413.095.411.096H.41L.408.099.406.1.405.102.403.105v.001L.401.108v.008l.002.001V.12h.002l.001.002.001.001.003.002h.01L.424.122.426.121.428.119.429.117.431.116V.113L.433.112V.103L.43.102V.1L.428.098.426.096H.423L.421.094H.417zM.082.096H.08L.079.097.077.099l-.009.01.024.02.002-.004-.01-.008.007-.008V.106L.093.105V.103L.09.1H.089V.098L.086.097.085.096H.082zm.335.002h.005L.424.1h.001l.002.002.001.002v.008L.427.114.426.115.423.118.421.119.42.12H.41V.119L.407.118V.114L.405.112V.108L.407.105.41.102.412.1h.004L.417.097zM.083.1h.002l.002.002v.001l.001.001v.003L.08.115.074.109.08.1h.003zm.124.008L.192.12v.123h.015V.108zm.098 0v.135H.32V.12L.305.108zm-.246.01l-.01.019.026.014.01-.019L.082.131.074.146.065.14.073.127.07.125.062.14.054.135.062.12.059.118zM.446.12L.43.131v.001L.426.134v.011L.43.147V.15l.002.002h.01L.46.137.457.135.44.147H.433L.43.145V.143L.428.14V.137L.431.135.45.123.446.119zM.184.124L.17.136v.126h.015V.124zm.144.001v.137h.015V.137L.328.125zM.048.15H.044L.042.151.041.152.039.154.038.155v.002l-.005.01.028.011.004-.01v-.01L.064.157.062.156.06.153.055.151.052.15H.048zm.206 0H.251L.249.151H.248L.246.154.244.155v.001L.241.158v.005H.25L.238.177v.09h.035V.171L.264.157V.156L.263.154.26.153V.152H.258V.15H.253zM.46.151H.458L.456.154H.455L.454.156v.001L.452.16l.002.008v.006H.453v.001H.447V.173L.445.172V.169L.443.167V.163h.001L.447.16V.156H.445L.444.158.442.16.44.164v.008l.002.002.001.002.002.001.002.001L.45.18h.006L.458.176.46.174V.17L.457.159V.158L.459.156h.006l.001.001.001.002V.16l.002.002v.002L.466.167v.001H.464v.001l.002.004V.17H.47V.167L.472.164V.16L.468.158V.157L.467.154H.466L.464.151H.46zM.048.154h.004l.004.002h.001L.06.159v.002l.001.002v.002L.059.173.038.166.04.158.041.157.043.155h.005zM.48.182L.45.19v.004L.48.185V.182zM.05.193L.049.198h.004L.054.195H.05zM.03.196H.026L.025.199.023.201.022.204v.01l.002.001.002.001.003.001h.003L.033.216.035.215V.213L.04.208V.206L.041.204.042.203h.004l.001.001.001.001v.009L.045.215v.001H.043L.042.218H.04L.039.22h.006L.048.218.05.217.052.214v-.01L.05.202V.2H.047L.045.197H.04V.2L.037.201v.001L.034.208.032.211.031.212.028.214H.027L.026.212V.21H.024V.203h.001L.027.2h.005L.034.196H.03zm.454.003L.455.205v.003L.48.204l-.02.02v.004L.49.222.488.218.464.223l.021-.02V.2zm-.442.03v.004h.004V.23H.043zM.394.23L.389.247H.37l.014.011L.38.276l.015-.01.014.01L.403.258l.015-.01H.399L.394.23zM.017.233v.004l.021.001h.003V.24h.002v.003l.001.001v.005L.041.252.04.253.016.252v.004l.021.001h.005V.254h.002L.046.251V.25L.047.248V.24L.045.239V.237H.044L.043.234H.039L.017.232zm.459 0H.47L.467.236H.465L.463.24H.46v.011l.001.002.003.003.001.002H.462v.003L.478.26.477.247H.473l.001.01H.47L.466.254.465.253.464.25V.243L.467.24.468.238H.47L.475.237h.003l.004.001.002.002h.001l.001.002v.002l.001.001v.006L.486.253.484.255H.483V.26h.002L.487.258V.257L.49.255V.254L.492.252V.245L.49.242V.24H.487L.486.237.485.235H.482L.48.232H.476zM.46.283L.455.306H.46v-.01l.026.006V.298L.462.293l.002-.01H.46zM.02.285l.002.004L.03.29.033.3.026.307.027.31.053.293V.288L.02.285zM.035.29l.014.002-.011.007L.034.29zm.018.02L.025.32l.001.003.022-.008-.016.023.001.004.028-.01L.06.326.037.335.054.313.053.309zm.4.002v.003l.022.008L.448.33.446.334l.029.01L.476.34.453.33.481.324.482.32.454.31zm-.39.026L.037.352l.006.01.001.002.002.002h.001L.05.368l.002.001h.005L.06.365h.003L.065.363.067.361h.001V.358L.07.357V.35L.069.346.063.337zm.38.004L.433.36l.026.013.01-.019L.466.352.458.367.449.363.456.348.453.347.446.36.437.357.445.342.442.341zM.061.343l.004.006v.008L.062.359.06.361.056.363.053.364H.05L.047.361.043.353l.019-.01zm.365.022L.424.37l.013.023-.024-.01-.004.005.023.019.003-.004L.417.388.44.396.442.393.43.373l.018.014L.45.384.427.365zM.09.377L.072.391.071.393.07.397v.006l.001.002.001.002.002.001.002.002.002.001h.007L.089.408.104.395.1.39.085.405.083.407H.079L.076.405.074.404V.396L.075.393.091.38.09.377zm.317.017H.404L.402.395l-.01.01.02.022.002-.002-.008-.01.008-.007.001-.001V.405L.417.404V.4L.415.398.413.396.411.395.407.393H.406zm0 .004h.002L.412.4l.001.002v.004l-.01.007L.398.405.404.4.408.397zM.112.4l-.02.022.003.003.009-.01.007.007.001.001V.43L.107.434.106.436l.003.003V.436H.11V.435L.115.432V.43h.001V.424h.006V.422h.002V.419L.126.417V.412H.122V.411L.11.4zm0 .005L.12.412v.009H.112L.105.414.112.406zm.27.008H.379v.001H.376L.375.418H.373L.372.42.37.421v.002L.369.424v.002L.367.428v.004L.37.434v.002l.001.002.002.003h.002l.002.003h.002l.003.001h.006L.39.444.394.441V.44L.395.439.396.438.397.435V.426L.395.422.393.419.39.418V.416H.387L.386.414H.382zm0 .004h.004L.387.42h.001L.39.423l.002.003.001.004v.008H.391L.39.44v.001H.38L.378.44.376.438.375.436.372.434V.431L.371.429V.424h.001L.375.42h.002L.379.419h.002zM.137.421L.12.447l.012.007h.01V.451h.001L.145.45V.449L.147.447V.444L.144.442h.004L.15.44V.43L.148.428.137.421zm.002.005l.006.003V.43l.002.001v.006L.145.438H.14L.134.434.139.426zM.35.432L.348.434.36.46.378.452.376.45.363.455.351.432zM.13.437l.01.005v.003l.001.001v.002L.14.45.138.452H.136L.126.445.133.437zm.037 0l-.02.025.003.001.007-.007.01.004v.01H.17L.173.44.168.438zm.17.001l-.02.008.012.028.02-.009L.347.462.332.47.328.459.343.453.342.45.327.456.323.447.34.441.337.438zm-.17.006v.013L.158.453l.01-.01zm.016 0L.176.473H.18L.186.452l.008.027.004.001.008-.03H.203L.196.471.19.445.184.444zM.31.448L.306.45.303.475.289.453H.285L.302.48h.004L.31.447zM.28.454L.26.455l.002.03.022-.002V.48L.265.481v-.01H.28V.466H.265L.264.459.281.457V.454zm-.052 0v.03h.016L.245.483h.001L.248.48.25.478V.476L.251.473v-.01L.248.46.246.457.244.456H.242L.24.454H.228zm.004.004h.01L.243.46l.001.002.001.001.001.002v.002l.001.002v.007L.244.477V.48H.242L.241.481h-.01L.232.457z" fill="#097ec4"/></g></svg>