<svg xmlns="http://www.w3.org/2000/svg" width="8in" height="8in" viewBox="0 0 1 1" preserveAspectRatio="none"><path d="M.5.994h.025L.551.99.575.988.6.984.623.978.647.972.67.964.692.955l.022-.01.021-.01.021-.012.02-.013.02-.014L.814.88.832.866.85.849.866.832.88.814.896.796.91.776l.013-.02.011-.02.011-.022.01-.022L.964.67.972.647.978.623.984.6.988.575.991.551.993.525.994.5A.494.494 0 10.5.994z" font-weight="400" fill="#fff" stroke="#84080e" stroke-width=".012" stroke-miterlimit="10.433"/><path d="M.246.797L.26.81.267.806A.02.02 0 00.27.803C.274.799.27.799.271.796L.274.795l.01.008-.001.001C.279.808.28.802.27.808L.23.836.228.838.227.842H.219.22L.243.783C.247.774.241.777.244.773h.001l.013.01-.001.001C.254.787.253.782.25.785A.022.022 0 00.248.79L.246.797z" font-weight="400"/><path font-weight="400" fill="#fff" d="M.233.83L.257.813.244.802.233.83z"/><path d="M.216.741v.001C.211.745.212.738.206.744L.168.776C.162.782.168.781.165.784L.164.785.154.773h.001C.16.768.157.775.163.77l.04-.033C.208.733.201.733.204.73h.001l.01.011zM.137.59H.134V.587H.133V.586H.128l-.05.01C.07.596.077.6.073.601H.07L.068.587H.07C.074.585.07.59.077.588L.132.58.13.567C.127.555.116.562.115.557L.13.552l.007.036zm.172.245V.833L.31.832V.831L.312.83V.824H.31V.822L.313.82l.011.007V.83C.318.835.318.826.311.837l-.024.04C.283.883.29.88.288.885L.286.886.275.88.28.825l-.018.03c-.008.01 0 .006-.003.011v.001L.246.862.248.86C.251.855.251.864.258.852l.03-.046.002.002-.006.067.025-.04zM.175.745L.173.746.171.747H.17L.168.75H.162L.161.752H.159L.157.753H.141V.75H.138L.137.749H.136L.135.746H.134L.133.744H.132V.742C.123.73.133.714.15.705c.016-.01.036-.01.043.002C.201.719.19.736.175.745z" font-weight="400"/><path d="M.155.712H.154L.153.713H.15v.001L.148.715v.001L.145.718.144.72H.143L.142.721.14.722.139.725H.138L.137.727.135.729V.73H.133v.002L.132.734V.74l.001.001C.141.753.158.745.17.738.18.732.197.72.19.708.184.698.167.705.155.712z" font-weight="400" fill="#fff"/><path d="M.225.763h.001V.761h.001V.755L.228.753.24.766.239.767C.235.77.236.763.23.769L.19.807.194.81c.01.01.013-.003.017 0l.001.002-.013.012A.009.009 0 00.196.819L.173.796A.008.008 0 00.17.793L.18.781l.001.001C.187.786.173.79.182.8l.003.003.04-.039zM.127.618l.006.019H.14L.146.635C.15.634.146.632.15.63l.004.012C.15.645.154.64.142.64L.093.642.091.644.087.646.083.644.081.642V.641L.133.604C.14.598.134.598.138.597H.14l.005.015H.143C.14.613.141.61.138.61a.025.025 0 00-.005.003L.127.618z" font-weight="400"/><path font-weight="400" fill="#fff" d="M.099.638l.03-.001L.122.62.099.638z"/><path d="M.16.683h.001L.163.681h.001V.68h.003V.677h.001V.673h.001L.17.671l.006.013H.175C.169.688.175.681.162.687L.12.707C.113.71.12.712.116.714H.114L.108.702.142.66.11.674C.098.68.107.681.101.684H.1L.094.673.096.672C.1.669.096.677.108.671l.05-.024.001.003-.041.054L.16.683zM.11.484v.02l.006.002.005.001C.125.507.123.504.127.504h.001v.013H.126C.122.517.127.514.116.51L.07.494.067.495H.063L.06.494.058.49H.06L.12.472C.129.47.123.468.128.468H.13L.129.485H.127C.123.485.127.48.123.48H.117L.11.485z" font-weight="400"/><path font-weight="400" fill="#fff" d="M.076.492l.029.01V.485L.076.492z"/><path d="M.1.364v.001C.1.37.082.363.08.375.076.387.094.394.106.397.119.4.138.4.14.389.143.382.138.377.134.373L.137.37c.007.006.01.012.008.02C.142.406.123.41.105.405.09.4.072.389.075.375.077.367.083.365.084.364L.082.362.083.36.1.364zM.217.257V.255H.215V.25H.214V.248L.176.214C.17.208.172.215.169.212L.168.211l.02-.022A.008.008 0 00.19.185l.013.011-.001.001C.198.201.193.19.186.197l-.007.01.02.017L.201.22C.207.214.199.213.202.21h.001l.013.01C.211.226.21.218.205.223L.2.226l.022.02L.23.237C.24.227.226.223.23.22V.218L.244.23.218.258.217.257zM.131.32L.111.313C.104.309.107.314.103.312H.101L.108.298h.001C.113.3.107.303.114.306l.047.02c.007.004.004-.002.008 0H.17L.164.34H.163C.159.336.165.335.158.332L.136.323l-.01.021.022.01C.156.357.152.35.156.353h.002L.152.369H.15C.146.364.153.363.145.36L.1.34C.09.337.095.343.09.34H.089L.095.326h.002C.101.328.094.33.102.333l.02.009.01-.021zM.175.318L.174.317C.17.315.177.314.17.31L.125.285C.118.281.121.288.117.285H.116L.123.27h.001C.128.275.122.276.13.28l.044.024c.007.004.005-.002.008 0l.002.001-.008.014zM.123.447h.005V.444h.005L.13.46C.124.459.13.456.122.455L.072.446C.064.446.069.45.064.45H.063L.066.426C.067.421.072.411.085.413.096.415.101.423.1.431.1.428.104.427.107.426l.02-.005C.137.418.131.415.136.416h.001l-.001.01-.023.007C.103.435.1.436.099.44v.002l.024.004z" font-weight="400"/><path d="M.096.435V.427H.094V.426L.093.425H.092V.424H.091V.423H.09V.422H.086V.421H.084C.074.42.07.424.07.429l-.002.01.027.004.001-.008z" font-weight="400" fill="#fff"/><path d="M.24.208h.003V.21h.003v.001h.002L.25.213l.001.001H.26V.211L.262.21C.266.207.266.2.261.194.248.179.234.202.218.183.21.175.21.165.217.16.22.156.226.157.227.157V.155L.229.153l.01.012-.002.001C.235.168.227.156.22.163.216.166.216.17.22.176c.012.013.027-.01.043.01.008.01.009.022.002.028L.254.22v.003L.25.224.239.21.24.208zM.19.27L.16.235A.02.02 0 00.158.231C.154.23.154.233.152.231H.15L.157.22H.16C.163.222.157.22.164.23L.2.278v.003L.14.261C.132.257.135.262.131.26L.13.258.139.246.14.248C.143.25.14.25.142.253l.003.001L.19.27zM.32.153L.3.163l.002.006c0 .002 0 .004.002.006.002.004.004 0 .006.003v.001L.3.186V.184C.296.18.301.184.3.172L.29.124.287.122.285.12V.115L.288.112H.29l.044.044C.34.163.34.156.342.16v.002L.329.17V.168C.325.165.33.166.327.162A.02.02 0 00.325.158L.319.153z" font-weight="400"/><path font-weight="400" fill="#fff" d="M.294.129L.3.158.316.149.294.13z"/><path d="M.395.141V.138h.002V.133L.385.083C.383.076.38.082.38.078V.076L.4.071C.415.068.427.08.432.098.436.119.428.135.416.138l-.02.005V.14z" font-weight="400"/><path d="M.413.134h.003L.417.132.42.131V.13L.422.129V.128L.424.125V.123h.001V.117h.001V.104L.423.103V.102L.422.1C.419.086.412.072.399.075L.391.077l.015.059.007-.002z" font-weight="400" fill="#fff"/><path d="M.35.145v.002l.001.001V.15h.001l.001.001v.001h.005v.002L.36.156.347.16V.159C.343.154.35.16.346.146L.33.103C.327.096.325.103.323.098V.097L.334.092l.04.037L.363.096C.358.083.356.092.354.086V.085L.366.08v.002c.002.005-.004 0 0 .012l.02.052-.003.001-.05-.046.017.044zM.611.094H.61C.605.093.612.076.6.073.59.07.581.088.578.1.575.112.574.13.585.134.592.136.597.131.601.127L.603.13a.022.022 0 01-.02.01C.569.135.566.115.57.098.574.083.586.065.6.068c.008.003.01.009.012.01L.613.075h.003L.61.095zM.7.184V.182h.005V.181h.001V.18l.03-.043C.74.131.733.134.735.13L.737.128.755.14c.012.008.011.025 0 .041C.744.2.727.204.717.197L.7.185V.184z" font-weight="400"/><path d="M.716.192l.001.001h.001L.72.195h.002l.001.001H.73L.731.193h.001L.733.192h.001L.735.191.736.19h.001L.738.188H.74V.186h.001L.743.184.746.183V.18h.002V.178L.75.177C.757.165.762.15.75.143L.744.138.71.188l.006.004z" font-weight="400" fill="#fff"/><path d="M.52.126V.124h.002V.123h.001V.12h.001L.53.069C.53.06.526.066.526.06l.03.003L.56.062.559.079H.558c-.005 0 0-.011-.01-.013h-.01L.534.091H.54C.548.092.544.086.548.086H.55L.548.104H.547C.542.104.547.097.54.096H.534L.531.125l.012.001C.557.127.552.113.557.114H.56L.557.132.519.128V.126zM.618.11V.107L.62.106V.105L.622.103V.1h.001L.624.097h.001L.626.094h.001L.628.093.63.09h.002V.088h.002V.087h.001L.636.086h.002L.639.084H.64L.642.083h.012C.667.09.67.11.663.127.655.144.64.157.626.15.613.146.61.127.617.11z" font-weight="400"/><path d="M.654.124V.123L.656.12V.118h.001V.116L.658.114V.112L.659.111V.107L.66.106V.095L.657.094V.093L.656.092V.09H.654V.088H.652V.087H.651C.64.083.63.099.626.112.62.124.616.143.628.148.64.153.65.137.654.124z" font-weight="400" fill="#fff"/><path d="M.476.12v.003h.001v.001H.48v.004L.466.13V.127C.465.123.47.128.47.12L.467.07C.467.06.463.066.463.061L.486.06C.49.06.502.063.502.076c0 .011-.007.017-.015.018.004 0 .005.003.007.006l.01.018C.506.127.51.121.51.126v.001H.499l-.01-.02C.483.097.482.095.477.095H.476V.12z" font-weight="400"/><path d="M.483.09H.49V.087h.001V.086L.493.085V.084h.001V.08h.001V.076C.495.066.49.063.485.063h-.01L.476.09h.008z" font-weight="400" fill="#fff"/><path d="M.754.204v.003L.752.209V.21H.751v.002H.75v.009h.001v.001l.001.001.001.001C.757.23.765.228.771.222.784.21.76.196.778.18.785.17.795.17.8.176c.003.004.002.009.003.01h.002l.002.002-.01.01L.795.197C.793.194.804.186.798.179.794.175.788.176.784.18.772.192.796.205.778.223.768.233.757.234.75.227.747.224.746.218.745.217H.742L.74.215.753.202l.001.002zM.668.158V.16H.666v.003l.001.001v.004L.653.16V.159C.656.155.657.162.661.155L.684.109C.688.102.682.105.684.101V.1l.021.01C.71.113.718.12.712.132.706.142.697.144.69.141.693.143.693.145.693.15L.692.17c0 .01.004.006.002.01L.683.176V.153C.686.143.687.14.682.137H.679l-.011.02z" font-weight="400"/><path d="M.687.136H.69v.001h.009V.135H.7V.133h.001V.132h.002L.704.13.705.128C.708.12.706.115.702.113L.693.109.681.133l.006.003z" font-weight="400" fill="#fff"/><path d="M.823.28L.811.263.805.266.8.268C.796.27.8.272.798.274L.796.275.788.265.79.264C.793.26.79.266.802.263L.848.247.85.244.852.241h.005L.86.244v.001l-.038.05C.816.302.822.3.819.303L.817.304.807.291.81.29c.003-.002.003.002.006 0A.028.028 0 00.819.286L.823.28z" font-weight="400"/><path font-weight="400" fill="#fff" d="M.844.252l-.028.01.01.014.018-.024z"/><path d="M.824.312h.002v.001h.005L.877.288C.883.284.876.283.881.28h.001l.01.019C.9.31.892.326.875.336.855.346.838.342.833.332L.823.313z" font-weight="400"/><path d="M.835.328L.836.33l.001.001.001.001H.84v.001h.002v.001h.001l.001.001h.013L.86.333h.003L.864.331.866.33h.001L.87.328C.884.32.894.31.888.298L.884.293l-.053.03.004.006z" font-weight="400" fill="#fff"/><path d="M.863.418h.002C.869.417.865.422.873.42l.05-.01C.93.41.925.407.929.406H.93L.934.42H.932C.928.422.932.417.924.419l-.05.01C.866.429.872.432.868.433H.866L.863.418zm.053-.04L.852.38V.377L.904.343.859.357C.846.362.855.364.85.366H.849L.844.353h.001c.006-.002 0 .005.013 0L.902.34C.91.337.903.335.907.333H.91l.005.013-.046.03.054-.002.005.013H.925C.921.388.925.383.917.385L.868.401C.861.404.868.406.863.407H.861L.856.394h.002c.004-.002 0 .003.008 0l.05-.015zM.882.453H.877v.001H.875L.874.456v.001H.873v.002H.872V.46H.868V.446c.007 0 0 .004.013.003L.928.445C.936.445.93.441.935.44h.002v.014L.892.482.926.48C.94.478.932.474.938.474h.001l.002.012H.939C.933.487.94.482.927.483L.872.488V.484L.93.45.882.453zM.858.628H.852V.63H.848L.854.614h.002C.86.617.853.62.86.621l.048.017C.917.641.913.635.917.636L.92.637.91.659a.015.015 0 01-.02.01C.88.663.876.654.878.647.877.65.875.65.87.652L.85.654C.84.654.844.659.84.657H.839l.004-.01.023-.003c.01 0 .013 0 .015-.005V.636L.859.628z" font-weight="400"/><path d="M.883.645v.008l.001.001v.001h.001v.001h.001v.001h.001v.001H.89V.66h.003C.902.663.907.66.909.655L.911.647.886.637.883.646z" font-weight="400" fill="#fff"/><path d="M.889.532H.885v.001H.881L.88.535H.878v.001H.876v.001H.875v.001H.874v.001H.873V.54H.872v.003C.871.55.875.555.883.556.904.558.9.53.924.534c.01.002.017.01.016.017C.939.556.935.558.934.56h.002v.003L.92.562V.56c0-.003.014 0 .015-.01C.936.546.932.541.926.54.91.538.913.565.888.562.876.561.867.552.868.542c0-.004.004-.008.004-.01L.871.53V.527L.89.529v.003zM.87.591H.864v.002H.863v.001H.86L.864.578h.001C.87.58.863.582.871.584l.054.012.001-.004C.93.58.916.583.918.578V.576L.935.58a.008.008 0 00-.002.005L.925.617v.005L.91.618V.617C.91.61.92.62.923.607V.603L.87.591zM.837.7l.01-.02L.842.677A.026.026 0 00.838.673C.834.67.835.675.831.673H.83L.836.66l.002.001c.004.002-.002.002.005.01l.034.036H.88L.884.71l.001.004v.004L.822.703c-.01-.002-.005.003-.01 0L.82.689.822.69C.825.692.821.694.824.696L.83.698l.008.001z" font-weight="400"/><path font-weight="400" fill="#fff" d="M.87.707L.85.685.842.7.87.707z"/><path d="M.872.5h.002C.878.5.873.504.88.504h.05C.94.505.936.502.94.502v.015H.938c-.005 0 0-.004-.007-.004H.88C.873.511.878.514.874.514H.872V.5zM.73.81V.808H.728V.807H.727V.806L.726.805.725.804H.724V.803H.72V.802L.717.8.729.794.73.795C.734.8.726.796.733.807L.76.845c.004.007.005 0 .007.004L.768.85.757.858.709.832.73.86c.007.012.007.003.01.008l.001.001-.01.008L.728.875C.726.87.734.874.726.863L.695.818.698.816l.06.033L.73.809zM.793.783v.002h.002v.002L.798.79.8.791v.002l.002.001v.003L.804.8v.003l.001.001v.003l.001.001v.01L.803.82.802.823v.001L.8.825v.001C.788.836.77.83.757.816.745.802.74.783.75.773.76.763.78.77.793.783z" font-weight="400"/><path d="M.764.81l.001.002h.001l.001.001.001.001.001.001.002.002.001.001h.001L.775.82l.002.001v.001H.78v.003h.002l.001.001h.002l.002.001h.007L.796.824h.001V.823h.001C.807.813.796.798.787.788.777.78.763.767.753.776.743.784.754.8.763.81z" font-weight="400" fill="#fff"/><path d="M.807.726H.805L.804.724H.801L.8.727H.798L.797.725.807.71v.001C.812.715.805.715.812.72l.046.03L.86.749C.867.736.853.736.857.73l.015.01a.01.01 0 00-.004.003L.85.77a.01.01 0 00-.002.005L.834.765C.838.758.844.771.851.76L.853.757.807.727zM.784.74l.001.002C.79.744.782.744.788.749l.04.033C.832.787.831.781.834.783l.001.001-.01.012C.821.792.828.792.821.787L.783.755C.777.75.78.756.775.754L.774.752.784.74zM.433.872L.444.868h.004L.44.929C.439.934.446.93.445.935v.001L.425.934V.933C.426.927.432.933.433.926L.44.876H.433V.871zM.575.865h.002V.863h.001V.86h.003l.002.012L.56.876l.003.02a.013.013 0 01.01-.004C.582.889.59.898.592.909.594.923.587.934.577.935.571.936.563.934.562.925c0-.003.001-.006.004-.007C.568.918.57.92.57.923v.005c0 .004.004.004.006.004.008-.001.01-.01.008-.02C.583.904.579.895.571.896.568.896.565.899.564.903L.56.9.557.868.575.865zM.532.901C.54.905.545.91.546.92.546.928.543.94.53.942.518.94.512.932.512.924c0-.01.005-.014.01-.019A.02.02 0 01.512.89C.51.877.517.869.526.869.533.87.54.874.54.884.54.893.538.896.533.9v.001z" font-weight="400"/><path d="M.525.908L.522.91H.521v.001L.52.913v.002L.518.916v.003L.517.92v.005c0 .009.005.014.011.013.006 0 .01-.005.01-.013C.54.914.533.912.527.909L.525.908zM.529.9V.898h.002V.896L.533.895V.894h.001V.892L.535.891V.884C.535.877.532.873.526.873.52.873.517.878.518.885c0 .007.005.01.01.013L.529.9z" font-weight="400" fill="#fff"/><path d="M.494.902V.91L.492.912v.004L.491.918V.92H.49v.004L.488.926v.001L.486.93v.001L.485.932v.002H.482v.002H.481L.48.937.479.94H.47C.467.94.46.938.462.93c0-.002.002-.005.004-.005C.47.925.47.927.47.93v.003c0 .003.001.004.003.004.01 0 .012-.02.013-.03C.483.912.479.914.476.914.465.913.461.903.461.89.463.88.47.87.48.87c.012 0 .015.02.014.032z" font-weight="400"/><path d="M.486.898V.88L.484.878V.876H.482V.874H.481V.873H.48V.872H.478C.472.873.47.883.469.89c0 .008 0 .018.008.018.003 0 .008-.002.01-.006V.898z" font-weight="400" fill="#fff"/><path d="M.5.97L.524.969.548.967.57.964.595.96.617.955.64.949.66.94.683.933l.02-.01.02-.01.02-.011.02-.013L.78.876.799.862.816.848.832.832.848.816.862.799.876.78.89.763l.013-.02.01-.02.011-.02.01-.02L.94.66.949.64.955.617.96.595.964.572.967.548.97.524V.5A.47.47 0 10.5.97z" font-weight="400" fill="none" stroke="#84080e" stroke-width=".006" stroke-miterlimit="10.433"/><path d="M.5.683h0V.681h0V.68h0v0h.001V.678h0L.503.677h0L.504.676h.001V.675h.001V.674h.002L.509.673h.003V.672h.041C.577.673.575.654.575.654V.5H.5m0 .183h0V.681h0V.68h0-.002 0V.678h0-.001V.677h0L.496.676h0-.001V.675H.494V.674H.492h0L.491.673h0H.49h0-.001 0V.672h0-.041C.423.673.425.654.425.654V.5H.5M.426.554h.148M.426.546h.148M.426.538h.148M.426.531h.148M.426.523h.148M.426.515h.148M.426.507h.148M.559.672V.554M.552.673V.554M.538.673V.554M.53.673V.554M.516.673V.554m-.007.12v-.12M.441.672V.554m.007.119V.554m.014.119V.554M.47.673V.554m.014.119V.554m.007.12v-.12" font-weight="400" fill="none" stroke="#84080e" stroke-width=".003" stroke-linecap="round" stroke-miterlimit="10.433"/><path d="M.426.517H.418L.417.515H.415L.413.514H.41L.408.511H.407L.405.51H.404L.402.507.4.506.399.505.397.504V.502H.394V.5H.392V.498L.39.497V.494H.388V.491H.387V.49C.383.485.39.457.39.457S.4.444.4.436C.401.428.403.425.39.408.36.368.302.343.302.343.282.318.238.31.23.31.222.31.22.311.219.315a.17.17 0 00.03.03L.248.347v.006c0 .004.022.019.019.021C.262.376.26.378.26.381A.19.19 0 00.279.4L.273.408s.015.014.012.014c-.003 0-.01.01-.01.01l.007.01L.277.45l.008.01S.28.47.28.473C.28.475.292.48.292.48.29.48.286.49.286.49L.294.5S.29.506.291.509c.001.002.01.006.01.006S.295.521.294.525c0 .002.014.008.014.008v.01l.01.003.001.015.014.004.002.01h.012L.35.59h.013L.366.6.384.597S.388.61.39.611C.392.612.401.604.401.604s.007.008.01.008S.426.598.426.598v-.08z" font-weight="400" fill="#84080e"/><path d="M.422.585v.001h.001v.006a.039.039 0 01-.003.01C.417.605.414.606.412.606S.407.602.407.602.405.6.407.597A.106.106 0 01.414.578C.417.577.418.581.418.581l-.005.01S.411.594.413.6v.002L.417.596.42.588S.418.584.422.585zM.407.577v.008a.025.025 0 01-.005.011L.398.601.394.603H.39v-.01c0-.006 0-.007.002-.01L.398.576.4.572l.002.002-.006.01C.393.59.392.593.393.596V.6L.397.596.4.59.403.585.405.58.407.577zM.392.57h.001v.002C.394.573.39.586.384.59.374.595.375.593.374.593S.37.592.37.59s0-.005.002-.007l.01-.01h.002v.001L.382.577.374.585v.004h.003A.021.021 0 00.385.58C.387.577.39.568.392.57zM.368.56V.558h.004v.003A.067.067 0 00.36.574v.002h.004A.02.02 0 00.37.571C.37.569.373.568.373.569c.001 0 .002.003.001.004 0 0-.012.013-.016.012A.008.008 0 01.353.58.008.008 0 01.355.572L.368.559zM.362.557V.56S.347.572.343.571C.34.571.338.57.338.567s0-.004.002-.006A.101.101 0 01.356.548h.002v.003S.346.559.346.561v.002S.35.566.358.558c.003-.003.005-.001.004 0zM.35.543v.003C.35.548.337.56.33.559.326.558.326.556.325.555L.33.547C.33.545.339.54.34.54h.001L.338.546.333.548.33.551l.002.002h.003a.11.11 0 00.01-.008C.347.544.348.542.35.543zM.328.53H.323V.528H.32L.314.535c0 .002 0 .004.002.005.002.002.01.002.012.001.003 0 .01-.004.012-.006V.533H.336C.335.533.33.537.327.537a.02.02 0 01-.006 0V.535C.32.534.318.534.32.534h.003L.326.532C.327.533.33.53.328.53zM.33.514H.324c-.004 0-.02 0-.02.006v.003S.306.527.31.527h.008l.01-.003C.33.524.331.524.33.522H.32a.014.014 0 01-.006.001L.312.522.313.519.318.518h.005L.327.516.33.514zm0-.008v.001H.328L.32.51H.303L.3.509.296.505.298.5l.01-.001.008-.002C.319.497.319.5.318.5H.313L.307.503c-.002 0-.003 0-.003.002v.002H.32A.052.052 0 01.328.503L.33.506zM.32.492v.001H.31S.3.496.297.494C.294.49.293.49.293.487L.294.484a.072.072 0 01.02 0L.32.486.318.488S.302.486.3.488V.49a.1.1 0 00.013 0L.32.493zM.312.478V.48H.304C.303.48.298.48.295.477A.022.022 0 01.29.472V.467C.288.465.287.464.29.464h.006c.002 0 .015.002.016.004.002.002 0 .002 0 .003H.31L.305.47A.06.06 0 00.3.469S.297.467.295.468V.47l.001.002.012.003.003.001.001.002zm.01-.015v.002H.315S.285.458.283.449V.448L.287.446.31.447l.014.006-.001.002H.32L.31.452.3.449a.06.06 0 00-.007 0H.29v.004a.04.04 0 00.003.001l.005.002.005.001.014.003.005.003zM.315.443V.442H.312L.31.44H.308L.307.437H.305L.302.435H.299L.298.434H.295L.293.432c.012-.007.022.012.03.002C.313.428.301.428.29.425c0 .003-.005 0-.005.004 0 .014.02.014.031.014zM.323.425V.423H.321L.32.421H.319L.318.42H.311L.31.418H.306L.305.417H.303L.3.416H.298V.415H.296V.414H.294V.411H.292V.41H.291V.408l.022.008.004-.003A.082.082 0 00.285.402C.284.402.278.405.28.408c.009.014.027.02.043.017zM.313.401H.311V.4H.308V.398H.302V.397H.297V.396H.296C.29.391.28.393.28.384c.01.002.017.008.027.01C.31.394.311.391.31.39.297.384.286.375.272.376.27.376.266.378.268.38.276.399.294.4.31.404L.313.401zM.301.377H.3V.375H.298L.297.374.295.373.294.372H.293L.29.37H.285V.368H.284V.367C.277.363.266.365.264.355c.01.006.02.01.03.013.001 0 .003-.002.002-.003C.286.354.267.345.252.351c.01.017.03.023.048.03V.376z" font-weight="400" fill="#fff"/><path d="M.279.35H.275L.273.348H.27L.268.346H.267L.265.345.263.344.26.343.258.342.256.34H.254L.25.336H.248L.245.334.243.333.241.332.24.33H.238L.236.327H.235L.233.324H.232L.23.322V.32H.228V.318H.227V.316S.226.313.23.314c.003 0 .06.017.067.029 0 0 0 .004-.002.003A.23.23 0 00.239.32v.003l.035.022C.279.348.279.35.279.35z" font-weight="400" fill="#fff"/><path d="M.286.348H.284L.283.346H.281V.345H.28V.344H.279L.278.343H.275L.273.342.272.34H.268V.337H.266L.265.336C.263.333.263.335.264.334h.003l.02.011c.002.002 0 .003 0 .003m.059.05H.342L.34.396H.338L.337.395H.336L.334.394H.332L.331.393H.327L.326.39H.321L.319.387H.318L.316.386H.315L.313.385.312.384.311.383.31.38H.309L.308.378H.306V.375S.305.373.307.372C.311.372.324.37.332.377c0 0 .004.004.003.005L.327.38C.325.38.32.376.319.378V.38s0 .002.002.002c.002.001.02.007.022.012l.003.004zM.345.433H.33v.001H.328v.001L.327.437V.44C.331.448.35.448.351.447.356.445.344.443.34.442c0 0-.002-.002 0-.002.003-.003.007.002.01.001S.354.439.353.437C.352.433.348.434.345.433zM.35.423V.421h.001V.42C.344.416.338.41.33.413a.007.007 0 00-.003.01C.329.43.339.43.347.429.346.425.34.425.34.423c0-.005.006.004.01 0z" font-weight="400" fill="#fff"/><path d="M.347.414H.341V.412H.337V.411H.334L.333.41H.33L.328.408H.326C.319.403.317.4.317.398L.322.396C.324.396.335.396.34.4c.006.003.013.007.014.01v.002L.346.408.336.401C.333.401.33.398.328.4.326.4.325.4.326.401l.003.003.006.003.005.002.005.002.002.003zM.346.457v.001H.338L.333.457C.33.455.33.454.332.452c0-.001 0-.002.003-.002.001 0 .004-.002.006 0 .002 0 .005 0 .005.003H.338v.002h.005l.003.002zm.008.031V.485H.347V.484H.344V.483H.343V.482h.011C.357.481.358.48.357.478.35.473.333.476.335.484c.001.007.016.01.019.004zM.348.47H.342V.468H.338C.337.466.344.465.345.464A.002.002 0 00.343.46C.338.46.332.463.333.467c0 .008.011.008.015.002z" font-weight="400" fill="#fff"/><path d="M.42.542h.002V.54h.002V.538L.426.537V.533H.423V.532H.416C.42.527.42.523.415.522H.404C.402.52.409.52.407.517.403.51.397.517.39.518c0 0-.002-.002-.001-.004s.004 0 .006-.002C.401.51.393.51.393.507L.383.506C.383.504.39.504.388.5.385.497.379.5.377.498L.382.49C.38.484.37.482.373.475c.001.003.005 0 .006.004C.382.474.381.469.382.464.384.46.372.462.375.454c.003.004.007.004.01.006.001 0 .003 0 .002-.003C.384.45.376.453.373.447c.006 0 .01.004.014.005L.39.45A.025.025 0 00.377.443C.38.437.387.448.388.44c0-.006-.01-.005-.01-.012.004 0 .007.004.011.005.001.001.003 0 .002-.002C.391.426.384.426.383.42h.004C.389.42.39.419.389.417.387.414.383.414.381.411c0-.002 0-.003.002-.004C.378.4.373.397.366.392.366.39.362.389.36.389V.383L.343.376s0-.002.002-.003A.045.045 0 00.317.359C.32.352.311.352.307.351.304.351.305.355.306.357.31.364.32.365.326.369c.013.008.02.019.035.028v.006C.365.407.37.407.374.41.379.415.37.415.368.42.365.425.372.43.372.434.373.439.362.44.364.442.372.45.363.452.364.46c0 0 .006 0 .006.003C.372.468.362.469.362.475a.02.02 0 00.005.012C.368.485.37.484.371.485c0 .003-.003.007-.006.01C.37.497.37.5.37.505c0 .002.003.004.007.004-.002.008.005.012.01.017C.39.527.39.525.391.525.397.527.4.535.407.53v.008c.004.004.009.006.014.004zm.001.024h.001V.564L.424.563V.561h.001V.552L.422.551C.42.547.42.557.417.56.417.556.42.547.415.548.41.548.41.558.412.564c0 .004.005.006.01.002zM.407.562V.559L.409.557V.55H.41V.547L.408.546c-.004.002 0 .01-.006.007C.4.553.4.546.399.547A.011.011 0 00.395.56c.002.005.01.008.012.002z" font-weight="400" fill="#fff"/><path d="M.386.559h.002L.39.557V.556h.001V.555L.393.554h.001V.551L.395.55V.542C.391.543.387.546.388.55c0-.003 0-.007-.002-.009 0 .006-.014.01-.001.017zM.375.55h.002V.548h.001L.38.547V.546h.001V.545L.383.544V.543h.001V.54C.386.532.374.547.375.541.374.54.377.528.371.53L.37.533l.002.003C.369.541.364.548.369.552c.002.001.004 0 .006-.001zM.36.54L.362.538h.001V.537h.001L.365.536h.001V.535h.001V.534h.001C.367.532.365.531.366.53S.37.528.368.527C.368.525.365.523.364.525.361.528.354.53.356.536.356.538.36.54.36.54z" font-weight="400" fill="#fff"/><path d="M.355.528H.36V.525h.001V.523h.001V.522C.363.517.358.515.36.51c0-.004-.006.003-.01 0 0-.001 0-.003.002-.003C.353.505.351.504.35.505.346.507.343.507.341.51c0 .004 0 .009.004.01C.347.52.35.515.35.517.352.52.347.527.355.528zM.347.504h.006L.355.502h.001V.501h.001V.498C.355.492.348.499.343.497L.345.495C.341.489.337.495.336.497.333.504.342.506.347.504z" font-weight="400" fill="#fff"/><path d="M.568.5h-.12S.446.485.462.471c0 0-.006-.008.02-.016L.483.453C.486.45.489.438.487.436A.047.047 0 00.458.42S.451.419.45.426L.449.43H.446S.44.425.44.419c0-.005 0-.013.006-.017A.03.03 0 01.46.397c.003 0 .007.002.01 0C.472.398.474.395.478.393S.483.389.487.389h.017a.183.183 0 00.034.012l.007.001v.004L.542.407H.538L.537.413.54.42c.004.006.006.007.004.01L.538.432v.01l.002.01C.541.454.538.46.54.466c0 .006.004.02.013.024.01.004.015.006.016.009z" font-weight="400" fill="#84080e"/><path d="M.449.42V.418H.45V.417h.001L.453.416h.001V.415h.002V.414H.46V.413h.011V.41C.47.406.467.399.46.4.452.403.442.411.445.42c0 0 .003.002.004.001zM.48.408v.006h.001v.001l.001.001.001.001.001.001.002.001.001.001.006.001a.021.021 0 01.01.02l.004.002C.513.439.513.433.512.426c.004-.005.007.01.01.01.006 0-.002-.007 0-.008C.53.426.528.437.53.436.537.432.526.413.515.41.505.41.493.418.485.407V.4C.499.404.497.396.527.41.53.41.537.403.53.4.506.395.493.39.472.401c0 0 0 .008.008.007z" font-weight="400" fill="#fff"/><path d="M.538.423V.418H.536V.417H.535L.534.415.533.414V.413H.532V.412C.526.416.53.418.533.423c.003.005.005.001.005 0zM.493.432h.001V.43h.001V.428C.493.426.486.422.485.427c0 .002.004.006.008.005zm.002.017L.493.45H.492v.001H.49v.002H.487v.001H.485v.001H.484C.488.457.486.463.49.46.497.457.499.453.505.46.506.456.509.456.51.457c.003.001.005.005.007.005C.52.462.526.456.524.454.515.446.5.449.497.434.49.44.499.445.495.45zM.52.445V.44C.52.439.52.438.518.439.514.439.514.443.515.445c.001.003.004.001.005 0zm.01.001V.44H.526C.524.438.524.442.525.444c0 .002.004.003.005.001zm0 .024h.001V.468h.001V.462H.53V.454C.53.449.528.457.526.456.526.462.524.471.53.47zm0 .014V.482h.001V.477c0-.002 0-.002-.002-.001C.526.477.526.48.527.482c0 .002.003.003.004.002zM.517.486h.001L.52.488h.002V.485h.001V.484C.522.478.525.469.52.465.518.472.51.477.517.486z" font-weight="400" fill="#fff"/><path d="M.51.482L.512.48V.477h.001V.464H.51V.463L.508.462C.502.46.489.466.48.46v.007C.47.467.464.484.47.485.477.487.477.48.477.475.476.472.48.471.481.472.479.477.478.484.483.483c.002 0 .002-.006.004-.01.006.003-.002.008 0 .012L.49.488C.496.485.49.473.5.467.504.47.495.477.502.48L.504.472C.51.475.502.48.504.482c.003.004.005.002.006 0zM.461.485h.001V.483h.002V.482C.467.48.465.478.464.478a.02.02 0 00-.008.008C.454.488.455.49.457.49.46.491.46.488.46.485z" font-weight="400" fill="#fff"/><path d="M.5.494h.001V.492h.001V.488C.5.483.498.49.497.49.495.493.5.495.501.494zm.015.001h.001V.493h.001V.492A.002.002 0 00.515.49C.514.49.513.49.513.493c0 .001 0 .002.002.002zM.533.494h.001V.492L.533.49.53.492c0 .001 0 .002.002.002zM.535.46H.532V.452h.002V.46zM.467.416h.005l.001.001C.477.42.475.422.475.422H.472S.47.415.467.415z" font-weight="400" fill="#fff"/><path d="M.574.517h.008L.583.515h.002L.587.514H.59L.592.511h.001L.595.51h.001L.598.507.6.506.601.505.603.504V.502h.002V.5h.003V.498L.609.497.61.496V.495L.612.494V.491h.001V.49C.617.485.61.457.61.457S.6.444.6.436C.599.428.597.425.61.408A.24.24 0 01.698.343C.718.318.762.31.77.31c.008 0 .01.002.011.006.001.004-.03.03-.03.03l.002.002v.006c0 .003-.023.018-.019.02C.738.376.74.378.74.381A.19.19 0 01.722.4l.005.007S.712.422.715.422c.003 0 .01.01.01.01l-.008.01.006.008-.008.01S.72.47.72.473C.72.475.707.48.707.48c.004 0 .007.01.007.01L.705.5S.71.506.708.509L.7.515l.005.01L.69.532v.01L.68.545v.016L.666.565l-.002.01H.652L.65.59H.637L.634.6.616.597S.612.61.61.611C.608.612.599.604.599.604S.592.612.589.612.574.598.574.598v-.08z" font-weight="400" fill="#84080e"/><path d="M.577.585v.007l.003.01c.003.003.006.004.008.004S.593.602.593.602.595.6.593.597A.113.113 0 00.585.578C.582.577.581.581.581.581l.006.01S.589.594.587.6v.002L.583.596.58.588S.581.584.577.585zM.593.577v.008c0 .005.003.01.005.011l.004.005a.272.272 0 00.004.002H.61v-.01c0-.006 0-.007-.002-.01L.602.576.6.572.597.574s.005.005.007.01C.607.59.608.593.607.596V.6L.603.596.6.59.597.585A.062.062 0 01.595.58L.593.577zM.608.57H.606v.002c0 .001.004.014.01.018.008.005.007.003.008.003S.63.592.63.59.63.584.628.582l-.01-.01H.616v.001l.002.004.008.008v.004H.623A.021.021 0 01.615.58C.613.577.61.568.608.57zM.632.56V.558H.627v.003A.04.04 0 01.64.574v.002H.636A.02.02 0 01.63.571C.63.569.627.568.627.569.626.57.625.572.626.573c0 0 .012.013.016.012C.645.585.646.582.647.58c0-.002 0-.005-.002-.007L.632.559zM.638.557V.56s.015.013.019.012C.66.571.662.57.662.567S.662.563.66.561A.101.101 0 00.644.548H.642v.003l.012.01v.002S.651.566.642.558C.639.555.637.557.638.558zM.65.543v.003c0 .001.013.013.02.012.005 0 .005-.002.006-.003L.67.547C.67.545.661.54.66.54H.658l.004.005.005.003.003.003-.002.002H.665a.11.11 0 01-.01-.008C.652.544.652.542.65.543zM.672.53h.004V.528H.68C.681.53.685.533.685.535S.686.54.684.54a.035.035 0 01-.012.001A.031.031 0 01.66.535V.533h.004c.001 0 .006.004.009.004a.02.02 0 00.006 0V.535c0-.001.002-.001 0-.001H.677L.674.532C.673.533.67.53.672.53zM.67.514h.005c.004 0 .02 0 .02.006v.003S.694.527.69.527H.682L.672.525C.67.524.669.524.67.522h.01s.004.002.005.001L.688.522.687.519.682.518H.677L.673.516.67.514zm0-.008v.001h.001L.68.51h.017L.7.509.704.505.702.5.692.499.684.497C.681.497.681.5.681.5h.006l.006.002c.002 0 .003 0 .003.002v.002H.68A.057.057 0 00.672.503L.67.506zM.68.492v.001h.01s.01.002.013 0C.706.49.707.49.707.487L.706.484a.072.072 0 00-.02 0L.68.486l.001.002S.698.486.7.488V.49a.1.1 0 01-.014 0L.68.493zM.688.478V.48h.007c.002 0 .007 0 .01-.002A.02.02 0 00.71.472L.712.467c0-.002 0-.003-.002-.003H.704C.702.465.689.467.688.469.686.47.688.47.688.471H.69L.695.47.7.469S.703.467.705.468V.47L.704.472.692.475.689.476.688.478zM.678.463v.002h.005C.685.465.715.458.717.449V.448L.713.446.69.447.676.453l.001.002H.68L.69.452.7.449a.07.07 0 01.01 0v.004L.707.454.702.456a.014.014 0 01-.005.001L.683.46.678.463zm.007-.02V.442h.002L.69.44h.002L.693.437h.002L.698.435h.003L.702.434h.003L.706.432C.695.426.685.445.676.435.688.428.7.428.71.425c.001.003.006 0 .006.004 0 .014-.02.014-.031.014zM.677.425V.423h.001L.68.421h.002V.42h.006L.69.418h.005V.417h.002L.7.416h.002V.415h.002V.414h.001V.413h.001V.411h.001V.41h.002V.408L.686.416.683.413c.01-.006.02-.01.032-.011.001 0 .007.003.005.006a.043.043 0 01-.043.017zm.01-.024h.001V.4h.003V.398h.007V.397h.004V.396h.001C.71.391.72.393.72.384.71.387.702.393.693.395.69.394.689.391.69.39.703.384.714.375.728.376.73.376.734.378.732.38.724.399.706.4.688.404L.687.401zM.699.377H.7V.375h.001L.703.374.705.373h.001V.372h.001L.71.37h.004L.715.368h.001V.367C.723.363.734.365.736.355a.13.13 0 01-.03.013C.703.368.701.366.702.365.714.354.733.345.748.351.738.368.718.374.7.381V.376z" font-weight="400" fill="#fff"/><path d="M.721.35h.003L.727.348H.73V.346h.003L.735.345.737.344.74.343.742.342.744.34h.002L.75.336h.002L.754.334.756.333.758.332.76.33h.002L.764.327h.001L.767.324h.001L.77.322V.32h.002V.318h.001V.316S.774.313.77.314C.766.314.71.33.702.343c0 0 0 .004.002.003A.232.232 0 01.761.32v.003a.668.668 0 01-.035.022C.721.348.721.35.721.35z" font-weight="400" fill="#fff"/><path d="M.714.348h.001L.717.346h.001L.72.345V.344h.001L.722.343h.004L.727.342.728.34h.004V.338h.001V.337h.001L.735.336C.737.333.737.335.736.334H.733a.144.144 0 00-.02.011c-.002.002 0 .003 0 .003m-.059.05h.003L.66.396h.003V.395h.001L.666.394h.002L.669.393h.004L.674.39h.005L.681.387h.001L.684.386h.001L.687.385.688.384.689.383.69.38h.001L.692.378h.001V.375s.002-.002 0-.003C.689.372.676.37.668.377c0 0-.004.004-.003.005L.673.38C.675.38.68.376.681.378V.38s0 .002-.002.002C.677.383.66.39.656.394L.654.398zm.001.035H.67v.001h.001v.002h.001V.44C.669.448.65.448.649.447.644.445.656.443.66.442c0 0 .002-.002 0-.002C.657.437.653.442.65.441S.646.439.647.437C.648.433.652.434.655.433zM.65.423V.421H.648V.42C.656.416.662.41.67.413c.004.001.005.006.003.01C.671.43.661.43.653.429.654.425.66.425.66.423c0-.005-.006.004-.01 0z" font-weight="400" fill="#fff"/><path d="M.653.414h.005V.412h.004V.411h.004L.667.41H.67L.672.408h.001C.681.403.683.4.683.398L.678.396A.048.048 0 00.66.4C.654.403.647.407.646.41v.002L.654.408l.01-.007C.667.401.67.398.672.4.674.4.675.4.674.401L.671.404.665.407.66.409a.022.022 0 00-.005.002C.653.412.653.414.653.414zm.001.043v.001H.66L.668.457C.67.455.67.454.668.452.668.451.668.45.665.45.664.45.66.448.659.45.657.45.653.45.654.453h.008v.002H.657L.654.458zM.646.488V.485h.006V.484h.003V.483h.001V.482h-.01C.643.481.642.48.643.478.65.473.667.476.665.484.664.491.65.494.646.488z" font-weight="400" fill="#fff"/><path d="M.652.47h.004L.657.468h.004C.663.466.656.465.655.464S.655.46.657.46c.005 0 .011.003.01.007C.667.476.656.476.652.47zM.579.542H.577V.54H.575V.538L.574.537V.533h.001V.532h.007C.58.527.58.523.585.522h.011C.598.52.591.52.593.517.597.51.603.517.61.518V.514c0-.002-.003 0-.005-.002C.599.51.607.51.607.507l.01-.001C.617.504.61.504.612.5.615.497.621.5.623.498L.618.49C.62.484.63.482.627.475.626.478.622.475.62.479.618.474.619.469.618.464.616.46.628.462.625.454.622.459.618.459.615.46.614.46.612.46.613.457.616.45.624.453.627.447.62.447.617.45.613.452L.61.45A.025.025 0 01.623.443C.62.437.612.448.612.44c0-.006.01-.005.01-.012-.004 0-.007.004-.011.005C.61.434.608.433.609.431c0-.005.007-.005.008-.01H.613C.61.42.61.419.61.417.613.414.617.414.62.411.62.409.62.408.618.407A.24.24 0 01.633.392.011.011 0 01.641.389V.383A.06.06 0 01.657.376s0-.002-.002-.003A.045.045 0 01.683.359C.68.352.689.352.693.351c.003 0 .002.004.001.006C.69.364.68.365.674.369.661.377.654.388.639.397v.006C.635.407.63.407.626.41.621.415.63.415.632.42.635.426.628.431.628.435.627.439.638.44.636.442.628.45.637.452.636.46c0 0-.006 0-.006.003-.002.005.008.006.008.012 0 .004-.003.008-.005.012C.632.485.63.484.629.485c0 .003.003.007.006.01C.63.497.63.5.63.505.63.506.627.508.623.508.625.517.618.52.613.526.61.527.609.525.609.525.603.527.599.535.593.53v.008C.588.542.583.544.578.542zm0 .024H.577V.564L.576.563V.561H.575V.552L.578.551C.58.547.58.557.583.56.583.556.58.547.585.548c.006 0 .005.01.003.016 0 .004-.005.006-.01.002z" font-weight="400" fill="#fff"/><path d="M.593.562V.559H.591V.55H.59V.547L.592.546c.004.002 0 .01.006.007C.6.553.6.546.601.547A.012.012 0 01.605.56C.603.565.595.568.593.562z" font-weight="400" fill="#fff"/><path d="M.614.559H.611L.61.557V.556H.608V.555L.607.554H.606V.55H.605V.542C.609.543.613.546.612.55.611.548.61.544.613.542c0 .006.014.01.001.017zM.625.55H.622L.621.548H.62V.546H.618V.545L.617.544V.543H.616V.54C.614.532.626.547.625.541.626.54.623.528.629.53L.63.533.629.536c.002.005.007.012.002.016C.629.553.627.552.625.551zM.64.54L.638.538H.637V.537H.636L.635.536H.634V.535H.632V.534H.631C.633.532.635.531.634.53S.63.528.632.527c0-.002.002-.004.004-.002.003.003.01.005.008.011C.644.538.64.54.64.54z" font-weight="400" fill="#fff"/><path d="M.645.528H.64V.525H.638V.523H.637V.522C.637.517.64.515.64.51c0-.004.006.003.008 0C.65.51.648.507.647.507.647.505.649.504.65.505.653.507.657.507.658.51.66.514.658.52.655.52.653.52.65.515.65.517.648.52.653.527.645.528zM.653.504H.646L.645.502H.644V.501H.643V.498C.645.492.652.499.657.497L.655.495c.004-.006.008 0 .009.002C.667.504.658.506.653.504z" font-weight="400" fill="#fff"/><path d="M.386.206h.002L.39.208h.001l.001.001h.001V.21h.002l.001.001v.002h.001v.002l.001.001V.22l.001.002v.006L.4.23v.006C.404.256.397.302.4.35.4.356.391.351.39.36c0 .006-.003.01.005.015l.01-.002c0 .006.008.005.008.005.002.003.01.002.01.002h.175C.6.38.61.38.612.371c.006.005.012 0 .014-.004C.628.362.627.353.624.353c0 0-.003-.006-.01-.001H.61L.6.348C.595.345.588.347.588.342V.335C.587.332.589.329.59.327c0 0-.006-.005-.005-.008L.59.317S.586.314.585.31C.585.305.59.303.59.303.588.303.586.301.587.3V.296L.59.294.587.29C.587.288.588.285.59.285L.587.28C.586.275.591.274.591.274L.588.27C.586.265.588.263.59.263L.586.257C.584.253.59.253.59.253L.586.245C.59.245.59.241.588.24.586.238.588.234.584.233.587.233.587.23.586.228A.016.016 0 01.582.21C.583.204.594.2.59.192.587.187.583.18.577.182.574.182.573.187.57.187a3.048 3.048 0 01-.193.002C.374.189.37.184.366.186.359.193.362.207.37.21c0 0 .005 0 .007-.003" font-weight="400" fill="#84080e"/><path d="M.42.348H.417V.35H.416L.415.352v.001H.414v.001H.413v.001L.412.356C.411.357.409.361.407.359.401.349.403.345.402.335.402.323.417.198.389.199V.193a3.45 3.45 0 01.17 0c.01 0 .018.018.02.03C.587.264.583.3.584.34c0 0 0 .006-.003.006H.424L.42.348z" font-weight="400" fill="#fff"/><path d="M.55.237H.547V.235l.007-.02c0-.002 0-.003.002-.003l.002.002.007.021v.002H.562L.56.232H.55L.549.237z" font-weight="400" fill="#84080e"/><path font-weight="400" fill="#fff" d="M.556.216L.552.23H.56L.556.216z"/><path d="M.51.235h.006l.002.001c0 .001 0 .002-.002.002H.51C.507.238.507.237.507.236V.214L.509.213h.009c0 .002 0 .002-.002.002H.51v.009h.006l.001.001-.001.001H.51v.009zM.453.236v.001H.45V.213s0-.002.002-.002l.001.002v.022zM.432.235h.006l.001.001-.001.002H.43L.429.236V.214c0-.001 0-.002.002-.002v.022zM.53.236v.002H.528c-.001 0-.002 0-.002-.002V.215c0-.001 0-.002.002-.002h.005C.537.213.54.216.54.22.54.225.537.227.534.227L.54.236v.002H.538L.53.226v.01z" font-weight="400" fill="#84080e"/><path d="M.53.224h.004c.003 0 .004 0 .004-.004C.538.217.537.216.534.216H.53v.008z" font-weight="400" fill="#fff"/><path d="M.467.216H.463L.462.214.463.213h.011l.002.001-.002.002H.47v.02L.469.238c-.001 0-.002 0-.002-.002v-.02zm.021 0H.483V.213h.012l.001.001-.001.002H.49v.022L.488.236v-.02zM.55.284H.548v.001H.547L.546.284V.283L.555.262C.554.26.554.26.556.26l.002.002.007.02v.002L.564.285H.562L.561.28h-.01L.549.284z" font-weight="400" fill="#84080e"/><path font-weight="400" fill="#fff" d="M.556.264L.55.277h.01L.555.264z"/><path d="M.46.283h.002V.281h.002V.28h.003C.467.284.464.286.46.286.453.285.45.28.45.273.45.266.453.26.46.26c.004 0 .006.002.006.004v.001L.46.263c-.005 0-.007.005-.007.01 0 .004.002.01.007.01zm.041.001v.001H.5L.498.284V.262C.498.26.498.26.5.26v.024zm.012 0v.001L.51.284V.262L.512.26h.006c.004 0 .007.004.007.008S.522.276.518.276H.513v.008z" font-weight="400" fill="#84080e"/><path d="M.513.273h.005C.52.273.522.271.522.268.522.266.521.263.517.263H.513v.01z" font-weight="400" fill="#fff"/><path d="M.477.284v.001H.475L.474.284V.262C.474.26.474.26.476.26H.48c.004 0 .007.003.007.007 0 .005-.003.007-.006.007H.48l.007.009v.002H.485L.477.275v.009z" font-weight="400" fill="#84080e"/><path d="M.477.272h.004C.484.272.485.27.485.267.485.265.484.263.481.263H.477v.009z" font-weight="400" fill="#fff"/><path d="M.44.263v.001L.434.263C.433.263.43.264.43.266c0 .006.01.003.01.012.002.004 0 .008-.005.008C.431.286.428.284.428.283L.429.28C.43.28.431.283.434.283S.44.28.44.278C.44.272.43.275.43.266.428.264.43.26.434.26.437.26.44.261.44.263zm.096 0H.53V.262L.531.26h.012l.001.002-.001.001H.538v.02L.537.286.536.284V.263zM.468.331v.001H.466L.465.331V.329L.474.31c0-.001 0-.002.002-.002L.478.31l.007.02v.002H.482L.48.326H.47L.468.33z" font-weight="400" fill="#84080e"/><path font-weight="400" fill="#fff" d="M.475.31L.47.324h.01L.474.31z"/><path d="M.526.329h.006c.001 0 .002 0 .002.002H.523V.308L.524.307h.008l.002.001C.534.31.534.31.532.31H.526v.008h.006l.001.001-.001.002H.526v.008zM.435.33v.001L.433.333H.432V.329L.435.31.437.307c.001 0 .002 0 .002.002l.005.018.005-.018c0-.002 0-.002.002-.002 0 0 .002 0 .002.002l.003.02v.002L.455.332.453.331.451.31.445.33.444.332.443.331.437.311.435.33zm.061 0v.002H.494L.492.331V.309L.494.307l.002.002.012.018V.309L.509.307.51.309v.023L.506.331.496.313V.33zM.55.31H.545L.544.309.545.307h.012V.31H.552v.02L.551.333.55.331V.31z" font-weight="400" fill="#84080e"/><path d="M.59.375h.008V.373H.6V.372h.001L.603.371.604.37.605.368C.61.355.6.349.588.349H.434C.43.35.446.361.433.375H.59z" font-weight="400" fill="#fff"/><path d="M.425.375h.002V.373h.001L.43.372V.371h.001V.37h.001V.365h.001V.357H.431V.355L.43.354C.428.347.42.348.42.352c0 .007.003.013 0 .018 0 .001.003.004.005.004zM.4.367V.365h.001V.36H.4C.396.358.393.357.392.36c0 .003-.001.006.002.008.002 0 .005 0 .006-.002zm.013.002h.001V.367h.001V.364C.414.362.411.363.409.363.408.363.406.365.407.367.408.37.411.37.413.369zm.21-.006V.356H.621V.355H.62c-.007 0-.007.01 0 .01L.622.363zM.375.199V.193H.373V.192L.372.191.371.19H.37a.01.01 0 00-.005.007c0 .005.008.009.006.008C.374.206.375.2.375.199zm.01-.001V.195L.383.194H.382L.381.193H.38L.378.196C.376.198.379.202.38.202.384.202.385.199.385.198zm.19-.004V.19C.571.19.566.188.566.192c0 .002.003.004.005.004.001 0 .003 0 .003-.002zm.01 0V.191L.583.19H.582V.188H.58c-.004 0-.004.01 0 .013 0 0 .005-.004.004-.007zM.378.205S.382.21.386.206M.62.644h.001V.642h.001V.64C.62.636.616.634.612.635A.008.008 0 00.61.64a.016.016 0 00.006.006L.62.644zm.054.06v.002l.001.001h.001a.01.01 0 00.006 0C.684.708.685.706.684.705.68.699.677.702.674.704z" font-weight="400" fill="#fff"/><path d="M.566.67v.004l.001.002v.001h.001V.68H.57l.001.001h.001v.001h.002v.001H.58v.001c.016 0 .012.005.016.002.003-.003.011.004.011 0C.607.684.62.69.62.69L.622.686h.045s.002.007 0 .01l-.01.007H.645L.613.734v.004h.009v.009l.005.001v.01h.014l.006.01.01-.003.012.013L.677.77l.005.003.01-.011L.69.705s.005-.002.007 0 .008.001.008.001S.715.697.712.69c0 0 .013-.004.013-.01C.725.671.719.671.719.668L.749.64l.006.002.013-.021.009.005.005-.023h.004V.592l.009.005.01-.03L.8.57.804.55H.797L.805.52.788.53.785.51.76.532l.008.005L.756.55.749.538.726.56v.002L.7.591l.006.003L.69.652S.682.646.676.649C.67.653.666.667.662.67c-.004 0-.017.004-.02 0C.642.668.625.648.626.639.625.64.623.632.61.632.61.632.603.622.6.62H.59A.042.042 0 00.58.617L.576.616v.041S.574.665.566.671z" font-weight="400" fill="#84080e"/><path d="M.593.637V.635L.595.634V.631L.592.63H.591V.628H.59V.627L.587.624.586.622H.585L.583.621.582.62c-.007.009.002.025.01.017z" font-weight="400" fill="#fff"/><path d="M.608.64V.638L.606.636V.634H.605V.632H.604V.631L.603.63H.602V.628H.601L.6.627H.598C.59.63.599.64.605.644.607.645.608.642.608.64zm.01.026V.657H.616V.655H.615V.654H.614V.653L.613.652.612.651H.611V.65H.61C.607.648.606.65.606.651a.014.014 0 00.005.016c.002 0 .005 0 .006-.002z" font-weight="400" fill="#fff"/><path d="M.63.662V.657H.628V.656L.627.655.626.654H.625V.653H.62v.002H.618c-.003.006.006.006.007.01L.63.662zm-.03 0h.003V.66h.001V.654A.017.017 0 00.592.648C.591.648.59.65.591.652.593.656.595.66.6.662zM.59.654V.65H.588V.647L.587.646V.645H.586V.644H.585V.643H.582C.578.643.58.65.58.655.58.658.586.66.588.653zm-.006.02V.663H.58c-.006 0 0 .01.001.014L.584.674zm.012 0V.671H.594V.67L.593.667.592.666V.665H.591V.664H.59C.587.663.59.668.585.67.59.673.588.68.594.678L.596.674z" font-weight="400" fill="#fff"/><path d="M.606.676V.673H.604V.671H.603V.67H.602V.668H.601V.667H.598c-.006 0 0 .01.004.011L.606.676zm.012.01L.62.685V.684L.621.683.622.682.614.674C.612.674.61.673.61.676c-.002.007.006.006.01.01zM.632.675V.67H.63V.668H.628c-.002-.002-.004 0-.004 0 0 .006.004.009.007.006zm.01.001V.672H.64V.671c-.003 0-.004 0-.005.002v.004A.005.005 0 00.64.68L.642.676zm.022.002V.674H.662V.673H.661L.66.672V.671C.656.674.652.68.657.682.66.681.662.683.664.677zM.678.69V.685H.676V.684H.675V.683L.674.682H.673C.672.68.67.682.67.683c0 .004 0 .008.004.01L.678.69zM.69.688h.001V.686h.001V.685h.001V.683C.697.679.69.68.689.678L.684.682c0 .003.002.007.006.006z" font-weight="400" fill="#fff"/><path d="M.652.68h.001V.678L.655.677V.675H.651L.65.674c-.001-.002-.003 0-.004 0V.68c.002.003.004 0 .006 0zM.69.672h.001V.67h.001V.668A.019.019 0 00.686.661C.684.661.683.662.682.664c0 .004 0 .008.004.01L.69.672zm.015.002V.672h.001V.667L.704.666.703.665H.701V.664H.7C.698.665.695.668.695.67c0 .005.007.01.01.004zm.007.004h.001V.676h.001V.673C.714.672.712.67.71.672.707.673.708.676.708.678h.004zM.718.68H.72V.677A.003.003 0 00.717.676C.714.676.713.678.714.68h.004zM.704.693H.701v.001H.7v.002L.698.698C.696.7.698.702.7.703.703.702.706.7.707.698S.71.693.704.693zM.696.688H.692V.69H.691v.002H.69v.001c-.002 0 0 .002.001.003C.697.697.7.693.702.69.701.688.697.688.695.688zM.712.66V.658h.001V.657L.715.656V.655h.001V.651H.713V.65H.711C.709.65.705.655.706.66c.001.004.004.002.006 0z" font-weight="400" fill="#fff"/><path d="M.41.69h.005V.688h.002V.687h.001C.422.688.423.686.423.686.438.686.434.67.434.67A.02.02 0 01.425.657V.616H.42L.41.62C.409.622.405.622.402.623c-.003 0-.009.01-.009.01C.38.633.381.641.381.641c0 .026-.016.027-.018.03L.35.672.344.671V.66A.019.019 0 00.34.653C.34.652.335.649.33.65c0 0-.004.006-.006.006L.32.657V.65S.34.64.34.632V.618L.349.61V.602S.322.611.32.617L.317.59C.316.588.297.598.295.61L.293.586S.28.586.274.598C.27.61.27.615.263.618c0 0-.003 0-.004-.002L.263.609C.265.607.265.601.264.6.264.597.26.595.26.595S.277.592.277.545c0 0-.006-.002-.014.006 0 0-.005-.03-.001-.036 0 0-.018.001-.02.02 0 0-.015-.033-.017-.031a.065.065 0 00-.006.053S.2.55.195.55c-.003.002.008.04.03.045C.225.595.202.6.2.596.198.594.203.608.222.616v.002S.21.623.21.625C.208.628.228.636.23.638c.003.003.001.003.001.003S.227.638.228.65c0 0-.003.004-.008.003-.005 0-.002.006-.002.006l.021.01S.24.677.23.68C.218.683.226.685.226.685s.02.003.026.001c0 0 .012-.008.014-.007.004 0 .005.001.005.003s-.003 0-.007.003a.045.045 0 00-.013.029v.011S.268.708.271.71c.002.002.005.02.01.023C.286.735.288.73.288.73s.01-.01.01-.023c0 0 .003 0 .005-.002S.31.706.31.706L.315.71c.002 0 .007 0 .01-.002S.327.71.332.714C.336.718.346.71.35.712c.005.001.01.018.012.02.002.003.001.012-.001.014-.003.001 0 .012 0 .012.005 0 .03.025.03.025h.003a.064.064 0 00-.01-.018L.38.752C.374.712.35.693.35.693.346.691.35.688.35.688L.377.686.38.69h.007C.39.69.39.695.39.695h.006L.401.692.411.69z" font-weight="400" fill="#84080e"/><path d="M.365.678V.676H.363V.675H.36C.355.677.351.683.356.686.36.685.366.684.365.677zM.377.676V.674H.371v.001H.37v.002C.367.681.37.682.373.684L.378.683a.01.01 0 000-.007zm.012.006V.676H.387C.384.676.381.68.382.683.386.689.388.684.39.682zM.397.67v.001H.395v.001H.394v.001H.393v.001L.392.676v.001L.391.678v.005h.001C.397.684.402.677.397.67zm.032.006H.427v.001H.426V.68c0 .002.002.004.004.003S.432.68.433.679L.432.675H.429zm-.004 0V.674h.001V.671c.002-.002 0-.004 0-.004C.419.67.416.677.413.683c0 0 .003.003.004.002C.42.682.42.676.425.676zM.388.669V.665H.386V.664H.385C.38.67.378.666.374.667.368.67.376.67.376.673.38.672.384.675.388.669zM.391.658h.001L.394.656V.653C.393.653.391.651.389.652.386.654.384.658.384.66.385.666.39.657.391.658z" font-weight="400" fill="#fff"/><path d="M.395.664V.66H.393C.391.66.39.661.388.663c0 .002 0 .004.002.004S.394.665.395.664zM.403.656h.001V.654h.001V.653h.001V.652h.001V.65h.001V.644L.406.643H.405L.404.642H.403C.397.643.397.65.4.656h.003zM.407.638h.001V.63c0-.008-.006.005-.01.007.002.004.005 0 .009 0zM.412.636v.001h.003v.001h.003V.636c.006-.002 0-.01 0-.008C.415.63.408.633.411.636zm.001.008V.65H.411v.002H.41v.003L.407.656v.002L.405.659V.66L.403.662v.001L.402.665v.001H.4v.001C.4.668.403.672.405.67.413.663.427.648.417.64c0 0-.004.002-.004.004zM.399.687h.003L.404.685h.002V.684h.002V.683h.001V.682H.41A.014.014 0 00.412.675.015.015 0 00.41.671L.405.674.403.681.399.687zM.388.649H.385V.647L.388.644A.02.02 0 00.39.64h.001s.003.006.001.007H.39V.65zm.026.023V.67H.412V.668C.414.668.42.661.421.658l.001.003.002.004L.42.668.415.673V.672z" font-weight="400" fill="#fff"/><path d="M.456.673v.008l.001.001v.003h.001v.002H.46v.001c.005.003.003.003.003.003s-.04.027-.04.064l.003.002h.008s-.001.02.002.022C.44.78.45.777.45.777s-.002.01.006.016S.473.788.473.788s.003.015.006.016C.482.806.487.801.492.796c.004-.004.003 0 .003 0s.007.011.01.012L.509.81.515.796S.53.804.533.802C.537.8.535.8.535.8L.538.784S.55.788.555.787C.561.787.56.773.561.773s.014.002.015 0V.756h.01S.589.736.58.725A.16.16 0 00.546.692V.688L.548.687C.55.687.55.684.55.684v-.01H.515S.502.673.5.683c0 0 0-.009-.012-.01H.456z" font-weight="400" fill="#84080e"/><path d="M.432.751L.435.748.437.745.439.742.441.74.444.737.446.734.451.729.453.726.456.723.458.721.46.718.463.715.465.712.467.709V.707L.47.706.467.702C.457.706.451.728.441.73.44.73.451.714.448.715.436.72.428.736.428.75c0 .002.004.003.004.001zm.013.02h.001L.448.768.449.767H.45L.452.764V.763L.455.762V.76L.457.758V.757L.459.755V.754L.46.75.462.747.463.744.465.74.466.737.468.733.469.73.471.726.472.723.473.72h.001V.714C.463.717.46.748.45.75L.46.73C.463.729.46.727.46.727a.049.049 0 00-.022.028C.436.76.434.77.44.774L.445.77zM.473.734L.47.739.466.745.465.747.463.75.462.753.46.756v.002L.458.761v.002L.456.764v.005L.454.77v.003L.453.775V.78c0 .003.003.009.007.009.006 0 .013-.005.013-.011C.475.76.489.744.483.726.479.73.473.758.468.763c0 0 .013-.041.015-.043.001-.001 0 0 0 0L.48.719.473.734zm.004.051v.009h.001v.001L.48.797v.001h.002v.001h.001c.005 0 .01-.006.01-.01C.494.767.5.747.495.73.489.738.492.767.487.774.485.776.487.749.486.75.478.76.478.773.476.785zm.02 0v.008l.001.001v.001L.5.797v.001l.001.001L.503.8h.002v.001C.509.803.51.8.51.797A.124.124 0 00.507.732c-.001.01 0 .035-.002.045C.5.77.507.745.501.737.497.754.499.77.497.786z" font-weight="400" fill="#fff"/><path d="M.517.783v.002l.001.001v.001L.52.789V.79h.001v.001h.001v.001h.001l.001.001.001.001.002.001C.528.796.532.796.532.793.538.768.528.744.517.723c-.007.01.01.033.009.044C.516.764.516.741.513.736.51.752.517.767.517.783zM.542.78h.002v.001h.002l.001.001h.006L.555.78C.56.779.557.773.556.77.55.756.546.739.534.734.53.733.537.74.538.746c.001.002.01.017.008.017-.003 0-.01-.019-.013-.02.002.012 0 .027.01.037zM.577.747h.005V.745C.58.722.559.709.542.694c0 0-.002.002-.001.004.004.007.021.015.022.026A.12.12 0 00.54.702S.538.704.539.705c.014.014.02.032.038.042z" font-weight="400" fill="#fff"/><path d="M.528.742v.001H.53v.002C.537.74.532.732.526.73c0 0-.002.002-.001.003.003.003.002.006.003.009zM.529.728V.73H.53C.535.727.532.72.53.72.525.72.528.725.53.729zM.503.724h.002V.722h.001L.508.721V.72h.001V.715L.51.714V.705C.509.704.507.703.505.704.5.706.505.71.502.714.5.714.5.706.497.71.489.716.499.725.503.724zM.485.716h.001l.001.001H.49V.713L.492.712h.001V.711C.493.709.495.706.492.704.489.707.487.705.485.706c-.006.003.003.006 0 .01zM.467.682V.68H.462C.46.68.46.682.46.684c0 .001.002.003.004.002A.005.005 0 00.467.682zm.012.002V.68H.475V.678H.474V.677L.47.682c0 .002.001.003.003.004.002 0 .005 0 .006-.002zM.485.69V.688h.001V.687h.001V.685h.001V.681A.002.002 0 00.485.68C.48.682.478.69.485.69zm.012 0V.688h.001V.687C.498.685.495.686.493.686S.49.688.49.69c.002.003.004.001.006 0zM.516.688h.001V.686h.001V.684L.516.683H.515V.682H.514V.681C.513.683.51.684.51.686s.004.003.005.002zM.53.684h.001V.682h.001V.68C.53.676.527.678.523.678.52.678.52.682.522.684c.002.004.006.002.01 0zm.003.028v.001l.001.001v.001l.001.001.001.001v.001L.539.72.54.721v.001l.001.002.002.002.002.002.002.002.002.002.002.002v.001l.002.001v.001l.001.001.001.001V.74h.001l.001.002.001.001C.549.741.542.727.536.723c0-.003-.002 0-.001.002C.544.738.55.75.557.763.56.77.573.773.573.766.572.74.552.723.534.706c0 0-.002.004-.001.006zm-.01.002V.71C.523.708.52.707.519.708V.702C.519.7.516.699.515.7.51.704.513.71.513.714c.001.004.008.006.01 0zm.009-.01V.7H.53V.698H.528V.697C.525.7.522.708.527.709L.532.704zm-.053 0V.702H.477V.701H.474C.473.702.472.704.473.706c0 .001.002.003.004.002A.005.005 0 00.479.704zM.38.764V.762L.377.76V.753L.375.75.374.746V.743L.373.741V.74L.37.736V.731H.369V.73L.367.729V.728C.362.734.37.74.364.748.372.75.372.76.38.764zM.367.728V.72H.365V.718H.363c-.006 0-.002.006 0 .009h.003z" font-weight="400" fill="#fff"/><path d="M.361.714H.36V.72h.001c.004 0 .002-.005 0-.005zM.355.704V.702H.353V.701H.35v.001c0 .004.005.002.005 0zM.343.708V.704L.341.703H.34V.702C.335.7.334.704.332.705c.003.003.007.006.01.002zM.35.684V.682h.001V.681h.001V.68C.353.677.347.673.344.678v.004c0 .002.003.003.006.002zM.343.69V.686H.341c-.006 0-.005.007 0 .008L.342.69zM.32.705h.001V.702H.32V.701H.318V.7H.317C.315.7.313.702.315.704c0 0 .002.002.003.001zM.323.7h.003V.698h.001V.697L.329.696V.695H.33C.326.692.32.687.318.694.316.698.32.698.323.7zM.31.698V.693H.308V.692H.3v.002C.3.7.308.707.31.699zM.311.69h.001V.688h.001V.687C.313.684.308.683.305.682c0 0-.003.002-.001.004C.305.688.307.692.31.69zM.295.692V.69h.001V.688h.001V.687C.297.686.295.685.294.686.287.693.288.705.29.714A.03.03 0 00.295.692zM.286.713v-.01H.284L.283.702C.278.703.279.712.28.718c0 .002.004.005.006.005S.29.72.29.718.29.715.285.713z" font-weight="400" fill="#fff"/><path d="M.277.704h.001L.28.702h.002V.7L.284.699V.697h.001L.286.695V.694L.287.693V.691C.288.69.286.689.285.688L.266.706C.266.698.27.695.276.69L.273.686C.264.69.254.704.26.714.265.709.272.708.277.704zM.284.686h.002V.684h.001V.683C.287.678.28.674.276.68.273.685.279.687.284.686zM.315.684h.003V.682H.32V.68h.001C.322.678.321.676.32.676S.313.674.312.678c0 .002-.003.004.003.006zM.33.686V.683H.328V.682H.327V.681C.325.683.323.684.323.686L.327.69C.33.69.331.687.331.686zM.335.678h.001V.676h.001V.673C.337.67.333.672.331.672A.003.003 0 00.33.676c.002.003.004.003.006.002zm-.03 0h.001V.676h.001V.675h.001V.673C.309.671.306.669.302.67.296.672.296.678.301.68L.306.678zm.028-.01h.003V.666C.335.658.327.662.327.667c0 .004.005 0 .007 0zm-.05 0V.661H.281V.66H.277a.008.008 0 00-.006.005C.27.67.277.672.281.671L.282.668zm.01.005h.002V.671h.001L.298.67V.668C.296.665.294.661.292.663S.286.667.288.67c0 .002.003.004.005.003z" font-weight="400" fill="#fff"/><path d="M.335.656H.328v.001H.327v.001c0 .004.007 0 .01.004C.337.66.34.66.338.658L.335.656zM.313.654H.307v.001H.306v.001L.305.658V.66c0 .004.004.006.007.005.004-.002.007-.008 0-.01zM.305.648V.646H.303V.645H.302V.644H.301L.3.643H.297C.293.646.293.651.294.656c0 .003.005 0 .005.004C.303.657.308.653.305.648z" font-weight="400" fill="#fff"/><path d="M.293.64V.638H.291V.637H.285C.28.641.284.651.289.65.293.65.295.644.293.64zm.03.006h.001L.325.643h.001L.327.642h.001L.33.64V.639L.333.638V.637L.335.635V.632L.337.63V.629L.339.627.34.624V.61C.33.617.311.622.314.637.316.643.319.635.32.634L.325.626H.33c0 .008-.012.011-.011.02 0 .004.003.002.005 0zM.307.638V.636L.31.635V.629L.312.628V.626L.313.623.314.62V.617h.001V.603L.312.602V.599C.301.604.291.616.296.63.304.625.3.614.305.61c.007.01-.01.018.002.028zM.287.626V.625L.289.624V.623L.29.622V.6L.288.598V.593H.287V.59L.28.6C.278.602.28.604.28.604L.285.602C.287.61.28.617.284.624l.003.002zM.275.628V.624h.001V.621L.274.62H.272V.618H.271C.268.618.264.619.263.622.261.63.272.633.275.628zm.001.014H.272v.001H.271v.003H.27v.002c.002.005.009.005.012 0C.279.647.28.642.276.642zM.265.636H.262L.261.638v.001H.26V.64C.258.644.262.647.266.646.271.646.268.64.272.64A.012.012 0 00.265.636zM.254.638h-.01V.64H.243C.242.644.245.646.248.648.252.65.259.646.258.64L.253.638zM.24.644H.238V.642H.237V.641H.235a.012.012 0 00-.004.004C.23.648.232.65.234.65h.004C.24.649.24.646.24.644zM.244.638L.246.636h.001V.634h.001C.247.63.242.628.237.63.239.626.238.62.235.62.229.622.216.626.22.628.228.63.234.64.244.637zM.232.616h.006V.614C.236.607.226.608.22.6H.213c.003.008.01.013.019.015zm.004-.01H.24V.604C.241.6.24.594.234.596A.006.006 0 00.23.604c0 .003.003.002.006.002zm.018.002h.004V.606H.26V.602h.001C.26.6.258.596.255.597.25.6.247.606.254.608zM.25.62V.617H.248V.616H.247C.243.614.239.616.24.621c0 .003.004.005.008.004C.25.625.25.622.25.62z" font-weight="400" fill="#fff"/><path d="M.252.662V.66h.001C.251.655.247.658.243.657.252.653.26.657.268.652A.036.036 0 00.23.66c.006.003.015.008.022.002z" font-weight="400" fill="#fff"/><path d="M.256.67h.002V.668H.26L.261.667h.001L.263.666h.001V.665h.002V.664h.001V.663h.001V.662H.27V.661C.256.656.24.672.24.684L.248.682C.246.68.245.679.246.678.25.677.25.672.256.67z" font-weight="400" fill="#fff"/><path d="M.26.68L.262.678.263.677h.001V.676L.265.675.266.674.267.673V.672h.002C.265.664.255.675.25.68c.003.004.006.002.01 0zM.232.588L.23.586V.584L.227.582.226.581.224.579.222.577.22.573.215.57.214.568.212.566.21.564V.563L.207.56.205.559c0-.002-.003 0-.003.001.006.011.014.035.03.028zM.234.586v.001l.001.001.001.001h.001C.243.59.24.584.24.582.235.572.226.557.214.564c.008.007.015.013.02.022zm.029 0h.001V.583h.001V.581h.001V.58L.268.579V.576L.269.575V.567L.27.565v-.01h.001C.271.552.27.55.268.552a.047.047 0 00-.012.012C.255.566.255.569.258.57L.26.568C.262.576.254.582.256.588s.006 0 .007-.002zM.257.552v-.02L.255.53V.528L.254.526V.524L.253.522C.25.527.243.534.248.54H.25C.256.543.247.549.25.554.253.56.257.554.257.552z" font-weight="400" fill="#fff"/><path d="M.244.558V.56h.001a.026.026 0 000-.022c-.004.007 0 .014-.001.02zM.25.574h.001V.57C.251.568.25.567.248.565L.244.57C.243.572.244.575.25.574zM.256.58V.575H.254V.574H.253C.25.575.252.578.252.58h.004zM.248.586L.246.588v.001H.245v.005h.001C.253.593.25.59.248.586zM.243.568V.561L.24.557V.55L.239.547.238.543.237.54.236.536.234.533V.529L.231.526.23.522V.52L.227.516.226.512a.064.064 0 00-.003.036c0 .003.002.015.004.009C.229.547.225.54.226.53c.008.012 0 .03.014.04L.243.568zm.451.086l.018-.06L.708.59l.01-.008.002.007L.7.657.694.654zM.72.66L.717.658l.03-.025L.744.629.76.624.755.638.748.636.72.66zM.734.623L.757.594.756.59.768.584.766.598H.76L.739.624.734.623zm.04-.005L.767.615l.01-.01-.003.013zM.794.59L.785.585l.013-.01L.794.59zm-.06.041L.719.648.716.647.731.63h.003zM.75.619L.753.62.76.614.757.61.75.619zm.022-.02L.78.6V.59L.77.593.771.6zM.773.536L.767.53.782.52v.01l-.01.007zM.797.53L.795.54H.791L.778.56.775.556.789.54.787.535.797.53zm-.05.017l-.01.008.005.005L.75.552.747.547zm.035.035L.797.568l.002-.01H.787L.79.566.78.58l.002.002zM.788.555h.006V.547L.787.55v.004zM.77.578L.782.571V.564H.776L.771.57v.007zM.734.614L.771.565v-.01h-.01v.007l.004.002-.032.048.001.002z" font-weight="400" fill="#fff"/><path font-weight="400" fill="#fff" d="M.718.637L.74.59.757.566V.558L.753.555l-.01.009.004.002L.74.582.726.61.723.62.716.633.714.636l.004.001zM.73.567V.563L.735.56v.007H.731z"/><path font-weight="400" fill="#fff" d="M.735.571h.006L.739.577.734.583.732.575.735.571zM.725.59L.73.593.728.597.724.605l-.002.01H.718L.722.606.725.591zM.722.577L.726.57l.002.003v.01L.727.584.722.582V.577zm.04-.026L.77.54v.006L.768.55H.762zm.012-.01v.005L.78.545V.54H.774zm-.09.22V.76L.685.756V.753L.687.75V.745L.688.742V.718C.688.716.686.715.686.716.68.73.68.745.679.76c0 .002.004.003.005.001zM.671.77V.766L.673.765V.762L.674.758V.755L.676.75V.748L.677.745V.74L.679.734V.728L.68.724V.721L.682.717V.714L.679.71c-.003 0 0 .005-.004.006.006.017-.01.033-.01.05.001.002.006.007.007.003z"/><path d="M.662.757L.663.754V.753L.665.752V.749L.667.748V.746h.001V.743h.001V.734C.662.74.66.75.655.758l.003.003.004-.004zM.654.755V.753L.656.751V.75L.657.748.658.746.66.744V.742L.661.74.663.736.665.733.667.729.668.727.67.725c0-.002.004-.01.001-.008C.659.725.655.74.647.752.645.755.649.756.65.757c.001 0 .004 0 .004-.002zM.644.751V.75L.647.746.648.743.649.74.651.738.653.735.654.733.656.73.658.727.659.725.661.722.662.72V.718L.664.717V.715L.665.714V.712L.666.711V.709L.667.708.634.75C.63.756.642.756.644.751zM.634.744L.636.74h.002L.639.737.641.735.643.733.644.73.646.729.647.727.65.722.653.718.656.714.659.709C.66.705.649.706.645.71c0 .002.003.002.005.002C.647.723.637.729.63.736.627.737.628.741.629.744c0 .003.003.001.005 0z" font-weight="400" fill="#fff"/><path d="M.628.734V.733H.63L.631.73.634.729V.728L.636.726.638.723.639.722V.72h.003V.719L.644.717V.716L.646.715C.645.713.643.71.642.712l-.02.02c0 .001 0 .003.002.003L.628.734z" font-weight="400" fill="#fff"/></svg>