<svg xmlns="http://www.w3.org/2000/svg" xmlns:xlink="http://www.w3.org/1999/xlink" width="272" height="272"><defs><linearGradient id="a"><stop offset="0" stop-color="#125a9e" stop-opacity=".498"/><stop offset="1" stop-color="#0b3b6a"/></linearGradient><linearGradient xlink:href="#a" id="b" gradientUnits="userSpaceOnUse" gradientTransform="rotate(90 253.063 549.846) scale(.79872)" x1="256.445" y1="568.54" x2="509.165" y2="568.54"/></defs><path d="M270 136a134 134 0 11-268 0 134 134 0 11268 0z" fill="#fff"/><path d="M139.525 35.306c55.617 1.939 99.122 48.595 97.173 104.212-1.949 55.618-48.615 99.133-104.232 97.195-55.617-1.938-99.122-48.594-97.172-104.212 1.949-55.618 48.613-99.132 104.23-97.195z" fill="#125a9e"/><path d="M352.335 501.835c55.617 1.938 99.123 48.594 97.174 104.211-1.95 55.618-48.615 99.133-104.232 97.195-55.617-1.938-99.123-48.594-97.173-104.212 1.95-55.617 48.614-99.132 104.231-97.194z" fill="url(#b)" transform="translate(-212.81 -466.528)"/><g fill="#ed1c24"><path d="M119.505 244.31l-4.984-1.334-.109.407c1.48.49 1.898.993 1.283 3.291l-1.555 5.8c-.466 1.74-.87 2.391-1.277 2.789-.892.844-2.3 1.202-3.977.753-3.738-1.002-2.937-3.987-2.569-5.362l1.842-6.874c.408-1.524.74-1.735 2.472-1.41l.11-.407-6.08-1.63-.108.408c1.603.545 1.84.863 1.415 2.453l-1.796 6.701c-.345 1.289-1.467 5.477 3.86 6.906 5.563 1.49 6.646-2.548 7.106-4.267l1.501-5.606c.604-2.256 1.057-2.48 2.756-2.208l.11-.41m-1.288 14.413c.461.073 1.29-.179 1.419-.992.106-.68-.374-1.343-1.033-1.447-.659-.105-1.295.358-1.406 1.06-.132.835.559 1.305 1.02 1.379M136.181 245l-.466-.025c-.057.241-.195.747-.817.715-.555-.03-1.715-.848-3.048-.918-1.999-.104-4.084 1.033-4.217 3.564-.115 2.2 1.256 3.252 3.237 4.535 3.164 2.081 3.48 2.855 3.413 4.12-.063 1.2-1.017 2.42-2.793 2.326-2.999-.157-3.98-3.103-4.347-4.17l-.51-.026.419 4.743.489.025c.018-.354.26-.721.726-.696.666.034 1.715.847 3.402.936 3.176.166 4.799-1.887 4.896-3.775.24-4.552-7.154-5.386-6.98-8.716.072-1.377 1.24-2.007 2.35-1.948 2.332.122 3.65 2.195 3.932 4.036l.555.03-.24-4.757m3.796 15.271c.466-.017 1.231-.421 1.203-1.244-.025-.689-.624-1.246-1.289-1.223-.667.022-1.203.597-1.179 1.31.03.844.798 1.172 1.265 1.157"/><path d="M161.535 257.45c-.978.07-1.32-.129-2.252-1.638l-7.24-11.738-.442.062-3.06 11.456c-.282 1.028-.739 2.732-1.168 3.354-.337.474-.705.57-1.055.642l.06.418 4.36-.613-.06-.418c-.462.065-1.497.21-1.628-.715-.034-.242-.01-.56.06-.86l.65-2.72 5.77-.81 1.2 1.987c.176.29.564.976.613 1.328.115.815-.608.94-1.424 1.054l.06.418 5.615-.789-.059-.418zm-11.527-3.726l1.681-6.411 3.406 5.697-5.087.714" fill-rule="evenodd"/><path d="M164.06 257.447c.455-.112 1.119-.668.919-1.466-.168-.669-.869-1.09-1.515-.929-.648.161-1.053.836-.88 1.526.204.82 1.024.982 1.476.869"/><path d="M26.245 124.014c-.118.973-.378 1.272-2.037 1.897l-12.904 4.87-.023.444 10.663 5.19c.954.473 2.54 1.247 3.068 1.786.401.423.426.803.43 1.158l.421.022.23-4.397-.422-.021c-.024.466-.079 1.51-1.011 1.461a2.519 2.519 0 01-.835-.221l-2.545-1.159.305-5.818 2.18-.799c.318-.117 1.066-.367 1.42-.348.823.043.807.776.763 1.598l.422.022.298-5.663-.423-.022zm-5.856 10.605l-5.973-2.874 6.242-2.257-.269 5.131" fill-rule="evenodd"/><path d="M25.134 110.311l-.098.616c2.066 1.318 2.55 2.52 2.116 5.266-.518 3.272-.54 3.268-1.44 3.127l-5.448-.864.58-3.375c.31-1.82.67-2.1 2.469-2.085l.08-.506-5.096-.807-.08.505c1.521.49 2.014.792 1.704 2.747l-.536 3.382-4.876-.772c-.746-.117-.705-.382-.632-.843l.47-2.966c.385-2.438.828-2.953 2.835-2.973l.087-.549-3.152-.431-1.847 11.663.418.066c.329-1.366.544-1.873 2.28-1.597l9.752 1.544c1.691.268 1.808.805 1.674 2.225l.417.065 1.879-11.86-3.556-1.578"/><path d="M32.97 96.688c-.324.852-.87 1.237-1.592 1.516l-6.767 2.618c.14-1.147.525-4.061-2.31-4.982-3.257-1.058-4.835 2.287-5.446 4.17l-1.896 5.837.401.13c.63-1.432.923-1.687 2.488-1.18l9.158 2.977c1.587.515 2.004.744 1.552 2.492l.403.13 1.903-5.859-.402-.13c-.635 1.665-1.105 1.746-2.522 1.285l-4.167-1.354.342-1.198 8.15-2.917 1.107-3.405-.402-.13zm-15.182 5.706c-.614-.2-.7-.439-.336-1.559.282-.867 1.246-3.617 4.059-2.704 3.024.983 2.035 4.17 1.48 5.953l-5.203-1.69M36.54 90.547c1.638-3.678.297-7.829-4.03-9.756-4.674-2.08-8.504.183-9.988 3.515-1.483 3.331-.6 7.691 4.072 9.772 4.327 1.927 8.31.146 9.947-3.531zm-.73-.326c-1.005 2.256-3.736 3.522-8.205 1.532-4.632-2.062-5.274-5.05-4.351-7.122.922-2.073 3.572-3.594 8.204-1.532 4.47 1.99 5.355 4.867 4.351 7.122" fill-rule="evenodd"/><path d="M35.414 62.232l-2.769 4.432.359.223c.895-1.223 1.376-1.657 3.545-.301l6.3 3.936-.024.038-13.585 1.554-2.015 3.225.358.224c.471-.754.754-.998 2.18-1.182l8.318 5.198c2.036 1.273 2.071 1.845 1.27 3.338l.359.223 2.769-4.431-.359-.224c-.916 1.34-1.578 1.478-3.52.264l-7.356-4.596.023-.038 15.52-1.84.2-.32-9.92-6.199c-2.206-1.38-1.904-2.03-1.294-3.3l-.359-.224"/><path d="M57.433 58.406c-.68.707-1.067.789-2.769.29L41.43 54.819l-.286.34 5.391 10.562c.478.953 1.279 2.524 1.376 3.273.067.58-.142.897-.354 1.184l.324.27 2.83-3.372-.324-.271c-.3.358-.972 1.158-1.687.558a2.51 2.51 0 01-.534-.68l-1.335-2.455 3.745-4.464 2.222.674c.324.098 1.072.348 1.344.577.63.529.176 1.105-.353 1.735l.324.272 3.645-4.344-.324-.272zm-11.058 4.946l-3.042-5.89 6.343 1.954-3.301 3.936" fill-rule="evenodd"/><path d="M58.89 38.103l-3.834 3.452.283.314c1.217-.975 1.866-1.05 3.459.716l4.017 4.463c1.206 1.339 1.532 2.033 1.644 2.59.22 1.208-.245 2.585-1.534 3.746-2.876 2.589-4.944.292-5.897-.766l-4.762-5.288c-1.057-1.174-1.052-1.567.165-2.842l-.283-.314-4.677 4.211.283.315c1.33-1.049 1.725-1.076 2.826.147l4.643 5.157c.893.991 3.795 4.214 7.894.524 4.28-3.855 1.482-6.96.292-8.284l-3.884-4.313c-1.563-1.735-1.505-2.236-.351-3.514l-.283-.314m18.279 5.089c-1.604.962-2.057.753-2.88-.516l-6.19-9.53 1.006-.655c2.052-1.331 2.792-1.334 4.516.463l.448-.29-2.171-3.1-10.52 6.831 1.948 3.244.448-.29c-.91-2.3-.637-2.98 1.415-4.314l1.007-.654 6.056 9.326c.897 1.38 1.12 1.846-.53 3.022l.23.354 5.447-3.536-.23-.355m3.23-1.631l5.832-3.101-.199-.373c-1.474.733-2.05.787-2.864-.744l-4.636-8.718c-.835-1.572-.417-1.97.985-2.79l-.199-.373-5.831 3.1.198.373c1.671-.788 2.072-.699 2.845.754l4.635 8.719c.741 1.394.683 1.853-.965 2.78l.199.373m14.848-17.874l-2.06-4.565-.433.176c.11.746-.57 1.02-.673 1.063-.454.184-2.069.044-3.904.786-3.546 1.432-6.002 5.327-4.136 9.946 2.074 5.133 6.442 5.673 9.76 4.33 3.795-1.532 4.527-4.826 4.53-4.875l-.52-.221c-.39.876-1.283 2.94-3.819 3.965-2.598 1.049-5.776.246-7.542-4.125-1.2-2.97-.826-4.655-.339-5.764.525-1.195 1.554-2.09 2.585-2.507 2.536-1.025 4.687.025 6.078 1.982l.473-.191m9.518-8.251l-.445.137c.028.246.071.767-.524.95-.531.162-1.9-.21-3.177.18-1.914.586-3.485 2.368-2.744 4.792.644 2.106 2.291 2.626 4.592 3.154 3.685.874 4.247 1.493 4.618 2.705.351 1.149-.129 2.62-1.831 3.14-2.87.878-4.8-1.554-5.51-2.43l-.49.15 2.017 4.312.468-.142c-.105-.34-.003-.767.445-.904.638-.196 1.9.21 3.517-.284 3.041-.93 3.864-3.414 3.31-5.221-1.332-4.36-8.566-2.615-9.54-5.804-.404-1.319.479-2.31 1.541-2.635 2.234-.682 4.18.816 5.075 2.45l.531-.163-1.853-4.387"/><path d="M135.735 26.164c-.98.001-1.308-.221-2.132-1.79l-6.406-12.215-.443.03-3.853 11.216c-.352 1.005-.926 2.674-1.397 3.264-.37.449-.745.52-1.099.567l.03.421 4.393-.307-.03-.422c-.465.033-1.508.106-1.573-.825-.018-.245.027-.56.118-.856l.84-2.667 5.811-.406 1.06 2.066c.153.301.493 1.013.517 1.368.058.82-.672.894-1.493.952l.03.421 5.657-.396-.03-.421zm-11.24-4.52l2.124-6.28 3 5.922-5.123.358" fill-rule="evenodd"/><path d="M153.046 13.002l-5.213-.366-.03.423c1.501.215 2.11.437 1.931 2.988l-.518 7.409-.044-.003-7.75-11.265-3.794-.265-.03.42c.887.063 1.235.198 2.068 1.371l-.684 9.784c-.168 2.396-.657 2.696-2.352 2.69l-.029.42 5.213.365.031-.421c-1.615-.18-2.047-.7-1.888-2.985l.605-8.653.044.004 8.912 12.839.377.027.816-11.67c.182-2.594.897-2.633 2.306-2.691l.029-.421"/><path d="M152.934 27.99l6.153 1.421c6.632 1.532 9.323-2.32 9.988-5.202 1.12-4.854-1.779-8.011-6.98-9.213l-5.85-1.35-.095.412c1.638.515 1.827.787 1.457 2.39l-2.222 9.622c-.35 1.515-.689 1.803-2.356 1.51l-.095.41zm7.048-11.747c.1-.433.195-.844 1.214-.61 2.73.631 3.808 1.496 4.633 2.668 1.186 1.69 1.3 3.563.88 5.385-1.456 6.305-6.786 5.074-8.174 4.754-1.04-.24-1.264-.451-1.094-1.188l2.54-11.009" fill-rule="evenodd"/><path d="M193.522 26.134l-.42-.205c-.146.2-.47.611-1.03.338-.5-.243-1.248-1.45-2.447-2.034-1.8-.878-4.164-.645-5.275 1.633-.966 1.979-.114 3.482 1.208 5.438 2.098 3.152 2.088 3.988 1.532 5.128-.526 1.078-1.882 1.828-3.48 1.048-2.7-1.315-2.452-4.411-2.372-5.537l-.461-.223-1.466 4.53.44.214c.156-.32.521-.562.94-.357.6.292 1.249 1.45 2.767 2.19 2.86 1.394 5.153.139 5.982-1.56 1.998-4.098-4.483-7.754-3.02-10.752.603-1.24 1.925-1.362 2.926-.874 2.097 1.024 2.5 3.447 2.04 5.25l.5.244 1.636-4.471"/><path d="M196.678 28.74c1.294.993 1.36 1.348.524 2.688l-5.103 8.166c-.848 1.358-1.119 1.791-2.774.915l-.224.358 5.28 3.3.224-.359c-1.427-.945-1.572-1.428-.712-2.805l2.145-3.432c.43.32.776.563 1.228.846 1.98 1.237 3.4 1.652 4.694 1.386.509-.101 1.823-.356 2.741-1.827 1.497-2.395-.218-4.857-2.82-6.483l-4.978-3.111-.225.358zm2.895 3.173c.389-.623.608-.512 1.174-.157.83.518 3.56 2.276 1.875 4.973-1.79 2.866-4.319 1.288-5.016.851a12.701 12.701 0 01-1.097-.763l3.064-4.904m10.334 23.59c-.708-.68-.79-1.068-.29-2.769l3.876-13.236-.341-.285-10.561 5.39c-.953.478-2.524 1.279-3.274 1.376-.578.067-.896-.142-1.182-.355l-.273.325 3.374 2.83.27-.323c-.356-.3-1.158-.973-.557-1.688a2.5 2.5 0 01.68-.534l2.455-1.334 4.464 3.745-.674 2.221c-.098.325-.347 1.072-.577 1.345-.528.63-1.105.176-1.735-.354l-.273.324 4.345 3.645.273-.323zm-4.947-11.059l5.89-3.04-1.955 6.342-3.935-3.302" fill-rule="evenodd"/><path d="M225.847 57.849l3.398-3.68-.33-.33c-.646.393-1.164-.125-1.244-.204-.345-.347-.848-1.887-2.248-3.287-2.705-2.706-7.25-3.445-10.772.078-3.916 3.916-2.704 8.146-.172 10.678 2.893 2.893 6.21 2.28 6.258 2.264v-.566c-.96-.016-3.207-.03-5.141-1.966-1.982-1.98-2.485-5.22.847-8.554 2.266-2.265 3.964-2.58 5.174-2.564 1.305.016 2.532.614 3.319 1.4 1.933 1.935 1.808 4.325.55 6.368l.361.363m4.207 16.4l-.365-.504c-2.392.529-3.586.021-5.22-2.228-1.947-2.68-1.93-2.694-1.192-3.229l4.462-3.243 1.977 2.798c1.067 1.507 1.011 1.959-.27 3.22l.3.415 4.173-3.033-.3-.413c-1.421.73-1.984.863-3.147-.738l-2.014-2.77 3.995-2.903c.612-.444.768-.229 1.043.15l1.764 2.429c1.452 1.997 1.504 2.673.099 4.107l.326.45 2.533-1.923-6.94-9.554-.343.247c.734 1.2.94 1.71-.481 2.742l-7.988 5.804c-1.385 1.006-1.848.71-2.757-.389l-.341.249 7.058 9.715 3.628-1.4"/><path d="M239.367 100.147c-.338-.921-.24-1.305.953-2.616l9.287-10.195-.182-.407-11.856.215c-1.065.012-2.83.043-3.544-.199-.549-.193-.745-.52-.91-.836l-.385.171 1.791 4.023.386-.173c-.19-.426-.615-1.38.238-1.76.224-.1.535-.166.845-.182l2.792-.123 2.37 5.323-1.579 1.701c-.23.249-.783.811-1.108.956-.752.334-1.07-.327-1.405-1.078l-.386.171 2.307 5.181.386-.172zm.403-12.107l6.626-.152-4.537 4.845-2.09-4.693m-.979 12.388l1.742 6.071c1.875 6.542 6.55 7.03 9.392 6.214 4.788-1.373 6.145-5.44 4.673-10.571l-1.655-5.772-.406.117c.343 1.682.197 1.979-1.384 2.432l-9.492 2.722c-1.497.43-1.912.27-2.464-1.33l-.406.117zm13.691.47c.429-.123.835-.239 1.123.766.771 2.693.538 4.055-.087 5.345-.902 1.855-2.486 2.865-4.282 3.38-6.22 1.784-7.729-3.476-8.121-4.843-.295-1.027-.218-1.326.509-1.535l10.858-3.113m7.244 31.3l-.54-4.392-11.746-3.51 10.52-6.468-.536-4.37-.42.052c.114 1.644-.007 2.13-1.728 2.34l-8.963 1.1c-2.383.293-2.771-.13-3.088-1.794l-.418.052.636 5.187.42-.051c-.132-1.62.297-2.144 2.57-2.422l8.808-1.082.005.044-11.377 6.976.038.31 13.248 4.064.006.044-9.91 1.217c-1.811.222-2.177-.024-2.477-1.735l-.42.052.76 6.18.419-.052c-.085-1.423.05-1.955 1.751-2.163l9.8-1.203c1.743-.215 1.941.299 2.223 1.676l.42-.052" fill-rule="evenodd"/><path d="M245.053 134.159l-.113 6.605.421.006c.074-1.644.306-2.174 2.039-2.144l9.873.173c1.779.031 1.924.59 1.964 2.215l.422.007.115-6.605-.422-.007c-.121 1.844-.394 2.15-2.04 2.123l-9.872-.174c-1.579-.027-1.952-.3-1.964-2.192l-.423-.007m12.49 23.881l.637-5.187-.419-.052c-.295 1.488-.547 2.084-3.085 1.772l-7.373-.905.006-.044 11.655-7.15.464-3.776-.42-.05c-.107.882-.261 1.222-1.476 1.991l-9.735-1.195c-2.384-.294-2.657-.798-2.562-2.488l-.42-.052-.636 5.187.419.052c.264-1.604.806-2.007 3.08-1.729l8.609 1.058-.007.045-13.288 8.225-.046.377 11.61 1.426c2.583.317 2.585 1.034 2.568 2.443l.42.052m-14.772-1.842l-1.486 6.436.412.094c.413-1.592.75-2.063 2.44-1.672l9.62 2.22c1.735.4 1.762.978 1.461 2.574l.411.096 1.487-6.436-.412-.096c-.501 1.78-.833 2.023-2.435 1.653l-9.622-2.222c-1.538-.355-1.846-.7-1.465-2.553l-.41-.094m10.379 19.717l.13-.45c-.224-.108-.686-.357-.514-.956.154-.534 1.211-1.48 1.58-2.763.55-1.923-.088-4.212-2.525-4.91-2.116-.607-3.449.49-5.146 2.132-2.74 2.616-3.565 2.75-4.783 2.4-1.155-.33-2.128-1.535-1.638-3.246.828-2.886 3.919-3.18 5.041-3.297l.14-.491-4.716-.66-.134.472c.342.098.645.415.516.864-.185.641-1.212 1.481-1.678 3.105-.876 3.057.76 5.1 2.576 5.62 4.383 1.257 6.857-5.76 10.064-4.84 1.325.38 1.675 1.66 1.369 2.728-.644 2.245-2.96 3.062-4.817 2.923l-.153.534 4.688.835m-18.6 6.94c.82-1.68 1.315-1.752 2.697-1.137l10.382 4.623-.489 1.098c-.994 2.235-1.613 2.64-4.038 2.072l-.218.488 3.508 1.415 5.102-11.458-3.398-1.66-.218.488c2.015 1.433 2.157 2.154 1.162 4.388l-.488 1.097-10.158-4.523c-1.504-.67-1.944-.939-1.203-2.823l-.385-.172-2.641 5.932.385.172"/><path d="M226.064 198.116c.494-.767 1.108-1.03 1.873-1.152l7.163-1.155c-.374 1.093-1.358 3.864 1.223 5.354 2.966 1.713 5.205-1.232 6.195-2.946l3.069-5.315-.366-.212c-.914 1.27-1.255 1.46-2.679.637l-8.34-4.816c-1.444-.833-1.803-1.144-.999-2.76l-.367-.21-3.08 5.334.366.211c.967-1.496 1.444-1.477 2.735-.732l3.793 2.19-.583 1.102-8.578 1.158-1.79 3.1.365.212zm16.037-2.425c.558.323.593.574.004 1.594-.456.79-1.97 3.28-4.532 1.801-2.754-1.59-1.125-4.501-.21-6.13l4.738 2.735" fill-rule="evenodd"/><path d="M216.557 210.11c.656-.73 1.04-.824 2.757-.386l13.363 3.414.274-.35-5.756-10.37c-.511-.934-1.366-2.476-1.489-3.222-.086-.576.111-.901.312-1.196l-.333-.26-2.711 3.47.333.26c.289-.367.932-1.191 1.668-.616.192.15.396.395.556.66l1.42 2.408-3.587 4.591-2.243-.595c-.328-.086-1.084-.31-1.364-.53-.649-.507-.215-1.098.293-1.747l-.334-.26-3.49 4.47.331.26zm10.88-5.329l3.244 5.781-6.406-1.733 3.163-4.048" fill-rule="evenodd"/><path d="M211.342 215.155c1.346-1.297 1.836-1.195 2.924-.145l8.174 7.895-.834.863c-1.7 1.76-2.42 1.93-4.505.567l-.37.383 2.812 2.531 8.713-9.023-2.626-2.723-.37.385c1.402 2.035 1.29 2.76-.41 4.52l-.834.864-7.998-7.723c-1.185-1.144-1.506-1.547-.165-3.065l-.303-.294-4.512 4.672.304.293m-2.679 1.842l-5.06 4.246.272.324c1.29-1.024 1.842-1.196 2.956.132l6.348 7.564c1.143 1.363.817 1.84-.384 2.934l.272.324 5.06-4.245-.272-.324c-1.47 1.118-1.881 1.114-2.94-.147l-6.346-7.564c-1.015-1.209-1.053-1.67.366-2.919l-.272-.325"/><path d="M197.22 225.507c-3.299 2.309-4.286 6.558-1.57 10.437 2.935 4.191 7.384 4.225 10.371 2.133 2.988-2.092 4.477-6.284 1.544-10.475-2.717-3.88-7.048-4.404-10.345-2.095zm.458.655c2.023-1.416 5.016-1.095 7.822 2.913 2.91 4.153 1.92 7.045.062 8.347-1.857 1.3-4.913 1.24-7.822-2.913-2.806-4.008-2.083-6.93-.062-8.347" fill-rule="evenodd"/><path d="M184.05 250.214l4.657-2.373-.193-.376c-1.397.587-2.032.71-3.193-1.568l-3.373-6.618.04-.02 12.446 5.664 3.388-1.727-.192-.376c-.792.404-1.16.466-2.478-.11l-4.452-8.739c-1.09-2.14-.826-2.65.63-3.516l-.192-.376-4.656 2.373.191.376c1.478-.677 2.116-.453 3.155 1.588l3.939 7.727-.041.021-14.251-6.417-.337.172 5.312 10.423c1.18 2.318.586 2.721-.591 3.495l.191.377M57.882 213.578c1.344 1.3 1.26 1.792.248 2.916l-7.604 8.446-.893-.804c-1.818-1.637-2.013-2.352-.723-4.482l-.397-.357-2.43 2.899 9.32 8.393 2.63-2.72-.397-.357c-1.985 1.473-2.715 1.385-4.532-.251l-.893-.804 7.44-8.264c1.102-1.222 1.494-1.557 3.057-.27l.283-.313-4.826-4.346-.283.314m11.514 27.612l4.615 2.453.198-.373c-1.283-.808-1.749-1.257-.548-3.516l3.487-6.558.039.02 2.499 13.445 3.358 1.785.198-.373c-.786-.418-1.047-.683-1.33-2.093l4.604-8.66c1.127-2.12 1.697-2.196 3.241-1.5l.198-.374-4.614-2.453-.199.374c1.403.82 1.585 1.472.51 3.494l-4.072 7.657-.04-.02-2.918-15.354-.334-.178-5.491 10.329c-1.221 2.298-1.892 2.041-3.202 1.521l-.199.374"/><path d="M63.736 219.07c.742.64.843 1.024.434 2.749l-3.18 13.42.356.268 10.265-5.937c.927-.527 2.454-1.41 3.198-1.544.574-.097.903.095 1.2.291l.254-.337-3.517-2.65-.254.337c.373.28 1.208.91.646 1.656a2.508 2.508 0 01-.65.568l-2.384 1.463-4.653-3.508.557-2.253c.08-.329.291-1.089.505-1.374.496-.657 1.095-.233 1.752.262l.254-.337-4.529-3.412-.254.337zm5.518 10.784l-5.723 3.345 1.62-6.436 4.103 3.09" fill-rule="evenodd"/><path d="M55.367 210.228l-4.42-4.909-.314.283c1.068 1.253 1.26 1.798-.029 2.959l-7.338 6.607c-1.322 1.19-1.81.882-2.946-.28l-.314.282 4.42 4.909.314-.283c-1.169-1.431-1.18-1.841.044-2.942l7.338-6.608c1.173-1.056 1.633-1.11 2.931.264l.314-.282"/><path d="M46.096 198.135c-2.251-3.337-6.482-4.4-10.41-1.75-4.24 2.86-4.352 7.307-2.312 10.33 2.04 3.024 6.205 4.587 10.446 1.726 3.927-2.648 4.526-6.969 2.276-10.306zm-.664.448c1.38 2.046 1.008 5.033-3.048 7.77-4.204 2.835-7.078 1.796-8.346-.085-1.269-1.88-1.156-4.934 3.048-7.77 4.056-2.736 6.966-1.961 8.346.085" fill-rule="evenodd"/><path d="M20.938 183.886l2.29 4.698.38-.186c-.562-1.408-.675-2.045 1.623-3.166l6.676-3.256.02.04-5.88 12.344 1.667 3.418.38-.185c-.39-.8-.447-1.168.153-2.475l8.815-4.299c2.158-1.052 2.663-.78 3.504.69l.38-.185-2.291-4.696-.38.185c.651 1.488.417 2.122-1.642 3.127l-7.796 3.801-.02-.04 6.665-14.137-.166-.34-10.514 5.128c-2.338 1.14-2.73.54-3.484-.651l-.38.185"/><path d="M28.836 162.914c.238.95.102 1.323-1.222 2.5l-10.303 9.17.138.424 11.814 1.024c1.062.1 2.819.254 3.505.569.526.25.686.595.816.928l.402-.132-1.36-4.187-.403.13c.145.445.467 1.438-.42 1.727-.233.076-.55.108-.86.093l-2.79-.17-1.8-5.54 1.748-1.527c.254-.224.864-.725 1.202-.836.782-.253 1.03.437 1.285 1.22l.402-.13-1.753-5.394-.401.13zm-1.667 11.999l-6.607-.543 5.02-4.343 1.587 4.886" fill-rule="evenodd"/><path d="M13.44 158.043l.981 6.194.418-.066c-.11-1.402-.062-1.95 1.673-2.225l9.754-1.544c1.69-.268 1.968.207 2.28 1.598l.416-.067-1.872-11.816-3.989-.45.087.55c3.076.796 3.386 2.189 3.909 5.483.289 1.822.33 2.222-.55 2.36l-10.39 1.646c-1.735.274-1.975-.25-2.3-1.73l-.417.067"/></g><path d="M37.242 132.584c1.9-54.528 47.643-97.184 102.173-95.275 54.528 1.908 97.191 47.659 95.29 102.188-1.901 54.53-47.645 97.184-102.173 95.275-54.529-1.908-97.19-47.659-95.29-102.188zm-3.97-.168C35.25 75.682 82.843 31.3 139.577 33.286c56.734 1.983 101.12 49.583 99.143 106.316-1.978 56.735-49.57 101.116-106.305 99.132-56.734-1.985-101.121-49.584-99.143-106.318" fill="#fde3ac" fill-rule="evenodd"/><path d="M5.69 131.441C8.197 59.471 68.57 3.171 140.54 5.69c71.97 2.518 128.277 62.9 125.77 134.87-2.507 71.97-62.88 128.27-134.85 125.752-71.97-2.519-128.277-62.9-125.77-134.87zm-4.67 6.909C-.287 63.8 59.084 2.32 133.631 1.021 208.18-.275 269.671 59.105 270.98 133.65c1.308 74.549-58.063 136.031-132.611 137.328C63.82 272.276 2.328 212.896 1.02 138.35" fill="#fde3ac" fill-rule="evenodd"/><path d="M72.509 118.251s-20.788 7.06-20.828 6.991c-.04-.068 1.994 1.074 1.994 1.074s14.64-4.454 17.186-5.07c0 0 .525-1.572 1.648-2.995" fill="#ed1c24" fill-rule="evenodd"/><path d="M66.16 140.173c0-25.154 20.39-45.545 45.544-45.545 25.155 0 45.546 20.391 45.546 45.545 0 25.155-20.391 45.546-45.546 45.546-25.154 0-45.545-20.391-45.545-45.546" fill="#fddd04"/><path d="M66.16 140.172c0-25.154 20.391-45.545 45.545-45.545 25.154 0 45.546 20.39 45.546 45.545s-20.392 45.545-45.546 45.545c-25.155 0-45.545-20.39-45.545-45.545h0z" fill="none" stroke="#fddd04" stroke-width="1.123" stroke-miterlimit="3.864"/><path d="M134.475 177.634c-19.35 11.467-39.339 6.225-44.07-.747-4.73-6.97-6.194-17.724-2.9-26.133 1.49-3.805 2.621-12.187 19.333-22.915 22.675-14.555 39.111-4.473 39.111-4.473s5.298 1.121 9.042 10.107c3.461 8.308-.35 32.211-20.516 44.161" fill="#fddd04"/><path d="M134.387 177.263c-19.113 11.37-39.038 6.289-43.83-.585-4.787-6.866-6.159-17.619-2.885-25.978 1.482-3.782 2.606-12.114 19.22-22.778 22.539-14.47 38.877-4.447 38.877-4.447s5.166.981 8.91 9.873c3.419 8.127-.15 31.929-20.292 43.915" fill="#f8d405"/><path d="M134.3 176.89c-18.878 11.274-38.74 6.354-43.593-.422-4.842-6.76-6.121-17.514-2.866-25.822 1.472-3.76 2.59-12.042 19.103-22.641 22.405-14.382 38.645-4.42 38.645-4.42s5.034.84 8.778 9.638c3.375 7.947.05 31.647-20.067 43.668" fill="#f2cc07"/><path d="M134.212 176.518c-18.642 11.178-38.438 6.418-43.354-.26-4.898-6.655-6.085-17.408-2.85-25.666 1.464-3.736 2.575-11.97 18.989-22.505 22.27-14.296 38.411-4.393 38.411-4.393s4.903.7 8.647 9.405c3.333 7.764.25 31.364-19.843 43.419" fill="#edc408"/><path d="M134.124 176.147c-18.405 11.08-38.138 6.481-43.116-.098-4.953-6.55-6.047-17.303-2.832-25.511 1.455-3.713 2.559-11.897 18.874-22.369 22.134-14.209 38.179-4.367 38.179-4.367s4.77.56 8.514 9.172c3.29 7.585.45 31.081-19.619 43.173" fill="#e8bc09"/><path d="M134.038 175.774c-18.17 10.985-37.84 6.546-42.88.065-5.009-6.446-6.01-17.197-2.814-25.354 1.446-3.692 2.543-11.825 18.759-22.234 22-14.122 37.946-4.339 37.946-4.339s4.638.42 8.382 8.937c3.247 7.403.65 30.8-19.393 42.925" fill="#e3b50b"/><path d="M133.95 175.402c-17.934 10.888-37.54 6.61-42.64.228-5.066-6.34-5.974-17.092-2.798-25.2 1.437-3.668 2.527-11.752 18.644-22.096 21.865-14.035 37.713-4.314 37.713-4.314s4.506.28 8.25 8.704c3.204 7.223.85 30.517-19.168 42.678" fill="#ddad0c"/><path d="M133.863 175.03c-17.699 10.792-37.24 6.675-42.403.39-5.121-6.235-5.937-16.987-2.78-25.044 1.428-3.646 2.511-11.68 18.528-21.96 21.73-13.949 37.48-4.286 37.48-4.286s4.375.14 8.12 8.47c3.16 7.04 1.048 30.235-18.945 42.43" fill="#d9a60d"/><path d="M133.776 174.658c-17.463 10.695-36.94 6.739-42.165.553-5.177-6.13-5.9-16.88-2.763-24.89 1.42-3.622 2.496-11.606 18.412-21.823 21.596-13.86 37.248-4.26 37.248-4.26s4.243 0 7.987 8.237c3.119 6.86 1.248 29.952-18.72 42.183" fill="#d49f0e"/><path d="M91.594 170.164s-2.746-5.491-1.894-12.8c.854-7.33 4.667-15.766 10.83-20.9 7.787-6.485 11.032-8.732 21.89-10.48 11.677-1.878 15.59 3.829 16.846 5.867.797 1.29 3.088 5.915.999 9.61-9.734 15.974-31.282 27.552-48.671 28.703" fill="#d49f0e"/><path d="M91.656 169.79s-2.623-5.478-1.781-12.698c.844-7.237 4.814-15.613 10.9-20.683 7.689-6.403 10.955-8.558 21.677-10.283 11.533-1.856 15.395 3.779 16.637 5.791.787 1.274 2.983 5.737.919 9.386-9.35 15.402-31.181 27.35-48.352 28.487" fill="#d9a60d"/><path d="M91.718 169.415s-2.5-5.468-1.67-12.595c.834-7.146 4.962-15.459 10.971-20.464 7.591-6.323 10.881-8.387 21.466-10.09 11.387-1.834 15.2 3.73 16.427 5.718.775 1.257 2.878 5.558.84 9.162-8.964 14.828-31.08 27.146-48.034 28.27" fill="#ddad0c"/><path d="M91.78 169.041s-2.377-5.456-1.557-12.493c.822-7.054 5.108-15.305 11.041-20.246 7.494-6.24 10.804-8.215 21.254-9.897 11.241-1.809 15.007 3.683 16.216 5.645.767 1.241 2.774 5.382.762 8.938-8.58 14.254-30.979 26.945-47.715 28.053" fill="#e3b50b"/><path d="M91.843 168.667s-2.255-5.446-1.446-12.39c.812-6.962 5.256-15.151 11.112-20.029 7.396-6.16 10.728-8.044 21.043-9.704 11.095-1.785 14.81 3.636 16.005 5.572.756 1.226 2.667 5.204.682 8.715-8.195 13.681-30.876 26.742-47.396 27.836" fill="#e8bc09"/><path d="M91.906 168.292s-2.134-5.435-1.335-12.288c.802-6.87 5.403-14.996 11.182-19.81 7.299-6.078 10.653-7.873 20.832-9.51 10.948-1.762 14.615 3.587 15.796 5.499.745 1.209 2.56 5.026.602 8.49-7.81 13.107-30.775 26.539-47.077 27.62" fill="#edc408"/><path d="M91.968 167.918s-2.011-5.424-1.222-12.185c.79-6.779 5.55-14.843 11.252-19.592 7.201-5.998 10.577-7.701 20.62-9.317 10.802-1.739 14.42 3.54 15.585 5.425.736 1.193 2.456 4.85.523 8.267-7.425 12.534-30.674 26.337-46.758 27.402" fill="#f2cc07"/><path d="M92.03 167.543s-1.888-5.41-1.11-12.082c.78-6.688 5.697-14.69 11.322-19.374 7.104-5.917 10.502-7.53 20.41-9.124 10.656-1.714 14.225 3.493 15.373 5.352.727 1.178 2.351 4.67.444 8.043-7.04 11.962-30.572 26.135-46.439 27.185" fill="#f8d405"/><path d="M92.093 167.169s-1.766-5.401-.999-11.98c.77-6.596 5.845-14.536 11.392-19.155 7.007-5.836 10.426-7.358 20.199-8.93 10.51-1.693 14.03 3.444 15.163 5.278.716 1.16 2.247 4.492.366 7.818-6.657 11.388-30.471 25.934-46.121 26.969" fill="#fddd04"/><path d="M204.219 136.755c.516-1.058 2.303-1.248 3.993-.424 1.689.824 2.64 2.35 2.123 3.408-.516 1.058-2.304 1.248-3.992.424-1.689-.824-2.64-2.35-2.124-3.408m-22.279-27.043c0-5.704 4.625-10.328 10.33-10.328 5.702 0 10.326 4.624 10.326 10.328s-4.624 10.327-10.327 10.327c-5.704 0-10.328-4.623-10.328-10.327" fill="#fff"/><path d="M199.356 102.19c.029.34.037.684.037 1.031 0 6.902-5.594 12.496-12.495 12.496-1.267 0-2.287-.175-3.448-.491 1.895 2.27 4.515 3.696 7.702 3.696 5.704 0 10.327-4.622 10.327-10.326 0-2.397-.753-4.654-2.123-6.406" fill="#f7f9fa"/><path d="M199.48 102.314c.027.34.037.684.037 1.031 0 6.902-5.596 12.496-12.496 12.496-1.266 0-2.34-.2-3.497-.491 1.895 2.27 4.565 3.696 7.752 3.696 5.704 0 10.327-4.623 10.327-10.326 0-2.398-.753-4.654-2.123-6.406" fill="#eff4f6"/><path d="M199.627 102.407c.028.34.037.685.037 1.032 0 6.902-5.595 12.496-12.496 12.496-1.267 0-2.447-.15-3.6-.5 1.895 2.269 4.668 3.705 7.855 3.705 5.704 0 10.327-4.624 10.327-10.328 0-2.396-.752-4.652-2.123-6.405" fill="#e7eef1"/><path d="M199.728 102.561c.027.34.037.685.037 1.033 0 6.902-5.594 12.496-12.496 12.496-1.266 0-2.447-.173-3.6-.523 1.894 2.27 4.667 3.728 7.855 3.728 5.704 0 10.328-4.624 10.328-10.328 0-2.397-.754-4.652-2.124-6.406" fill="#dfe8ec"/><path d="M199.852 102.685c.028.34.037.685.037 1.033 0 6.9-5.594 12.496-12.495 12.496-1.267 0-2.49-.188-3.641-.539 1.895 2.27 4.708 3.744 7.895 3.744 5.704 0 10.328-4.624 10.328-10.327 0-2.397-.754-4.655-2.124-6.407" fill="#d8e3e8"/><path d="M199.976 102.81c.028.34.037.684.037 1.032 0 6.901-5.594 12.496-12.495 12.496-1.267 0-2.49-.188-3.641-.539 1.894 2.27 4.708 3.743 7.895 3.743 5.704 0 10.327-4.622 10.327-10.326 0-2.397-.753-4.654-2.123-6.406" fill="#d0dde3"/><path d="M200.1 102.934c.027.34.037.684.037 1.031 0 6.902-5.595 12.497-12.496 12.497a12.49 12.49 0 01-3.64-.539c1.894 2.27 4.708 3.744 7.896 3.744 5.703 0 10.326-4.624 10.326-10.327 0-2.398-.753-4.654-2.123-6.406" fill="#c9d8de"/><path d="M200.224 103.058c.028.34.037.684.037 1.032 0 6.9-5.594 12.496-12.496 12.496a12.48 12.48 0 01-3.64-.538c1.895 2.27 4.708 3.743 7.895 3.743 5.703 0 10.328-4.624 10.328-10.328 0-2.397-.754-4.652-2.124-6.405" fill="#c1d3da"/><path d="M200.348 103.198c.028.34.037.685.037 1.033 0 6.9-5.594 12.496-12.496 12.496a12.49 12.49 0 01-3.64-.54c1.894 2.27 4.707 3.745 7.895 3.745 5.703 0 10.328-4.624 10.328-10.328 0-2.397-.754-4.653-2.124-6.406" fill="#bacdd5"/><path d="M200.472 103.306c.029.34.038.684.038 1.032 0 6.901-5.595 12.496-12.496 12.496a12.49 12.49 0 01-3.641-.539c1.895 2.27 4.708 3.744 7.896 3.744 5.703 0 10.327-4.623 10.327-10.327 0-2.397-.753-4.654-2.124-6.406" fill="#b3c8d1"/><path d="M181.941 109.711c0-5.704 4.625-10.327 10.33-10.327 5.702 0 10.325 4.623 10.325 10.327 0 5.703-4.623 10.328-10.326 10.328-5.704 0-10.329-4.625-10.329-10.328h0z" fill="none" stroke="#fff" stroke-width=".187" stroke-miterlimit="3.864"/><g fill="none" stroke="#fff" stroke-linecap="round" stroke-miterlimit="3.864"><path d="M59.94 153.007c-6.92-3.386-10.8-7.124-10.635-10.919.204-4.68 5.507-9.84 19.122-12.156" stroke-width="1.198"/><path d="M209.434 139.347c6.285 3.25 9.766 6.805 9.609 10.41-.507 11.657-38.916 19.444-85.788 17.395-31.607-1.383-58.99-6.883-73.32-13.895" stroke-width="1.311" stroke-linejoin="round"/><path d="M209.184 139.097c6.285 3.25 9.767 6.805 9.61 10.411-.508 11.656-38.916 19.443-85.788 17.394-31.608-1.383-58.991-6.883-73.32-13.895" stroke-width="1.198"/><path d="M209.434 139.097c6.285 3.25 9.766 6.805 9.609 10.411-.507 11.656-38.916 19.443-85.788 17.394-31.607-1.383-58.99-6.883-73.32-13.895" stroke-width="1.123" stroke-linejoin="round"/></g><path d="M142.803 106.128c6.477-1.906 18.87-6.921 19.293-6.993-4.405 2.215-30.518 15.335-40.6 19.545-9.877 4.123-27.336 12.813-34.044 16.256-6.707 3.441-11.735 6.15-20.59 11.586-8.854 5.435-15.295 12.798-15.295 12.798l.307 1.84s4.977-5.02 11.808-9.662c7.321-4.976 13.649-8.282 22.35-12.797 8.701-4.516 22.623-11.365 25.344-12.507 2.72-1.142 18.823-7.89 26.03-11.724 5.753-3.059 47.387-19.323 60.116-46.16-13.035 14.11-25.764 19.63-32.317 22.918-5.175 2.597-20.75 8.175-27.83 10.687 1.985 1.356 3.046 2.199 5.428 4.213" fill="#ed1c24"/><path d="M85.418 61.807a.491.491 0 11.983 0 .491.491 0 01-.983 0m-6.364 2.108a.683.683 0 111.366 0 .683.683 0 01-1.366 0m7.284 13.879a.53.53 0 111.061 0 .53.53 0 01-1.06 0m-2.702 2.14a.645.645 0 111.29 0 .645.645 0 01-1.29 0m-1.363 5.03a.568.568 0 111.137 0 .568.568 0 01-1.137 0m-2.146 2.529a.875.875 0 111.75.001.875.875 0 01-1.75 0m6.134 6.326a.683.683 0 111.367 0 .683.683 0 01-1.367 0m-2.684 2.713a.79.79 0 111.579.001.79.79 0 01-1.579-.001m-17.483-5.666a.721.721 0 111.443 0 .721.721 0 01-1.443 0m11.478.371l-.444-1.742-1.742-.443 1.742-.443.444-1.743.443 1.743 1.743.443-1.743.443-.443 1.742m10.759-7.502a1.028 1.028 0 112.056 0 1.028 1.028 0 01-2.056 0m7.689 11.553l-.444-1.743-1.742-.443 1.742-.444.444-1.743.444 1.743 1.742.444-1.742.443-.444 1.743m94.13-3.464a.762.762 0 111.524 0 .762.762 0 01-1.524 0m13.956 16.639a.61.61 0 111.219 0 .61.61 0 01-1.219 0m10.247-.418l-.445-1.743-1.742-.444 1.742-.443.445-1.743.444 1.743 1.741.443-1.741.444-.444 1.743m1.741 16.398l-.444-1.743-1.743-.443 1.743-.443.444-1.743.443 1.743 1.743.443-1.743.443-.443 1.743m-8.173-11.293l-.443-1.743-1.743-.443 1.743-.443.443-1.743.443 1.743 1.743.443-1.743.443-.443 1.743m2.764-3.931a.608.608 0 111.215-.001.608.608 0 01-1.215 0m-5.905 10.429a.607.607 0 111.216 0 .609.609 0 11-1.216 0m16.426-6.928a.953.953 0 111.906 0 .953.953 0 01-1.906 0m-13.342 3.943a.525.525 0 111.05-.002.525.525 0 01-1.05.002m1.056 5.746a.608.608 0 111.217 0 .608.608 0 01-1.217 0m1.731-6.754a.359.359 0 01.718 0 .359.359 0 01-.718 0m-32.058 78.935l-.493-1.939-1.94-.494 1.94-.493.493-1.94.494 1.94 1.94.493-1.94.494-.494 1.94m-15.642 8.281l-.494-1.939-1.94-.495 1.94-.492.494-1.941.493 1.94 1.94.493-1.94.495-.493 1.94m-3.798-42.396a.66.66 0 111.32 0 .66.66 0 01-1.32 0m2.914 13.716a.651.651 0 011.3 0 .65.65 0 01-1.3 0m7.285-1.947a.699.699 0 111.397 0 .699.699 0 01-1.397 0m14.534 27.354a.49.49 0 11.978-.001.49.49 0 01-.978 0m2.3-1.917a.795.795 0 111.59 0 .795.795 0 01-1.59 0m-11.12 8.105l-.494-1.94-1.94-.494 1.94-.495.494-1.939.494 1.94 1.939.494-1.94.493-.493 1.94m-21.239-1.906a.783.783 0 111.566 0 .783.783 0 01-1.566 0m5.827 3.374a.706.706 0 111.413 0 .706.706 0 01-1.413 0m-3.373 1.163a.642.642 0 111.284 0 .642.642 0 01-1.284 0m-5.292 4.869c0-.333.283-.604.631-.604.348 0 .63.27.63.604a.618.618 0 01-.63.606.619.619 0 01-.63-.606m-3.451-1.01a.515.515 0 111.03 0 .515.515 0 01-1.03 0m19.4-.561a.72.72 0 111.44 0 .72.72 0 01-1.44 0m14.568-4.997a.707.707 0 111.413-.001.707.707 0 01-1.413 0m4.372-.753a.49.49 0 11.978 0 .49.49 0 01-.979 0m-18.019 1.84a.567.567 0 111.133 0 .567.567 0 01-1.133 0m-98.857-21.74l-.494-1.94-1.94-.493 1.94-.495.494-1.939.494 1.94 1.94.494-1.94.493-.494 1.94m-8.143-9.787a.655.655 0 111.31 0 .655.655 0 01-1.31 0m-3.144 2.3a.655.655 0 111.31.001.655.655 0 01-1.31-.001m19.016 3.72a.617.617 0 111.233-.001.617.617 0 01-1.233 0M79.8 185.9a.694.694 0 111.387 0 .694.694 0 01-1.388 0m-5.214 3.604a.617.617 0 111.235 0 .617.617 0 01-1.235 0m3.451 2.607a.617.617 0 111.235 0 .617.617 0 01-1.235 0m1.15 4.256a.656.656 0 111.311 0 .656.656 0 01-1.311 0m-5.904-3.834a.808.808 0 111.616-.002.808.808 0 01-1.616.002" fill="#fff"/></svg>