<svg xmlns="http://www.w3.org/2000/svg" xmlns:xlink="http://www.w3.org/1999/xlink" width="720" height="153.949"><defs><radialGradient xlink:href="#a" id="d" cx="-345.054" cy="77.55" fx="-345.054" fy="77.55" r="31.989" gradientTransform="matrix(-.00209 -1.16825 1.1761 -.0021 -240.616 -323.158)" gradientUnits="userSpaceOnUse"/><linearGradient id="a"><stop offset="0" stop-color="#f1f3f8"/><stop offset="1" stop-color="#395492"/></linearGradient><clipPath clipPathUnits="userSpaceOnUse" id="c"><use xlink:href="#b" overflow="visible" width="720" height="153.949" transform="translate(-223.698)"/></clipPath><path d="M125.825 81.677c0 17.67-14.324 31.992-31.992 31.992-17.666 0-31.984-14.322-31.984-31.992 0-17.666 14.318-31.988 31.984-31.988 17.667-.001 31.992 14.322 31.992 31.988" id="b"/></defs><path d="M289.532 42.698v3.65h-11.549v61.312c0 14.594-2.949 21.748-9.309 27.15-6.359 5.4-16.131 7.59-30.092 7.59-11.018 0-18.193-3.211-24.719-7.738-6.666-4.674-9.611-14.16-9.611-30.51V46.349h-12.418v-3.65h42.305v3.65h-13.045v53.428c0 20.287-2.064 37.953 26.012 37.953 18.156 0 25.914-10.803 25.914-26.855V46.349h-14.283v-3.65h30.795m24.017 98.388h-2.852v-24.152h4.869c3.508 13.861 14.766 23.117 32.533 23.117 13.236 0 26.951-10.303 26.951-22.27 0-15.238-16.027-17.268-28.594-21.064-3.35-1.021-6.703-2.043-10.055-2.922-15.588-4.086-25.109-12.088-25.109-25.953 0-15.324 15.02-27.332 32.449-27.332 9.721 0 15.457 2.041 23.164 7.299l5.064-4.539h3.008v22.316h-4.053c-1.84-13.869-17.602-21.426-27.688-21.426-10.725 0-24.051 8.26-24.051 18.039 0 11.242 13.463 13.617 23.857 16.098 4.186 1.023 7.527 2.047 10.383 2.773 3.348.879 7.535 1.898 11.061 3.357 14.074 5.84 19.305 15.293 19.305 26.576 0 18.395-15.252 32.699-36.867 32.699-7.877 0-19.627-4.08-25.504-8.75l-7.871 6.134m185.063 1.017h-4.731l-64.234-92.837v87.296h12.842v3.649h-30.731v-3.649H424.6V46.349h-12.842v-3.651h37.744l44.061 63.789V46.349h-13.834v-3.651h32.041v3.651h-13.158v95.755m53.703-5.541h14.307v3.648h-43.57v-3.648h13.002V46.349h-13.002v-3.65h50.213c17.18 0 37.676 1.896 37.676 22.189 0 16.496-18.76 22.189-33.43 23.648v.295c24.604 3.502 30.115 15.758 30.115 39.553 0 5.109.469 10.953 15.605 8.322v3.506c-4.416 1.021-8.822 1.752-13.396 1.752-15.928 0-24.281-7.447-24.281-22.336 0-12.113-2.203-21.172-6.299-24.381-4.424-3.502-13.373-5.25-18.264-5.25h-8.676v46.566m0-50.216h16.836c14.199 0 20.035-6.277 20.035-19.412 0-16.354-5.207-20.586-19.238-20.586h-17.633v39.998zM720 111.161v29.926h-3.467l-6.455-7.006c-7.102 5.693-18.977 8.32-28.273 8.32-27.744 0-48.715-26.127-48.715-50.361 0-18.977 10.881-36.939 28.535-46.717 6.303-3.352 14.197-4.812 21.443-4.812 8.826 0 18.797 2.334 25.74 7.592l6.303-6.131h3.471v28.172h-4.57c-2.369-15.91-15.656-25.982-31.098-25.982-10.098 0-15.297 2.041-20.822 9.924-7.404 10.516-7.121 27.439-7.121 39.266 0 8.32.977 19.709 3.971 29.197 3.006 9.344 10.41 15.619 22.387 16.203 19.396.873 29.686-11.824 34.262-27.59H720m-420.625 24.386a6.766 6.766 0 01-6.775 6.771 6.77 6.77 0 110-13.539 6.77 6.77 0 016.775 6.768m103.499 0a6.76 6.76 0 01-6.758 6.771 6.765 6.765 0 01-6.777-6.771 6.77 6.77 0 016.777-6.768c3.732 0 6.758 3.032 6.758 6.768M43.866 63.235s21.033 30.143 51.129 55.354c17.99 15.072 47.357 35.676 58.738 28.137 11.436-7.57-13.689-43.588-13.689-43.588s28.141 36.213 16.15 48.436c-8.336 8.5-40.748-6.07-74.729-39.439-26.613-26.132-35.679-44.573-37.599-48.9"/><path fill="#1B91A7" d="M123.901 50.47s48.281-10.143 44.439 8.002c-2.68 12.625-21.285 24.555-37.672 34.133-35.518 20.76-81.191 31.371-81.191 31.371s34.051-5.047 63.66-17.686c36.75-15.684 69.459-42.904 59.66-53.662-10.918-11.988-48.896-2.158-48.896-2.158"/><path clip-path="url(#c)" transform="translate(223.698)" fill="url(#d)" d="M-161.851 49.69h63.978v63.979h-63.978z"/><path fill="#98B18B" d="M130.36 33.712s-21.068 13.686-42.592 38.594C66.67 96.728 49.69 123.153 57.936 132.425c7.381 8.309 37.369-13.062 37.369-13.062s-31.219 25.059-41.982 14.605C40.02 121.036 78.065 77.146 85.461 69.235c22.94-24.531 42.663-34.494 44.899-35.523"/><path fill="#B97860" d="M175.209 65.728s-42.186-11.732-95.289-7.975C26.264 61.546 3.208 76.009.575 84.544c-6.955 22.488 51.533 30.871 51.533 30.871S1.202 106.442 6.915 88.22c5.777-18.428 65.186-24.895 96.076-26.521 29.217-1.536 72.218 4.029 72.218 4.029"/><path fill="#F0BA72" d="M90.379 40.786S104.375-6.042 121.443.655c16.453 6.461 12.848 62.303 9.84 84.418-4.303 31.674-16.299 56.738-16.299 56.738s13.529-37.83 14.607-86.723c.959-43.52-9.227-50.436-15.072-49.971-12.173.956-24.14 35.669-24.14 35.669"/></svg>