<svg xmlns="http://www.w3.org/2000/svg" height="362" width="358.85" preserveAspectRatio="none" viewBox="0 0 0.498 0.503"><g stroke-miterlimit="10.433" stroke-width="0"><path d="M.243.002C.234.002.229.007.229.014.23.03.25.026.251.036.25.042.247.044.24.045.24.045.235.043.234.04A.026.026 0 01.23.033H.229v.011a.024.024 0 00.013.003c.01 0 .014-.006.014-.014 0-.012-.02-.009-.021-.02 0-.005.003-.008.008-.008S.25.008.25.013h.002v-.01L.242.002zm.026.002v.002l.006.002-.006.036H.263v.002l.03.005.005-.01H.296L.292.047.275.044.278.028l.011.001v.005h.002L.293.023H.291L.29.026.28.025V.009L.294.01v.006h.003v-.01L.27.005zm.06.013c-.01 0-.016.005-.02.014-.006.016.002.026.016.03a.048.048 0 00.012.003L.344.058V.057a.016.016 0 01-.018.002C.316.055.311.043.316.031.32.02.328.018.338.02.35.027.351.032.35.038h.002l.004-.01A.074.074 0 00.34.02.032.032 0 00.328.017zm-.163 0L.148.024.15.026.155.025l.013.034-.006.003.001.002.03-.01L.19.042H.189v.01L.172.056.161.023.166.019V.017zm.202.015L.366.034l.005.004-.014.02C.35.067.352.076.363.084.375.09.383.086.39.076L.402.06l.005.003L.41.06.394.05v.002l.004.004-.012.018a.034.034 0 01-.009.008A.015.015 0 01.365.08C.358.075.358.068.363.06L.376.042.38.044.383.042.367.032zM.116.04L.114.042l.008.043L.118.09H.12L.132.082V.081L.124.083.122.07.136.06l.011.01-.004.003v.002L.16.065H.158L.153.066.116.04zm.002.01l.015.01-.011.007L.118.05zm-.03.01L.075.073l.001.001.006-.003L.106.1.102.103l.002.002.013-.012L.116.09.111.095.086.067.09.062.088.061zm.33.008L.417.07.42.076.393.1.388.097.386.098.4.112.401.11.397.105l.011-.01A.074.074 0 00.413.1.213.213 0 00.41.12l.002.004.002.004h.002V.115L.418.103C.423.104.428.103.432.1.438.095.436.088.432.084L.418.069zM.425.08l.002.002c.005.005.005.01 0 .015C.42.103.416.101.411.095V.093H.41L.424.08zM.066.082a.08.08 0 00-.012.012C.044.107.046.118.057.127.07.137.08.133.09.122A.05.05 0 00.097.11L.093.1.091.103A.017.017 0 01.088.12C.081.13.068.13.058.121.05.113.05.105.056.096.064.087.07.088.074.091L.076.089.066.082zm.386.026H.45l.003.007-.031.02L.418.13.416.131l.01.016.002-.001L.425.14.456.12.46.124.462.123.452.108zM.32.11C.294.11.286.12.286.12v.002L.283.124v.002L.281.128V.13H.28v.004L.278.136v.002L.275.14v.003L.273.145.272.146v.001H.27v.001H.268L.267.15H.258C.232.15.229.134.229.131.227.128.232.125.232.125.231.125.22.125.205.122.185.116.185.129.185.129S.163.123.16.135V.15S.177.14.19.151c.012.01.014.018.03.037.009.01.03.04.058.027 0 0-.004-.007-.022-.02L.228.18.203.154C.197.147.18.137.168.14L.166.143V.136c.002-.002.012-.003.025 0 0 0-.002-.01.008-.008l.024.005s0 .023.037.026c.02 0 .026-.02.03-.027C.293.13.296.125.3.125a.083.083 0 01.095.04l.035.07C.448.266.462.261.474.25c0 0-.018.01-.033-.026A.337.337 0 00.391.14.087.087 0 00.347.114.137.137 0 00.319.111zM.165.116a.083.083 0 00-.054.026C.09.159.078.192.066.217.055.24.05.245.04.25H.038L.037.252H.035v.001H.024V.25S.032.26.04.26C.06.258.077.223.083.212.09.197.103.163.126.143A.09.09 0 01.17.124C.185.12.185.118.185.118a.077.077 0 00-.02-.003zm.03.016h.001v.001h.001v.002l.001.001v.002S.202.135.21.135L.196.132zm.273 0l-.01.004v.002L.467.137c0 .002.002.003.003.005L.472.15.438.164.434.158.433.16.44.177h.002L.44.17.474.155l.003.007.003.006-.006.004.001.002.01-.005L.467.133zm-.147 0c-.01 0-.017.003-.017.003L.3.137.294.15C.35.152.36.219.36.219h.004V.22l.002.001.002.001.002.001v.001h.002v.001h.001l.001.001h.001v.001h.001l.001.001h.001V.23H.38l.001.001S.37.19.354.17C.34.15.318.144.318.144c.03-.002.04.011.051.026.011.015.028.068.039.08.007.008.02.009.02.009a.277.277 0 01-.026-.05.155.155 0 00-.038-.063A.072.072 0 00.32.133zm-.28.003C.032.135.025.139.02.149c-.005.012 0 .024.012.03.012.004.024.001.03-.014L.064.163V.162L.065.16V.149L.062.146H.061V.145L.06.144.058.141.057.14H.054V.138H.052A.03.03 0 00.04.135zM.15.14H.148v.001L.147.143H.146L.144.145H.142L.14.146v.002H.137L.135.15.134.152.132.154.13.156.128.158.126.16.124.163.122.165.12.168.118.171v.002L.115.174v.002L.113.178V.18H.111v.002L.11.185v.002L.107.19v.002L.105.194C.082.249.068.26.068.26.092.26.107.23.114.211.134.158.153.153.153.153L.152.14zm-.113 0C.042.14.045.143.05.144l.002.001h.001l.001.001.002.001v.001l.002.001V.15h.001L.06.151v.003l.001.002v.009C.055.175.044.177.032.171.023.167.019.16.023.151A.017.017 0 01.038.14zM.29.155L.282.167C.322.185.323.21.323.21h.008l.002.001h.003l.002.001H.34v.001h.001C.335.17.291.155.291.155zm-.114 0C.17.157.15.162.132.203v.002L.13.206v.002L.129.209v.002L.127.212v.002L.125.217v.001L.124.22.123.222.122.224v.001H.121v.001H.12V.23L.14.22C.159.166.186.158.186.158S.182.156.177.156zm.016.011L.191.167.189.17H.186L.184.172.182.174.18.176v.002L.177.18.175.182.174.184.172.186.171.188.169.19.168.192.167.194.165.196v.002L.162.2v.002L.16.204v.004L.158.21v.002L.156.214v.001L.171.214C.18.19.2.173.2.173L.193.167zm.08.009H.271L.27.177v.001H.266v.001H.264V.18H.256a.086.086 0 01.035.031.096.096 0 01.018-.002C.3.187.273.175.273.175zm.214.002H.485v.007L.467.202.452.205.45.198H.448l.004.02h.002V.211L.468.208l.024.007.002.005h.003L.493.203H.491V.21L.471.205.488.19.49.196h.002L.487.177zM.208.185s-.013.01-.02.028h.008l.006.001V.212L.204.21h.001V.207L.206.205h.001V.203h.001V.2H.21V.198h.002L.213.196.214.195.215.194V.193h.001L.208.184zm-.2.003L.003.197C.002.205.006.21.012.213.028.216.03.195.04.197.045.2.046.203.045.208.045.211.042.215.04.216H.031v.002l.01.002A.024.024 0 00.048.208C.05.2.045.193.037.191.026.19.025.21.013.207.008.206.006.202.007.197c0-.005.005-.006.01-.006V.19L.007.188zm.444.103L.447.306H.45L.452.301l.03.01L.44.328l-.004.01.002.001.003-.005.035.011v.006h.002L.482.339.48.337.478.343.447.333.49.313V.31L.454.298V.29H.452zM.003.292H.001l.004.015h.002V.3L.02.302l.004.015-.011.009L.01.32H.008l.005.018h.002V.331L.05.305V.302L.004.297.003.292zm.274.004v.127L.29.42V.296H.278zm.026 0v.121L.318.413V.296H.303zm.028 0v.112s.013 0 .013-.02V.297H.331zm-.161 0V.39c0 .02.013.02.013.02V.297H.17zm.027 0v.118l.014.003v-.12H.197zm.026 0V.42l.014.004V.297H.223zm.027 0v.13l.006.008.007-.007v-.13H.25zM.023.303l.018.002-.014.011L.023.302zm.031.022H.052l.002.007-.033.016L.018.342.016.343l.01.02c.006.013.017.02.032.012C.07.368.07.355.065.345L.055.323zm.003.012a.092.092 0 01.004.006C.067.354.065.364.052.37.042.376.033.372.028.363V.36H.026V.358L.025.356.024.353V.351L.056.336zM.441.35C.434.35.428.354.423.362.416.373.419.385.431.392.441.4.454.399.462.385L.464.381.465.38.466.378V.374L.467.373V.366L.464.365V.364L.463.363.462.36H.461L.46.359V.358H.458V.356H.457L.456.354A.027.027 0 00.44.35zM.44.356c.004 0 .008.001.013.004h.001l.001.001h.001v.001l.001.001h.001v.001h.001v.001L.46.366v.003h.001V.37l.001.001v.011H.46v.002C.454.393.443.393.431.386.422.38.42.37.425.363A.017.017 0 01.439.356zM.077.369L.076.371l.003.005-.03.022L.045.395.043.396l.01.011.002-.001L.052.4.079.38.062.417l.04-.013-.025.025L.073.426.07.427.083.44h.001L.081.434.106.407.111.41.113.409.104.4.072.411.086.379.077.37zM.41.382L.398.395l.001.002.005-.004.028.024-.003.005.001.002L.442.41.441.409.436.413.408.388.411.383.41.382zM.394.399L.362.425l.006.009L.37.433.367.426.372.422.378.417.4.445.396.451l.001.001L.413.44.41.438.405.442.382.413.388.408A.085.085 0 01.394.404L.399.41.401.407.394.4zM.117.412v.002L.12.418l-.022.03L.093.445.092.447l.014.01.001-.001L.103.451l.022-.03.006.004.001-.002-.015-.01zm.019.014L.135.428.14.432.124.465.118.463.117.465l.014.007L.132.47.127.467l.014-.03.014.047.003.001L.175.45l.006.002L.182.45.168.442v.002l.004.003L.16.475.146.43.136.426zm.21.008L.345.435.349.48.345.482v.002L.36.477V.475L.351.477.35.463.364.456l.011.009L.37.469.371.47.387.462.386.46.381.462.347.434zm.002.008l.014.012L.35.46.348.442zM.312.45H.307l-.02.006.001.002h.007l.01.035L.3.495v.002L.318.492V.49H.31L.307.476A.076.076 0 00.313.474.205.205 0 00.33.486h.01V.484C.336.484.332.481.329.48L.318.47C.32.467.323.46.322.456A.01.01 0 00.312.45zm-.125 0v.003l.006.003-.01.035H.177v.002l.017.004V.494L.19.492.2.456h.006L.187.45zm.12.003c.005 0 .008.003.01.008C.319.47.316.47.309.472H.306v.001H.305L.301.454.304.453h.003zM.284.456L.244.46v.01h.001L.247.462H.26l.002.036-.006.001v.002L.277.5V.498H.268L.267.46H.28l.002.007h.002v-.01zM.222.457a.012.012 0 00-.012.01C.208.483.23.482.228.493.228.498.223.5.218.499.216.5.211.497.21.494A.03.03 0 01.209.487H.207v.01a.024.024 0 00.011.005C.228.502.233.498.234.49.235.478.214.478.216.466.216.462.22.46.225.46.23.46.23.465.232.47h.002V.46L.225.457a.02.02 0 00-.003 0z" fill="#336"/><path d="M.255.227a.02.02 0 00-.012.004S.235.236.235.245c0 0 .001.01.009.014l.011.007s.008.002.008.007c0 0 .001.007-.008.007 0 0-.008.001-.012-.005C.24.269.241.265.24.264L.234.268v.014s.009.006.019.005c0 0 .011 0 .016-.005C.27.282.275.28.275.27.275.259.272.254.263.25c0 0-.006-.003-.01-.003 0 0-.006-.002-.005-.007 0-.002 0-.007.009-.007.01 0 .01.011.01.012L.273.242.272.23.262.228H.254zm.053.001L.288.28H.282v.007h.023V.28H.3L.302.271h.019L.323.28a.05.05 0 00-.005 0v.007h.026V.28H.337L.318.229h-.01zM.19.23H.163v.007H.17v.034c.001.003.002.006.006.01 0 0 .008.007.02.007 0 0 .012 0 .019-.007C.215.28.22.276.22.267v-.03A.04.04 0 00.227.236V.229H.204v.007H.21v.031S.21.28.196.281c0 0-.012 0-.012-.014v-.03L.19.236V.229zm.12.02l.006.015H.305L.311.25z" fill="#c33"/></g></svg>