<svg xmlns="http://www.w3.org/2000/svg" height="500.04" width="500" preserveAspectRatio="none" viewBox="0 0 0.694 0.694"><g stroke-miterlimit="10.433"><path d="M.5.998L.526.997.55.995.576.992.6.988.624.982.648.975.671.967.694.96.716.95.737.939.758.927l.02-.013L.798.9.817.885.835.869.852.853.868.836.884.818l.015-.02.014-.019.013-.02.012-.02.01-.022.01-.022.01-.023.007-.023.007-.024L.988.6.992.576.995.55.997.526V.5A.498.498 0 10.5.998z" stroke="#005a9c" stroke-width=".005" fill="#005a9c" transform="matrix(.68889 0 0 .68894 .003 .003)"/><path d="M.24.597L.256.385C.255.302.227.294.227.294L.336.229C.438.288.499.21.499.21.59.297.667.23.667.23L.78.295C.744.334.75.362.75.362l.009.232L.502.406.24.597z" stroke="#efd763" stroke-width=".006" fill="#efd763" transform="matrix(.68889 0 0 .68894 .003 .003)"/><path d="M.502.846h0V.844h.002V.842L.507.84.508.839.509.837.511.836.513.834.515.832.518.83.521.827.524.825.527.823.531.82.535.818.539.815.543.813.548.81.553.808.558.805.564.803.569.8.576.797.582.795.59.793.596.79.604.788.612.786.62.784S.682.782.736.697L.501.53.269.694c.058.086.12.087.12.087.095.033.113.065.113.065z" stroke="#efd763" stroke-width=".005" fill="#efd763" transform="matrix(.68889 0 0 .68894 .003 .003)"/><path d="M.347.174L.34.212.33.2.25.217s-.016.022-.03 0L.21.218s0 .017.02.026h0a.006.006 0 00-.002.004.006.006 0 00.001.004l-.034.06S.226.37.271.317L.238.252H.24V.25h0v0h0V.248h0A.006.006 0 00.239.243H.24S.253.242.257.228h.082L.338.256c.002.01.01.01.01.01.01 0 .011-.01.011-.01L.356.228h.081a.025.025 0 00.018.017h.002A.006.006 0 00.455.25c0 .002 0 .003.002.004h0L.466.252h.001V.251h0V.25h0v0-.005h0C.484.235.486.22.486.22L.475.218c-.015.022-.03 0-.03 0L.366.201.352.21.347.176h0zm.11.08h0L.424.317C.468.371.5.315.5.315L.466.254h0L.464.256h0-.001 0L.462.257h0-.001 0c-.003 0-.004 0-.005-.002zM.35.286L.166.42v.008L.168.43v.002l.001.004.001.005.001.004.001.004.002.004.001.004.002.004.002.004L.18.47v.003l.002.003.003.004.002.003.161-.117.164.119A.123.123 0 00.53.418L.35.286zm.09.161C.425.447.42.46.419.477h0S.412.477.411.473c0 0-.002.004-.007.004H.295a.011.011 0 00-.018 0H.225c-.01.009 0 .016 0 .016h.01v.025h.02v-.02h-.01v.005H.242v-.01H.27v.01H.266V.498H.258v.02h.02V.494h0a.011.011 0 00.008.003H.29V.495h.002V.494h.001V.493h.112c.004 0 .006.005.006.005C.412.493.418.493.418.493h0v.005L.42.499v.007l.001.002h0L.422.51v.001l.001.001v.001l.001.001.001.001v.001l.001.001.001.001h.001L.43.52h.002l.001.001h.001l.001.001h.004L.44.524h.002C.46.523.463.505.463.483S.459.448.44.448h0z" stroke="#3197d4" stroke-width=".002" fill="#3197d4"/></g><g stroke="#fff" stroke-miterlimit="10.433" fill="none"><path d="M.243.508h.004V.505m.022.003h.003V.496" stroke-width=".003"/><path stroke-width=".003" d="M.429.69h.144" transform="matrix(.68889 0 0 .68894 .003 .003)"/><path d="M.62.65h0-.002v.001H.617v.002H.614v.003L.612.657h0L.611.66H.61v.004L.608.666h0L.607.669v.003H.606v.005H.605v.008a.128.128 0 00.002.04c.004.015.014.02.014.02m.033-.08C.659.676.653.69.653.69m.001.015c.006.012 0 .028 0 .028M.338.71v.032M.323.69H.39" stroke-width=".004" transform="matrix(.68889 0 0 .68894 .003 .003)"/><path stroke-width=".004" d="M.234.232h.002L.237.23H.24v0h.001V.228h.001V.227h.001V.226h.001L.246.225h0V.224h.001V.223h0L.248.222h0V.221h.001L.325.203l.002.003"/><path stroke-width=".002" d="M.21.22l.003.007V.22z"/><path stroke-width=".005" d="M.356.212L.364.205l.008.002"/><path d="M.491.326v.038C.49.37.497.374.497.374" stroke-width=".007" transform="matrix(.68889 0 0 .68894 .003 .003)"/></g><path d="M.445.483l.001.001.001.001v.001h.001v.001L.45.489v.003l.001.001v.003c0 .01-.004.018-.01.018C.433.515.427.508.426.5A.02.02 0 01.433.484.018.018 0 01.427.47c0-.01.005-.018.011-.018.007 0 .013.006.013.015a.019.019 0 01-.006.016z" fill="#efd763"/><g stroke-miterlimit="10.433"><path d="M.234.25v.064h.032L.234.25zM.231.253l-.034.06h.034v-.06zm.232 0v.062h.034L.463.254zM.46.255l-.032.06H.46v-.06z" stroke="#3197d4" stroke-width=".003" fill="#efd763"/><path d="M.5.984h.025L.55.982.574.979.598.975.62.969.644.963.666.955.688.947.71.937l.02-.01.02-.012.02-.013L.79.89.806.874.825.86.842.843.858.826.873.81.887.79.901.77.913.753l.012-.02.01-.02.01-.022.009-.022L.96.645.968.623.973.599.977.575.98.551.982.527V.502a.482.482 0 10-.481.482zm0-.116h.02L.537.866.556.864.574.86.592.857.61.852.626.846.643.839.66.832.675.824.69.815l.015-.01.015-.01.013-.01.014-.012.012-.012.013-.013.011-.013L.794.72l.01-.014.01-.015.008-.016L.831.66.838.643.844.627.85.61.855.593.86.576.862.558.865.539.866.521V.502a.366.366 0 10-.365.366z" stroke="#fff" stroke-width=".009" fill="none" transform="matrix(.68889 0 0 .68894 .003 .003)"/><path d="M.34.04L.302.044v.01h.002C.306.047.308.046.315.045h.003l.004.032c0 .005 0 .006-.006.007v.001L.335.083V.082C.33.082.33.082.328.077L.325.044h.003C.335.043.338.044.34.05h.002L.339.04zm.037 0H.374L.373.042H.37L.369.043H.368v.001H.365v.001H.364v.001H.363h0L.361.049H.36V.05h0v.001L.358.052v.001L.357.054v.002H.356v.005h0C.354.074.362.084.374.085.387.086.397.079.398.065.4.05.39.042.38.04H.377zm.001.003h.005v.001h.001l.001.001h0l.001.001h0l.001.001h0l.001.001h0L.39.05h0v.002h0v.002h0l.001.002h0v.008C.39.078.382.084.375.083.368.082.362.075.364.06.365.048.372.043.378.043zM.3.045L.285.049h0C.29.05.291.05.293.057L.3.076h0L.267.054l-.01.003v.001L.264.06.27.087c.002.006 0 .008-.004.01h0L.282.094V.092C.277.093.275.092.274.086L.267.062h0l.037.026h0L.297.055h0V.053h0V.052h0V.051h0V.05h0v0h0V.048h0V.047h0L.298.046h.001L.3.045h0v0zm.108 0v.001c.004.002.005.002.004.007L.404.08C.403.085.402.086.397.085v.002L.414.09v0C.41.088.41.087.41.083L.414.069l.009.002h.001v.001h.002v.001h.001v.001h.001v.001h0v.001h0v.001h0v.001h0V.08H.43L.433.066H.432C.43.069.429.07.424.069L.414.066.418.053C.418.05.419.05.421.05l.008.002c.007.002.008.003.008.01h.001l.003-.01L.407.046zM.245.058L.214.072v.002C.218.072.22.072.221.077l.012.026C.235.107.234.108.23.11v.001L.263.097.26.087H.259C.26.094.257.097.25.1.242.104.242.104.24.102L.234.087.243.083C.248.081.249.081.252.086h.001L.247.071H.246c0 .005 0 .006-.004.009l-.01.004L.227.072V.069l.01-.004C.242.062.244.063.247.067H.25L.245.058zm.217.003l-.005.01H.46C.463.067.465.067.472.07h.003L.46.1C.459.103.458.104.453.102h0l.016.009V.11C.466.108.466.107.468.103L.48.073l.003.002C.49.078.49.079.49.087h0l.004-.01L.462.061zM.204.077L.193.084l.006.035L.17.1.16.107v.001C.163.106.164.106.167.11l.015.022c.004.006.003.007 0 .01h0L.195.135H.194C.19.135.188.134.184.13L.17.109h0l.033.02h0L.198.088h0l.016.024C.216.117.216.118.212.12v.001l.016-.01H.227C.223.112.222.113.218.11L.202.086h0V.084h0V.083h0V.082h0v0h0V.08h0v0h0L.204.078h0L.205.077h0v0zM.502.08L.5.081C.505.084.505.085.502.09L.487.112h0v.001H.485h0v.001h0-.001 0v.001h0-.001 0v.001h0-.001 0-.001 0H.48h0-.001V.114h0-.002l.015.01h.001C.489.122.489.12.492.117L.499.106l.016.01-.007.011C.505.131.504.132.5.13v0l.014.01h0C.512.135.512.134.515.13L.528.108C.532.104.533.104.537.106h.001L.523.095h0C.525.1.526.1.522.104l-.006.01L.5.104.508.092C.51.089.51.089.516.091h0L.502.08zM.153.11L.127.135l.007.008.001-.001C.132.136.132.134.137.129L.14.127.162.15c.003.003.004.004 0 .009h.001L.177.147H.176C.172.149.17.149.167.146L.144.122.147.12C.152.115.154.114.16.118h0L.153.11zm.393.002L.545.113c.003.003.003.004 0 .008l-.02.021C.522.146.52.145.517.142v.001l.025.024.01-.006H.55C.544.162.54.161.534.156.527.15.527.15.529.148l.01-.012.008.007c.004.004.004.005.001.01h.001l.01-.01V.142c-.004.002-.006.003-.01 0L.542.133l.01-.01c0-.002.001-.001.002 0L.561.13c.005.005.006.007.002.01l.001.002.007-.007L.546.112zM.122.15C.116.15.112.155.108.158l-.01.014h0C.103.17.104.17.108.173L.129.19C.133.192.133.193.13.197l.001.001.011-.014h0C.137.186.136.186.132.183L.123.177.125.174H.15L.157.165H.156A.007.007 0 01.15.167H.129C.13.166.134.158.127.153A.01.01 0 00.122.15zm.464.003l-.01.006.001.001C.584.157.586.158.59.164l.002.003-.026.018C.562.188.56.19.557.184H.556L.566.2h.002C.565.194.565.193.569.19L.596.17l.002.004c.004.005.004.008 0 .013v.001L.607.182.586.152zM.118.155l.005.002h0v.001h.001V.16h.001v0h0l.001.001h0v.001h0v.001h0v.002h0v.001h0v.002h0V.17H.124v0h0L.123.172h0v.001H.122v.001h0L.121.175h0v.001L.108.165c-.002 0-.002-.001 0-.004C.11.159.114.155.12.155zm.493.032H.61C.612.191.612.192.607.195L.582.207C.578.21.577.21.574.205H.573l.008.017h.001C.58.216.581.214.585.212L.596.208.598.21l-.01.023.004.009h0L.594.235l.009-.02c.002.003.007.01.015.006S.622.207.619.202L.611.187zM.613.2l.002.002C.617.206.62.213.613.217h0-.001 0v.001H.61h0-.001 0-.001 0-.001 0-.001 0-.001 0L.603.216h0-.001V.215h0L.601.214h0L.6.213h0V.212h0V.211h0L.598.21v0h0-.001V.208h0L.611.2s0 0 0 0zM.078.2v.001L.099.23a.047.047 0 01.006.008v.004h0l.007-.01L.11.23S.109.234.106.232L.105.231.099.225.107.21h.007l.004.001c.002.001.001.003 0 .005H.12L.127.203H.126C.124.204.123.205.118.204L.078.201zm.009.008L.106.21.099.224.087.209zM.075.223c-.006 0-.01.006-.013.012L.056.251h.001C.06.249.06.248.065.25l.026.01c.004 0 .006.001.004.006h.002L.103.248H.101C.1.253.098.254.094.252L.083.248.084.244A.019.019 0 00.086.23C.085.229.083.225.079.223a.01.01 0 00-.004 0zM.073.229A.01.01 0 01.076.23c.01.003.007.011.006.014h0v.001h0L.08.247h0v.001L.064.242V.238C.064.236.067.23.073.23zm.563.002H.635c0 .005 0 .006-.004.008L.604.248C.599.25.598.248.596.245h0l.01.033h.011V.275C.61.275.607.272.604.265c-.003-.01-.003-.01 0-.01L.619.25l.003.01C.624.263.623.265.62.267v.001L.633.265V.263C.628.264.627.263.625.258L.622.248.635.245c.002 0 .002 0 .003.002L.64.254C.643.261.643.263.637.265v.002l.01-.003L.636.23zM.05.263L.044.297h.001C.046.293.047.292.052.293L.08.299C.085.299.085.3.084.305h.002L.093.271h0L.083.266v.002c.005.004.006.008.005.016C.086.293.086.293.083.292L.068.29.07.28C.07.274.072.273.077.274V.272L.063.27v.002C.067.273.068.274.067.28L.065.29.051.286C.049.286.049.284.049.283L.051.275C.053.268.054.266.06.266V.265L.05.263zm.557.018h0l.001.013H.61C.61.293.61.29.612.289h.003l.008.002.003.017L.62.31.616.313C.614.313.613.312.613.31H.612l.002.017h.002c0-.003 0-.004.004-.007L.654.297V.296L.62.288C.617.287.612.286.61.284A.005.005 0 01.608.281zm.02.01l.018.005-.016.01L.627.292zM.062.306C.049.305.043.315.04.33v.017h0C.043.342.044.341.049.342l.029.002H.08v.001h0v.001h0v.001h0V.35h.002L.084.331C.085.311.073.306.064.305a.03.03 0 00-.001 0zm0 .006h.002C.083.313.082.33.082.333h0v.001h0v.001h0L.08.337h0-.001 0-.033L.044.331C.044.324.046.32.049.317A.018.018 0 01.062.312zm.566.015L.615.329V.33l.002.002-.002.01c0 .01.006.014.012.014C.64.356.64.334.65.334c.004 0 .006.003.006.006C.657.347.65.351.646.352v.002L.66.352V.351c-.001 0-.003 0-.003-.002L.66.339C.66.335.656.33.65.33S.64.334.637.34C.63.349.628.349.625.349.62.35.617.347.617.342c0-.01.008-.012.011-.014V.327zm.03.034C.657.366.656.367.65.366L.631.364C.627.364.615.362.613.377c-.002.017.01.018.015.02l.017.001h.002L.649.4H.65v0h.001v.001h0v.001h0v.003h.002L.655.392H.654C.653.395.652.396.644.395L.629.393C.622.393.62.392.619.391.616.388.615.385.615.38.617.368.625.37.63.37l.02.003c.005 0 .006.001.005.006h.002L.659.361H.658zM.07.362v.002C.078.366.08.37.08.377c.002.01.002.01 0 .01L.063.389V.38c0-.005 0-.006.005-.007V.37L.053.372v.002C.058.374.06.374.06.38l.002.01-.014.002C.046.392.045.392.045.39L.044.382C.043.375.044.372.049.37V.369l-.01.002.006.034h.001c0-.005 0-.006.005-.007L.08.394c.005-.001.006 0 .007.004h.001L.082.364h0L.07.362zM.61.4L.606.417h0C.609.412.61.412.615.413l.012.004V.42L.601.43.599.44H.6C.6.437.602.436.605.435L.624.427C.624.431.623.44.63.442.641.444.645.435.646.429L.652.412H.65C.65.416.648.417.643.415L.617.407C.612.406.61.405.612.4H.61zM.087.4L.086.402c0 .005 0 .006-.004.007l-.027.01C.05.417.049.417.047.413h0L.051.43h0c0-.005 0-.006.004-.008L.068.42l.007.018-.012.004C.058.443.057.442.055.438h0L.06.457h0C.06.45.06.45.066.447L.09.44h.001L.094.438h.004V.44h.001v.001h0v.001H.1v.001h0L.095.426H.094C.095.431.094.432.09.433L.078.438.07.418.083.416C.088.413.09.413.091.418h.001L.087.4zm.541.018l.016.004s.002.001 0 .005c0 .002-.003.01-.01.008H.632h0-.001 0L.63.433h0V.432h0-.001 0V.431h0L.627.43h0V.428h0L.626.427h0V.424h0v0h0V.422h0V.42h0v0h.001V.418h0V.417zm-.031.03l-.01.017H.59C.592.46.593.46.597.462l.011.005.01.015h0v.001h0v.001h0v.001H.62v.001h0v.001h0v.001h0V.49h0v0h0v.001h0v.001h0v.001h0l.001.001.006-.013h0C.624.483.623.485.621.484V.482L.61.467.63.465h.003V.47h0L.64.456h0L.625.458.61.461.6.456C.596.454.595.453.598.448H.597zM.103.45v.001C.103.457.102.458.1.46L.07.475V.472C.066.466.066.463.072.459L.07.458.06.463l.017.032.01-.004V.489C.08.491.078.49.075.484L.074.481.102.467C.106.464.108.464.111.469h0L.104.45zm.311.16H.411C.403.612.4.62.401.628c.002.005.007.012.015.01A.015.015 0 00.424.632h0v.002h0v.001h0v.002h0V.64h0v0L.422.641v.001h0L.421.645h0L.42.647h0v.001H.419V.65H.416h0v.003H.415h0-.001v.001H.412h0L.411.655H.41h0v.002A.026.026 0 00.43.624C.426.615.42.61.413.61zm-.118 0L.283.615h.004C.29.614.29.617.29.618L.283.646h0v.001h0L.281.649h0V.65h0H.28h0v0h0-.001 0-.001 0-.001 0-.001 0l.017.005V.654C.288.653.287.652.288.649L.296.61h0zm.116.002h.004l.001.001h0l.001.001h0L.42.616v.001h0v.001h0V.62h.001v.002h.001v.001h0v.002h0l.001.001h0v.006a.011.011 0 01-.005.004C.41.636.408.629.407.625.406.618.406.612.411.611h.001zm-.09.004L.32.62.317.625h.001C.321.624.322.622.326.622H.34L.325.66h.004L.345.619V.618L.322.616zm.051 0H.372C.366.616.36.621.36.627h0v.001h0V.63h.002v.001h0v.001h.001v.001h.001v.001h.001v.001h.001l.001.001h0v.001h.001l.001.001H.37C.364.645.361.647.362.652c0 .005.005.01.013.01C.385.66.387.653.387.649S.385.641.376.636C.379.634.384.63.384.625.384.62.379.616.373.616zm0 .002C.377.618.38.62.38.624v.002h0v.001h0v.001h0L.378.63h0v0h0L.377.632h0L.376.633h0L.375.634h0L.374.635C.372.633.366.63.365.624c0-.002.002-.006.007-.006h.001zM.372.639c.008.005.01.007.01.012C.384.655.38.658.377.658H.375h0-.001 0-.001 0-.001 0V.656H.37h0V.655h0V.654H.368V.653h0V.652H.367h0V.651h0V.65h0v0C.366.644.37.64.371.64z" stroke="#fff" stroke-width=".002" fill="#fff"/></g><path d="M.475.22v.001H.473v.001H.472v.001L.471.224.47.225.468.227.466.228v.001H.463V.23H.457S.473.236.48.22H.475zM.347.311l-.002.01h-.01l.008.005-.002.01.007-.007.008.005L.353.326.36.32H.35L.347.312zM.213.315v.002l.001.001V.32h.002v.001h.001v.001h.001l.001.001H.22S.217.32.219.319h.037S.256.324.25.33c0 0 .01-.006.011-.013H.213zM.43.317V.32h.001v.001l.001.001.001.001v.001h.001l.001.001.001.001h.001S.436.323.437.32h.038s0 .004-.007.012c0 0 .01-.005.011-.015H.43zM.323.33L.32.338.31.34l.01.004-.003.009.007-.006.008.005L.328.343.335.337.326.338.323.33zm.05 0L.37.34H.36l.01.005-.004.009.007-.006.008.005L.378.344.385.338h-.01L.373.33zM.296.35L.295.357l-.01.001.009.005L.29.372.298.366l.008.005L.303.362.31.356.3.357.298.35zm.102 0L.397.358h-.01l.008.005-.002.009L.4.366l.008.005L.404.362.411.357H.402L.4.35zM.272.368L.27.377H.26l.008.005-.002.009.007-.006.008.005L.277.38.284.376H.275L.272.368zM.424.37L.422.38h-.01l.009.005-.003.01.007-.007.008.005L.43.385.437.379h-.01L.425.372zM.245.387L.243.396h-.01l.008.005L.24.41.246.404.254.41.25.4.258.395h-.01L.245.387zm.206.002L.449.4h-.01l.008.005-.002.009.007-.006.008.005-.004-.01.007-.006H.454L.451.39zM.217.406L.215.415h-.01L.214.42.211.43.218.422l.008.005L.222.42.23.414H.22L.217.406zm.26.002L.475.417H.466l.008.005-.002.009.007-.006.007.005L.483.42.49.416H.48L.478.408zM.19.428l-.002.01h-.01l.008.005-.002.009L.19.446.198.45.195.442.202.436h-.01L.19.429zm.317.003L.503.44H.494l.008.006L.5.454.507.45l.008.004L.51.445.518.439H.51L.506.432z" fill="#fff"/></svg>