<svg xmlns="http://www.w3.org/2000/svg"><defs><font id="tt_lakesmedium" horiz-adv-x="1198"><font-face units-per-em="2048" ascent="1638" descent="-410"/><glyph horiz-adv-x="0"/><glyph horiz-adv-x="0"/><glyph horiz-adv-x="682"/><glyph horiz-adv-x="0"/><glyph horiz-adv-x="409"/><glyph horiz-adv-x="409"/><glyph horiz-adv-x="409"/><glyph unicode="!" horiz-adv-x="593" d="M338 410h-82q-28 0-31 30l-20 318v645q0 31 31 31h122q31 0 31-31V758l-20-318q-3-30-31-30zM358 0H236q-31 0-31 31v123q0 30 31 30h122q31 0 31-30V31q0-31-31-31z"/><glyph unicode="&quot;" horiz-adv-x="778" d="M266 963h-92q-31 0-31 30v410q0 31 31 31h92q31 0 31-31V993q0-30-31-30zm338 0h-92q-31 0-31 30v410q0 31 31 31h92q31 0 31-31V993q0-30-31-30z"/><glyph unicode="#" horiz-adv-x="1433" d="M492 512h337l113 410H604zm296-164H451L356 31q-9-31-37-31H184q-29 0-20 31l92 317H92q-31 0-31 31v102q0 31 31 31h205l113 410H236q-31 0-31 30v103q0 30 31 30h215l92 318q9 31 41 31h133q29 0 20-31l-92-318h338l94 318q9 31 37 31h135q30 0 21-31l-92-318h163q31 0 31-30V952q0-30-31-30h-204l-113-410h174q31 0 31-31V379q0-31-31-31H983L891 31q-9-31-41-31H717q-30 0-21 31z"/><glyph unicode="$" horiz-adv-x="1454" d="M840-20v-154q0-31-31-31H676q-31 0-31 31v154H512q-369 0-369 358v82q0 31 31 31h133q31 0 31-31v-82q0-85 44.5-129.5T512 164h410q85 0 129.5 44.5T1096 338v92q0 52-28.5 83.5T983 563L369 758q-205 65-205 266v72q0 358 368 358h113v154q0 30 31 30h133q31 0 31-30v-154h61q369 0 369-358v-82q0-31-31-31h-133q-31 0-31 31v82q0 85-44.5 129.5T901 1270H532q-85 0-129.5-44.5T358 1096v-52q0-52 28.5-83.5T471 911l614-194q205-65 205-266V338q0-358-368-358h-82z"/><glyph unicode="%" horiz-adv-x="1617" d="M696 1178v-144q0-139-60-197.5T430 778h-61q-146 0-206.5 58.5T102 1034v144q0 139 60.5 197.5T369 1434h61q146 0 206-58.5t60-197.5zm-440 0v-144q0-54 29.5-83t83.5-29h61q54 0 83.5 29t29.5 83v144q0 54-29.5 83t-83.5 29h-61q-54 0-83.5-29t-29.5-83zm1260-779V256q0-139-60.5-197.5T1249 0h-61q-146 0-206 58.5T922 256v143q0 139 60 197.5t206 58.5h61q146 0 206.5-58.5T1516 399zm-441 0V256q0-54 29.5-83.5T1188 143h61q54 0 83.5 29.5T1362 256v143q0 54-29.5 83.5T1249 512h-61q-54 0-83.5-29.5T1075 399zm144 1004L584 31Q568 0 543 0H420q-16 0-22 8t1 23l635 1372q16 31 41 31h123q16 0 22-8t-1-23z"/><glyph unicode="&amp;" horiz-adv-x="1409" d="M1167 553l103-92q16-15 0-31l-123-133 276-266q9-9 2-20t-22-11h-176q-29 0-60 31l-143 133q-6-7-18-19.5T955.5 100t-80-56T771 0 645-20H512q-369 0-369 360v111q0 54 13.5 100.5t35.5 77 48 55 52 38 48 22 36 11.5l13 3v20q-5 3-13.5 9.5T346 817t-37 49.5-29.5 69T266 1024v72q0 358 369 358h113q368 0 368-358v-21q0-31-31-31H952q-30 0-30 31v21q0 85-44.5 129.5T748 1270H635q-85 0-129.5-44.5T461 1096v-72q0-40 28-86t56-72l28-26 441-420 123 133q15 15 30 0zM512 164h133q40 0 80 13.5t68.5 33T845 250t35 34l11 13-348 328h-31q-85 0-129.5-44.5T338 451V340q0-86 44.5-131T512 164z"/><glyph unicode="'" horiz-adv-x="440" d="M174 1434h92q31 0 31-31V993q0-30-31-30h-92q-31 0-31 30v410q0 31 31 31z"/><glyph unicode="(" horiz-adv-x="737" d="M184 51v1045q0 193 105.5 296T594 1495h51q31 0 31-31v-123q0-30-31-30h-51q-100 0-157.5-57.5T379 1096V51q0-100 57.5-157.5T594-164h51q31 0 31-31v-122q0-31-31-31h-51q-199 0-304.5 103T184 51z"/><glyph unicode=")" horiz-adv-x="737" d="M553 1096V51q0-193-105.5-296T143-348H92q-31 0-31 31v122q0 31 31 31h51q100 0 157.5 57.5T358 51v1045q0 100-57.5 157.5T143 1311H92q-31 0-31 30v123q0 31 31 31h51q199 0 304.5-103T553 1096z"/><glyph unicode="*" horiz-adv-x="757" d="M522 817L379 993 236 817q-6-7-18.5-7t-22.5 7l-60 51q-9 6-9 19.5t9 23.5l141 164H92q-31 0-31 31v72q0 30 31 30h215v195q0 31 31 31h82q31 0 31-31v-195h215q30 0 30-30v-72q0-31-30-31H481l142-164q9-10 9-23.5t-9-19.5l-60-51q-11-7-23-7t-18 7z"/><glyph unicode="+" horiz-adv-x="931" d="M870 696V573q0-30-30-30H563V236q0-31-31-31H399q-30 0-30 31v307H92q-31 0-31 30v123q0 31 31 31h277v307q0 31 30 31h133q31 0 31-31V727h277q30 0 30-31z"/><glyph unicode="," horiz-adv-x="339" d="M258 154V41q0-14-5-29t-10-24l-5-8-82-164q-13-21-31-21H74q-7 0-10.5 6.5T63-184L156 0h-52Q74 0 74 31v123q0 30 30 30h123q31 0 31-30z"/><glyph unicode="-" horiz-adv-x="890" d="M829 696V573q0-30-30-30H92q-31 0-31 30v123q0 31 31 31h707q30 0 30-31z"/><glyph unicode="." horiz-adv-x="348" d="M236 0H113Q82 0 82 31v123q0 30 31 30h123q30 0 30-30V31q0-31-30-31z"/><glyph unicode="/" horiz-adv-x="786" d="M741 1403L240 31Q228 0 199 0H66Q33 0 45 31l502 1372q12 31 41 31h133q32 0 20-31z"/><glyph unicode="0" horiz-adv-x="1515" d="M1331 1096V338q0-358-368-358H553q-369 0-369 358v758q0 358 369 358h410q368 0 368-358zm-952 0V338q0-85 44.5-129.5T553 164h410q85 0 129.5 44.5T1137 338v758q0 85-44.5 129.5T963 1270H553q-85 0-129.5-44.5T379 1096z"/><glyph unicode="1" horiz-adv-x="768" d="M563 1403V31q0-31-31-31H399q-30 0-30 31v1218H72q-31 0-31 31v123q0 31 31 31h460q31 0 31-31z"/><glyph unicode="2" horiz-adv-x="1351" d="M1188 1004q0-96-42-162t-112-125L430 195v-11h727q31 0 31-30V31q0-31-31-31H174q-31 0-31 31v112q0 22 7 34.5t24 27.5l727 635q53 46 72.5 76.5T993 1004v92q0 85-44.5 129.5T819 1270H512q-85 0-129.5-44.5T338 1096v-82q0-31-31-31H174q-31 0-31 31v82q0 358 369 358h307q369 0 369-358v-92z"/><glyph unicode="3" horiz-adv-x="1351" d="M727 860h92q369 0 369-358V338q0-358-369-358H492q-369 0-369 358v82q0 31 31 31h133q30 0 30-31v-82q0-85 45-129.5T492 164h327q85 0 129.5 44.5T993 338v164q0 85-44.5 129.5T819 676H461q-31 0-31 31v81q0 31 41 72l399 379v10H195q-31 0-31 31v123q0 31 31 31h942q30 0 30-31v-82q0-31-41-72L727 870v-10z"/><glyph unicode="4" horiz-adv-x="1280" d="M1219 502V379q0-31-31-31h-154V31q0-31-30-31H870q-30 0-30 31v317H72q-31 0-31 31v84q0 28 6 42t25 38l686 860q14 18 26 24.5t35 6.5h185q30 0 30-31V532h154q31 0 31-30zm-390 706L297 543v-11h543v676h-11z"/><glyph unicode="5" horiz-adv-x="1351" d="M399 881h441q368 0 368-359V338q0-358-368-358H512q-369 0-369 358v82q0 31 31 31h133q31 0 31-31v-82q0-85 44.5-129.5T512 164h328q85 0 129.5 44.5T1014 338v184q0 85-44.5 129.5T840 696H236q-31 0-31 31v676q0 31 31 31h890q31 0 31-31v-123q0-31-31-31H399V881z"/><glyph unicode="6" horiz-adv-x="1413" d="M881 676H379V338q0-85 44.5-129.5T553 164h328q85 0 129.5 45t44.5 131v160q0 86-44.5 131T881 676zm-502 420V860h502q368 0 368-358V338q0-358-368-358H553q-369 0-369 358v758q0 358 369 358h287q368 0 368-358v-62q0-30-30-30h-134q-30 0-30 30v62q0 85-44.5 129.5T840 1270H553q-85 0-129.5-44.5T379 1096z"/><glyph unicode="7" horiz-adv-x="1146" d="M1085 1403v-84q0-19-2.5-33t-5-20-12.5-27L512 31Q496 0 461 0H328q-16 0-22 8t1 23l553 1208v10H92q-31 0-31 31v123q0 31 31 31h963q30 0 30-31z"/><glyph unicode="8" horiz-adv-x="1433" d="M901-20H532q-368 0-368 358v133q0 48 11.5 89.5t29.5 69 39.5 49.5 43.5 34.5 40 20.5 30 11l11 3v10q-8 2-20 6t-44 22-56.5 42.5T204 900t-20 104v92q0 358 369 358h328q368 0 368-358v-92q0-57-19-103.5t-46-72-54-42.5-46-22l-19-6v-10q8-2 22-6t49.5-24 62.5-47.5 49-80.5 22-119V338q0-358-369-358zM532 164h369q85 0 129.5 44.5T1075 338v133q0 85-44.5 129.5T901 645H532q-85 0-129.5-44.5T358 471V338q0-85 44.5-129.5T532 164zm349 1106H553q-85 0-129.5-44.5T379 1096v-92q0-85 44.5-130T553 829h328q85 0 129.5 45t44.5 130v92q0 85-44.5 129.5T881 1270z"/><glyph unicode="9" horiz-adv-x="1413" d="M532 758h502v338q0 85-44.5 129.5T860 1270H532q-85 0-129.5-45T358 1094V934q0-86 44.5-131T532 758zm502-420v235H532q-368 0-368 359v164q0 358 368 358h328q369 0 369-358V338q0-358-369-358H573q-368 0-368 358v61q0 31 31 31h133q30 0 30-31v-61q0-85 44.5-129.5T573 164h287q85 0 129.5 44.5T1034 338z"/><glyph unicode=":" horiz-adv-x="389" d="M256 0H133q-31 0-31 31v123q0 30 31 30h123q31 0 31-30V31q0-31-31-31zm0 860H133q-31 0-31 31v123q0 30 31 30h123q31 0 31-30V891q0-31-31-31z"/><glyph unicode=";" horiz-adv-x="380" d="M248 860H125q-31 0-31 31v123q0 30 31 30h123q31 0 31-30V891q0-31-31-31zm31-706V41q0-14-5.5-29T263-12l-5-8-82-164q-13-21-31-21H94q-7 0-10 6.5t0 14.5L176 0h-51Q94 0 94 31v123q0 30 31 30h123q31 0 31-30z"/><glyph unicode="&lt;" horiz-adv-x="1064" d="M82 461v92q0 25 31 41l839 379q31 12 31-21V840q0-22-7.5-33T952 788L317 512v-10l635-277q31-12 31-51V61q0-32-31-20L113 420q-31 12-31 41z"/><glyph unicode="=" horiz-adv-x="911" d="M829 891V768q0-31-30-31H113q-31 0-31 31v123q0 31 31 31h686q30 0 30-31zm0-430V338q0-31-30-31H113q-31 0-31 31v123q0 31 31 31h686q30 0 30-31z"/><glyph unicode="&gt;" horiz-adv-x="1064" d="M983 553v-92q0-29-31-41L113 41Q82 29 82 61v113q0 39 31 51l635 277v10L113 788q-16 8-23.5 19T82 840v112q0 33 31 21l839-379q31-16 31-41z"/><glyph unicode="?" horiz-adv-x="1249" d="M758 553h-82l-21-113q-3-16-9.5-23t-20.5-7h-82q-28 0-31 30l-31 267q0 30 31 30h246q85 0 129.5 44.5T932 911v185q0 85-44.5 129.5T758 1270H451q-85 0-130-44.5T276 1096v-62q0-30-30-30H113q-31 0-31 30v62q0 358 369 358h307q368 0 368-358V911q0-358-368-358zM645 0H522q-30 0-30 31v123q0 30 30 30h123q31 0 31-30V31q0-31-31-31z"/><glyph unicode="@" horiz-adv-x="2027" d="M840 707V358q0-38 16.5-54.5T911 287h185q92 0 92 92v307q0 92-92 92H911q-38 0-54.5-16.5T840 707zm839-236v573q0 85-44.5 130t-129.5 45H543q-85 0-129.5-45T369 1044V20q0-85 44.5-129.5T543-154h1116q31 0 31-30v-113q0-31-31-31H543q-176 0-267.5 89.5T184 20v1024q0 170 91.5 259.5T543 1393h962q176 0 267.5-89.5T1864 1044V471q0-177-87.5-262.5T1505 123h-286q-31 0-31 31v30h-10q-1-3-4-8.5t-14-20-24.5-25-38-19.5-53.5-9H911q-130 0-198 66t-68 190v349q0 124 68 190t198 66h133q29 0 53-8.5t38.5-20.5 24.5-24 14-20l4-9h10v30q0 31 31 31h133q30 0 30-31V297h123q85 0 129.5 44.5T1679 471z"/><glyph unicode="A" horiz-adv-x="1359" d="M434 553h492l-242 655h-8zm563-184H362L240 31Q228 0 188 0H45Q13 0 25 31l532 1372q15 31 51 31h144q36 0 51-31L1335 31q12-31-20-31h-144q-39 0-51 31z"/><glyph unicode="B" horiz-adv-x="1495" d="M1075 1034v41q0 85-44.5 129.5T901 1249H399V860h502q85 0 129.5 44.5T1075 1034zm277-532V358Q1352 0 983 0H236q-31 0-31 31v1372q0 31 28 31h668q369 0 369-359v-41q0-57-16-103.5t-38.5-72-45-42.5-38.5-22l-16-6v-10q5-1 13.5-3t33-10.5 47-20.5 49.5-34.5 46.5-49.5 33-68.5T1352 502zm-195-144v144q0 85-44.5 129.5T983 676H399V184h584q85 0 129.5 44.5T1157 358z"/><glyph unicode="C" horiz-adv-x="1536" d="M184 338v758q0 358 369 358h471q369 0 369-358v-82q0-31-31-31h-133q-31 0-31 31v82q0 85-44.5 129.5T1024 1270H553q-85 0-129.5-44.5T379 1096V338q0-85 44.5-129.5T553 164h471q85 0 129.5 44.5T1198 338v82q0 31 31 31h133q31 0 31-31v-82q0-358-369-358H553q-369 0-369 358z"/><glyph unicode="D" horiz-adv-x="1597" d="M236 1434h808q369 0 369-359V358q0-358-369-358H236q-31 0-31 31v1372q0 31 31 31zm808-185H399V184h645q85 0 130 44.5t45 129.5v717q0 85-45 129.5t-130 44.5z"/><glyph unicode="E" horiz-adv-x="1392" d="M399 184h881q31 0 31-30V31q0-31-29-31H236q-31 0-31 31v1370q0 33 31 33h1024q30 0 30-31v-123q0-31-28-31H399V819h676q31 0 31-31V666q0-31-29-31H399V184z"/><glyph unicode="F" horiz-adv-x="1331" d="M399 573V31q0-31-30-31H236q-31 0-31 31v1370q0 33 31 33h1024q30 0 30-31v-123q0-31-28-31H399V758h594q31 0 31-31V604q0-31-29-31H399z"/><glyph unicode="G" horiz-adv-x="1576" d="M184 338v758q0 358 369 358h471q369 0 369-358v-82q0-31-31-31h-133q-31 0-31 31v82q0 85-44.5 129.5T1024 1270H553q-85 0-129.5-44.5T379 1096V338q0-85 44.5-129.5T553 164h471q85 0 129.5 44.5T1198 338v235H891q-31 0-31 31v123q0 31 31 31h471q31 0 31-33V338q0-358-369-358H553q-369 0-369 358z"/><glyph unicode="H" horiz-adv-x="1556" d="M1157 819v584q0 31 31 31h133q31 0 31-31V31q0-31-31-31h-133q-31 0-31 29v606H399V31q0-31-30-31H236q-31 0-31 31v1372q0 31 31 31h133q30 0 30-31V819h758z"/><glyph unicode="I" horiz-adv-x="604" d="M205 31v1372q0 31 31 31h133q30 0 30-31V31q0-31-30-31H236q-31 0-31 31z"/><glyph unicode="J" horiz-adv-x="1351" d="M1147 1403V338q0-358-369-358H451Q82-20 82 338v123q0 31 31 31h133q30 0 30-31V338q0-85 45-129.5T451 164h327q85 0 129.5 44.5T952 338v1065q0 31 31 31h133q31 0 31-31z"/><glyph unicode="K" horiz-adv-x="1417" d="M399 655V31q0-31-30-31H236q-31 0-31 31v1372q0 31 31 31h133q30 0 30-31V840h389l308 563q8 17 18.5 24t32.5 7h143q16 0 22-8t-1-23L952 758l400-727q7-15 1-23t-22-8h-143q-36 0-51 31L799 655H399z"/><glyph unicode="L" horiz-adv-x="1310" d="M399 1403V184h840q31 0 31-30V31q0-31-31-31H236q-31 0-31 33v1370q0 31 31 31h133q30 0 30-31z"/><glyph unicode="M" horiz-adv-x="1986" d="M1024 0h-61q-29 0-41.5 7T901 31L410 1065h-11V31q0-31-30-31H236q-31 0-31 31v1372q0 31 31 31h153q29 0 41.5-7t20.5-24L989 266h8l539 1137q8 17 20 24t41 7h154q31 0 31-31V31q0-31-31-31h-133q-31 0-31 31v1034h-10L1085 31q-8-17-20-24t-41-7z"/><glyph unicode="N" horiz-adv-x="1597" d="M1208 0q-42 0-61 31L410 1137h-11V31q0-31-30-31H236q-31 0-31 31v1372q0 31 31 31h153q43 0 62-31l737-1106h10v1106q0 31 31 31h133q31 0 31-31V31q0-31-31-31h-154z"/><glyph unicode="O" horiz-adv-x="1617" d="M184 338v758q0 358 369 358h512q369 0 369-358V338q0-358-369-358H553q-369 0-369 358zm1055 0v758q0 85-44.5 129.5T1065 1270H553q-85 0-129.5-44.5T379 1096V338q0-85 44.5-129.5T553 164h512q85 0 129.5 44.5T1239 338z"/><glyph unicode="P" horiz-adv-x="1495" d="M399 635h584q85 0 129.5 44.5T1157 809v266q0 85-44.5 129.5T983 1249H399V635zm584-184H399V31q0-31-30-31H236q-31 0-31 31v1372q0 31 31 31h747q369 0 369-359V809q0-358-369-358z"/><glyph unicode="Q" horiz-adv-x="1615" d="M1434 1096V338q0-50-10-96t-20-67l-11-21 174-195q7-7 7-20t-7-21l-92-82q-9-8-21-8t-20 8L1270 20q-82-40-205-40H553q-369 0-369 358v758q0 358 369 358h512q369 0 369-358zm-195-779v779q0 85-44.5 129.5T1065 1270H553q-85 0-129.5-44.5T379 1096V338q0-85 44.5-129.5T553 164h512q18 0 33.5 2.5t21.5 5.5l6 2-102 113q-8 7-8 20t8 21l92 82q9 8 21.5 8t19.5-8z"/><glyph unicode="R" horiz-adv-x="1509" d="M1096 512l266-481q7-15 1-23t-22-8h-143q-36 0-51 31L901 492H399V31q0-31-30-31H236q-31 0-31 31v1372q0 31 31 31h727q368 0 368-359V850q0-63-13-115.5t-33.5-86-45.5-60-50.5-40.5-46-22.5T1109 514zM399 676h564q85 0 129.5 44.5T1137 850v225q0 85-44.5 129.5T963 1249H399V676z"/><glyph unicode="S" horiz-adv-x="1454" d="M1096 430q0 52-28.5 83.5T983 563L369 758q-205 65-205 266v72q0 358 368 358h369q369 0 369-358v-82q0-31-31-31h-133q-31 0-31 31v82q0 85-44.5 129.5T901 1270H532q-85 0-129.5-44.5T358 1096v-52q0-52 28.5-83.5T471 911l614-194q205-65 205-266V338q0-358-368-358H512q-369 0-369 358v82q0 31 31 31h133q31 0 31-31v-82q0-85 44.5-129.5T512 164h410q85 0 129.5 44.5T1096 338v92z"/><glyph unicode="T" d="M696 1249V31q0-31-30-31H532q-30 0-30 31v1218H51q-31 0-31 31v123q0 31 31 31h1096q31 0 31-31v-123q0-31-31-31H696z"/><glyph unicode="U" horiz-adv-x="1597" d="M1393 1403V338q0-358-369-358H573q-368 0-368 358v1065q0 31 31 31h133q30 0 30-31V338q0-85 44.5-129.5T573 164h451q85 0 129.5 44.5T1198 338v1065q0 31 31 31h133q31 0 31-31z"/><glyph unicode="V" horiz-adv-x="1349" d="M731 0H618q-23 0-33 6.5T567 31L45 1403q-12 31 21 31h143q39 0 51-31L670 295h10l410 1108q12 31 51 31h143q33 0 21-31L782 31q-8-18-18-24.5T731 0z"/><glyph unicode="W" horiz-adv-x="1892" d="M885 1434h123q32 0 41-31l297-1075h10l297 1075q9 31 41 31h133q29 0 20-31L1468 31q-9-31-41-31h-122q-29 0-41 31L950 1167h-8L629 31Q617 0 588 0H465q-32 0-41 31L45 1403q-9 31 21 31h133q32 0 41-31L537 328h10l297 1075q10 31 41 31z"/><glyph unicode="X" horiz-adv-x="1323" d="M662 911l327 492q22 31 51 31h164q15 0 22.5-9.5t-1.5-21.5L784 758l492-727q8-13 1.5-22T1255 0h-163q-30 0-52 31L662 604 283 31Q261 0 231 0H68Q52 0 45.5 9T47 31l492 727-441 645q-9 12-1.5 21.5t22.5 9.5h164q29 0 51-31z"/><glyph unicode="Y" horiz-adv-x="1318" d="M250 1403l409-696 410 696q10 17 20 24t31 7h154q15 0 21-9t-1-22L752 502V29q0-29-31-29H598q-31 0-31 29v473L25 1403q-7 13-1 22t21 9h154q21 0 31-7t20-24z"/><glyph unicode="Z" horiz-adv-x="1290" d="M82 164q0 41 20 61l861 1014v10H133q-31 0-31 31v123q0 31 31 31h1045q30 0 30-31v-133q0-42-20-62L328 195v-11h850q30 0 30-30V31q0-31-30-31H113Q82 0 82 31v133z"/><glyph unicode="[" horiz-adv-x="737" d="M399-164h246q31 0 31-31v-122q0-31-31-31H236q-31 0-31 31v1781q0 31 31 31h409q31 0 31-31v-123q0-30-31-30H399V-164z"/><glyph unicode="\" horiz-adv-x="786" d="M547 31L45 1403q-12 31 21 31h133q29 0 41-31L741 31q12-31-20-31H588q-29 0-41 31z"/><glyph unicode="]" horiz-adv-x="737" d="M92-164h246v1475H92q-31 0-31 30v123q0 31 31 31h410q30 0 30-31V-317q0-31-30-31H92q-31 0-31 31v122q0 31 31 31z"/><glyph unicode="^" horiz-adv-x="1001" d="M455 1434h92q22 0 32.5-7t18.5-24l338-655q13-31-21-31H793q-37 0-52 31l-235 460h-10L260 748q-8-17-18.5-24t-32.5-7H86q-33 0-20 31l337 655q15 31 52 31z"/><glyph unicode="_" horiz-adv-x="768" d="M768-256v-123q0-31-31-31H31q-31 0-31 31v123q0 31 31 31h706q31 0 31-31z"/><glyph unicode="`" horiz-adv-x="460" d="M252 1126L68 1403q-8 13-2 22t22 9h143q25 0 41-31l123-277q12-30-20-30h-82q-23 0-41 30z"/><glyph unicode="a" horiz-adv-x="1146" d="M123 276v41q0 297 307 297h379v134q0 69-42.5 111T655 901H512q-69 0-111.5-42T358 748q0-31-30-31H215q-31 0-31 31 0 154 83.5 235.5T512 1065h143q161 0 244.5-81.5T983 748V31q0-31-31-31H840q-31 0-31 31v71h-10q-2-5-6.5-13t-23-29T728 22.5 663.5-7 573-20H430q-307 0-307 296zm174 41v-41q0-62 35.5-97.5T430 143h164q92 0 153.5 61.5T809 358v93H430q-61 0-97-36t-36-98z"/><glyph unicode="b" d="M727 164q69 0 111.5 42T881 317v410q0 69-42.5 111.5T727 881H338V164h389zm0-164H195q-31 0-31 31v1372q0 31 31 31h112q31 0 31-31v-359h389q161 0 244.5-81.5T1055 727V317q0-154-83.5-235.5T727 0z"/><glyph unicode="c" horiz-adv-x="1157" d="M317 748V297q0-69 42.5-111.5T471 143h236q69 0 111 42.5T860 297v51q0 31 31 31h113q30 0 30-31v-51q0-154-83-235.5T707-20H471q-161 0-244.5 81.5T143 297v451q0 154 83.5 235.5T471 1065h236q161 0 244-81.5t83-235.5v-52q0-30-30-30H891q-31 0-31 30v52q0 69-42 111t-111 42H471q-69 0-111.5-42T317 748z"/><glyph unicode="d" d="M860 881H471q-69 0-111.5-42.5T317 727V297q0-69 42.5-111.5T471 143h174q92 0 153.5 61.5T860 358v523zm-389 163h389v359q0 31 31 31h113q30 0 30-31V31q0-31-30-31H891q-31 0-31 31v71h-10q-2-5-6.5-13T821 60t-41.5-37.5T715-7t-90-13H471q-161 0-244.5 81.5T143 297v430q0 154 83.5 235.5T471 1044z"/><glyph unicode="e" horiz-adv-x="1187" d="M317 614h553v134q0 69-42 111t-111 42H471q-69 0-111.5-42T317 748V614zm697-163H317V297q0-69 42.5-111.5T471 143h246q69 0 111 42.5T870 297v10q0 31 31 31h113q30 0 30-31v-10q0-154-83-235.5T717-20H471q-161 0-244.5 81.5T143 297v451q0 154 83.5 235.5T471 1065h246q161 0 244-81.5t83-235.5V481q0-30-30-30z"/><glyph unicode="f" horiz-adv-x="716" d="M246 819H92q-31 0-31 31v102q0 31 31 31h154v143q0 147 82 227.5t235 80.5h123q31 0 31-31v-103q0-30-31-30H563q-61 0-102-41t-41-103V983h205q30 0 30-31V850q0-31-30-31H420V31q0-31-31-31H276q-30 0-30 31v788z"/><glyph unicode="g" d="M860 82H471q-161 0-244.5 81.5T143 399v349q0 154 83.5 235.5T471 1065h154q49 0 90-12.5t65-30.5 40.5-36.5T844 954l6-12h10v72q0 30 31 30h113q30 0 30-30V-92q0-155-83.5-236.5T707-410H492q-161 0-244.5 82T164-92v31q0 30 31 30h112q31 0 31-30v-31q0-69 42.5-111.5T492-246h215q69 0 111 42.5T860-92V82zM471 246h389v440q0 92-61.5 153.5T645 901H471q-69 0-111.5-42T317 748V399q0-69 42.5-111T471 246z"/><glyph unicode="h" horiz-adv-x="1218" d="M881 31v696q0 69-42.5 111.5T727 881H338V31q0-31-31-31H195q-31 0-31 31v1372q0 31 31 31h112q31 0 31-31v-359h389q161 0 244.5-81.5T1055 727V31q0-31-31-31H911q-30 0-30 31z"/><glyph unicode="i" horiz-adv-x="501" d="M195 1434h112q31 0 31-31v-113q0-30-31-30H195q-31 0-31 30v113q0 31 31 31zM307 0H195q-31 0-31 31v983q0 30 31 30h112q31 0 31-30V31q0-31-31-31z"/><glyph unicode="j" horiz-adv-x="501" d="M338 1014V-102q0-147-82.5-227.5T20-410H-92q-31 0-31 31v103q0 30 31 30H20q62 0 103 41t41 103v1116q0 30 31 30h112q31 0 31-30zm-143 420h112q31 0 31-31v-113q0-30-31-30H195q-31 0-31 30v113q0 31 31 31z"/><glyph unicode="k" horiz-adv-x="1069" d="M829 31L594 471H338V31q0-31-31-31H195q-31 0-31 31v1372q0 31 31 31h112q31 0 31-31V635h256l205 379q8 16 18.5 23t32.5 7h123q35 0 20-30L737 553l287-522q7-15 1.5-23T1004 0H881q-37 0-52 31z"/><glyph unicode="l" horiz-adv-x="501" d="M307 0H195q-31 0-31 31v1372q0 31 31 31h112q31 0 31-31V31q0-31-31-31z"/><glyph unicode="m" horiz-adv-x="1730" d="M952 748V31q0-31-30-31H809q-31 0-31 31v717q0 69-42 111t-111 42h-72q-92 0-153.5-61.5T338 686V31q0-31-31-31H195q-31 0-31 31v983q0 30 31 30h112q31 0 31-30v-72h10q2 5 6.5 13.5T377 985t41.5 37 64.5 29.5 90 13.5h52q52 0 95-12.5t67.5-30.5 42-36.5T854 954l6-12h10q2 5 6.5 13.5T900 985t43 37 67.5 29.5 95.5 13.5h133q161 0 244.5-81.5T1567 748V31q0-31-31-31h-113q-30 0-30 31v717q0 69-42.5 111T1239 901h-133q-69 0-111.5-42T952 748z"/><glyph unicode="n" horiz-adv-x="1218" d="M573 1065h154q161 0 244.5-81.5T1055 748V31q0-31-31-31H911q-30 0-30 31v717q0 69-42.5 111T727 901H553q-92 0-153.5-61.5T338 686V31q0-31-31-31H195q-31 0-31 31v983q0 30 31 30h112q31 0 31-30v-72h10q2 5 6.5 13.5T377 985t41.5 37 64.5 29.5 90 13.5z"/><glyph unicode="o" d="M881 297v451q0 69-42.5 111T727 901H471q-69 0-111.5-42T317 748V297q0-69 42.5-111.5T471 143h256q69 0 111.5 42.5T881 297zm174 451V297q0-154-83.5-235.5T727-20H471q-161 0-244.5 81.5T143 297v451q0 154 83.5 235.5T471 1065h256q161 0 244.5-81.5T1055 748z"/><glyph unicode="p" d="M338 164h389q69 0 111.5 42T881 317v431q0 69-42.5 111T727 901H553q-92 0-153.5-61.5T338 686V164zM727 0H338v-358q0-31-31-31H195q-31 0-31 31v1372q0 30 31 30h112q31 0 31-30v-72h10q2 5 6.5 13.5T377 985t41.5 37 64.5 29.5 90 13.5h154q161 0 244.5-81.5T1055 748V317q0-154-83.5-235.5T727 0z"/><glyph unicode="q" d="M471 881q-69 0-111.5-42.5T317 727V317q0-69 42.5-111T471 164h389v717H471zm0 163h533q30 0 30-30V-358q0-31-30-31H891q-31 0-31 31V0H471Q310 0 226.5 81.5T143 317v410q0 154 83.5 235.5T471 1044z"/><glyph unicode="r" horiz-adv-x="737" d="M164 31v983q0 30 31 30h112q31 0 31-30v-72h10q2 5 6.5 13.5T377 985t41.5 37 64.5 29.5 90 13.5h113q31 0 31-31V932q0-31-31-31H553q-92 0-153.5-61.5T338 686V31q0-31-31-31H195q-31 0-31 31z"/><glyph unicode="s" horiz-adv-x="1105" d="M123 748v20q0 297 307 297h205q161 0 244.5-81.5T963 748v-21q0-31-31-31H819q-31 0-31 31v21q0 69-42 111t-111 42H430q-62 0-97.5-35.5T297 768v-10q0-30 20-51.5t52-30.5l450-144q74-23 119-80t45-145v-31q0-296-307-296H430q-161 0-244.5 81.5T102 297v20q0 31 31 31h113q30 0 30-31v-20q0-69 42.5-111.5T430 143h246q62 0 97.5 35.5T809 276v21q0 30-20 51.5T737 379L287 522q-74 23-119 80.5T123 748z"/><glyph unicode="t" horiz-adv-x="819" d="M92 1044h154v216q0 30 30 30h113q31 0 31-30v-216h205q30 0 30-30V911q0-30-30-30H420V307q0-61 41-102t102-41h123q31 0 31-31V31q0-31-31-31H563Q410 0 328 80t-82 227v574H92q-31 0-31 30v103q0 30 31 30z"/><glyph unicode="u" horiz-adv-x="1218" d="M645-20H492q-161 0-244.5 81.5T164 297v717q0 30 31 30h112q31 0 31-30V297q0-69 42.5-111.5T492 143h174q92 0 153.5 61.5T881 358v656q0 30 30 30h113q31 0 31-30V31q0-31-31-31H911q-30 0-30 31v71h-11q-2-5-6.5-13T841 60t-41.5-37.5T735-7t-90-13z"/><glyph unicode="v" horiz-adv-x="1042" d="M567 0h-92q-39 0-51 31L35 1014q-12 30 20 30h123q39 0 51-30l287-758h10l287 758q12 30 51 30h123q33 0 21-30L618 31Q606 0 567 0z"/><glyph unicode="w" horiz-adv-x="1452" d="M680 1044h92q42 0 51-30l195-707h10l195 707q9 30 51 30h112q30 0 21-30L1130 31q-9-31-51-31h-92q-42 0-51 31L731 768h-10L516 31q-9-31-51-31h-92q-42 0-51 31L45 1014q-9 30 21 30h112q42 0 51-30l195-707h10l195 707q9 30 51 30z"/><glyph unicode="x" horiz-adv-x="974" d="M262 1014l225-348 226 348q10 17 19.5 23.5t31.5 6.5h123q16 0 22-7.5t-2-22.5L600 543 938 31q8-13 2-22t-22-9H795q-22 0-32 7t-20 24L487 420 231 31q-10-17-20-24t-31-7H57Q41 0 35 9t2 22l338 512-307 471q-8 15-2 22.5t22 7.5h123q22 0 31.5-6.5T262 1014z"/><glyph unicode="y" horiz-adv-x="1042" d="M526 246l287 768q12 30 51 30h123q33 0 21-30L608 0q-85-216-173.5-302.5T209-389h-41q-31 0-31 31v102q0 31 31 31h41q77 0 128 51T434 0L35 1014q-12 30 20 30h123q39 0 51-30l287-768h10z"/><glyph unicode="z" horiz-adv-x="962" d="M686 870v11H113q-31 0-31 30v103q0 30 31 30h757q31 0 31-30V901q0-41-20-61L276 174v-10h594q31 0 31-31V31q0-31-31-31H92Q61 0 61 31v112q0 41 21 62z"/><glyph unicode="{" horiz-adv-x="829" d="M369 580v-13q6-1 16.5-5t37-21.5T469 498t36.5-73T522 317V10q0-85 44.5-129.5T696-164h41q31 0 31-31v-122q0-31-31-31h-41q-368 0-368 358v307q0 85-44.5 130T154 492h-21q-31 0-31 30v103q0 30 31 30h21q85 0 129.5 44.5T328 829v308q0 358 368 358h41q31 0 31-31v-123q0-30-31-30h-41q-85 0-129.5-44.5T522 1137V829q0-60-16-108t-38-73-44.5-41.5T385 585z"/><glyph unicode="|" horiz-adv-x="686" d="M440 1403V-358q0-31-30-31H276q-30 0-30 31v1761q0 31 30 31h134q30 0 30-31z"/><glyph unicode="}" horiz-adv-x="829" d="M461 567v13q-6 1-16.5 5t-37 21-47 42-37 73T307 829v308q0 85-44.5 129.5T133 1311H92q-31 0-31 30v123q0 31 31 31h41q369 0 369-358V829q0-85 44.5-129.5T676 655h20q31 0 31-30V522q0-30-31-30h-20q-85 0-129.5-45T502 317V10q0-358-369-358H92q-31 0-31 31v122q0 31 31 31h41q85 0 129.5 44.5T307 10v307q0 60 16 108t38.5 73.5 45 42T445 562z"/><glyph unicode="~" horiz-adv-x="860" d="M614 471q-46 0-91 21t-79.5 51.5-66 60.5-60.5 51-51 21q-15 0-28-13t-13-28V512q0-23-8.5-32t-30.5-9h-84q-23 0-32 9t-9 32v123q0 91 53.5 148T246 840q46 0 91-21t79.5-51 66-60.5T543 656t51-21q15 0 28 13t13 28v123q0 23 8.5 32t30.5 9h84q23 0 32-9t9-32V676q0-91-53.5-148T614 471z"/><glyph unicode="¡" horiz-adv-x="593" d="M256 635h82q28 0 31-31l20-317v-645q0-31-31-31H236q-31 0-31 31v645l20 317q3 31 31 31zm-20 409h122q31 0 31-30V891q0-31-31-31H236q-31 0-31 31v123q0 30 31 30z"/><glyph unicode="¢" horiz-adv-x="1157" d="M543 1229h112q31 0 31-31v-133h21q161 0 244-81.5t83-235.5v-52q0-30-30-30H891q-31 0-31 30v52q0 69-42 111t-111 42H471q-69 0-111.5-42T317 748V297q0-69 42.5-111.5T471 143h236q69 0 111 42.5T860 297v51q0 31 31 31h113q30 0 30-31v-51q0-154-83-235.5T707-20h-21v-134q0-30-31-30H543q-31 0-31 30v134h-41q-161 0-244.5 81.5T143 297v451q0 154 83.5 235.5T471 1065h41v133q0 31 31 31z"/><glyph unicode="£" horiz-adv-x="1105" d="M1075 0H72Q41 0 41 31v123q0 30 31 30h235v451H174q-31 0-31 31v122q0 31 31 31h133v256q0 359 369 359h153q31 0 31-31v-123q0-31-31-31H676q-85 0-129.5-44.5T502 1075V819h246q30 0 30-31V666q0-31-30-31H502V184h573q31 0 31-30V31q0-31-31-31z"/><glyph unicode="¤" horiz-adv-x="1433" d="M1126 420V297q0-31-30-31H461V31q0-31-31-31H297q-31 0-31 31v235H133q-31 0-31 31v123q0 31 31 31h133v143H133q-31 0-31 31v123q0 30 31 30h133v625q0 31 31 31h645q369 0 369-359V952q0-358-369-358H461V451h635q30 0 30-31zM461 778h481q85 0 129.5 44.5T1116 952v123q0 85-44.5 129.5T942 1249H461V778z"/><glyph unicode="¥" horiz-adv-x="1318" d="M1038 205H752V29q0-29-31-29H598q-31 0-31 29v176H281q-31 0-31 31v102q0 31 31 31h286v112H281q-31 0-31 31v102q0 31 31 31h204L25 1403q-7 13-1 22t21 9h154q21 0 31-7t20-24l409-696 410 696q10 17 20 24t31 7h154q15 0 21-9t-1-22L834 645h204q31 0 31-31V512q0-31-31-31H752V369h286q31 0 31-31V236q0-31-31-31z"/><glyph unicode="¦" horiz-adv-x="686" d="M440 1403V727q0-31-30-31H276q-30 0-30 31v676q0 31 30 31h134q30 0 30-31zm0-1086v-675q0-31-30-31H276q-30 0-30 31v675q0 31 30 31h134q30 0 30-31z"/><glyph unicode="§" horiz-adv-x="1187" d="M799 676L471 778q-6-1-16.5-4t-37-17-47-33.5-37-56.5-16.5-83V461q0-71 72-92l328-103q6 1 16.5 4t37 17.5 46.5 34 36.5 56.5 16.5 83v123q0 68-71 92zm-635 399v41q0 154 83.5 236t244.5 82h204q161 0 244.5-82t83.5-236v-20q0-31-31-31H881q-31 0-31 31v20q0 69-42.5 111.5T696 1270H492q-69 0-111.5-42.5T338 1116v-41q0-67 72-92l471-154q78-26 120.5-81.5T1044 584V461q0-55-17-99t-41-68.5-47.5-41T898 230l-17-5v-20q6-2 15.5-6t34-21.5 43.5-41 34.5-68T1024-31v-61q0-154-83.5-236T696-410H492q-161 0-244.5 82T164-92v20q0 31 31 31h112q31 0 31-31v-20q0-69 42.5-111.5T492-246h204q69 0 111.5 42.5T850-92v61q0 67-72 92L307 215q-78 26-121 82t-43 164v123q0 55 17 99t41 68.5 48 40.5 41 22l17 5v21q-6 2-15.5 5.5t-34 21-43.5 41-34.5 68T164 1075z"/><glyph unicode="¨" horiz-adv-x="675" d="M215 1249H92q-31 0-31 31v123q0 31 31 31h123q31 0 31-31v-123q0-31-31-31zm369 0H461q-31 0-31 31v123q0 31 31 31h123q30 0 30-31v-123q0-31-30-31z"/><glyph unicode="©" horiz-adv-x="1822" d="M184 358v717q0 359 369 359h717q368 0 368-359V358q0-358-368-358H553Q184 0 184 358zm1260 0v717q0 85-44.5 129.5T1270 1249H553q-85 0-129.5-44.5T379 1075V358q0-85 44.5-129.5T553 184h717q85 0 129.5 44.5T1444 358zM768 860V573q0-23 14-37t37-14h185q23 0 37 14t14 37v31q0 9 6 15t14 6h113q8 0 14-6t6-15v-31q0-100-52-152t-152-52H819q-100 0-152.5 52T614 573v287q0 100 52.5 152.5T819 1065h185q100 0 152-52.5t52-152.5v-31q0-9-6-14.5t-14-5.5h-113q-8 0-14 5.5t-6 14.5v31q0 23-14 37t-37 14H819q-23 0-37-14t-14-37z"/><glyph unicode="ª" horiz-adv-x="768" d="M532 1014v30H287q-23 0-37-14t-14-37v-30q0-23 14-37.5t37-14.5h143q46 0 74 28.5t28 74.5zm-276 215q0-21-20-21H123q-21 0-21 21 0 205 226 205h112q137 0 191.5-52.5T686 1198V819q0-20-20-20H553q-21 0-21 20v37h-10q-1-3-4-8.5t-13.5-19T480 805t-38-18.5-53-8.5h-82q-113 0-169 49T82 963v20q0 86 53.5 135t151.5 49h245v31q0 92-92 92H328q-30 0-51-18.5t-21-42.5z"/><glyph unicode="«" horiz-adv-x="1009" d="M532 922L276 522l256-399q8-15 2-23t-22-8H389q-21 0-30.5 7T338 123L82 522l256 400q8 11 12 16t14 9.5 25 4.5h123q16 0 22-7.5t-2-22.5zm390 0L666 522l256-399q8-15 1.5-23T901 92H778q-21 0-30.5 7T727 123L471 522l256 400q8 11 12 16t14 9.5 25 4.5h123q16 0 22.5-7.5T922 922z"/><glyph unicode="¬" horiz-adv-x="911" d="M61 686v123q0 31 31 31h727q31 0 31-31V461q0-31-31-31H707q-31 0-31 31v194H92q-31 0-31 31z"/><glyph unicode="­" horiz-adv-x="890" d="M829 696V573q0-30-30-30H92q-31 0-31 30v123q0 31 31 31h707q30 0 30-31z"/><glyph unicode="®" horiz-adv-x="1822" d="M1055 860q0 23-14 37t-37 14H768V737h236q23 0 37 14t14 37v72zm8-471L952 584H768V389q0-7-6-13.5t-14-6.5H635q-8 0-14.5 6.5T614 389v655q0 8 7 14.5t14 6.5h369q100 0 152-52.5t52-152.5v-72q0-43-11.5-77t-28-51.5-33-28.5-27.5-14l-12-3 133-225q4-7 1-13.5t-11-6.5h-123q-8 0-18.5 6.5T1063 389zm-879-31v717q0 359 369 359h717q368 0 368-359V358q0-358-368-358H553Q184 0 184 358zm1260 0v717q0 85-44.5 129.5T1270 1249H553q-85 0-129.5-44.5T379 1075V358q0-85 44.5-129.5T553 184h717q85 0 129.5 44.5T1444 358z"/><glyph unicode="¯" horiz-adv-x="696" d="M635 1403v-82q0-31-31-31H92q-31 0-31 31v82q0 31 31 31h512q31 0 31-31z"/><glyph unicode="°" horiz-adv-x="819" d="M369 922h82q46 0 79 33t33 79v144q0 46-33 79t-79 33h-82q-46 0-79.5-33t-33.5-79v-144q0-46 33.5-79t79.5-33zm82-144h-82q-138 0-202.5 62.5T102 1034v144q0 131 64.5 193.5T369 1434h82q137 0 201.5-62.5T717 1178v-144q0-131-64.5-193.5T451 778z"/><glyph unicode="±" horiz-adv-x="972" d="M389 348v307H113q-31 0-31 31v123q0 31 31 31h276v307q0 31 31 31h133q31 0 31-31V840h276q31 0 31-31V686q0-31-31-31H584V348h266q31 0 31-31V195q0-31-31-31H123q-31 0-31 31v122q0 31 31 31h266z"/><glyph unicode="²" horiz-adv-x="665" d="M604 1423q0-97-92-153l-236-133v-11h287q21 0 21-20v-102q0-21-21-21H82q-21 0-21 21v122q0 22 7.5 33t23.5 19l297 174q7 3 17.5 9.5t27.5 25 17 36.5v11q0 61-62 61H287q-30 0-51-18.5t-21-42.5q0-21-20-21H82q-21 0-21 21 0 204 226 204h102q123 0 169-44t46-160v-11z"/><glyph unicode="³" horiz-adv-x="665" d="M225 1403l133 82v10H92q-20 0-20 21v102q0 20 20 20h481q21 0 21-20v-102q0-26-31-41l-133-82v-11q91 0 132.5-37.5T604 1229v-41q0-116-46-160.5T389 983H287q-226 0-226 205 0 20 21 20h113q20 0 20-20 0-24 21-43t51-19h102q62 0 62 62v41q0 61-62 61H215q-7 0-13.5 6.5T195 1311v51q0 26 30 41z"/><glyph unicode="´" horiz-adv-x="460" d="M393 1403l-184-277q-18-30-41-30H86q-32 0-20 30l122 277q16 31 41 31h144q16 0 22-9t-2-22z"/><glyph unicode="µ" horiz-adv-x="1218" d="M645-20H492q-45 0-83.5 18T354 34l-16 17v-409q0-31-31-31H195q-31 0-31 31v1372q0 27 22 30h121q18 0 25-10 6-9 6-20V297q0-69 42.5-111.5T492 143h174q92 0 153.5 61.5T881 358v656q0 30 30 30h113q31 0 31-30V31q0-31-31-31H911q-30 0-30 31v71h-11q-2-5-6.5-13T841 60t-41.5-37.5T735-7t-90-13z"/><glyph unicode="¶" horiz-adv-x="1331" d="M471 676q-169 0-258.5 89.5T123 1024v61q0 170 91 259.5t267 89.5h615q30 0 30-31V-51q0-359-368-359H338q-31 0-31 31v113q0 30 31 30h102q31 0 31 31v881zm184-912h103q184 0 184 185v1311H655V-236z"/><glyph unicode="·" horiz-adv-x="409" d="M266 522H143q-30 0-30 31v123q0 31 30 31h123q31 0 31-31V553q0-31-31-31z"/><glyph unicode="¸" horiz-adv-x="501" d="M92-410h154q31 0 51 20.5t20 51.5v21q0 31-20 51t-51 20H113q-31 0-31 31v72q0 18 5 33.5T97-88l5 6 52 82h112l-71-123h51q85 0 139.5-54.5T440-317v-21q0-85-54.5-139.5T246-532H92q-31 0-31 30v62q0 30 31 30z"/><glyph unicode="¹" horiz-adv-x="481" d="M246 1495H82q-21 0-21 21v102q0 20 21 20h297q20 0 20-20v-614q0-21-20-21H266q-20 0-20 21v491z"/><glyph unicode="º" horiz-adv-x="716" d="M655 1178v-144q0-139-60-197.5T389 778h-61q-146 0-206.5 58.5T61 1034v144q0 139 60.5 197.5T328 1434h61q146 0 206-58.5t60-197.5zm-440 0v-144q0-54 29.5-83t83.5-29h61q54 0 83.5 29t29.5 83v144q0 54-29.5 83t-83.5 29h-61q-54 0-83.5-29t-29.5-83z"/><glyph unicode="»" horiz-adv-x="1009" d="M733 522L477 922q-8 15-1.5 22.5T498 952h123q21 0 30.5-7t20.5-23l256-400-256-399q-8-12-12-17t-14-9.5-25-4.5H498q-16 0-22.5 8t1.5 23zm-389 0L88 922q-8 15-1.5 22.5T109 952h122q15 0 25-4t15-9.5 12-16.5l256-400-256-399q-8-11-12.5-16.5t-14.5-10-25-4.5H109q-16 0-22.5 8t1.5 23z"/><glyph unicode="¼" horiz-adv-x="1464" d="M256 31l645 1372q15 31 41 31h143q16 0 22-8t-1-23L461 31Q446 0 420 0H276q-16 0-21.5 8t1.5 23zm-31 1259H61q-20 0-20 21v102q0 21 20 21h297q21 0 21-21V799q0-21-21-21H246q-21 0-21 21v491zm1065-655V266h72q20 0 20-20v-82q0-21-20-21h-72V20q0-20-20-20h-113q-20 0-20 20v123H809q-21 0-21 21v72q0 9 5 21.5t11 20.5l5 9 256 348q16 20 41 20h164q20 0 20-20zM952 266h185v246h-11L952 276v-10z"/><glyph unicode="½" horiz-adv-x="1495" d="M256 31l645 1372q15 31 41 31h143q16 0 22-8t-1-23L461 31Q446 0 420 0H276q-16 0-21.5 8t1.5 23zm-31 1259H61q-20 0-20 21v102q0 21 20 21h297q21 0 21-21V799q0-21-21-21H246q-21 0-21 21v491zm1188-850q0-97-92-153l-236-133v-11h287q21 0 21-20V20q0-20-21-20H891q-21 0-21 20v123q0 37 31 52l297 174q7 3 17.5 9.5t27.5 25 17 36.5v11q0 61-62 61h-102q-30 0-51-18.5t-21-42.5q0-21-20-21H891q-21 0-21 21 0 204 226 204h102q123 0 169-44t46-160v-11z"/><glyph unicode="¾" horiz-adv-x="1576" d="M369 31l645 1372q16 31 41 31h143q16 0 22-8t-1-23L573 31Q558 0 532 0H389q-16 0-21.5 8t1.5 23zm1034 604V266h72q20 0 20-20v-82q0-21-20-21h-72V20q0-20-21-20h-112q-21 0-21 20v123H922q-21 0-21 21v72q0 9 5.5 21.5T917 278l5 9 256 348q16 20 41 20h163q21 0 21-20zm-338-369h184v246h-10l-174-236v-10zm-860 932l133 82v10H72q-21 0-21 21v102q0 21 21 21h481q20 0 20-21v-102q0-26-30-41l-133-82v-10q83 0 128.5-42t45.5-112v-41q0-116-46-160.5T369 778H266Q41 778 41 983q0 21 20 21h113q21 0 21-21 0-24 20.5-42.5T266 922h103q61 0 61 61v41q0 61-61 61H195q-7 0-14 6.5t-7 14.5v51q0 25 31 41z"/><glyph unicode="¿" horiz-adv-x="1187" d="M492 492h81l21 112q6 31 31 31h82q27 0 30-31l31-266q0-31-31-31H492q-85 0-130-44.5T317 133V-51q0-85 45-129.5T492-225h307q85 0 129.5 44.5T973-51v61q0 31 31 31h133q30 0 30-31v-61q0-359-368-359H492q-369 0-369 359v184q0 359 369 359zm112 552h123q31 0 31-30V891q0-31-31-31H604q-31 0-31 31v123q0 30 31 30z"/><glyph unicode="À" horiz-adv-x="1359" d="M434 553h492l-242 655h-8zm563-184H362L240 31Q228 0 188 0H45Q13 0 25 31l532 1372q15 31 51 31h144q36 0 51-31L1335 31q12-31-20-31h-144q-39 0-51 31zM578 1628l-185 277q-8 13-1.5 21.5t22.5 8.5h143q26 0 41-30l123-277q12-31-21-31h-82q-14 0-22 7t-18 24z"/><glyph unicode="Á" horiz-adv-x="1359" d="M434 553h492l-242 655h-8zm563-184H362L240 31Q228 0 188 0H45Q13 0 25 31l532 1372q15 31 51 31h144q36 0 51-31L1335 31q12-31-20-31h-144q-39 0-51 31zm-30 1536l-185-277q-10-17-18.5-24t-22.5-7h-82q-32 0-20 31l123 277q15 30 41 30h143q16 0 22.5-8.5T967 1905z"/><glyph unicode="Â" horiz-adv-x="1359" d="M434 553h492l-242 655h-8zm563-184H362L240 31Q228 0 188 0H45Q13 0 25 31l532 1372q15 31 51 31h144q36 0 51-31L1335 31q12-31-20-31h-144q-39 0-51 31zM633 1956h92q26 0 51-31l225-297q10-14 3-22.5t-23-8.5H868q-19 0-41 31l-143 195h-10l-144-195q-22-31-41-31H377q-16 0-23 8.5t2 22.5l226 297q25 31 51 31z"/><glyph unicode="Ã" horiz-adv-x="1359" d="M434 553h492l-242 655h-8zm563-184H362L240 31Q228 0 188 0H45Q13 0 25 31l532 1372q15 31 51 31h144q36 0 51-31L1335 31q12-31-20-31h-144q-39 0-51 31zM819 1597q-49 0-89.5 25.5T667 1679t-44.5 56.5T584 1761q-15 0-28-13t-13-28v-92q0-31-31-31h-72q-30 0-30 31v123q0 61 41 102t102 41q49 0 89.5-25.5t62.5-56 44.5-56T788 1731q15 0 28 13t13 28v92q0 30 31 30h72q31 0 31-30v-123q0-61-41.5-102.5T819 1597z"/><glyph unicode="Ä" horiz-adv-x="1359" d="M434 553h492l-242 655h-8zm563-184H362L240 31Q228 0 188 0H45Q13 0 25 31l532 1372q15 31 51 31h144q36 0 51-31L1335 31q12-31-20-31h-144q-39 0-51 31zM563 1638H440q-30 0-30 31v123q0 31 30 31h123q31 0 31-31v-123q0-31-31-31zm369 0H809q-31 0-31 31v123q0 31 31 31h123q31 0 31-31v-123q0-31-31-31z"/><glyph unicode="Å" horiz-adv-x="1359" d="M434 553h492l-242 655h-8zm563-184H362L240 31Q228 0 188 0H45Q13 0 25 31l532 1372q15 31 51 31h144q36 0 51-31L1335 31q12-31-20-31h-144q-39 0-51 31zM573 1823v-51q0-38 22-60t60-22h41q38 0 60 22t22 60v51q0 38-22 60t-60 22h-41q-38 0-60-22t-22-60zm-122-51v51q0 85 56 139.5t148 54.5h41q92 0 148.5-54.5T901 1823v-51q0-85-56.5-140T696 1577h-41q-91 0-147.5 54.5T451 1772z"/><glyph unicode="Æ" horiz-adv-x="2146" d="M1235 184h799q30 0 30-30V31q0-31-28-31h-965q-31 0-31 31v338H334L201 31Q186 0 150 0H27Q11 0 4.5 8T4 31l535 1372q15 31 49 31h1425q31 0 31-31v-123q0-31-29-31h-780V819h594q31 0 31-31V666q0-31-29-31h-596V184zm-195 369v696H672L406 553h634z"/><glyph unicode="Ç" horiz-adv-x="1536" d="M670-410h153q31 0 51.5 20.5T895-338v21q0 31-20.5 51T823-246H690q-31 0-31 31v72q0 18 5.5 33.5T675-88l5 6 37 62H553q-369 0-369 358v758q0 358 369 358h471q369 0 369-358v-82q0-31-31-31h-133q-31 0-31 31v82q0 85-44.5 129.5T1024 1270H553q-85 0-129.5-44.5T379 1096V338q0-85 44.5-129.5T553 164h471q85 0 129.5 44.5T1198 338v82q0 31 31 31h133q31 0 31-31v-82q0-358-369-358H829l-57-103h51q85 0 140-54.5t55-139.5v-21q0-85-55-139.5T823-532H670q-31 0-31 30v62q0 30 31 30z"/><glyph unicode="È" horiz-adv-x="1392" d="M399 184h881q31 0 31-30V31q0-31-29-31H236q-31 0-31 31v1370q0 33 31 33h1024q30 0 30-31v-123q0-31-28-31H399V819h676q31 0 31-31V666q0-31-29-31H399V184zm293 1444l-184 277q-8 13-2 21.5t22 8.5h144q26 0 41-30l123-277q12-31-21-31h-82q-14 0-22.5 7t-18.5 24z"/><glyph unicode="É" horiz-adv-x="1392" d="M399 184h881q31 0 31-30V31q0-31-29-31H236q-31 0-31 31v1370q0 33 31 33h1024q30 0 30-31v-123q0-31-28-31H399V819h676q31 0 31-31V666q0-31-29-31H399V184zm607 1721l-185-277q-10-17-18.5-24t-22.5-7h-82q-32 0-20 31l123 277q15 30 41 30h143q16 0 22.5-8.5t-1.5-21.5z"/><glyph unicode="Ê" horiz-adv-x="1392" d="M399 184h881q31 0 31-30V31q0-31-29-31H236q-31 0-31 31v1370q0 33 31 33h1024q30 0 30-31v-123q0-31-28-31H399V819h676q31 0 31-31V666q0-31-29-31H399V184zm314 1772h92q26 0 51-31l225-297q10-14 3-22.5t-23-8.5H948q-19 0-41 31l-143 195h-10l-144-195q-22-31-41-31H457q-16 0-23 8.5t2 22.5l226 297q25 31 51 31z"/><glyph unicode="Ë" horiz-adv-x="1392" d="M399 184h881q31 0 31-30V31q0-31-29-31H236q-31 0-31 31v1370q0 33 31 33h1024q30 0 30-31v-123q0-31-28-31H399V819h676q31 0 31-31V666q0-31-29-31H399V184zm226 1475H502q-31 0-31 31v122q0 31 31 31h123q30 0 30-31v-122q0-31-30-31zm368 0H870q-30 0-30 31v122q0 31 30 31h123q31 0 31-31v-122q0-31-31-31z"/><glyph unicode="Ì" horiz-adv-x="593" d="M195 31v1372q0 31 30 31h133q31 0 31-31V31q0-31-31-31H225q-30 0-30 31zm16 1597L27 1905q-8 13-2 21.5t22 8.5h143q26 0 41-30l123-277q12-31-20-31h-82q-14 0-22.5 7t-18.5 24z"/><glyph unicode="Í" horiz-adv-x="604" d="M205 31v1372q0 31 31 31h133q30 0 30-31V31q0-31-30-31H236q-31 0-31 31zm373 1874l-185-277q-10-17-18.5-24t-22.5-7h-82q-32 0-20 31l123 277q15 30 41 30h143q16 0 22.5-8.5T578 1905z"/><glyph unicode="Î" horiz-adv-x="616" d="M205 31v1372q0 31 31 31h133q30 0 30-31V31q0-31-30-31H236q-31 0-31 31zm57 1925h92q27 0 52-31l225-297q9-14 2-22.5t-23-8.5H498q-19 0-41 31l-144 195h-10l-143-195q-22-31-41-31H6q-16 0-23 8.5t3 22.5l225 297q25 31 51 31z"/><glyph unicode="Ï" horiz-adv-x="593" d="M195 31v1372q0 31 30 31h133q31 0 31-31V31q0-31-31-31H225q-30 0-30 31zm-21 1607H51q-31 0-31 31v123q0 31 31 31h123q31 0 31-31v-123q0-31-31-31zm369 0H420q-31 0-31 31v123q0 31 31 31h123q30 0 30-31v-123q0-31-30-31z"/><glyph unicode="Ð" horiz-adv-x="1648" d="M287 1434h809q368 0 368-359V358q0-358-368-358H287q-31 0-31 31v583H113q-31 0-31 31v123q0 31 31 31h143v604q0 31 31 31zm512-666V645q0-31-31-31H451V184h645q85 0 129.5 44.5T1270 358v717q0 85-44.5 129.5T1096 1249H451V799h317q31 0 31-31z"/><glyph unicode="Ñ" horiz-adv-x="1597" d="M1208 0q-42 0-61 31L410 1137h-11V31q0-31-30-31H236q-31 0-31 31v1372q0 31 31 31h153q43 0 62-31l737-1106h10v1106q0 31 31 31h133q31 0 31-31V31q0-31-31-31h-154zM942 1597q-49 0-89.5 25.5T790 1679t-44.5 56.5T707 1761q-15 0-28-13t-13-28v-92q0-31-31-31h-72q-31 0-31 31v123q0 61 41 102t103 41q49 0 89.5-25.5t62.5-56 44.5-56T911 1731q15 0 28 13t13 28v92q0 30 31 30h72q30 0 30-30v-123q0-62-41-103t-102-41z"/><glyph unicode="Ò" horiz-adv-x="1617" d="M184 338v758q0 358 369 358h512q369 0 369-358V338q0-358-369-358H553q-369 0-369 358zm1055 0v758q0 85-44.5 129.5T1065 1270H553q-85 0-129.5-44.5T379 1096V338q0-85 44.5-129.5T553 164h512q85 0 129.5 44.5T1239 338zM733 1649l-184 276q-8 13-2 22t22 9h144q25 0 41-31l123-276q12-31-21-31h-82q-14 0-22.5 7t-18.5 24z"/><glyph unicode="Ó" horiz-adv-x="1617" d="M184 338v758q0 358 369 358h512q369 0 369-358V338q0-358-369-358H553q-369 0-369 358zm1055 0v758q0 85-44.5 129.5T1065 1270H553q-85 0-129.5-44.5T379 1096V338q0-85 44.5-129.5T553 164h512q85 0 129.5 44.5T1239 338zm-149 1587l-185-276q-10-17-18.5-24t-22.5-7h-82q-32 0-20 31l123 276q15 31 41 31h143q16 0 22.5-9t-1.5-22z"/><glyph unicode="Ô" horiz-adv-x="1617" d="M184 338v758q0 358 369 358h512q369 0 369-358V338q0-358-369-358H553q-369 0-369 358zm1055 0v758q0 85-44.5 129.5T1065 1270H553q-85 0-129.5-44.5T379 1096V338q0-85 44.5-129.5T553 164h512q85 0 129.5 44.5T1239 338zM764 1976h92q27 0 51-30l226-297q9-13 2-22t-23-9H999q-19 0-41 31l-143 194h-10l-143-194q-22-31-41-31H508q-16 0-23 9t2 22l226 297q24 30 51 30z"/><glyph unicode="Õ" horiz-adv-x="1617" d="M184 338v758q0 358 369 358h512q369 0 369-358V338q0-358-369-358H553q-369 0-369 358zm1055 0v758q0 85-44.5 129.5T1065 1270H553q-85 0-129.5-44.5T379 1096V338q0-85 44.5-129.5T553 164h512q85 0 129.5 44.5T1239 338zM942 1597q-49 0-89.5 25.5T790 1679t-44.5 56.5T707 1761q-15 0-28-13t-13-28v-92q0-31-31-31h-72q-31 0-31 31v123q0 61 41 102t103 41q49 0 89.5-25.5t62.5-56 44.5-56T911 1731q15 0 28 13t13 28v92q0 30 31 30h72q30 0 30-30v-123q0-62-41-103t-102-41z"/><glyph unicode="Ö" horiz-adv-x="1617" d="M184 338v758q0 358 369 358h512q369 0 369-358V338q0-358-369-358H553q-369 0-369 358zm1055 0v758q0 85-44.5 129.5T1065 1270H553q-85 0-129.5-44.5T379 1096V338q0-85 44.5-129.5T553 164h512q85 0 129.5 44.5T1239 338zM686 1679H563q-31 0-31 31v123q0 31 31 31h123q31 0 31-31v-123q0-31-31-31zm369 0H932q-31 0-31 31v123q0 31 31 31h123q30 0 30-31v-123q0-31-30-31z"/><glyph unicode="×" horiz-adv-x="856" d="M766 850L551 635l215-215q8-8 8-21t-8-20l-82-82q-8-7-21-7t-20 7L428 512 213 297q-7-7-20-7t-21 7l-82 82q-8 7-8 20t8 21l215 215L90 850q-8 8-8 21t8 20l82 82q8 7 21 7t20-7l215-215 215 215q7 7 20 7t21-7l82-82q8-7 8-20t-8-21z"/><glyph unicode="Ø" horiz-adv-x="1617" d="M1239 1096q0 18-2.5 33.5t-4.5 21.5l-3 6-737-983q30-10 61-10h512q85 0 129.5 44.5T1239 338v758zm-860 0V338q0-18 2.5-33.5T386 282l3-6 737 984q-30 10-61 10H553q-85 0-129.5-44.5T379 1096zM184 338v758q0 358 369 358h512q369 0 369-358V338q0-358-369-358H553q-369 0-369 358z"/><glyph unicode="Ù" horiz-adv-x="1597" d="M1393 1403V338q0-358-369-358H573q-368 0-368 358v1065q0 31 31 31h133q30 0 30-31V338q0-85 44.5-129.5T573 164h451q85 0 129.5 44.5T1198 338v1065q0 31 31 31h133q31 0 31-31zm-658 225l-184 277q-8 13-2 21.5t22 8.5h144q26 0 41-30l123-277q12-31-21-31h-82q-14 0-22.5 7t-18.5 24z"/><glyph unicode="Ú" horiz-adv-x="1597" d="M1393 1403V338q0-358-369-358H573q-368 0-368 358v1065q0 31 31 31h133q30 0 30-31V338q0-85 44.5-129.5T573 164h451q85 0 129.5 44.5T1198 338v1065q0 31 31 31h133q31 0 31-31zm-346 502l-185-277q-10-17-18.5-24t-22.5-7h-82q-32 0-20 31l123 277q15 30 41 30h143q16 0 22.5-8.5t-1.5-21.5z"/><glyph unicode="Û" horiz-adv-x="1597" d="M1393 1403V338q0-358-369-358H573q-368 0-368 358v1065q0 31 31 31h133q30 0 30-31V338q0-85 44.5-129.5T573 164h451q85 0 129.5 44.5T1198 338v1065q0 31 31 31h133q31 0 31-31zm-639 573h92q27 0 51-30l225-297q10-13 3-22t-23-9H989q-19 0-41 31l-143 194h-10l-144-194q-22-31-41-31H498q-16 0-23 9t2 22l225 297q24 30 52 30z"/><glyph unicode="Ü" horiz-adv-x="1597" d="M1393 1403V338q0-358-369-358H573q-368 0-368 358v1065q0 31 31 31h133q30 0 30-31V338q0-85 44.5-129.5T573 164h451q85 0 129.5 44.5T1198 338v1065q0 31 31 31h133q31 0 31-31zm-727 276H543q-31 0-31 31v123q0 31 31 31h123q30 0 30-31v-123q0-31-30-31zm368 0H911q-30 0-30 31v123q0 31 30 31h123q31 0 31-31v-123q0-31-31-31z"/><glyph unicode="Ý" horiz-adv-x="1318" d="M250 1403l409-696 410 696q10 17 20 24t31 7h154q15 0 21-9t-1-22L752 502V29q0-29-31-29H598q-31 0-31 29v473L25 1403q-7 13-1 22t21 9h154q21 0 31-7t20-24zm694 502l-184-277q-10-17-18.5-24t-22.5-7h-82q-33 0-21 31l123 277q15 30 41 30h144q16 0 22-8.5t-2-21.5z"/><glyph unicode="Þ" horiz-adv-x="1566" d="M236 1434h133q30 0 30-31v-154h635q369 0 369-358V543q0-359-369-359H399V31q0-31-30-31H236q-31 0-31 31v1372q0 31 31 31zm972-891v348q0 85-44.5 129.5T1034 1065H399V369h635q85 0 129.5 44.5T1208 543z"/><glyph unicode="ß" horiz-adv-x="1218" d="M338 1116V31q0-31-31-31H195q-31 0-31 31v1085q0 154 83.5 236t244.5 82h174q160 0 243.5-81.5T993 1116V942q0-43-10.5-78T957 810t-30-31.5-25-16.5l-11-4v-10q4-1 11.5-2.5t29-8.5 40.5-17 43-29 41-42.5 28.5-59T1096 512V317q0-154-83.5-235.5T768 0H666q-31 0-31 31v102q0 31 31 31h100q70 0 113 42t43 111v195q0 61-36 97t-98 36H635q-31 0-31 31v102q0 31 31 31h51q62 0 97.5 35.5T819 942v174q0 69-42 111.5T666 1270H492q-69 0-111.5-42.5T338 1116z"/><glyph unicode="à" horiz-adv-x="1146" d="M123 276v41q0 297 307 297h379v134q0 69-42.5 111T655 901H512q-69 0-111.5-42T358 748q0-31-30-31H215q-31 0-31 31 0 154 83.5 235.5T512 1065h143q161 0 244.5-81.5T983 748V31q0-31-31-31H840q-31 0-31 31v71h-10q-2-5-6.5-13t-23-29T728 22.5 663.5-7 573-20H430q-307 0-307 296zm174 41v-41q0-62 35.5-97.5T430 143h164q92 0 153.5 61.5T809 358v93H430q-61 0-97-36t-36-98zm231 922l-184 277q-8 14-1.5 22t22.5 8h143q26 0 41-30l123-277q12-31-21-31h-82q-14 0-22.5 7t-18.5 24z"/><glyph unicode="á" horiz-adv-x="1146" d="M123 276v41q0 297 307 297h379v134q0 69-42.5 111T655 901H512q-69 0-111.5-42T358 748q0-31-30-31H215q-31 0-31 31 0 154 83.5 235.5T512 1065h143q161 0 244.5-81.5T983 748V31q0-31-31-31H840q-31 0-31 31v71h-10q-2-5-6.5-13t-23-29T728 22.5 663.5-7 573-20H430q-307 0-307 296zm174 41v-41q0-62 35.5-97.5T430 143h164q92 0 153.5 61.5T809 358v93H430q-61 0-97-36t-36-98zm567 1199l-184-277q-10-17-18.5-24t-22.5-7h-82q-32 0-20 31l122 277q15 30 41 30h144q16 0 22-8t-2-22z"/><glyph unicode="â" horiz-adv-x="1146" d="M123 276v41q0 297 307 297h379v134q0 69-42.5 111T655 901H512q-69 0-111.5-42T358 748q0-31-30-31H215q-31 0-31 31 0 154 83.5 235.5T512 1065h143q161 0 244.5-81.5T983 748V31q0-31-31-31H840q-31 0-31 31v71h-10q-2-5-6.5-13t-23-29T728 22.5 663.5-7 573-20H430q-307 0-307 296zm174 41v-41q0-62 35.5-97.5T430 143h164q92 0 153.5 61.5T809 358v93H430q-61 0-97-36t-36-98zm250 1250h92q26 0 51-31l225-297q10-13 3-22t-23-9H782q-19 0-41 31l-143 195h-10l-144-195q-22-31-41-31H291q-16 0-23 9t2 22l226 297q25 31 51 31z"/><glyph unicode="ã" horiz-adv-x="1146" d="M123 276v41q0 297 307 297h379v134q0 69-42.5 111T655 901H512q-69 0-111.5-42T358 748q0-31-30-31H215q-31 0-31 31 0 154 83.5 235.5T512 1065h143q161 0 244.5-81.5T983 748V31q0-31-31-31H840q-31 0-31 31v71h-10q-2-5-6.5-13t-23-29T728 22.5 663.5-7 573-20H430q-307 0-307 296zm174 41v-41q0-62 35.5-97.5T430 143h164q92 0 153.5 61.5T809 358v93H430q-61 0-97-36t-36-98zm410 871q-40 0-74 17t-56.5 41-41 48-34.5 41-30 17q-15 0-28-13t-13-28v-92q0-31-31-31h-71q-31 0-31 31v122q0 62 41 103t102 41q40 0 74-17t56.5-41 41-48 34.5-41 30-17q15 0 28 13t13 28v92q0 31 31 31h71q31 0 31-31v-123q0-61-41-102t-102-41z"/><glyph unicode="ä" horiz-adv-x="1146" d="M123 276v41q0 297 307 297h379v134q0 69-42.5 111T655 901H512q-69 0-111.5-42T358 748q0-31-30-31H215q-31 0-31 31 0 154 83.5 235.5T512 1065h143q161 0 244.5-81.5T983 748V31q0-31-31-31H840q-31 0-31 31v71h-10q-2-5-6.5-13t-23-29T728 22.5 663.5-7 573-20H430q-307 0-307 296zm174 41v-41q0-62 35.5-97.5T430 143h164q92 0 153.5 61.5T809 358v93H430q-61 0-97-36t-36-98zm164 953H338q-31 0-31 30v123q0 31 31 31h123q31 0 31-31v-123q0-30-31-30zm368 0H707q-31 0-31 30v123q0 31 31 31h122q31 0 31-31v-123q0-30-31-30z"/><glyph unicode="å" horiz-adv-x="1146" d="M123 276v41q0 297 307 297h379v134q0 69-42.5 111T655 901H512q-69 0-111.5-42T358 748q0-31-30-31H215q-31 0-31 31 0 154 83.5 235.5T512 1065h143q161 0 244.5-81.5T983 748V31q0-31-31-31H840q-31 0-31 31v71h-10q-2-5-6.5-13t-23-29T728 22.5 663.5-7 573-20H430q-307 0-307 296zm174 41v-41q0-62 35.5-97.5T430 143h164q92 0 153.5 61.5T809 358v93H430q-61 0-97-36t-36-98zm195 1117v-52q0-38 21.5-60t59.5-22h41q38 0 60 22t22 60v52q0 38-22 60t-60 22h-41q-38 0-59.5-22t-21.5-60zm-123-52v52q0 85 56 139.5t148 54.5h41q92 0 148.5-54.5T819 1434v-52q0-85-56.5-139.5T614 1188h-41q-92 0-148 54.5T369 1382z"/><glyph unicode="æ" horiz-adv-x="1802" d="M1628 451H983V297q0-69 42.5-111.5T1137 143h194q69 0 111.5 42.5T1485 297v10q0 31 31 31h112q31 0 31-31v-10q0-154-83.5-235.5T1331-20h-194q-36 0-68.5 6.5T1012 4t-44.5 24-34 26-23 24T896 96l-5 6h-10q-3-5-9-13t-30-29-54-37.5T706-7 594-20H430q-307 0-307 296v41q0 297 307 297h379v134q0 69-42.5 111T655 901H512q-69 0-111.5-42T358 748q0-31-30-31H215q-31 0-31 31 0 154 83.5 235.5T512 1065h143q49 0 92-12.5t70-30.5 47-36.5 28-31.5l9-12h10q3 5 8.5 13.5T946 985t45 37 63.5 29.5 82.5 13.5h194q161 0 244.5-81.5T1659 748V481q0-30-31-30zM297 317v-41q0-62 35.5-97.5T430 143h164q92 0 153.5 61.5T809 358v93H430q-61 0-97-36t-36-98zm686 297h502v134q0 69-42.5 111T1331 901h-194q-69 0-111.5-42T983 748V614z"/><glyph unicode="ç" horiz-adv-x="1157" d="M481-410h154q31 0 51.5 20.5T707-338v21q0 31-20.5 51T635-246H502q-31 0-31 31v72q0 18 5.5 33.5T487-88l5 6 40 62h-61q-161 0-244.5 81.5T143 297v451q0 154 83.5 235.5T471 1065h236q161 0 244-81.5t83-235.5v-52q0-30-30-30H891q-31 0-31 30v52q0 69-42 111t-111 42H471q-69 0-111.5-42T317 748V297q0-69 42.5-111.5T471 143h236q69 0 111 42.5T860 297v51q0 31 31 31h113q30 0 30-31v-51q0-154-83-235.5T707-20h-62l-61-103h51q85 0 139.5-54.5T829-317v-21q0-85-54.5-139.5T635-532H481q-30 0-30 30v62q0 30 30 30z"/><glyph unicode="è" horiz-adv-x="1187" d="M317 614h553v134q0 69-42 111t-111 42H471q-69 0-111.5-42T317 748V614zm697-163H317V297q0-69 42.5-111.5T471 143h246q69 0 111 42.5T870 297v10q0 31 31 31h113q30 0 30-31v-10q0-154-83-235.5T717-20H471q-161 0-244.5 81.5T143 297v451q0 154 83.5 235.5T471 1065h246q161 0 244-81.5t83-235.5V481q0-30-30-30zm-486 788l-184 277q-8 14-1.5 22t22.5 8h143q26 0 41-30l123-277q12-31-21-31h-82q-14 0-22.5 7t-18.5 24z"/><glyph unicode="é" horiz-adv-x="1187" d="M317 614h553v134q0 69-42 111t-111 42H471q-69 0-111.5-42T317 748V614zm697-163H317V297q0-69 42.5-111.5T471 143h246q69 0 111 42.5T870 297v10q0 31 31 31h113q30 0 30-31v-10q0-154-83-235.5T717-20H471q-161 0-244.5 81.5T143 297v451q0 154 83.5 235.5T471 1065h246q161 0 244-81.5t83-235.5V481q0-30-30-30zM854 1516l-184-277q-10-17-18.5-24t-22.5-7h-82q-33 0-21 31l123 277q15 30 41 30h144q16 0 22-8t-2-22z"/><glyph unicode="ê" horiz-adv-x="1187" d="M317 614h553v134q0 69-42 111t-111 42H471q-69 0-111.5-42T317 748V614zm697-163H317V297q0-69 42.5-111.5T471 143h246q69 0 111 42.5T870 297v10q0 31 31 31h113q30 0 30-31v-10q0-154-83-235.5T717-20H471q-161 0-244.5 81.5T143 297v451q0 154 83.5 235.5T471 1065h246q161 0 244-81.5t83-235.5V481q0-30-30-30zM549 1567h92q26 0 51-31l226-297q9-13 2-22t-23-9H784q-19 0-41 31l-143 195h-10l-144-195q-22-31-40-31H293q-16 0-23 9t2 22l226 297q25 31 51 31z"/><glyph unicode="ë" horiz-adv-x="1187" d="M317 614h553v134q0 69-42 111t-111 42H471q-69 0-111.5-42T317 748V614zm697-163H317V297q0-69 42.5-111.5T471 143h246q69 0 111 42.5T870 297v10q0 31 31 31h113q30 0 30-31v-10q0-154-83-235.5T717-20H471q-161 0-244.5 81.5T143 297v451q0 154 83.5 235.5T471 1065h246q161 0 244-81.5t83-235.5V481q0-30-30-30zm-543 819H348q-31 0-31 30v123q0 31 31 31h123q31 0 31-31v-123q0-30-31-30zm369 0H717q-31 0-31 30v123q0 31 31 31h123q30 0 30-31v-123q0-30-30-30z"/><glyph unicode="ì" horiz-adv-x="501" d="M307 0H195q-31 0-31 31v983q0 30 31 30h112q31 0 31-30V31q0-31-31-31zM170 1239l-184 277q-8 14-2 22t22 8h144q25 0 40-30l123-277q12-31-20-31h-82q-14 0-22.5 7t-18.5 24z"/><glyph unicode="í" horiz-adv-x="512" d="M307 0H195q-31 0-31 31v983q0 30 31 30h112q31 0 31-30V31q0-31-31-31zm219 1516l-184-277q-10-17-18.5-24t-22.5-7h-82q-32 0-20 31l123 277q15 30 40 30h144q16 0 22-8t-2-22z"/><glyph unicode="î" horiz-adv-x="534" d="M328 0H215q-31 0-31 31v983q0 30 31 30h113q30 0 30-30V31q0-31-30-31zM221 1567h92q27 0 52-31l225-297q9-13 2-22t-23-9H457q-19 0-41 31l-144 195h-10l-143-195q-22-31-41-31H-35q-16 0-23 9t3 22l225 297q25 31 51 31z"/><glyph unicode="ï" horiz-adv-x="512" d="M317 0H205q-31 0-31 31v983q0 30 31 30h112q31 0 31-30V31q0-31-31-31zM133 1270H10q-30 0-30 30v123q0 31 30 31h123q31 0 31-31v-123q0-30-31-30zm369 0H379q-31 0-31 30v123q0 31 31 31h123q30 0 30-31v-123q0-30-30-30z"/><glyph unicode="ð" horiz-adv-x="1146" d="M389 1096l41 112-154 52q-32 10-20 40l41 103q8 20 41 10l154-51 40 113q10 33 41 20l103-31q31-12 20-41l-41-112 93-31q256-84 256-338V297q0-154-83.5-235.5T676-20H451q-161 0-244.5 81.5T123 297v225q0 154 83.5 236T451 840h378v102q0 126-153 184l-82 31-41-113q-12-29-41-20l-102 31q-32 8-21 41zm62-953h225q69 0 111 42.5T829 297v379H451q-69 0-111.5-42.5T297 522V297q0-69 42.5-111.5T451 143z"/><glyph unicode="ñ" horiz-adv-x="1218" d="M573 1065h154q161 0 244.5-81.5T1055 748V31q0-31-31-31H911q-30 0-30 31v717q0 69-42.5 111T727 901H553q-92 0-153.5-61.5T338 686V31q0-31-31-31H195q-31 0-31 31v983q0 30 31 30h112q31 0 31-30v-72h10q2 5 6.5 13.5T377 985t41.5 37 64.5 29.5 90 13.5zm164 143q-49 0-89.5 25.5T585 1290t-44.5 56.5T502 1372q-15 0-28-13t-13-28v-92q0-31-31-31h-72q-30 0-30 31v123q0 62 41 102.5t102 40.5q40 0 74-17t56.5-41 41-48 34.5-41 30-17q15 0 28 13t13 28v93q0 30 30 30h72q31 0 31-30v-123q0-62-41.5-103T737 1208z"/><glyph unicode="ò" d="M881 297v451q0 69-42.5 111T727 901H471q-69 0-111.5-42T317 748V297q0-69 42.5-111.5T471 143h256q69 0 111.5 42.5T881 297zm174 451V297q0-154-83.5-235.5T727-20H471q-161 0-244.5 81.5T143 297v451q0 154 83.5 235.5T471 1065h256q161 0 244.5-81.5T1055 748zm-527 491l-184 277q-8 14-1.5 22t22.5 8h143q26 0 41-30l123-277q12-31-21-31h-82q-14 0-22.5 7t-18.5 24z"/><glyph unicode="ó" d="M881 297v451q0 69-42.5 111T727 901H471q-69 0-111.5-42T317 748V297q0-69 42.5-111.5T471 143h256q69 0 111.5 42.5T881 297zm174 451V297q0-154-83.5-235.5T727-20H471q-161 0-244.5 81.5T143 297v451q0 154 83.5 235.5T471 1065h256q161 0 244.5-81.5T1055 748zm-193 768l-184-277q-10-17-18.5-24t-22.5-7h-82q-32 0-20 31l122 277q15 30 41 30h144q16 0 22-8t-2-22z"/><glyph unicode="ô" d="M881 297v451q0 69-42.5 111T727 901H471q-69 0-111.5-42T317 748V297q0-69 42.5-111.5T471 143h256q69 0 111.5 42.5T881 297zm174 451V297q0-154-83.5-235.5T727-20H471q-161 0-244.5 81.5T143 297v451q0 154 83.5 235.5T471 1065h256q161 0 244.5-81.5T1055 748zm-506 819h92q26 0 51-31l226-297q9-13 2-22t-23-9H784q-19 0-41 31l-143 195h-10l-144-195q-22-31-40-31H293q-16 0-23 9t2 22l226 297q25 31 51 31z"/><glyph unicode="õ" d="M881 297v451q0 69-42.5 111T727 901H471q-69 0-111.5-42T317 748V297q0-69 42.5-111.5T471 143h256q69 0 111.5 42.5T881 297zm174 451V297q0-154-83.5-235.5T727-20H471q-161 0-244.5 81.5T143 297v451q0 154 83.5 235.5T471 1065h256q161 0 244.5-81.5T1055 748zm-318 460q-49 0-89.5 25.5T585 1290t-44.5 56.5T502 1372q-15 0-28-13t-13-28v-92q0-31-31-31h-72q-30 0-30 31v123q0 62 41 102.5t102 40.5q40 0 74-17t56.5-41 41-48 34.5-41 30-17q15 0 28 13t13 28v93q0 30 30 30h72q31 0 31-30v-123q0-62-41.5-103T737 1208z"/><glyph unicode="ö" d="M881 297v451q0 69-42.5 111T727 901H471q-69 0-111.5-42T317 748V297q0-69 42.5-111.5T471 143h256q69 0 111.5 42.5T881 297zm174 451V297q0-154-83.5-235.5T727-20H471q-161 0-244.5 81.5T143 297v451q0 154 83.5 235.5T471 1065h256q161 0 244.5-81.5T1055 748zm-574 542H358q-30 0-30 31v123q0 31 30 31h123q31 0 31-31v-123q0-31-31-31zm369 0H727q-31 0-31 31v123q0 31 31 31h123q31 0 31-31v-123q0-31-31-31z"/><glyph unicode="÷" horiz-adv-x="880" d="M819 696V573q0-30-31-30H92q-31 0-31 30v123q0 31 31 31h696q31 0 31-31zM502 143H379q-31 0-31 31v123q0 31 31 31h123q30 0 30-31V174q0-31-30-31zm0 799H379q-31 0-31 31v123q0 30 31 30h123q30 0 30-30V973q0-31-30-31z"/><glyph unicode="ø" d="M1055 748V297q0-154-83.5-235.5T727-20H471q-161 0-244.5 81.5T143 297v451q0 154 83.5 235.5T471 1065h256q161 0 244.5-81.5T1055 748zM881 297v451q0 14-2.5 26.5T873 793l-3 6-471-645q31-11 72-11h256q69 0 111.5 42.5T881 297zm-564 0q0-14 2.5-26.5T325 252l3-6 471 645q-31 10-72 10H471q-69 0-111.5-42T317 748V297z"/><glyph unicode="ù" horiz-adv-x="1218" d="M645-20H492q-161 0-244.5 81.5T164 297v717q0 30 31 30h112q31 0 31-30V297q0-69 42.5-111.5T492 143h174q92 0 153.5 61.5T881 358v656q0 30 30 30h113q31 0 31-30V31q0-31-31-31H911q-30 0-30 31v71h-11q-2-5-6.5-13T841 60t-41.5-37.5T735-7t-90-13zm-96 1239l-184 276q-8 13-2 22t22 9h143q26 0 41-31l123-276q12-31-20-31h-82q-14 0-22.5 7t-18.5 24z"/><glyph unicode="ú" horiz-adv-x="1218" d="M645-20H492q-161 0-244.5 81.5T164 297v717q0 30 31 30h112q31 0 31-30V297q0-69 42.5-111.5T492 143h174q92 0 153.5 61.5T881 358v656q0 30 30 30h113q31 0 31-30V31q0-31-31-31H911q-30 0-30 31v71h-11q-2-5-6.5-13T841 60t-41.5-37.5T735-7t-90-13zm217 1515l-184-276q-10-17-18.5-24t-22.5-7h-82q-32 0-20 31l122 276q15 31 41 31h144q16 0 22-9t-2-22z"/><glyph unicode="û" horiz-adv-x="1218" d="M645-20H492q-161 0-244.5 81.5T164 297v717q0 30 31 30h112q31 0 31-30V297q0-69 42.5-111.5T492 143h174q92 0 153.5 61.5T881 358v656q0 30 30 30h113q31 0 31-30V31q0-31-31-31H911q-30 0-30 31v71h-11q-2-5-6.5-13T841 60t-41.5-37.5T735-7t-90-13zm-78 1566h92q28 0 52-30l225-297q9-13 2-22t-23-9H803q-19 0-41 31l-144 194h-10l-143-194q-22-31-41-31H311q-16 0-23 9t3 22l225 297q24 30 51 30z"/><glyph unicode="ü" horiz-adv-x="1218" d="M645-20H492q-161 0-244.5 81.5T164 297v717q0 30 31 30h112q31 0 31-30V297q0-69 42.5-111.5T492 143h174q92 0 153.5 61.5T881 358v656q0 30 30 30h113q31 0 31-30V31q0-31-31-31H911q-30 0-30 31v71h-11q-2-5-6.5-13T841 60t-41.5-37.5T735-7t-90-13zM492 1249H369q-31 0-31 31v123q0 31 31 31h123q30 0 30-31v-123q0-31-30-31zm368 0H737q-30 0-30 31v123q0 31 30 31h123q31 0 31-31v-123q0-31-31-31z"/><glyph unicode="ý" horiz-adv-x="1042" d="M526 246l287 768q12 30 51 30h123q33 0 21-30L608 0q-85-216-173.5-302.5T209-389h-41q-31 0-31 31v102q0 31 31 31h41q77 0 128 51T434 0L35 1014q-12 30 20 30h123q39 0 51-30l287-768h10zm265 1270l-185-277q-10-17-18.5-24t-22.5-7h-82q-32 0-20 31l123 277q15 30 41 30h143q16 0 22.5-8t-1.5-22z"/><glyph unicode="þ" horiz-adv-x="1187" d="M164-358v1761q0 31 31 31h112q31 0 31-31v-359h379q161 0 244-81.5t83-235.5V317q0-154-83-235.5T717 0H338v-358q0-31-31-31H195q-31 0-31 31zm174 522h379q69 0 111 42t42 111v410q0 69-42 111.5T717 881H338V164z"/><glyph unicode="ÿ" horiz-adv-x="1042" d="M526 246l287 768q12 30 51 30h123q33 0 21-30L608 0q-85-216-173.5-302.5T209-389h-41q-31 0-31 31v102q0 31 31 31h41q77 0 128 51T434 0L35 1014q-12 30 20 30h123q39 0 51-30l287-768h10zM389 1290H266q-30 0-30 31v123q0 31 30 31h123q31 0 31-31v-123q0-31-31-31zm369 0H635q-31 0-31 31v123q0 31 31 31h123q30 0 30-31v-123q0-31-30-31z"/><glyph unicode="Œ" horiz-adv-x="2191" d="M1280 184h799q30 0 30-30V31q0-31-28-31H553Q184 0 184 358v717q0 359 369 359h1505q31 0 31-31v-123q0-31-29-31h-780V819h594q31 0 31-31V666q0-31-29-31h-596V184zM379 358q0-85 44.5-129.5T553 184h532v1065H553q-85 0-129.5-44.5T379 1075V358z"/><glyph unicode="œ" horiz-adv-x="1822" d="M829 297v451q0 69-42 111t-111 42H471q-69 0-111.5-42T317 748V297q0-69 42.5-111.5T471 143h205q69 0 111 42.5T829 297zm175 317h501v134q0 69-42 111t-111 42h-195q-69 0-111-42t-42-111V614zM676-20H471q-161 0-244.5 81.5T143 297v451q0 154 83.5 235.5T471 1065h205q49 0 92-12.5t70-30.5 47-36.5 29-31.5l8-12h10q3 5 8.5 13.5t26 29.5 44.5 37 63.5 29.5 82.5 13.5h195q161 0 244-81.5t83-235.5V481q0-30-30-30h-645V297q0-69 42-111.5t111-42.5h195q69 0 111 42.5t42 111.5v10q0 31 31 31h113q30 0 30-31v-10q0-154-83-235.5T1352-20h-195q-43 0-82 12.5T1011 23t-44 36-27 31l-8 12h-10q-3-5-9-13t-28-29-48-37.5T767.5-7 676-20z"/><glyph unicode="Ÿ" horiz-adv-x="1318" d="M250 1403l409-696 410 696q10 17 20 24t31 7h154q15 0 21-9t-1-22L752 502V29q0-29-31-29H598q-31 0-31 29v473L25 1403q-7 13-1 22t21 9h154q21 0 31-7t20-24zm282 256H410q-31 0-31 31v122q0 31 31 31h122q31 0 31-31v-122q0-31-31-31zm369 0H778q-30 0-30 31v122q0 31 30 31h123q31 0 31-31v-122q0-31-31-31z"/><glyph unicode="ˆ" horiz-adv-x="780" d="M344 1434h92q26 0 51-31l226-297q9-14 2-22.5t-23-8.5H580q-19 0-41 31l-144 194h-10l-143-194q-22-31-41-31H88q-16 0-23 8.5t3 22.5l225 297q25 31 51 31z"/><glyph unicode="˜" horiz-adv-x="675" d="M471 1137q-49 0-89.5 25.5t-62.5 56-44.5 56T236 1300q-15 0-28-12.5t-13-27.5v-93q0-30-31-30H92q-31 0-31 30v123q0 62 41.5 103t102.5 41q49 0 89.5-25.5T357 1352t44.5-56.5T440 1270q15 0 28 13t13 28v92q0 31 31 31h72q30 0 30-31v-123q0-62-41-102.5T471 1137z"/><glyph horiz-adv-x="1008"/><glyph horiz-adv-x="2017"/><glyph horiz-adv-x="1008"/><glyph horiz-adv-x="2017"/><glyph horiz-adv-x="672"/><glyph horiz-adv-x="504"/><glyph horiz-adv-x="336"/><glyph horiz-adv-x="336"/><glyph horiz-adv-x="252"/><glyph horiz-adv-x="403"/><glyph horiz-adv-x="112"/><glyph unicode="‐" horiz-adv-x="890" d="M829 696V573q0-30-30-30H92q-31 0-31 30v123q0 31 31 31h707q30 0 30-31z"/><glyph unicode="‑" horiz-adv-x="890" d="M829 696V573q0-30-30-30H92q-31 0-31 30v123q0 31 31 31h707q30 0 30-31z"/><glyph unicode="‒" horiz-adv-x="890" d="M829 696V573q0-30-30-30H92q-31 0-31 30v123q0 31 31 31h707q30 0 30-31z"/><glyph unicode="–" horiz-adv-x="1208" d="M1147 686V563q0-31-31-31H92q-31 0-31 31v123q0 31 31 31h1024q31 0 31-31z"/><glyph unicode="—" horiz-adv-x="1597" d="M61 563v123q0 31 31 31h1413q31 0 31-31V563q0-31-31-31H92q-31 0-31 31z"/><glyph unicode="‘" horiz-adv-x="339" d="M82 1075v113q0 14 5 29t10 23l5 9 82 164q13 21 31 21h51q7 0 10-7t0-14l-92-184h52q30 0 30-31v-123q0-31-30-31H113q-31 0-31 31z"/><glyph unicode="’" horiz-adv-x="339" d="M258 1403v-113q0-14-5-29t-10-23l-5-9-82-164q-13-21-31-21H74q-7 0-10.5 6.5T63 1065l93 184h-52q-30 0-30 31v123q0 31 30 31h123q31 0 31-31z"/><glyph unicode="‚" horiz-adv-x="339" d="M258 154V41q0-14-5-29t-10-24l-5-8-82-164q-13-21-31-21H74q-7 0-10.5 6.5T63-184L156 0h-52Q74 0 74 31v123q0 30 30 30h123q31 0 31-30z"/><glyph unicode="“" horiz-adv-x="647" d="M389 1075v113q0 14 5.5 29t10.5 23l5 9 82 164q13 21 30 21h51q7 0 10.5-6.5t.5-14.5l-92-184h51q30 0 30-31v-123q0-31-30-31H420q-31 0-31 31zm-307 0v113q0 14 5 29t10 23l5 9 82 164q13 21 31 21h51q7 0 10-7t0-14l-92-184h52q30 0 30-31v-123q0-31-30-31H113q-31 0-31 31z"/><glyph unicode="”" horiz-adv-x="647" d="M258 1403v-113q0-14-5-29t-10-23l-5-9-82-164q-13-21-31-21H74q-7 0-10.5 6.5T63 1065l93 184h-52q-30 0-30 31v123q0 31 30 31h123q31 0 31-31zm307 0v-113q0-14-5-29t-10-23l-5-9-82-164q-13-21-31-21h-51q-7 0-10 7t0 14l92 184h-51q-31 0-31 31v123q0 31 31 31h123q30 0 30-31z"/><glyph unicode="„" horiz-adv-x="647" d="M258 154V41q0-14-5-29t-10-24l-5-8-82-164q-13-21-31-21H74q-7 0-10.5 6.5T63-184L156 0h-52Q74 0 74 31v123q0 30 30 30h123q31 0 31-30zm307 0V41q0-14-5-29t-10-24l-5-8-82-164q-13-21-31-21h-51q-7 0-10 6.5t0 14.5L463 0h-51q-31 0-31 31v123q0 30 31 30h123q30 0 30-30z"/><glyph unicode="•" horiz-adv-x="716" d="M328 788h61q54 0 88.5-34t34.5-88v-52q0-54-34.5-88T389 492h-61q-54 0-88.5 34T205 614v52q0 54 34.5 88t88.5 34z"/><glyph unicode="…" horiz-adv-x="1167" d="M1055 0H932q-31 0-31 31v123q0 30 31 30h123q30 0 30-30V31q0-31-30-31zM645 0H522q-30 0-30 31v123q0 30 30 30h123q31 0 31-30V31q0-31-31-31zM236 0H113Q82 0 82 31v123q0 30 31 30h123q30 0 30-30V31q0-31-30-31z"/><glyph horiz-adv-x="403"/><glyph unicode="‹" horiz-adv-x="641" d="M553 952L276 522 553 92q8-15 1.5-23T532 61H410q-15 0-25 4.5t-14.5 10T358 92L82 522l276 430q8 11 12.5 16.5t14.5 10 25 4.5h122q16 0 22.5-8t-1.5-23z"/><glyph unicode="›" horiz-adv-x="641" d="M365 522L88 952q-8 15-1.5 23t22.5 8h122q22 0 32-7t20-24l276-430L283 92q-10-17-20-24t-32-7H109q-16 0-22.5 8T88 92z"/><glyph horiz-adv-x="504"/><glyph unicode="€" horiz-adv-x="1587" d="M963 625v-93q0-30-31-30H430V338q0-85 44.5-129.5T604 164h471q85 0 129.5 44.5T1249 338v82q0 31 31 31h133q31 0 31-31v-82q0-358-369-358H604q-368 0-368 358v164H133q-31 0-31 30v93q0 30 31 30h103v123H133q-31 0-31 31v92q0 31 31 31h103v164q0 358 368 358h471q369 0 369-358v-82q0-31-31-31h-133q-31 0-31 31v82q0 85-44.5 129.5T1075 1270H604q-85 0-129.5-44.5T430 1096V932h502q31 0 31-31v-92q0-31-31-31H430V655h502q31 0 31-30z"/><glyph unicode="™" horiz-adv-x="1587" d="M236 1290H41q-7 0-14 7t-7 14v102q0 7 7 14t14 7h543q7 0 13.5-6.5t6.5-14.5v-102q0-8-6.5-14.5T584 1290H389V778q0-8-6.5-14t-13.5-6H256q-8 0-14 6t-6 14v512zm845-348h9l200 471q8 21 41 21h133q8 0 14.5-7t6.5-14V778q0-7-6.5-13.5T1464 758h-112q-8 0-14.5 6.5T1331 778v389h-8l-166-389q-8-20-41-20h-61q-33 0-41 20l-166 389h-8V778q0-7-6.5-13.5T819 758H707q-8 0-14.5 6.5T686 778v635q0 7 7 14t14 7h133q33 0 41-21z"/><glyph unicode="◼" horiz-adv-x="1044" d="M0 1044h1044V0H0v1044z"/></font>
</defs>
</svg>
