<svg xmlns="http://www.w3.org/2000/svg" viewBox="0 0 24 24"><path d="M12 2a10 10 0 1010 10A10 10 0 0012 2zm5 8.1v.31a6.81 6.81 0 01-6.86 6.86 6.74 6.74 0 01-3.69-1.08 5.63 5.63 0 00.58 0 4.79 4.79 0 003-1 2.41 2.41 0 01-2.23-1.68 1.75 1.75 0 00.46.05 2.59 2.59 0 00.63-.08A2.42 2.42 0 017 11.11a2.33 2.33 0 001.09.3 2.43 2.43 0 01-.79-3.25 6.84 6.84 0 005 2.53 2.59 2.59 0 01-.07-.55 2.41 2.41 0 012.41-2.41 2.38 2.38 0 011.77.76 4.67 4.67 0 001.49-.59 2.39 2.39 0 01-1.06 1.34 4.55 4.55 0 001.39-.39A5 5 0 0117 10.1z"/></svg>