<svg xmlns="http://www.w3.org/2000/svg" viewBox="0 0 24 24"><path d="M12 10a2 2 0 102 2 2 2 0 00-2-2z"/><path d="M12 2a10 10 0 1010 10A10 10 0 0012 2zm6 12.69A3.32 3.32 0 0114.69 18H9.31A3.32 3.32 0 016 14.69V9.31A3.32 3.32 0 019.31 6h5.38A3.32 3.32 0 0118 9.31z"/><path d="M16.94 9.31a2.25 2.25 0 00-2.25-2.25H9.31a2.25 2.25 0 00-2.25 2.25v5.38a2.25 2.25 0 002.25 2.25h5.38a2.25 2.25 0 002.25-2.25zM12 15.09A3.09 3.09 0 1115.09 12 3.09 3.09 0 0112 15.09zm3.77-5.75a.79.79 0 01-.55.23.83.83 0 01-.55-.23.78.78 0 010-1.11.82.82 0 01.55-.23.78.78 0 01.55 1.33z"/></svg>